G04 EAGLE Gerber RS-274X export*
G75*
%MOMM*%
%FSLAX34Y34*%
%LPD*%
%INTop Copper*%
%IPPOS*%
%AMOC8*
5,1,8,0,0,1.08239X$1,22.5*%
G01*
%ADD10R,0.500000X0.500000*%
%ADD11R,1.000000X1.100000*%
%ADD12R,0.700000X0.900000*%
%ADD13R,0.500000X1.000000*%
%ADD14R,2.540000X0.762000*%
%ADD15R,5.080000X1.270000*%
%ADD16R,0.762000X2.540000*%
%ADD17R,1.270000X5.080000*%
%ADD18R,1.397000X0.762000*%
%ADD19R,1.100000X1.000000*%
%ADD20C,0.914400*%
%ADD21R,0.500000X0.600000*%
%ADD22C,1.200000*%
%ADD23R,0.250000X0.600000*%
%ADD24R,0.600000X0.250000*%
%ADD25R,2.200000X2.200000*%
%ADD26R,3.657600X3.225800*%
%ADD27R,1.879600X3.225800*%
%ADD28C,1.530000*%
%ADD29R,0.558800X1.320800*%
%ADD30R,0.508000X1.320800*%
%ADD31R,5.537200X0.355600*%
%ADD32R,5.537200X3.556000*%
%ADD33R,1.000000X0.500000*%
%ADD34C,1.500000*%
%ADD35R,1.570000X1.570000*%
%ADD36C,1.570000*%
%ADD37C,0.762000*%
%ADD38C,0.558800*%
%ADD39C,6.350000*%
%ADD40C,0.553200*%
%ADD41C,0.508000*%
%ADD42C,0.203200*%
%ADD43C,0.406400*%
%ADD44C,1.016000*%
%ADD45C,0.254000*%
%ADD46C,0.355600*%
%ADD47C,0.152400*%
%ADD48C,0.381000*%
%ADD49C,0.304800*%
%ADD50C,0.457200*%
%ADD51C,0.127000*%

G36*
X284500Y-758D02*
X284500Y-758D01*
X284519Y-760D01*
X284621Y-738D01*
X284723Y-722D01*
X284740Y-712D01*
X284760Y-708D01*
X284849Y-655D01*
X284940Y-606D01*
X284954Y-592D01*
X284971Y-582D01*
X285038Y-503D01*
X285110Y-428D01*
X285118Y-410D01*
X285131Y-395D01*
X285170Y-299D01*
X285213Y-205D01*
X285215Y-185D01*
X285223Y-167D01*
X285241Y0D01*
X285241Y26663D01*
X287050Y28472D01*
X287103Y28546D01*
X287163Y28615D01*
X287175Y28645D01*
X287194Y28672D01*
X287221Y28759D01*
X287255Y28843D01*
X287259Y28884D01*
X287266Y28907D01*
X287265Y28939D01*
X287273Y29010D01*
X287273Y156460D01*
X287259Y156550D01*
X287251Y156641D01*
X287239Y156671D01*
X287234Y156703D01*
X287191Y156783D01*
X287155Y156867D01*
X287129Y156899D01*
X287118Y156920D01*
X287095Y156942D01*
X287050Y156998D01*
X285711Y158337D01*
X285711Y171863D01*
X287050Y173202D01*
X287103Y173276D01*
X287163Y173345D01*
X287175Y173375D01*
X287194Y173402D01*
X287221Y173489D01*
X287255Y173573D01*
X287259Y173614D01*
X287266Y173637D01*
X287265Y173669D01*
X287273Y173740D01*
X287273Y192499D01*
X347509Y252735D01*
X347520Y252751D01*
X347536Y252763D01*
X347592Y252851D01*
X347652Y252935D01*
X347658Y252954D01*
X347669Y252970D01*
X347694Y253071D01*
X347725Y253170D01*
X347724Y253190D01*
X347729Y253209D01*
X347721Y253312D01*
X347718Y253416D01*
X347711Y253434D01*
X347710Y253454D01*
X347670Y253549D01*
X347634Y253647D01*
X347621Y253662D01*
X347614Y253680D01*
X347509Y253811D01*
X346736Y254584D01*
X346736Y257110D01*
X356300Y266674D01*
X358826Y266674D01*
X359599Y265901D01*
X359615Y265890D01*
X359627Y265874D01*
X359715Y265818D01*
X359798Y265758D01*
X359817Y265752D01*
X359834Y265741D01*
X359935Y265716D01*
X360033Y265685D01*
X360053Y265686D01*
X360073Y265681D01*
X360176Y265689D01*
X360279Y265692D01*
X360298Y265698D01*
X360318Y265700D01*
X360413Y265740D01*
X360510Y265776D01*
X360526Y265789D01*
X360544Y265796D01*
X360675Y265901D01*
X370774Y276000D01*
X370801Y276038D01*
X370835Y276069D01*
X370873Y276137D01*
X370918Y276200D01*
X370931Y276244D01*
X370954Y276284D01*
X370967Y276361D01*
X370990Y276435D01*
X370989Y276481D01*
X370997Y276526D01*
X370986Y276603D01*
X370984Y276681D01*
X370968Y276724D01*
X370962Y276770D01*
X370926Y276839D01*
X370900Y276912D01*
X370871Y276948D01*
X370850Y276989D01*
X370794Y277043D01*
X370746Y277104D01*
X370707Y277129D01*
X370674Y277161D01*
X370555Y277227D01*
X370539Y277237D01*
X370534Y277238D01*
X370527Y277242D01*
X370104Y277417D01*
X369978Y277544D01*
X369962Y277555D01*
X369949Y277571D01*
X369862Y277627D01*
X369778Y277687D01*
X369759Y277693D01*
X369742Y277704D01*
X369642Y277729D01*
X369543Y277760D01*
X369523Y277759D01*
X369504Y277764D01*
X369401Y277756D01*
X369297Y277753D01*
X369278Y277746D01*
X369259Y277745D01*
X369164Y277704D01*
X369066Y277669D01*
X369050Y277656D01*
X369032Y277649D01*
X368901Y277544D01*
X368297Y276939D01*
X360771Y276939D01*
X358985Y278725D01*
X358985Y291251D01*
X359976Y292242D01*
X360029Y292316D01*
X360089Y292385D01*
X360101Y292415D01*
X360120Y292442D01*
X360147Y292529D01*
X360181Y292613D01*
X360185Y292654D01*
X360192Y292677D01*
X360191Y292709D01*
X360194Y292737D01*
X361085Y294886D01*
X362720Y296521D01*
X363731Y296940D01*
X363831Y297002D01*
X363884Y297034D01*
X363900Y297042D01*
X363903Y297045D01*
X363931Y297062D01*
X363935Y297067D01*
X363940Y297070D01*
X364015Y297160D01*
X364043Y297193D01*
X364070Y297221D01*
X364073Y297227D01*
X364091Y297249D01*
X364093Y297255D01*
X364097Y297259D01*
X364139Y297368D01*
X364145Y297384D01*
X364173Y297444D01*
X364175Y297456D01*
X364183Y297477D01*
X364184Y297484D01*
X364185Y297489D01*
X364186Y297507D01*
X364201Y297644D01*
X364201Y302763D01*
X365840Y304402D01*
X365882Y304460D01*
X365931Y304512D01*
X365953Y304559D01*
X365984Y304601D01*
X366005Y304670D01*
X366035Y304735D01*
X366041Y304787D01*
X366056Y304837D01*
X366054Y304908D01*
X366062Y304979D01*
X366051Y305030D01*
X366050Y305082D01*
X366025Y305150D01*
X366010Y305220D01*
X365983Y305265D01*
X365965Y305313D01*
X365920Y305369D01*
X365884Y305431D01*
X365844Y305465D01*
X365812Y305505D01*
X365751Y305544D01*
X365697Y305591D01*
X365648Y305610D01*
X365605Y305638D01*
X365535Y305656D01*
X365469Y305683D01*
X365397Y305691D01*
X365366Y305699D01*
X365343Y305697D01*
X365302Y305701D01*
X357737Y305701D01*
X357428Y306010D01*
X357349Y306067D01*
X357274Y306129D01*
X357250Y306138D01*
X357229Y306154D01*
X357136Y306182D01*
X357045Y306217D01*
X357012Y306220D01*
X356994Y306226D01*
X356961Y306225D01*
X356878Y306233D01*
X354643Y306197D01*
X354641Y306197D01*
X353782Y306181D01*
X353708Y306167D01*
X353633Y306163D01*
X353588Y306145D01*
X353540Y306136D01*
X353474Y306100D01*
X353404Y306072D01*
X353367Y306041D01*
X353325Y306017D01*
X353274Y305962D01*
X353217Y305913D01*
X353192Y305871D01*
X353159Y305836D01*
X353129Y305767D01*
X353090Y305702D01*
X353079Y305655D01*
X353060Y305611D01*
X353053Y305535D01*
X353036Y305462D01*
X353040Y305397D01*
X353037Y305366D01*
X353043Y305341D01*
X353046Y305294D01*
X353054Y305247D01*
X352475Y303590D01*
X352475Y303589D01*
X352474Y303587D01*
X351897Y301913D01*
X351871Y301857D01*
X351416Y300554D01*
X349422Y298481D01*
X349375Y298412D01*
X349320Y298348D01*
X349305Y298311D01*
X349283Y298278D01*
X349260Y298198D01*
X349228Y298120D01*
X349223Y298068D01*
X349215Y298042D01*
X349216Y298012D01*
X349210Y297953D01*
X349210Y296913D01*
X343888Y291591D01*
X342900Y291591D01*
X342880Y291588D01*
X342860Y291590D01*
X342759Y291568D01*
X342657Y291552D01*
X342640Y291542D01*
X342620Y291538D01*
X342531Y291485D01*
X342440Y291436D01*
X342426Y291422D01*
X342409Y291412D01*
X342342Y291333D01*
X342270Y291258D01*
X342262Y291240D01*
X342249Y291225D01*
X342210Y291129D01*
X342167Y291035D01*
X342165Y291015D01*
X342157Y290997D01*
X342139Y290830D01*
X342139Y289842D01*
X336817Y284520D01*
X334511Y284520D01*
X334420Y284505D01*
X334328Y284498D01*
X334299Y284486D01*
X334268Y284480D01*
X334187Y284437D01*
X334102Y284401D01*
X334071Y284376D01*
X334051Y284365D01*
X334028Y284342D01*
X333971Y284296D01*
X332046Y282364D01*
X331994Y282290D01*
X331935Y282221D01*
X331922Y282191D01*
X331903Y282164D01*
X331877Y282077D01*
X331843Y281993D01*
X331838Y281951D01*
X331831Y281929D01*
X331832Y281897D01*
X331824Y281827D01*
X331824Y279486D01*
X325796Y273458D01*
X324880Y273458D01*
X324790Y273443D01*
X324699Y273436D01*
X324669Y273423D01*
X324637Y273418D01*
X324556Y273375D01*
X324472Y273340D01*
X324440Y273314D01*
X324419Y273303D01*
X324397Y273280D01*
X324341Y273235D01*
X320862Y269756D01*
X315703Y269756D01*
X315613Y269741D01*
X315522Y269734D01*
X315492Y269721D01*
X315460Y269716D01*
X315379Y269673D01*
X315295Y269638D01*
X315263Y269612D01*
X315243Y269601D01*
X315220Y269578D01*
X315165Y269533D01*
X250160Y204528D01*
X250114Y204464D01*
X250094Y204443D01*
X250090Y204434D01*
X250047Y204385D01*
X250035Y204354D01*
X250016Y204328D01*
X249989Y204241D01*
X249955Y204156D01*
X249951Y204116D01*
X249944Y204093D01*
X249945Y204061D01*
X249937Y203990D01*
X249937Y163968D01*
X247877Y156280D01*
X246520Y153930D01*
X246504Y153889D01*
X246481Y153852D01*
X246461Y153774D01*
X246433Y153700D01*
X246431Y153656D01*
X246421Y153613D01*
X246427Y153534D01*
X246424Y153454D01*
X246436Y153412D01*
X246440Y153368D01*
X246471Y153295D01*
X246494Y153218D01*
X246519Y153182D01*
X246536Y153142D01*
X246627Y153028D01*
X246635Y153017D01*
X246638Y153015D01*
X246641Y153011D01*
X256387Y143265D01*
X256387Y140740D01*
X241310Y125663D01*
X238784Y125663D01*
X214188Y150259D01*
X214188Y152784D01*
X229265Y167861D01*
X231791Y167861D01*
X237972Y161680D01*
X238049Y161624D01*
X238123Y161563D01*
X238149Y161553D01*
X238172Y161536D01*
X238263Y161508D01*
X238352Y161473D01*
X238380Y161472D01*
X238407Y161464D01*
X238502Y161466D01*
X238597Y161462D01*
X238625Y161469D01*
X238653Y161470D01*
X238742Y161503D01*
X238834Y161529D01*
X238857Y161545D01*
X238884Y161555D01*
X238958Y161614D01*
X239037Y161668D01*
X239054Y161691D01*
X239076Y161708D01*
X239127Y161789D01*
X239185Y161865D01*
X239198Y161898D01*
X239209Y161915D01*
X239217Y161947D01*
X239246Y162021D01*
X240088Y165164D01*
X240090Y165188D01*
X240112Y165311D01*
X240282Y167897D01*
X240280Y167916D01*
X240283Y167947D01*
X240283Y202692D01*
X240280Y202712D01*
X240282Y202731D01*
X240260Y202833D01*
X240244Y202935D01*
X240234Y202952D01*
X240230Y202972D01*
X240177Y203061D01*
X240128Y203152D01*
X240114Y203166D01*
X240104Y203183D01*
X240025Y203250D01*
X239950Y203322D01*
X239932Y203330D01*
X239917Y203343D01*
X239821Y203382D01*
X239727Y203425D01*
X239707Y203427D01*
X239689Y203435D01*
X239522Y203453D01*
X204069Y203453D01*
X204050Y203450D01*
X204019Y203452D01*
X201433Y203282D01*
X201410Y203277D01*
X201286Y203258D01*
X198701Y202565D01*
X198614Y202526D01*
X198525Y202493D01*
X198503Y202476D01*
X198477Y202464D01*
X198407Y202399D01*
X198333Y202340D01*
X198318Y202316D01*
X198297Y202297D01*
X198252Y202213D01*
X198200Y202133D01*
X198193Y202105D01*
X198180Y202081D01*
X198163Y201986D01*
X198140Y201894D01*
X198142Y201866D01*
X198137Y201838D01*
X198152Y201744D01*
X198159Y201649D01*
X198170Y201623D01*
X198174Y201595D01*
X198218Y201510D01*
X198255Y201423D01*
X198277Y201395D01*
X198287Y201376D01*
X198311Y201354D01*
X198360Y201292D01*
X204858Y194794D01*
X204858Y192268D01*
X189781Y177192D01*
X187255Y177192D01*
X162660Y201787D01*
X162660Y204313D01*
X177736Y219390D01*
X180262Y219390D01*
X189582Y210070D01*
X189617Y210044D01*
X189647Y210012D01*
X189717Y209973D01*
X189781Y209927D01*
X189823Y209914D01*
X189862Y209892D01*
X189940Y209878D01*
X190017Y209854D01*
X190060Y209855D01*
X190103Y209847D01*
X190183Y209858D01*
X190262Y209861D01*
X190304Y209876D01*
X190347Y209882D01*
X190480Y209940D01*
X190493Y209945D01*
X190496Y209947D01*
X190501Y209949D01*
X192402Y211047D01*
X200090Y213107D01*
X240820Y213107D01*
X240910Y213121D01*
X241001Y213129D01*
X241030Y213141D01*
X241062Y213146D01*
X241143Y213189D01*
X241227Y213225D01*
X241259Y213251D01*
X241280Y213262D01*
X241302Y213285D01*
X241358Y213330D01*
X306363Y278335D01*
X306416Y278409D01*
X306475Y278478D01*
X306488Y278508D01*
X306506Y278534D01*
X306533Y278621D01*
X306567Y278706D01*
X306572Y278747D01*
X306579Y278769D01*
X306578Y278802D01*
X306586Y278873D01*
X306586Y284032D01*
X309557Y287003D01*
X309610Y287077D01*
X309669Y287147D01*
X309681Y287177D01*
X309700Y287203D01*
X309727Y287290D01*
X309761Y287375D01*
X309766Y287416D01*
X309773Y287438D01*
X309772Y287470D01*
X309780Y287542D01*
X309780Y289474D01*
X315808Y295502D01*
X318424Y295502D01*
X318522Y295518D01*
X318621Y295528D01*
X318643Y295538D01*
X318667Y295542D01*
X318754Y295588D01*
X318845Y295629D01*
X318868Y295649D01*
X318884Y295657D01*
X318907Y295681D01*
X318974Y295737D01*
X320631Y297465D01*
X320678Y297534D01*
X320732Y297597D01*
X320747Y297635D01*
X320770Y297668D01*
X320793Y297748D01*
X320824Y297825D01*
X320830Y297878D01*
X320837Y297905D01*
X320836Y297934D01*
X320842Y297992D01*
X320842Y300495D01*
X326164Y305817D01*
X327152Y305817D01*
X327172Y305820D01*
X327191Y305818D01*
X327293Y305840D01*
X327395Y305856D01*
X327412Y305866D01*
X327432Y305870D01*
X327521Y305923D01*
X327612Y305972D01*
X327626Y305986D01*
X327643Y305996D01*
X327710Y306075D01*
X327782Y306150D01*
X327790Y306168D01*
X327803Y306183D01*
X327842Y306279D01*
X327885Y306373D01*
X327887Y306393D01*
X327895Y306411D01*
X327913Y306578D01*
X327913Y307566D01*
X333235Y312888D01*
X335452Y312888D01*
X335476Y312892D01*
X335501Y312889D01*
X335597Y312912D01*
X335695Y312928D01*
X335717Y312939D01*
X335740Y312944D01*
X335888Y313025D01*
X340920Y316534D01*
X341678Y316774D01*
X341690Y316780D01*
X341704Y316783D01*
X341799Y316836D01*
X341897Y316885D01*
X341907Y316895D01*
X341919Y316902D01*
X341993Y316982D01*
X342070Y317061D01*
X342076Y317073D01*
X342085Y317083D01*
X342130Y317183D01*
X342178Y317282D01*
X342179Y317296D01*
X342185Y317308D01*
X342195Y317417D01*
X342209Y317526D01*
X342206Y317539D01*
X342208Y317553D01*
X342182Y317660D01*
X342161Y317767D01*
X342154Y317779D01*
X342151Y317793D01*
X342093Y317886D01*
X342039Y317980D01*
X342028Y317990D01*
X342021Y318001D01*
X341937Y318071D01*
X341855Y318144D01*
X341842Y318149D01*
X341831Y318158D01*
X341678Y318226D01*
X340920Y318466D01*
X335888Y321975D01*
X335866Y321986D01*
X335847Y322002D01*
X335755Y322039D01*
X335666Y322082D01*
X335642Y322085D01*
X335619Y322094D01*
X335452Y322112D01*
X333235Y322112D01*
X327913Y327434D01*
X327913Y328422D01*
X327910Y328442D01*
X327912Y328461D01*
X327890Y328563D01*
X327874Y328665D01*
X327864Y328682D01*
X327860Y328702D01*
X327807Y328791D01*
X327758Y328882D01*
X327744Y328896D01*
X327734Y328913D01*
X327655Y328980D01*
X327580Y329052D01*
X327562Y329060D01*
X327547Y329073D01*
X327451Y329112D01*
X327357Y329155D01*
X327337Y329157D01*
X327319Y329165D01*
X327152Y329183D01*
X326164Y329183D01*
X320842Y334505D01*
X320842Y336786D01*
X320827Y336876D01*
X320820Y336967D01*
X320808Y336997D01*
X320802Y337029D01*
X320760Y337109D01*
X320724Y337193D01*
X320698Y337225D01*
X320687Y337246D01*
X320664Y337268D01*
X320619Y337324D01*
X318669Y339275D01*
X318595Y339328D01*
X318525Y339387D01*
X318495Y339399D01*
X318469Y339418D01*
X318382Y339445D01*
X318297Y339479D01*
X318256Y339484D01*
X318234Y339491D01*
X318202Y339490D01*
X318130Y339498D01*
X315808Y339498D01*
X309780Y345526D01*
X309780Y346950D01*
X309765Y347040D01*
X309758Y347131D01*
X309745Y347161D01*
X309740Y347193D01*
X309697Y347274D01*
X309662Y347358D01*
X309636Y347390D01*
X309625Y347411D01*
X309602Y347433D01*
X309557Y347489D01*
X306332Y350714D01*
X306332Y355873D01*
X306317Y355963D01*
X306310Y356054D01*
X306297Y356084D01*
X306292Y356116D01*
X306249Y356197D01*
X306214Y356281D01*
X306188Y356313D01*
X306177Y356333D01*
X306154Y356356D01*
X306109Y356411D01*
X240850Y421670D01*
X240776Y421723D01*
X240707Y421783D01*
X240676Y421795D01*
X240650Y421814D01*
X240563Y421841D01*
X240478Y421875D01*
X240438Y421879D01*
X240415Y421886D01*
X240383Y421885D01*
X240312Y421893D01*
X200290Y421893D01*
X192602Y423953D01*
X190574Y425124D01*
X190533Y425140D01*
X190496Y425163D01*
X190419Y425183D01*
X190344Y425211D01*
X190300Y425213D01*
X190257Y425223D01*
X190178Y425217D01*
X190098Y425220D01*
X190056Y425208D01*
X190012Y425204D01*
X189939Y425173D01*
X189862Y425150D01*
X189826Y425125D01*
X189786Y425108D01*
X189672Y425017D01*
X189661Y425009D01*
X189659Y425006D01*
X189655Y425003D01*
X180262Y415610D01*
X177736Y415610D01*
X162660Y430687D01*
X162660Y433213D01*
X187255Y457808D01*
X189781Y457808D01*
X204858Y442732D01*
X204858Y440206D01*
X198402Y433751D01*
X198347Y433673D01*
X198286Y433600D01*
X198275Y433574D01*
X198259Y433551D01*
X198231Y433460D01*
X198196Y433371D01*
X198195Y433343D01*
X198187Y433316D01*
X198189Y433220D01*
X198184Y433125D01*
X198192Y433098D01*
X198193Y433070D01*
X198226Y432980D01*
X198252Y432889D01*
X198268Y432865D01*
X198277Y432839D01*
X198337Y432764D01*
X198391Y432686D01*
X198413Y432669D01*
X198431Y432647D01*
X198511Y432595D01*
X198587Y432538D01*
X198620Y432525D01*
X198638Y432514D01*
X198670Y432506D01*
X198744Y432477D01*
X201486Y431742D01*
X201510Y431740D01*
X201633Y431718D01*
X204219Y431548D01*
X204238Y431550D01*
X204269Y431547D01*
X239522Y431547D01*
X239542Y431550D01*
X239561Y431548D01*
X239663Y431570D01*
X239765Y431586D01*
X239782Y431596D01*
X239802Y431600D01*
X239891Y431653D01*
X239982Y431702D01*
X239996Y431716D01*
X240013Y431726D01*
X240080Y431805D01*
X240152Y431880D01*
X240160Y431898D01*
X240173Y431913D01*
X240212Y432009D01*
X240255Y432103D01*
X240257Y432123D01*
X240265Y432141D01*
X240283Y432308D01*
X240283Y467253D01*
X240280Y467272D01*
X240282Y467303D01*
X240112Y469889D01*
X240107Y469912D01*
X240088Y470036D01*
X239288Y473021D01*
X239249Y473108D01*
X239216Y473198D01*
X239198Y473220D01*
X239187Y473245D01*
X239122Y473315D01*
X239062Y473390D01*
X239039Y473405D01*
X239019Y473426D01*
X238936Y473471D01*
X238855Y473523D01*
X238828Y473530D01*
X238803Y473543D01*
X238709Y473559D01*
X238617Y473583D01*
X238589Y473581D01*
X238561Y473585D01*
X238466Y473571D01*
X238372Y473564D01*
X238346Y473553D01*
X238318Y473548D01*
X238233Y473505D01*
X238145Y473467D01*
X238118Y473445D01*
X238099Y473436D01*
X238076Y473412D01*
X238014Y473362D01*
X231791Y467139D01*
X229265Y467139D01*
X214188Y482216D01*
X214188Y484741D01*
X238784Y509337D01*
X241310Y509337D01*
X256387Y494260D01*
X256387Y491735D01*
X246714Y482062D01*
X246689Y482027D01*
X246656Y481997D01*
X246617Y481927D01*
X246571Y481863D01*
X246558Y481821D01*
X246536Y481782D01*
X246522Y481704D01*
X246498Y481627D01*
X246499Y481584D01*
X246491Y481541D01*
X246503Y481461D01*
X246505Y481382D01*
X246520Y481340D01*
X246526Y481297D01*
X246584Y481164D01*
X246589Y481151D01*
X246591Y481148D01*
X246593Y481143D01*
X247877Y478920D01*
X249937Y471232D01*
X249937Y430502D01*
X249951Y430412D01*
X249959Y430321D01*
X249971Y430292D01*
X249976Y430260D01*
X250019Y430179D01*
X250055Y430095D01*
X250081Y430063D01*
X250092Y430042D01*
X250115Y430020D01*
X250160Y429964D01*
X314911Y365213D01*
X314985Y365160D01*
X315054Y365101D01*
X315084Y365088D01*
X315110Y365070D01*
X315197Y365043D01*
X315282Y365009D01*
X315323Y365004D01*
X315345Y364997D01*
X315378Y364998D01*
X315449Y364990D01*
X320608Y364990D01*
X323833Y361765D01*
X323907Y361712D01*
X323977Y361653D01*
X324007Y361640D01*
X324033Y361622D01*
X324120Y361595D01*
X324205Y361561D01*
X324246Y361556D01*
X324268Y361549D01*
X324300Y361550D01*
X324372Y361542D01*
X325796Y361542D01*
X331824Y355514D01*
X331824Y353151D01*
X331839Y353061D01*
X331846Y352970D01*
X331859Y352940D01*
X331864Y352908D01*
X331907Y352827D01*
X331942Y352743D01*
X331968Y352711D01*
X331979Y352691D01*
X332002Y352668D01*
X332047Y352612D01*
X333957Y350703D01*
X334031Y350650D01*
X334100Y350590D01*
X334130Y350578D01*
X334157Y350559D01*
X334243Y350532D01*
X334328Y350498D01*
X334369Y350494D01*
X334392Y350487D01*
X334424Y350488D01*
X334495Y350480D01*
X336817Y350480D01*
X342139Y345158D01*
X342139Y344170D01*
X342142Y344150D01*
X342140Y344130D01*
X342162Y344029D01*
X342178Y343927D01*
X342188Y343910D01*
X342192Y343890D01*
X342245Y343801D01*
X342294Y343710D01*
X342308Y343696D01*
X342318Y343679D01*
X342397Y343612D01*
X342472Y343540D01*
X342490Y343532D01*
X342505Y343519D01*
X342601Y343480D01*
X342695Y343437D01*
X342715Y343435D01*
X342733Y343427D01*
X342900Y343409D01*
X343888Y343409D01*
X349210Y338087D01*
X349210Y337047D01*
X349223Y336964D01*
X349228Y336880D01*
X349243Y336843D01*
X349250Y336804D01*
X349289Y336730D01*
X349320Y336652D01*
X349352Y336611D01*
X349365Y336587D01*
X349386Y336566D01*
X349422Y336519D01*
X351416Y334446D01*
X351871Y333143D01*
X351891Y333105D01*
X352474Y331412D01*
X352475Y331411D01*
X352475Y331410D01*
X353054Y329753D01*
X353046Y329706D01*
X353045Y329630D01*
X353036Y329555D01*
X353045Y329508D01*
X353045Y329460D01*
X353069Y329388D01*
X353083Y329314D01*
X353107Y329272D01*
X353123Y329226D01*
X353168Y329166D01*
X353206Y329100D01*
X353242Y329068D01*
X353271Y329030D01*
X353333Y328987D01*
X353390Y328937D01*
X353434Y328918D01*
X353474Y328891D01*
X353546Y328871D01*
X353616Y328841D01*
X353681Y328833D01*
X353710Y328824D01*
X353736Y328825D01*
X353782Y328819D01*
X354641Y328803D01*
X354642Y328803D01*
X354643Y328803D01*
X356878Y328767D01*
X356974Y328781D01*
X357071Y328789D01*
X357095Y328799D01*
X357121Y328803D01*
X357208Y328847D01*
X357297Y328885D01*
X357323Y328906D01*
X357340Y328914D01*
X357364Y328938D01*
X357428Y328990D01*
X357737Y329299D01*
X365302Y329299D01*
X365373Y329310D01*
X365444Y329312D01*
X365493Y329330D01*
X365545Y329338D01*
X365608Y329372D01*
X365675Y329397D01*
X365716Y329429D01*
X365762Y329454D01*
X365811Y329506D01*
X365867Y329550D01*
X365896Y329594D01*
X365931Y329632D01*
X365962Y329697D01*
X366000Y329757D01*
X366013Y329808D01*
X366035Y329855D01*
X366043Y329926D01*
X366060Y329996D01*
X366056Y330048D01*
X366062Y330099D01*
X366047Y330170D01*
X366041Y330241D01*
X366021Y330289D01*
X366010Y330340D01*
X365973Y330401D01*
X365945Y330467D01*
X365900Y330523D01*
X365884Y330551D01*
X365866Y330566D01*
X365840Y330598D01*
X364201Y332237D01*
X364201Y336832D01*
X364198Y336852D01*
X364200Y336871D01*
X364178Y336973D01*
X364162Y337075D01*
X364152Y337092D01*
X364148Y337112D01*
X364095Y337201D01*
X364046Y337292D01*
X364032Y337306D01*
X364022Y337323D01*
X363943Y337390D01*
X363868Y337462D01*
X363850Y337470D01*
X363835Y337483D01*
X363739Y337522D01*
X363645Y337565D01*
X363625Y337567D01*
X363607Y337575D01*
X363440Y337593D01*
X363333Y337593D01*
X361196Y338479D01*
X359561Y340114D01*
X358675Y342251D01*
X358675Y344252D01*
X358661Y344342D01*
X358653Y344433D01*
X358641Y344463D01*
X358636Y344495D01*
X358593Y344575D01*
X358557Y344659D01*
X358531Y344691D01*
X358520Y344712D01*
X358497Y344734D01*
X358477Y344759D01*
X358477Y357291D01*
X360263Y359077D01*
X367789Y359077D01*
X368823Y358043D01*
X368918Y357975D01*
X369011Y357905D01*
X369017Y357903D01*
X369022Y357899D01*
X369134Y357865D01*
X369245Y357829D01*
X369252Y357829D01*
X369257Y357827D01*
X369374Y357830D01*
X369491Y357831D01*
X369498Y357833D01*
X369503Y357833D01*
X369521Y357840D01*
X369652Y357878D01*
X370186Y358099D01*
X370225Y358123D01*
X370268Y358139D01*
X370329Y358188D01*
X370395Y358229D01*
X370425Y358264D01*
X370460Y358293D01*
X370503Y358358D01*
X370552Y358418D01*
X370569Y358461D01*
X370593Y358500D01*
X370613Y358575D01*
X370640Y358648D01*
X370642Y358694D01*
X370654Y358738D01*
X370648Y358816D01*
X370651Y358894D01*
X370638Y358938D01*
X370634Y358983D01*
X370604Y359055D01*
X370582Y359130D01*
X370556Y359168D01*
X370538Y359210D01*
X370453Y359316D01*
X370442Y359332D01*
X370438Y359335D01*
X370433Y359341D01*
X363250Y366524D01*
X360675Y369099D01*
X360659Y369110D01*
X360646Y369126D01*
X360559Y369182D01*
X360475Y369242D01*
X360456Y369248D01*
X360440Y369259D01*
X360339Y369284D01*
X360240Y369315D01*
X360220Y369314D01*
X360201Y369319D01*
X360098Y369311D01*
X359994Y369308D01*
X359976Y369302D01*
X359956Y369300D01*
X359861Y369260D01*
X359763Y369224D01*
X359748Y369211D01*
X359729Y369204D01*
X359599Y369099D01*
X358826Y368326D01*
X356300Y368326D01*
X346736Y377890D01*
X346736Y380416D01*
X347509Y381189D01*
X347520Y381205D01*
X347536Y381217D01*
X347592Y381304D01*
X347652Y381388D01*
X347658Y381407D01*
X347669Y381424D01*
X347694Y381525D01*
X347725Y381623D01*
X347724Y381643D01*
X347729Y381663D01*
X347721Y381766D01*
X347718Y381869D01*
X347712Y381888D01*
X347710Y381908D01*
X347670Y382003D01*
X347634Y382100D01*
X347621Y382116D01*
X347614Y382134D01*
X347509Y382265D01*
X290324Y439450D01*
X287273Y442501D01*
X287273Y461260D01*
X287259Y461350D01*
X287251Y461441D01*
X287239Y461471D01*
X287234Y461503D01*
X287191Y461583D01*
X287155Y461667D01*
X287129Y461699D01*
X287118Y461720D01*
X287095Y461742D01*
X287050Y461798D01*
X285711Y463137D01*
X285711Y476663D01*
X287050Y478002D01*
X287103Y478076D01*
X287163Y478145D01*
X287175Y478175D01*
X287194Y478202D01*
X287221Y478289D01*
X287255Y478373D01*
X287259Y478414D01*
X287266Y478437D01*
X287265Y478469D01*
X287273Y478540D01*
X287273Y605990D01*
X287259Y606080D01*
X287251Y606171D01*
X287239Y606201D01*
X287234Y606233D01*
X287191Y606313D01*
X287155Y606397D01*
X287129Y606429D01*
X287118Y606450D01*
X287095Y606472D01*
X287050Y606528D01*
X285241Y608337D01*
X285241Y635000D01*
X285238Y635020D01*
X285240Y635039D01*
X285218Y635141D01*
X285202Y635243D01*
X285192Y635260D01*
X285188Y635280D01*
X285135Y635369D01*
X285086Y635460D01*
X285072Y635474D01*
X285062Y635491D01*
X284983Y635558D01*
X284908Y635630D01*
X284890Y635638D01*
X284875Y635651D01*
X284779Y635690D01*
X284685Y635733D01*
X284665Y635735D01*
X284647Y635743D01*
X284480Y635761D01*
X0Y635761D01*
X-20Y635758D01*
X-39Y635760D01*
X-141Y635738D01*
X-243Y635722D01*
X-260Y635712D01*
X-280Y635708D01*
X-369Y635655D01*
X-460Y635606D01*
X-474Y635592D01*
X-491Y635582D01*
X-558Y635503D01*
X-630Y635428D01*
X-638Y635410D01*
X-651Y635395D01*
X-690Y635299D01*
X-733Y635205D01*
X-735Y635185D01*
X-743Y635167D01*
X-761Y635000D01*
X-761Y380492D01*
X-758Y380472D01*
X-760Y380453D01*
X-738Y380351D01*
X-722Y380249D01*
X-712Y380232D01*
X-708Y380212D01*
X-655Y380123D01*
X-606Y380032D01*
X-592Y380018D01*
X-582Y380001D01*
X-503Y379934D01*
X-428Y379862D01*
X-410Y379854D01*
X-395Y379841D01*
X-299Y379802D01*
X-205Y379759D01*
X-185Y379757D01*
X-167Y379749D01*
X0Y379731D01*
X54939Y379731D01*
X54957Y379734D01*
X54989Y379732D01*
X57575Y379902D01*
X57598Y379907D01*
X57722Y379926D01*
X62718Y381265D01*
X62732Y381271D01*
X62747Y381273D01*
X62901Y381341D01*
X67380Y383927D01*
X67399Y383942D01*
X67501Y384014D01*
X69450Y385722D01*
X69462Y385737D01*
X69486Y385756D01*
X70428Y386698D01*
X70439Y386713D01*
X70462Y386734D01*
X72170Y388683D01*
X72183Y388703D01*
X72257Y388804D01*
X74843Y393283D01*
X74849Y393298D01*
X74858Y393310D01*
X74919Y393466D01*
X76258Y398462D01*
X76260Y398486D01*
X76282Y398609D01*
X76452Y401195D01*
X76450Y401214D01*
X76453Y401245D01*
X76453Y435418D01*
X78513Y443106D01*
X82493Y449999D01*
X83670Y451176D01*
X112382Y479888D01*
X112394Y479904D01*
X112409Y479917D01*
X112465Y480004D01*
X112526Y480088D01*
X112531Y480107D01*
X112542Y480124D01*
X112568Y480224D01*
X112598Y480323D01*
X112597Y480343D01*
X112602Y480362D01*
X112594Y480465D01*
X112592Y480569D01*
X112585Y480588D01*
X112583Y480607D01*
X112543Y480702D01*
X112507Y480800D01*
X112495Y480815D01*
X112487Y480834D01*
X112382Y480965D01*
X108778Y484568D01*
X108778Y487094D01*
X133374Y511690D01*
X135900Y511690D01*
X150976Y496613D01*
X150976Y494087D01*
X126381Y469492D01*
X123855Y469492D01*
X120285Y473062D01*
X120268Y473074D01*
X120256Y473089D01*
X120169Y473145D01*
X120085Y473206D01*
X120066Y473211D01*
X120049Y473222D01*
X119949Y473247D01*
X119850Y473278D01*
X119830Y473277D01*
X119811Y473282D01*
X119708Y473274D01*
X119604Y473272D01*
X119585Y473265D01*
X119565Y473263D01*
X119471Y473223D01*
X119373Y473187D01*
X119357Y473175D01*
X119339Y473167D01*
X119208Y473062D01*
X93769Y447623D01*
X93747Y447600D01*
X93746Y447600D01*
X92132Y445986D01*
X92121Y445971D01*
X92098Y445950D01*
X90390Y444002D01*
X90377Y443982D01*
X90303Y443880D01*
X87717Y439401D01*
X87711Y439387D01*
X87702Y439374D01*
X87641Y439218D01*
X86302Y434222D01*
X86300Y434198D01*
X86278Y434075D01*
X86108Y431489D01*
X86110Y431470D01*
X86107Y431439D01*
X86107Y397266D01*
X84047Y389578D01*
X80067Y382686D01*
X78890Y381508D01*
X74676Y377294D01*
X73498Y376117D01*
X66606Y372137D01*
X58918Y370077D01*
X0Y370077D01*
X-20Y370074D01*
X-39Y370076D01*
X-141Y370054D01*
X-243Y370038D01*
X-260Y370028D01*
X-280Y370024D01*
X-369Y369971D01*
X-460Y369922D01*
X-474Y369908D01*
X-491Y369898D01*
X-558Y369819D01*
X-630Y369744D01*
X-638Y369726D01*
X-651Y369711D01*
X-690Y369615D01*
X-733Y369521D01*
X-735Y369501D01*
X-743Y369483D01*
X-761Y369316D01*
X-761Y132588D01*
X-758Y132568D01*
X-760Y132549D01*
X-738Y132447D01*
X-722Y132345D01*
X-712Y132328D01*
X-708Y132308D01*
X-655Y132219D01*
X-606Y132128D01*
X-592Y132114D01*
X-582Y132097D01*
X-503Y132030D01*
X-428Y131958D01*
X-410Y131950D01*
X-395Y131937D01*
X-299Y131898D01*
X-205Y131855D01*
X-185Y131853D01*
X-167Y131845D01*
X0Y131827D01*
X56958Y131827D01*
X64646Y129767D01*
X71539Y125787D01*
X72716Y124610D01*
X110274Y87052D01*
X110289Y87041D01*
X110310Y87018D01*
X112258Y85310D01*
X112279Y85297D01*
X112380Y85223D01*
X116859Y82637D01*
X116873Y82631D01*
X116886Y82622D01*
X117042Y82561D01*
X122038Y81222D01*
X122062Y81220D01*
X122185Y81198D01*
X124771Y81028D01*
X124790Y81030D01*
X124821Y81027D01*
X154205Y81027D01*
X154223Y81030D01*
X154254Y81028D01*
X156840Y81198D01*
X156864Y81203D01*
X156988Y81222D01*
X161983Y82561D01*
X161998Y82567D01*
X162013Y82569D01*
X162167Y82637D01*
X166646Y85223D01*
X166664Y85238D01*
X166767Y85310D01*
X168611Y86926D01*
X168639Y86961D01*
X168674Y86989D01*
X168717Y87055D01*
X168767Y87116D01*
X168783Y87158D01*
X168807Y87196D01*
X168827Y87272D01*
X168855Y87346D01*
X168856Y87391D01*
X168867Y87434D01*
X168861Y87513D01*
X168864Y87592D01*
X168852Y87635D01*
X168848Y87680D01*
X168817Y87752D01*
X168795Y87828D01*
X168769Y87865D01*
X168752Y87906D01*
X168664Y88016D01*
X168654Y88030D01*
X168651Y88032D01*
X168647Y88037D01*
X160307Y96377D01*
X160307Y98903D01*
X175384Y113979D01*
X177909Y113979D01*
X202505Y89384D01*
X202505Y86858D01*
X187428Y71781D01*
X184903Y71781D01*
X176556Y80128D01*
X176540Y80140D01*
X176528Y80155D01*
X176440Y80211D01*
X176356Y80271D01*
X176337Y80277D01*
X176321Y80288D01*
X176220Y80313D01*
X176121Y80344D01*
X176101Y80343D01*
X176082Y80348D01*
X175979Y80340D01*
X175875Y80337D01*
X175857Y80331D01*
X175837Y80329D01*
X175742Y80289D01*
X175644Y80253D01*
X175629Y80240D01*
X175611Y80233D01*
X175480Y80128D01*
X173942Y78590D01*
X173941Y78590D01*
X172764Y77413D01*
X165872Y73433D01*
X158184Y71373D01*
X120842Y71373D01*
X113154Y73433D01*
X106261Y77413D01*
X105084Y78590D01*
X69163Y114511D01*
X68510Y115164D01*
X67526Y116148D01*
X67511Y116159D01*
X67490Y116182D01*
X65542Y117890D01*
X65522Y117903D01*
X65420Y117977D01*
X60941Y120563D01*
X60927Y120569D01*
X60914Y120578D01*
X60758Y120639D01*
X55762Y121978D01*
X55739Y121980D01*
X55615Y122002D01*
X53029Y122172D01*
X53010Y122170D01*
X52979Y122173D01*
X0Y122173D01*
X-20Y122170D01*
X-39Y122172D01*
X-141Y122150D01*
X-243Y122134D01*
X-260Y122124D01*
X-280Y122120D01*
X-369Y122067D01*
X-460Y122018D01*
X-474Y122004D01*
X-491Y121994D01*
X-558Y121915D01*
X-630Y121840D01*
X-638Y121822D01*
X-651Y121807D01*
X-690Y121711D01*
X-733Y121617D01*
X-735Y121597D01*
X-743Y121579D01*
X-761Y121412D01*
X-761Y0D01*
X-758Y-20D01*
X-760Y-39D01*
X-738Y-141D01*
X-722Y-243D01*
X-712Y-260D01*
X-708Y-280D01*
X-655Y-369D01*
X-606Y-460D01*
X-592Y-474D01*
X-582Y-491D01*
X-503Y-558D01*
X-428Y-630D01*
X-410Y-638D01*
X-395Y-651D01*
X-299Y-690D01*
X-205Y-733D01*
X-185Y-735D01*
X-167Y-743D01*
X0Y-761D01*
X284480Y-761D01*
X284500Y-758D01*
G37*
G36*
X635020Y-758D02*
X635020Y-758D01*
X635039Y-760D01*
X635141Y-738D01*
X635243Y-722D01*
X635260Y-712D01*
X635280Y-708D01*
X635369Y-655D01*
X635460Y-606D01*
X635474Y-592D01*
X635491Y-582D01*
X635558Y-503D01*
X635630Y-428D01*
X635638Y-410D01*
X635651Y-395D01*
X635690Y-299D01*
X635733Y-205D01*
X635735Y-185D01*
X635743Y-167D01*
X635761Y0D01*
X635761Y299212D01*
X635758Y299232D01*
X635760Y299251D01*
X635738Y299353D01*
X635722Y299455D01*
X635712Y299472D01*
X635708Y299492D01*
X635655Y299581D01*
X635606Y299672D01*
X635592Y299686D01*
X635582Y299703D01*
X635503Y299770D01*
X635428Y299842D01*
X635410Y299850D01*
X635395Y299863D01*
X635299Y299902D01*
X635205Y299945D01*
X635185Y299947D01*
X635167Y299955D01*
X635000Y299973D01*
X523040Y299973D01*
X522950Y299959D01*
X522859Y299951D01*
X522829Y299939D01*
X522797Y299934D01*
X522717Y299891D01*
X522633Y299855D01*
X522601Y299829D01*
X522580Y299818D01*
X522558Y299795D01*
X522502Y299750D01*
X520693Y297941D01*
X504197Y297941D01*
X502411Y299727D01*
X502411Y309873D01*
X503150Y310612D01*
X503162Y310628D01*
X503177Y310640D01*
X503233Y310728D01*
X503294Y310811D01*
X503300Y310830D01*
X503310Y310847D01*
X503336Y310948D01*
X503366Y311047D01*
X503366Y311066D01*
X503370Y311086D01*
X503362Y311189D01*
X503360Y311292D01*
X503353Y311311D01*
X503351Y311331D01*
X503311Y311426D01*
X503275Y311523D01*
X503263Y311539D01*
X503255Y311557D01*
X503150Y311688D01*
X502411Y312427D01*
X502411Y322573D01*
X504197Y324359D01*
X520693Y324359D01*
X522479Y322573D01*
X522479Y312427D01*
X521740Y311688D01*
X521728Y311672D01*
X521713Y311660D01*
X521657Y311572D01*
X521596Y311489D01*
X521590Y311470D01*
X521580Y311453D01*
X521554Y311352D01*
X521524Y311253D01*
X521524Y311234D01*
X521520Y311214D01*
X521528Y311111D01*
X521530Y311008D01*
X521537Y310989D01*
X521539Y310969D01*
X521579Y310874D01*
X521615Y310777D01*
X521627Y310761D01*
X521635Y310743D01*
X521740Y310612D01*
X522502Y309850D01*
X522576Y309797D01*
X522645Y309737D01*
X522675Y309725D01*
X522702Y309706D01*
X522789Y309679D01*
X522873Y309645D01*
X522914Y309641D01*
X522937Y309634D01*
X522969Y309635D01*
X523040Y309627D01*
X635000Y309627D01*
X635020Y309630D01*
X635039Y309628D01*
X635141Y309650D01*
X635243Y309666D01*
X635260Y309676D01*
X635280Y309680D01*
X635369Y309733D01*
X635460Y309782D01*
X635474Y309796D01*
X635491Y309806D01*
X635558Y309885D01*
X635630Y309960D01*
X635638Y309978D01*
X635651Y309993D01*
X635690Y310089D01*
X635733Y310183D01*
X635735Y310203D01*
X635743Y310221D01*
X635761Y310388D01*
X635761Y474980D01*
X635758Y475000D01*
X635760Y475019D01*
X635738Y475121D01*
X635722Y475223D01*
X635712Y475240D01*
X635708Y475260D01*
X635655Y475349D01*
X635606Y475440D01*
X635592Y475454D01*
X635582Y475471D01*
X635503Y475538D01*
X635428Y475610D01*
X635410Y475618D01*
X635395Y475631D01*
X635299Y475670D01*
X635205Y475713D01*
X635185Y475715D01*
X635167Y475723D01*
X635000Y475741D01*
X608337Y475741D01*
X606528Y477550D01*
X606454Y477603D01*
X606385Y477663D01*
X606355Y477675D01*
X606328Y477694D01*
X606241Y477721D01*
X606157Y477755D01*
X606116Y477759D01*
X606093Y477766D01*
X606061Y477765D01*
X605990Y477773D01*
X586515Y477773D01*
X586425Y477759D01*
X586334Y477751D01*
X586304Y477739D01*
X586272Y477734D01*
X586191Y477691D01*
X586107Y477655D01*
X586075Y477629D01*
X586055Y477618D01*
X586032Y477595D01*
X585976Y477550D01*
X576550Y468124D01*
X576497Y468050D01*
X576437Y467980D01*
X576425Y467950D01*
X576406Y467924D01*
X576379Y467837D01*
X576345Y467752D01*
X576341Y467711D01*
X576334Y467689D01*
X576335Y467657D01*
X576327Y467585D01*
X576327Y404401D01*
X563850Y391924D01*
X560799Y388873D01*
X554385Y388873D01*
X554295Y388859D01*
X554204Y388851D01*
X554175Y388839D01*
X554143Y388834D01*
X554062Y388791D01*
X553978Y388755D01*
X553946Y388729D01*
X553925Y388718D01*
X553903Y388695D01*
X553847Y388650D01*
X551226Y386029D01*
X547900Y384651D01*
X544300Y384651D01*
X540974Y386029D01*
X538429Y388574D01*
X537051Y391900D01*
X537051Y395500D01*
X538429Y398826D01*
X540974Y401371D01*
X544300Y402749D01*
X547900Y402749D01*
X551226Y401371D01*
X553847Y398750D01*
X553921Y398697D01*
X553991Y398637D01*
X554021Y398625D01*
X554047Y398606D01*
X554134Y398579D01*
X554219Y398545D01*
X554260Y398541D01*
X554282Y398534D01*
X554314Y398535D01*
X554385Y398527D01*
X556485Y398527D01*
X556575Y398541D01*
X556666Y398549D01*
X556696Y398561D01*
X556728Y398566D01*
X556809Y398609D01*
X556893Y398645D01*
X556925Y398671D01*
X556946Y398682D01*
X556968Y398705D01*
X557024Y398750D01*
X566450Y408176D01*
X566503Y408250D01*
X566563Y408320D01*
X566575Y408350D01*
X566594Y408376D01*
X566621Y408463D01*
X566655Y408548D01*
X566659Y408589D01*
X566666Y408611D01*
X566665Y408643D01*
X566673Y408715D01*
X566673Y471899D01*
X582201Y487427D01*
X605990Y487427D01*
X606080Y487441D01*
X606171Y487449D01*
X606201Y487461D01*
X606233Y487466D01*
X606313Y487509D01*
X606397Y487545D01*
X606429Y487571D01*
X606450Y487582D01*
X606472Y487605D01*
X606528Y487650D01*
X608337Y489459D01*
X635000Y489459D01*
X635020Y489462D01*
X635039Y489460D01*
X635141Y489482D01*
X635243Y489498D01*
X635260Y489508D01*
X635280Y489512D01*
X635369Y489565D01*
X635460Y489614D01*
X635474Y489628D01*
X635491Y489638D01*
X635558Y489717D01*
X635630Y489792D01*
X635638Y489810D01*
X635651Y489825D01*
X635690Y489921D01*
X635733Y490015D01*
X635735Y490035D01*
X635743Y490053D01*
X635761Y490220D01*
X635761Y635000D01*
X635758Y635020D01*
X635760Y635039D01*
X635738Y635141D01*
X635722Y635243D01*
X635712Y635260D01*
X635708Y635280D01*
X635655Y635369D01*
X635606Y635460D01*
X635592Y635474D01*
X635582Y635491D01*
X635503Y635558D01*
X635428Y635630D01*
X635410Y635638D01*
X635395Y635651D01*
X635299Y635690D01*
X635205Y635733D01*
X635185Y635735D01*
X635167Y635743D01*
X635000Y635761D01*
X477520Y635761D01*
X477500Y635758D01*
X477481Y635760D01*
X477379Y635738D01*
X477277Y635722D01*
X477260Y635712D01*
X477240Y635708D01*
X477151Y635655D01*
X477060Y635606D01*
X477046Y635592D01*
X477029Y635582D01*
X476962Y635503D01*
X476890Y635428D01*
X476882Y635410D01*
X476869Y635395D01*
X476830Y635299D01*
X476787Y635205D01*
X476785Y635185D01*
X476777Y635167D01*
X476759Y635000D01*
X476759Y608337D01*
X474950Y606528D01*
X474897Y606454D01*
X474837Y606385D01*
X474825Y606355D01*
X474806Y606328D01*
X474779Y606241D01*
X474745Y606157D01*
X474741Y606116D01*
X474734Y606093D01*
X474735Y606061D01*
X474727Y605990D01*
X474727Y478540D01*
X474741Y478450D01*
X474749Y478359D01*
X474761Y478329D01*
X474766Y478297D01*
X474809Y478217D01*
X474845Y478133D01*
X474871Y478101D01*
X474882Y478080D01*
X474905Y478058D01*
X474950Y478002D01*
X476289Y476663D01*
X476289Y463137D01*
X474950Y461798D01*
X474897Y461724D01*
X474837Y461655D01*
X474825Y461625D01*
X474806Y461598D01*
X474779Y461511D01*
X474745Y461427D01*
X474741Y461386D01*
X474734Y461363D01*
X474735Y461331D01*
X474727Y461260D01*
X474727Y432341D01*
X471676Y429290D01*
X447631Y405245D01*
X443390Y404109D01*
X439146Y405246D01*
X439140Y405253D01*
X439053Y405309D01*
X438969Y405369D01*
X438950Y405375D01*
X438933Y405386D01*
X438833Y405411D01*
X438734Y405441D01*
X438714Y405441D01*
X438695Y405446D01*
X438592Y405438D01*
X438488Y405435D01*
X438470Y405428D01*
X438450Y405427D01*
X438354Y405386D01*
X438257Y405351D01*
X438242Y405338D01*
X438223Y405330D01*
X438092Y405225D01*
X438027Y405160D01*
X434146Y401279D01*
X434081Y401214D01*
X434069Y401198D01*
X434054Y401185D01*
X433998Y401098D01*
X433938Y401015D01*
X433932Y400995D01*
X433921Y400978D01*
X433896Y400878D01*
X433865Y400779D01*
X433866Y400759D01*
X433861Y400740D01*
X433869Y400636D01*
X433871Y400534D01*
X433878Y400515D01*
X433880Y400495D01*
X433920Y400400D01*
X433956Y400303D01*
X433968Y400287D01*
X433976Y400268D01*
X434060Y400164D01*
X435198Y395916D01*
X434062Y391676D01*
X430895Y388509D01*
X430872Y388486D01*
X424651Y382265D01*
X424640Y382249D01*
X424624Y382236D01*
X424568Y382149D01*
X424508Y382065D01*
X424502Y382046D01*
X424491Y382030D01*
X424466Y381929D01*
X424435Y381830D01*
X424436Y381810D01*
X424431Y381791D01*
X424439Y381688D01*
X424442Y381584D01*
X424448Y381566D01*
X424450Y381546D01*
X424490Y381451D01*
X424526Y381353D01*
X424539Y381338D01*
X424546Y381320D01*
X424651Y381189D01*
X425424Y380416D01*
X425424Y377890D01*
X415860Y368326D01*
X413334Y368326D01*
X412561Y369099D01*
X412545Y369110D01*
X412533Y369126D01*
X412445Y369182D01*
X412362Y369242D01*
X412343Y369248D01*
X412326Y369259D01*
X412225Y369284D01*
X412127Y369315D01*
X412107Y369314D01*
X412087Y369319D01*
X411984Y369311D01*
X411881Y369308D01*
X411862Y369301D01*
X411842Y369300D01*
X411747Y369260D01*
X411650Y369224D01*
X411634Y369211D01*
X411616Y369204D01*
X411485Y369099D01*
X393042Y350656D01*
X392989Y350582D01*
X392929Y350512D01*
X392917Y350482D01*
X392898Y350456D01*
X392871Y350369D01*
X392837Y350284D01*
X392833Y350243D01*
X392826Y350221D01*
X392827Y350189D01*
X392819Y350117D01*
X392819Y349964D01*
X392830Y349893D01*
X392832Y349822D01*
X392850Y349773D01*
X392858Y349721D01*
X392892Y349658D01*
X392917Y349591D01*
X392949Y349550D01*
X392974Y349504D01*
X393026Y349455D01*
X393070Y349399D01*
X393114Y349371D01*
X393152Y349335D01*
X393217Y349304D01*
X393277Y349266D01*
X393328Y349253D01*
X393375Y349231D01*
X393446Y349223D01*
X393516Y349206D01*
X393568Y349210D01*
X393619Y349204D01*
X393690Y349219D01*
X393761Y349225D01*
X393809Y349245D01*
X393860Y349256D01*
X393921Y349293D01*
X393987Y349321D01*
X394043Y349366D01*
X394071Y349382D01*
X394086Y349400D01*
X394118Y349426D01*
X394451Y349759D01*
X397100Y349759D01*
X397190Y349773D01*
X397281Y349781D01*
X397311Y349793D01*
X397343Y349798D01*
X397424Y349841D01*
X397507Y349877D01*
X397540Y349903D01*
X397560Y349914D01*
X397582Y349937D01*
X397638Y349982D01*
X398026Y350369D01*
X400163Y351255D01*
X402477Y351255D01*
X404614Y350369D01*
X406249Y348734D01*
X407135Y346597D01*
X407135Y344283D01*
X406249Y342146D01*
X404614Y340511D01*
X402477Y339625D01*
X400163Y339625D01*
X398871Y340160D01*
X398827Y340171D01*
X398785Y340190D01*
X398708Y340199D01*
X398632Y340217D01*
X398586Y340212D01*
X398541Y340217D01*
X398464Y340201D01*
X398387Y340194D01*
X398345Y340175D01*
X398300Y340165D01*
X398233Y340125D01*
X398162Y340094D01*
X398128Y340062D01*
X398089Y340039D01*
X398038Y339980D01*
X397981Y339927D01*
X397959Y339887D01*
X397929Y339852D01*
X397900Y339780D01*
X397863Y339712D01*
X397854Y339666D01*
X397837Y339624D01*
X397822Y339488D01*
X397819Y339470D01*
X397820Y339465D01*
X397819Y339457D01*
X397819Y334546D01*
X397817Y334543D01*
X397813Y334502D01*
X397806Y334479D01*
X397807Y334447D01*
X397799Y334376D01*
X397799Y332237D01*
X396013Y330451D01*
X366948Y330451D01*
X366877Y330440D01*
X366806Y330438D01*
X366757Y330420D01*
X366705Y330412D01*
X366642Y330378D01*
X366575Y330353D01*
X366534Y330321D01*
X366488Y330296D01*
X366439Y330244D01*
X366383Y330200D01*
X366354Y330156D01*
X366319Y330118D01*
X366288Y330053D01*
X366250Y329993D01*
X366237Y329942D01*
X366215Y329895D01*
X366207Y329824D01*
X366190Y329754D01*
X366194Y329702D01*
X366188Y329651D01*
X366203Y329580D01*
X366209Y329509D01*
X366229Y329461D01*
X366240Y329410D01*
X366277Y329349D01*
X366305Y329283D01*
X366350Y329227D01*
X366366Y329199D01*
X366384Y329184D01*
X366410Y329152D01*
X368049Y327513D01*
X368049Y307487D01*
X366410Y305848D01*
X366368Y305790D01*
X366319Y305738D01*
X366297Y305691D01*
X366266Y305649D01*
X366245Y305580D01*
X366215Y305515D01*
X366209Y305463D01*
X366194Y305413D01*
X366196Y305342D01*
X366188Y305271D01*
X366199Y305220D01*
X366200Y305168D01*
X366225Y305100D01*
X366240Y305030D01*
X366267Y304985D01*
X366285Y304937D01*
X366330Y304881D01*
X366366Y304819D01*
X366406Y304785D01*
X366438Y304745D01*
X366499Y304706D01*
X366553Y304659D01*
X366602Y304640D01*
X366645Y304612D01*
X366715Y304594D01*
X366781Y304567D01*
X366853Y304559D01*
X366884Y304551D01*
X366907Y304553D01*
X366948Y304549D01*
X396013Y304549D01*
X397799Y302763D01*
X397799Y296644D01*
X397802Y296624D01*
X397800Y296605D01*
X397822Y296503D01*
X397838Y296401D01*
X397848Y296384D01*
X397852Y296364D01*
X397905Y296275D01*
X397954Y296184D01*
X397968Y296170D01*
X397978Y296153D01*
X398057Y296086D01*
X398132Y296014D01*
X398150Y296006D01*
X398165Y295993D01*
X398261Y295954D01*
X398355Y295911D01*
X398375Y295909D01*
X398393Y295901D01*
X398560Y295883D01*
X398667Y295883D01*
X400492Y295127D01*
X400556Y295112D01*
X400617Y295087D01*
X400699Y295078D01*
X400731Y295071D01*
X400751Y295072D01*
X400783Y295069D01*
X405801Y295069D01*
X407587Y293283D01*
X407587Y280757D01*
X405801Y278971D01*
X400253Y278971D01*
X400182Y278960D01*
X400110Y278958D01*
X400061Y278940D01*
X400010Y278932D01*
X399947Y278898D01*
X399879Y278873D01*
X399838Y278841D01*
X399792Y278816D01*
X399743Y278765D01*
X399687Y278720D01*
X399659Y278676D01*
X399623Y278638D01*
X399593Y278573D01*
X399554Y278513D01*
X399541Y278462D01*
X399519Y278415D01*
X399512Y278344D01*
X399494Y278274D01*
X399498Y278222D01*
X399492Y278171D01*
X399508Y278100D01*
X399513Y278029D01*
X399534Y277981D01*
X399545Y277930D01*
X399581Y277869D01*
X399609Y277803D01*
X399654Y277747D01*
X399671Y277719D01*
X399689Y277704D01*
X399714Y277672D01*
X411485Y265901D01*
X411501Y265890D01*
X411514Y265874D01*
X411601Y265818D01*
X411685Y265758D01*
X411704Y265752D01*
X411720Y265741D01*
X411821Y265716D01*
X411920Y265685D01*
X411940Y265686D01*
X411959Y265681D01*
X412062Y265689D01*
X412166Y265692D01*
X412184Y265698D01*
X412204Y265700D01*
X412299Y265740D01*
X412397Y265776D01*
X412412Y265789D01*
X412431Y265796D01*
X412561Y265901D01*
X413334Y266674D01*
X415860Y266674D01*
X425424Y257110D01*
X425424Y254584D01*
X424651Y253811D01*
X424640Y253795D01*
X424624Y253783D01*
X424568Y253696D01*
X424508Y253612D01*
X424502Y253593D01*
X424491Y253576D01*
X424466Y253475D01*
X424435Y253377D01*
X424436Y253357D01*
X424431Y253337D01*
X424439Y253234D01*
X424442Y253131D01*
X424448Y253112D01*
X424450Y253092D01*
X424490Y252997D01*
X424526Y252900D01*
X424539Y252884D01*
X424546Y252866D01*
X424651Y252735D01*
X432069Y245317D01*
X432639Y244747D01*
X435258Y242128D01*
X436394Y237887D01*
X435257Y233643D01*
X435250Y233637D01*
X435194Y233550D01*
X435134Y233466D01*
X435128Y233447D01*
X435117Y233430D01*
X435092Y233330D01*
X435062Y233231D01*
X435062Y233211D01*
X435057Y233192D01*
X435065Y233089D01*
X435068Y232985D01*
X435075Y232967D01*
X435076Y232947D01*
X435117Y232852D01*
X435152Y232754D01*
X435165Y232739D01*
X435173Y232720D01*
X435278Y232589D01*
X435343Y232524D01*
X444377Y223490D01*
X444442Y223425D01*
X444458Y223413D01*
X444471Y223397D01*
X444558Y223341D01*
X444642Y223281D01*
X444661Y223275D01*
X444678Y223264D01*
X444778Y223239D01*
X444877Y223209D01*
X444897Y223209D01*
X444916Y223204D01*
X445019Y223212D01*
X445123Y223215D01*
X445142Y223222D01*
X445162Y223223D01*
X445257Y223264D01*
X445354Y223299D01*
X445370Y223312D01*
X445388Y223320D01*
X445492Y223403D01*
X449740Y224541D01*
X453981Y223405D01*
X474727Y202659D01*
X474727Y173740D01*
X474741Y173650D01*
X474749Y173559D01*
X474761Y173529D01*
X474766Y173497D01*
X474809Y173417D01*
X474845Y173333D01*
X474871Y173301D01*
X474882Y173280D01*
X474905Y173258D01*
X474950Y173202D01*
X476289Y171863D01*
X476289Y158337D01*
X474950Y156998D01*
X474897Y156924D01*
X474837Y156855D01*
X474825Y156825D01*
X474806Y156798D01*
X474779Y156711D01*
X474745Y156627D01*
X474741Y156586D01*
X474734Y156563D01*
X474735Y156531D01*
X474727Y156460D01*
X474727Y29010D01*
X474741Y28920D01*
X474749Y28829D01*
X474761Y28799D01*
X474766Y28767D01*
X474809Y28687D01*
X474845Y28603D01*
X474871Y28571D01*
X474882Y28550D01*
X474905Y28528D01*
X474950Y28472D01*
X476759Y26663D01*
X476759Y0D01*
X476762Y-20D01*
X476760Y-39D01*
X476782Y-141D01*
X476798Y-243D01*
X476808Y-260D01*
X476812Y-280D01*
X476865Y-369D01*
X476914Y-460D01*
X476928Y-474D01*
X476938Y-491D01*
X477017Y-558D01*
X477092Y-630D01*
X477110Y-638D01*
X477125Y-651D01*
X477221Y-690D01*
X477315Y-733D01*
X477335Y-735D01*
X477353Y-743D01*
X477520Y-761D01*
X635000Y-761D01*
X635020Y-758D01*
G37*
G36*
X386119Y357672D02*
X386119Y357672D01*
X386222Y357675D01*
X386241Y357682D01*
X386261Y357683D01*
X386356Y357724D01*
X386453Y357759D01*
X386469Y357772D01*
X386487Y357780D01*
X386618Y357884D01*
X404659Y375925D01*
X404670Y375941D01*
X404686Y375953D01*
X404742Y376041D01*
X404802Y376125D01*
X404808Y376144D01*
X404819Y376160D01*
X404844Y376261D01*
X404875Y376360D01*
X404874Y376380D01*
X404879Y376399D01*
X404871Y376502D01*
X404868Y376606D01*
X404861Y376624D01*
X404860Y376644D01*
X404820Y376739D01*
X404784Y376837D01*
X404771Y376852D01*
X404764Y376870D01*
X404659Y377001D01*
X404477Y377183D01*
X404477Y379709D01*
X414041Y389273D01*
X416567Y389273D01*
X416749Y389091D01*
X416765Y389080D01*
X416777Y389064D01*
X416865Y389008D01*
X416948Y388948D01*
X416967Y388942D01*
X416984Y388931D01*
X417085Y388906D01*
X417183Y388875D01*
X417203Y388876D01*
X417223Y388871D01*
X417326Y388879D01*
X417429Y388882D01*
X417448Y388888D01*
X417468Y388890D01*
X417563Y388930D01*
X417660Y388966D01*
X417676Y388979D01*
X417694Y388986D01*
X417825Y389091D01*
X424046Y395312D01*
X424068Y395335D01*
X424069Y395335D01*
X424112Y395378D01*
X424124Y395394D01*
X424139Y395407D01*
X424195Y395494D01*
X424255Y395578D01*
X424261Y395597D01*
X424272Y395614D01*
X424297Y395714D01*
X424328Y395813D01*
X424327Y395833D01*
X424332Y395852D01*
X424324Y395955D01*
X424321Y396059D01*
X424315Y396078D01*
X424313Y396097D01*
X424273Y396192D01*
X424237Y396290D01*
X424224Y396305D01*
X424217Y396324D01*
X424133Y396428D01*
X422995Y400676D01*
X424131Y404916D01*
X426667Y407452D01*
X427320Y408105D01*
X431201Y411986D01*
X431340Y412125D01*
X434390Y415175D01*
X438631Y416311D01*
X442875Y415174D01*
X442881Y415167D01*
X442968Y415111D01*
X443052Y415051D01*
X443071Y415045D01*
X443087Y415034D01*
X443188Y415009D01*
X443287Y414979D01*
X443307Y414979D01*
X443326Y414974D01*
X443429Y414982D01*
X443532Y414985D01*
X443551Y414992D01*
X443571Y414993D01*
X443666Y415034D01*
X443764Y415069D01*
X443779Y415082D01*
X443798Y415090D01*
X443929Y415195D01*
X464850Y436116D01*
X464903Y436190D01*
X464963Y436260D01*
X464975Y436290D01*
X464994Y436316D01*
X465021Y436403D01*
X465055Y436488D01*
X465059Y436529D01*
X465066Y436551D01*
X465065Y436583D01*
X465073Y436655D01*
X465073Y460590D01*
X465070Y460610D01*
X465072Y460629D01*
X465050Y460731D01*
X465034Y460833D01*
X465024Y460850D01*
X465020Y460870D01*
X464967Y460959D01*
X464918Y461050D01*
X464904Y461064D01*
X464894Y461081D01*
X464815Y461148D01*
X464740Y461220D01*
X464722Y461228D01*
X464707Y461241D01*
X464611Y461280D01*
X464517Y461323D01*
X464497Y461325D01*
X464479Y461333D01*
X464312Y461351D01*
X461977Y461351D01*
X460278Y463050D01*
X460262Y463062D01*
X460250Y463077D01*
X460162Y463133D01*
X460079Y463194D01*
X460060Y463200D01*
X460043Y463210D01*
X459942Y463236D01*
X459843Y463266D01*
X459824Y463266D01*
X459804Y463270D01*
X459701Y463262D01*
X459598Y463260D01*
X459579Y463253D01*
X459559Y463251D01*
X459464Y463211D01*
X459367Y463175D01*
X459351Y463163D01*
X459333Y463155D01*
X459202Y463050D01*
X457503Y461351D01*
X444977Y461351D01*
X443191Y463137D01*
X443191Y465328D01*
X443188Y465348D01*
X443190Y465367D01*
X443168Y465469D01*
X443152Y465571D01*
X443142Y465588D01*
X443138Y465608D01*
X443085Y465697D01*
X443036Y465788D01*
X443022Y465802D01*
X443012Y465819D01*
X442933Y465886D01*
X442858Y465958D01*
X442840Y465966D01*
X442825Y465979D01*
X442729Y466018D01*
X442635Y466061D01*
X442615Y466063D01*
X442597Y466071D01*
X442430Y466089D01*
X441936Y466089D01*
X441916Y466086D01*
X441897Y466088D01*
X441795Y466066D01*
X441693Y466050D01*
X441676Y466040D01*
X441656Y466036D01*
X441567Y465983D01*
X441476Y465934D01*
X441462Y465920D01*
X441445Y465910D01*
X441378Y465831D01*
X441306Y465756D01*
X441298Y465738D01*
X441285Y465723D01*
X441246Y465627D01*
X441203Y465533D01*
X441201Y465513D01*
X441193Y465495D01*
X441175Y465328D01*
X441175Y447833D01*
X439389Y446047D01*
X421163Y446047D01*
X419377Y447833D01*
X419377Y466059D01*
X421163Y467845D01*
X429120Y467845D01*
X429210Y467859D01*
X429301Y467867D01*
X429331Y467879D01*
X429363Y467884D01*
X429444Y467927D01*
X429528Y467963D01*
X429560Y467989D01*
X429580Y468000D01*
X429602Y468023D01*
X429659Y468068D01*
X432846Y471256D01*
X435302Y473711D01*
X442430Y473711D01*
X442450Y473714D01*
X442469Y473712D01*
X442571Y473734D01*
X442673Y473750D01*
X442690Y473760D01*
X442710Y473764D01*
X442799Y473817D01*
X442890Y473866D01*
X442904Y473880D01*
X442921Y473890D01*
X442988Y473969D01*
X443060Y474044D01*
X443068Y474062D01*
X443081Y474077D01*
X443120Y474173D01*
X443163Y474267D01*
X443165Y474287D01*
X443173Y474305D01*
X443191Y474472D01*
X443191Y476663D01*
X444977Y478449D01*
X457503Y478449D01*
X459202Y476750D01*
X459218Y476738D01*
X459230Y476723D01*
X459301Y476677D01*
X459330Y476653D01*
X459346Y476646D01*
X459401Y476606D01*
X459420Y476600D01*
X459437Y476590D01*
X459538Y476564D01*
X459637Y476534D01*
X459656Y476534D01*
X459676Y476530D01*
X459779Y476538D01*
X459882Y476540D01*
X459901Y476547D01*
X459921Y476549D01*
X460016Y476589D01*
X460113Y476625D01*
X460129Y476637D01*
X460147Y476645D01*
X460207Y476692D01*
X460216Y476697D01*
X460226Y476708D01*
X460278Y476750D01*
X461977Y478449D01*
X464312Y478449D01*
X464332Y478452D01*
X464351Y478450D01*
X464453Y478472D01*
X464555Y478488D01*
X464572Y478498D01*
X464592Y478502D01*
X464681Y478555D01*
X464772Y478604D01*
X464786Y478618D01*
X464803Y478628D01*
X464870Y478707D01*
X464942Y478782D01*
X464950Y478800D01*
X464963Y478815D01*
X465002Y478911D01*
X465045Y479005D01*
X465047Y479025D01*
X465055Y479043D01*
X465073Y479210D01*
X465073Y605990D01*
X465059Y606080D01*
X465051Y606171D01*
X465039Y606201D01*
X465034Y606233D01*
X464991Y606313D01*
X464955Y606397D01*
X464929Y606429D01*
X464918Y606450D01*
X464895Y606472D01*
X464850Y606528D01*
X463041Y608337D01*
X463041Y635000D01*
X463038Y635020D01*
X463040Y635039D01*
X463018Y635141D01*
X463002Y635243D01*
X462992Y635260D01*
X462988Y635280D01*
X462935Y635369D01*
X462886Y635460D01*
X462872Y635474D01*
X462862Y635491D01*
X462783Y635558D01*
X462708Y635630D01*
X462690Y635638D01*
X462675Y635651D01*
X462579Y635690D01*
X462485Y635733D01*
X462465Y635735D01*
X462447Y635743D01*
X462280Y635761D01*
X299720Y635761D01*
X299700Y635758D01*
X299681Y635760D01*
X299579Y635738D01*
X299477Y635722D01*
X299460Y635712D01*
X299440Y635708D01*
X299351Y635655D01*
X299260Y635606D01*
X299246Y635592D01*
X299229Y635582D01*
X299162Y635503D01*
X299090Y635428D01*
X299082Y635410D01*
X299069Y635395D01*
X299030Y635299D01*
X298987Y635205D01*
X298985Y635185D01*
X298977Y635167D01*
X298959Y635000D01*
X298959Y608337D01*
X297150Y606528D01*
X297097Y606454D01*
X297037Y606385D01*
X297025Y606355D01*
X297006Y606328D01*
X296979Y606241D01*
X296945Y606157D01*
X296941Y606116D01*
X296934Y606093D01*
X296935Y606061D01*
X296927Y605990D01*
X296927Y479210D01*
X296930Y479190D01*
X296928Y479171D01*
X296950Y479069D01*
X296966Y478967D01*
X296976Y478950D01*
X296980Y478930D01*
X297033Y478841D01*
X297082Y478750D01*
X297096Y478736D01*
X297106Y478719D01*
X297185Y478652D01*
X297260Y478580D01*
X297278Y478572D01*
X297293Y478559D01*
X297389Y478520D01*
X297483Y478477D01*
X297503Y478475D01*
X297521Y478467D01*
X297688Y478449D01*
X300023Y478449D01*
X301722Y476750D01*
X301738Y476738D01*
X301750Y476723D01*
X301821Y476677D01*
X301850Y476653D01*
X301866Y476646D01*
X301921Y476606D01*
X301940Y476600D01*
X301957Y476590D01*
X302058Y476564D01*
X302157Y476534D01*
X302176Y476534D01*
X302196Y476530D01*
X302299Y476538D01*
X302402Y476540D01*
X302421Y476547D01*
X302441Y476549D01*
X302536Y476589D01*
X302633Y476625D01*
X302649Y476637D01*
X302667Y476645D01*
X302727Y476692D01*
X302736Y476697D01*
X302746Y476708D01*
X302798Y476750D01*
X304497Y478449D01*
X317023Y478449D01*
X318809Y476663D01*
X318809Y474472D01*
X318812Y474452D01*
X318810Y474433D01*
X318832Y474331D01*
X318848Y474229D01*
X318858Y474212D01*
X318862Y474192D01*
X318915Y474103D01*
X318964Y474012D01*
X318978Y473998D01*
X318988Y473981D01*
X319067Y473914D01*
X319142Y473842D01*
X319160Y473834D01*
X319175Y473821D01*
X319271Y473782D01*
X319365Y473739D01*
X319385Y473737D01*
X319403Y473729D01*
X319570Y473711D01*
X331778Y473711D01*
X335789Y469700D01*
X335789Y467927D01*
X335808Y467812D01*
X335825Y467696D01*
X335827Y467690D01*
X335828Y467684D01*
X335883Y467582D01*
X335936Y467477D01*
X335941Y467472D01*
X335944Y467467D01*
X336028Y467387D01*
X336112Y467304D01*
X336118Y467301D01*
X336122Y467297D01*
X336139Y467290D01*
X336259Y467224D01*
X338152Y466439D01*
X341217Y463374D01*
X342877Y459368D01*
X342877Y455032D01*
X341217Y451026D01*
X338152Y447961D01*
X334146Y446301D01*
X329810Y446301D01*
X325804Y447961D01*
X322739Y451026D01*
X321079Y455032D01*
X321079Y459368D01*
X322739Y463374D01*
X324155Y464790D01*
X324196Y464848D01*
X324246Y464900D01*
X324268Y464947D01*
X324298Y464989D01*
X324319Y465058D01*
X324349Y465123D01*
X324355Y465175D01*
X324371Y465225D01*
X324369Y465296D01*
X324377Y465367D01*
X324365Y465418D01*
X324364Y465470D01*
X324340Y465538D01*
X324324Y465608D01*
X324298Y465653D01*
X324280Y465701D01*
X324235Y465757D01*
X324198Y465819D01*
X324159Y465853D01*
X324126Y465893D01*
X324066Y465932D01*
X324011Y465979D01*
X323963Y465998D01*
X323919Y466026D01*
X323850Y466044D01*
X323783Y466071D01*
X323712Y466079D01*
X323681Y466087D01*
X323657Y466085D01*
X323616Y466089D01*
X319570Y466089D01*
X319550Y466086D01*
X319531Y466088D01*
X319429Y466066D01*
X319327Y466050D01*
X319310Y466040D01*
X319290Y466036D01*
X319201Y465983D01*
X319110Y465934D01*
X319096Y465920D01*
X319079Y465910D01*
X319012Y465831D01*
X318940Y465756D01*
X318932Y465738D01*
X318919Y465723D01*
X318880Y465627D01*
X318837Y465533D01*
X318835Y465513D01*
X318827Y465495D01*
X318809Y465328D01*
X318809Y463137D01*
X317023Y461351D01*
X304497Y461351D01*
X302798Y463050D01*
X302782Y463062D01*
X302770Y463077D01*
X302682Y463133D01*
X302599Y463194D01*
X302580Y463200D01*
X302563Y463210D01*
X302462Y463236D01*
X302363Y463266D01*
X302344Y463266D01*
X302324Y463270D01*
X302221Y463262D01*
X302118Y463260D01*
X302099Y463253D01*
X302079Y463251D01*
X301984Y463211D01*
X301887Y463175D01*
X301871Y463163D01*
X301853Y463155D01*
X301722Y463050D01*
X300023Y461351D01*
X297688Y461351D01*
X297668Y461348D01*
X297649Y461350D01*
X297547Y461328D01*
X297445Y461312D01*
X297428Y461302D01*
X297408Y461298D01*
X297319Y461245D01*
X297228Y461196D01*
X297214Y461182D01*
X297197Y461172D01*
X297130Y461093D01*
X297058Y461018D01*
X297050Y461000D01*
X297037Y460985D01*
X296998Y460889D01*
X296955Y460795D01*
X296953Y460775D01*
X296945Y460757D01*
X296927Y460590D01*
X296927Y446815D01*
X296941Y446725D01*
X296949Y446634D01*
X296961Y446604D01*
X296966Y446572D01*
X297009Y446491D01*
X297045Y446407D01*
X297071Y446375D01*
X297082Y446355D01*
X297105Y446332D01*
X297150Y446276D01*
X354335Y389091D01*
X354351Y389080D01*
X354364Y389064D01*
X354451Y389008D01*
X354535Y388948D01*
X354554Y388942D01*
X354570Y388931D01*
X354671Y388906D01*
X354770Y388875D01*
X354790Y388876D01*
X354809Y388871D01*
X354912Y388879D01*
X355016Y388882D01*
X355034Y388888D01*
X355054Y388890D01*
X355149Y388930D01*
X355247Y388966D01*
X355262Y388979D01*
X355281Y388986D01*
X355411Y389091D01*
X355593Y389273D01*
X358119Y389273D01*
X367683Y379709D01*
X367683Y377183D01*
X367501Y377001D01*
X367490Y376985D01*
X367474Y376973D01*
X367418Y376886D01*
X367358Y376802D01*
X367352Y376783D01*
X367341Y376766D01*
X367316Y376666D01*
X367285Y376567D01*
X367286Y376547D01*
X367281Y376527D01*
X367289Y376424D01*
X367292Y376321D01*
X367298Y376302D01*
X367300Y376282D01*
X367340Y376187D01*
X367376Y376090D01*
X367389Y376074D01*
X367396Y376056D01*
X367501Y375925D01*
X370076Y373350D01*
X385542Y357884D01*
X385558Y357873D01*
X385570Y357857D01*
X385658Y357801D01*
X385741Y357741D01*
X385760Y357735D01*
X385777Y357724D01*
X385878Y357699D01*
X385977Y357668D01*
X385996Y357669D01*
X386016Y357664D01*
X386119Y357672D01*
G37*
G36*
X462300Y-758D02*
X462300Y-758D01*
X462319Y-760D01*
X462421Y-738D01*
X462523Y-722D01*
X462540Y-712D01*
X462560Y-708D01*
X462649Y-655D01*
X462740Y-606D01*
X462754Y-592D01*
X462771Y-582D01*
X462838Y-503D01*
X462910Y-428D01*
X462918Y-410D01*
X462931Y-395D01*
X462970Y-299D01*
X463013Y-205D01*
X463015Y-185D01*
X463023Y-167D01*
X463041Y0D01*
X463041Y26663D01*
X464850Y28472D01*
X464903Y28546D01*
X464963Y28615D01*
X464975Y28645D01*
X464994Y28672D01*
X465021Y28759D01*
X465055Y28843D01*
X465059Y28884D01*
X465066Y28907D01*
X465065Y28939D01*
X465073Y29010D01*
X465073Y155790D01*
X465070Y155810D01*
X465072Y155829D01*
X465050Y155931D01*
X465034Y156033D01*
X465024Y156050D01*
X465020Y156070D01*
X464967Y156159D01*
X464918Y156250D01*
X464904Y156264D01*
X464894Y156281D01*
X464815Y156348D01*
X464740Y156420D01*
X464722Y156428D01*
X464707Y156441D01*
X464611Y156480D01*
X464517Y156523D01*
X464497Y156525D01*
X464479Y156533D01*
X464312Y156551D01*
X461977Y156551D01*
X460278Y158250D01*
X460262Y158262D01*
X460250Y158277D01*
X460162Y158333D01*
X460079Y158394D01*
X460060Y158400D01*
X460043Y158410D01*
X459942Y158436D01*
X459843Y158466D01*
X459824Y158466D01*
X459804Y158470D01*
X459701Y158462D01*
X459598Y158460D01*
X459579Y158453D01*
X459559Y158451D01*
X459464Y158411D01*
X459367Y158375D01*
X459351Y158363D01*
X459333Y158355D01*
X459202Y158250D01*
X457503Y156551D01*
X444977Y156551D01*
X443191Y158337D01*
X443191Y159104D01*
X443188Y159123D01*
X443190Y159141D01*
X443179Y159191D01*
X443178Y159247D01*
X443160Y159296D01*
X443152Y159347D01*
X443141Y159367D01*
X443138Y159381D01*
X443114Y159421D01*
X443093Y159478D01*
X443061Y159518D01*
X443036Y159564D01*
X443018Y159582D01*
X443012Y159592D01*
X442980Y159620D01*
X442940Y159670D01*
X442896Y159698D01*
X442858Y159734D01*
X442832Y159746D01*
X442825Y159752D01*
X442789Y159767D01*
X442733Y159803D01*
X442682Y159815D01*
X442635Y159837D01*
X442605Y159841D01*
X442597Y159844D01*
X442547Y159850D01*
X442494Y159863D01*
X442455Y159860D01*
X442430Y159863D01*
X442427Y159863D01*
X442419Y159861D01*
X442391Y159864D01*
X442320Y159849D01*
X442249Y159844D01*
X442210Y159827D01*
X442184Y159823D01*
X442174Y159817D01*
X442150Y159812D01*
X442089Y159775D01*
X442023Y159747D01*
X441985Y159717D01*
X441967Y159708D01*
X441956Y159696D01*
X441939Y159686D01*
X441924Y159668D01*
X441892Y159643D01*
X440914Y158664D01*
X438458Y156209D01*
X430222Y156209D01*
X424586Y161845D01*
X424540Y161935D01*
X424535Y161940D01*
X424532Y161945D01*
X424449Y162024D01*
X424364Y162108D01*
X424358Y162111D01*
X424354Y162115D01*
X424337Y162122D01*
X424217Y162188D01*
X422324Y162973D01*
X419259Y166038D01*
X417599Y170044D01*
X417599Y174380D01*
X419259Y178386D01*
X422324Y181451D01*
X426330Y183111D01*
X430666Y183111D01*
X434672Y181451D01*
X437737Y178386D01*
X439397Y174380D01*
X439397Y170044D01*
X439363Y169963D01*
X439353Y169919D01*
X439333Y169877D01*
X439325Y169800D01*
X439307Y169724D01*
X439311Y169678D01*
X439306Y169633D01*
X439323Y169556D01*
X439330Y169479D01*
X439349Y169437D01*
X439359Y169392D01*
X439398Y169325D01*
X439430Y169254D01*
X439461Y169220D01*
X439485Y169181D01*
X439544Y169130D01*
X439597Y169073D01*
X439637Y169051D01*
X439672Y169021D01*
X439744Y168992D01*
X439812Y168955D01*
X439857Y168946D01*
X439900Y168929D01*
X440036Y168914D01*
X440054Y168911D01*
X440059Y168912D01*
X440067Y168911D01*
X442430Y168911D01*
X442450Y168914D01*
X442469Y168912D01*
X442571Y168934D01*
X442673Y168950D01*
X442690Y168960D01*
X442710Y168964D01*
X442799Y169017D01*
X442890Y169066D01*
X442904Y169080D01*
X442921Y169090D01*
X442988Y169169D01*
X443060Y169244D01*
X443068Y169262D01*
X443081Y169277D01*
X443120Y169373D01*
X443163Y169467D01*
X443165Y169487D01*
X443173Y169505D01*
X443191Y169672D01*
X443191Y171863D01*
X444977Y173649D01*
X457503Y173649D01*
X459202Y171950D01*
X459218Y171938D01*
X459230Y171923D01*
X459318Y171867D01*
X459401Y171806D01*
X459420Y171800D01*
X459437Y171790D01*
X459538Y171764D01*
X459637Y171734D01*
X459656Y171734D01*
X459676Y171730D01*
X459779Y171738D01*
X459882Y171740D01*
X459901Y171747D01*
X459921Y171749D01*
X460016Y171789D01*
X460113Y171825D01*
X460129Y171837D01*
X460147Y171845D01*
X460278Y171950D01*
X461977Y173649D01*
X464312Y173649D01*
X464332Y173652D01*
X464351Y173650D01*
X464453Y173672D01*
X464555Y173688D01*
X464572Y173698D01*
X464592Y173702D01*
X464681Y173755D01*
X464772Y173804D01*
X464786Y173818D01*
X464803Y173828D01*
X464870Y173907D01*
X464942Y173982D01*
X464950Y174000D01*
X464963Y174015D01*
X465002Y174111D01*
X465045Y174205D01*
X465047Y174225D01*
X465055Y174243D01*
X465073Y174410D01*
X465073Y198345D01*
X465059Y198435D01*
X465051Y198526D01*
X465039Y198556D01*
X465034Y198588D01*
X464991Y198669D01*
X464955Y198753D01*
X464929Y198785D01*
X464918Y198805D01*
X464895Y198828D01*
X464850Y198884D01*
X450279Y213455D01*
X450262Y213467D01*
X450250Y213483D01*
X450162Y213539D01*
X450079Y213599D01*
X450060Y213605D01*
X450043Y213616D01*
X449942Y213641D01*
X449844Y213671D01*
X449824Y213671D01*
X449804Y213676D01*
X449701Y213668D01*
X449598Y213665D01*
X449579Y213658D01*
X449559Y213657D01*
X449464Y213616D01*
X449367Y213581D01*
X449351Y213568D01*
X449333Y213560D01*
X449229Y213477D01*
X444981Y212339D01*
X440740Y213475D01*
X438109Y216105D01*
X438109Y216106D01*
X437551Y216664D01*
X428517Y225698D01*
X427429Y226786D01*
X425328Y228887D01*
X424192Y233128D01*
X425329Y237372D01*
X425336Y237378D01*
X425392Y237465D01*
X425452Y237549D01*
X425458Y237568D01*
X425469Y237585D01*
X425494Y237685D01*
X425524Y237784D01*
X425524Y237804D01*
X425529Y237823D01*
X425521Y237926D01*
X425518Y238030D01*
X425511Y238048D01*
X425510Y238068D01*
X425469Y238164D01*
X425434Y238261D01*
X425421Y238276D01*
X425413Y238295D01*
X425308Y238426D01*
X425243Y238491D01*
X417825Y245909D01*
X417809Y245920D01*
X417797Y245936D01*
X417709Y245992D01*
X417625Y246052D01*
X417606Y246058D01*
X417590Y246069D01*
X417489Y246094D01*
X417390Y246125D01*
X417370Y246124D01*
X417351Y246129D01*
X417248Y246121D01*
X417144Y246118D01*
X417126Y246112D01*
X417106Y246110D01*
X417011Y246070D01*
X416913Y246034D01*
X416898Y246021D01*
X416880Y246014D01*
X416749Y245909D01*
X416567Y245727D01*
X414041Y245727D01*
X404477Y255291D01*
X404477Y257817D01*
X404659Y257999D01*
X404670Y258015D01*
X404686Y258027D01*
X404742Y258114D01*
X404802Y258198D01*
X404808Y258217D01*
X404819Y258234D01*
X404844Y258334D01*
X404875Y258433D01*
X404874Y258453D01*
X404879Y258473D01*
X404871Y258576D01*
X404868Y258679D01*
X404862Y258698D01*
X404860Y258718D01*
X404820Y258813D01*
X404784Y258910D01*
X404771Y258926D01*
X404764Y258944D01*
X404659Y259075D01*
X386618Y277116D01*
X386602Y277127D01*
X386590Y277143D01*
X386502Y277199D01*
X386419Y277259D01*
X386400Y277265D01*
X386383Y277276D01*
X386282Y277301D01*
X386183Y277332D01*
X386164Y277331D01*
X386144Y277336D01*
X386041Y277328D01*
X385938Y277325D01*
X385919Y277318D01*
X385899Y277317D01*
X385804Y277276D01*
X385707Y277241D01*
X385691Y277228D01*
X385673Y277220D01*
X385542Y277116D01*
X367501Y259075D01*
X367490Y259059D01*
X367474Y259046D01*
X367418Y258959D01*
X367358Y258875D01*
X367352Y258856D01*
X367341Y258840D01*
X367316Y258739D01*
X367285Y258640D01*
X367286Y258620D01*
X367281Y258601D01*
X367289Y258498D01*
X367292Y258394D01*
X367298Y258376D01*
X367300Y258356D01*
X367340Y258261D01*
X367376Y258163D01*
X367389Y258148D01*
X367396Y258130D01*
X367501Y257999D01*
X367683Y257817D01*
X367683Y255291D01*
X358119Y245727D01*
X355593Y245727D01*
X355411Y245909D01*
X355395Y245920D01*
X355383Y245936D01*
X355295Y245992D01*
X355212Y246052D01*
X355193Y246058D01*
X355176Y246069D01*
X355075Y246094D01*
X354977Y246125D01*
X354957Y246124D01*
X354937Y246129D01*
X354834Y246121D01*
X354731Y246118D01*
X354712Y246111D01*
X354692Y246110D01*
X354597Y246070D01*
X354500Y246034D01*
X354484Y246021D01*
X354466Y246014D01*
X354335Y245909D01*
X297150Y188724D01*
X297097Y188650D01*
X297037Y188580D01*
X297025Y188550D01*
X297006Y188524D01*
X296979Y188437D01*
X296945Y188352D01*
X296941Y188311D01*
X296934Y188289D01*
X296935Y188257D01*
X296927Y188185D01*
X296927Y174410D01*
X296930Y174390D01*
X296928Y174371D01*
X296950Y174269D01*
X296966Y174167D01*
X296976Y174150D01*
X296980Y174130D01*
X297033Y174041D01*
X297082Y173950D01*
X297096Y173936D01*
X297106Y173919D01*
X297185Y173852D01*
X297260Y173780D01*
X297278Y173772D01*
X297293Y173759D01*
X297389Y173720D01*
X297483Y173677D01*
X297503Y173675D01*
X297521Y173667D01*
X297688Y173649D01*
X300023Y173649D01*
X301722Y171950D01*
X301738Y171938D01*
X301750Y171923D01*
X301838Y171867D01*
X301921Y171806D01*
X301940Y171800D01*
X301957Y171790D01*
X302058Y171764D01*
X302157Y171734D01*
X302176Y171734D01*
X302196Y171730D01*
X302299Y171738D01*
X302402Y171740D01*
X302421Y171747D01*
X302441Y171749D01*
X302536Y171789D01*
X302633Y171825D01*
X302649Y171837D01*
X302667Y171845D01*
X302798Y171950D01*
X304497Y173649D01*
X317023Y173649D01*
X318809Y171863D01*
X318809Y169496D01*
X318823Y169406D01*
X318831Y169315D01*
X318843Y169285D01*
X318848Y169253D01*
X318891Y169173D01*
X318927Y169088D01*
X318953Y169056D01*
X318964Y169036D01*
X318987Y169014D01*
X319032Y168958D01*
X321050Y166939D01*
X321108Y166898D01*
X321160Y166848D01*
X321207Y166826D01*
X321249Y166796D01*
X321318Y166775D01*
X321383Y166745D01*
X321435Y166739D01*
X321485Y166724D01*
X321556Y166725D01*
X321627Y166718D01*
X321678Y166729D01*
X321730Y166730D01*
X321798Y166755D01*
X321868Y166770D01*
X321913Y166796D01*
X321961Y166814D01*
X322017Y166859D01*
X322079Y166896D01*
X322113Y166936D01*
X322153Y166968D01*
X322192Y167028D01*
X322239Y167083D01*
X322258Y167131D01*
X322286Y167175D01*
X322304Y167244D01*
X322331Y167311D01*
X322339Y167382D01*
X322347Y167414D01*
X322345Y167437D01*
X322349Y167478D01*
X322349Y181833D01*
X324135Y183619D01*
X342361Y183619D01*
X344147Y181833D01*
X344147Y163607D01*
X342361Y161821D01*
X337706Y161821D01*
X337616Y161807D01*
X337525Y161799D01*
X337495Y161787D01*
X337463Y161782D01*
X337382Y161739D01*
X337298Y161703D01*
X337266Y161677D01*
X337246Y161666D01*
X337224Y161643D01*
X337167Y161598D01*
X334604Y159034D01*
X331778Y156209D01*
X321002Y156209D01*
X319379Y157831D01*
X319363Y157843D01*
X319351Y157859D01*
X319263Y157915D01*
X319180Y157975D01*
X319161Y157981D01*
X319144Y157992D01*
X319043Y158017D01*
X318945Y158047D01*
X318925Y158047D01*
X318905Y158052D01*
X318802Y158044D01*
X318699Y158041D01*
X318680Y158034D01*
X318660Y158032D01*
X318565Y157992D01*
X318468Y157956D01*
X318452Y157944D01*
X318434Y157936D01*
X318303Y157831D01*
X317023Y156551D01*
X304497Y156551D01*
X302798Y158250D01*
X302782Y158262D01*
X302770Y158277D01*
X302682Y158333D01*
X302599Y158394D01*
X302580Y158400D01*
X302563Y158410D01*
X302462Y158436D01*
X302363Y158466D01*
X302344Y158466D01*
X302324Y158470D01*
X302221Y158462D01*
X302118Y158460D01*
X302099Y158453D01*
X302079Y158451D01*
X301984Y158411D01*
X301887Y158375D01*
X301871Y158363D01*
X301853Y158355D01*
X301722Y158250D01*
X300023Y156551D01*
X297688Y156551D01*
X297668Y156548D01*
X297649Y156550D01*
X297547Y156528D01*
X297445Y156512D01*
X297428Y156502D01*
X297408Y156498D01*
X297319Y156445D01*
X297228Y156396D01*
X297214Y156382D01*
X297197Y156372D01*
X297130Y156293D01*
X297058Y156218D01*
X297050Y156200D01*
X297037Y156185D01*
X296998Y156089D01*
X296955Y155995D01*
X296953Y155975D01*
X296945Y155957D01*
X296927Y155790D01*
X296927Y29010D01*
X296941Y28920D01*
X296949Y28829D01*
X296961Y28799D01*
X296966Y28767D01*
X297009Y28687D01*
X297045Y28603D01*
X297071Y28571D01*
X297082Y28550D01*
X297105Y28528D01*
X297150Y28472D01*
X298959Y26663D01*
X298959Y0D01*
X298962Y-20D01*
X298960Y-39D01*
X298982Y-141D01*
X298998Y-243D01*
X299008Y-260D01*
X299012Y-280D01*
X299065Y-369D01*
X299114Y-460D01*
X299128Y-474D01*
X299138Y-491D01*
X299217Y-558D01*
X299292Y-630D01*
X299310Y-638D01*
X299325Y-651D01*
X299421Y-690D01*
X299515Y-733D01*
X299535Y-735D01*
X299553Y-743D01*
X299720Y-761D01*
X462280Y-761D01*
X462300Y-758D01*
G37*
%LPC*%
G36*
X445857Y251035D02*
X445857Y251035D01*
X444071Y252821D01*
X444071Y260347D01*
X444158Y260434D01*
X444170Y260450D01*
X444185Y260462D01*
X444241Y260549D01*
X444302Y260633D01*
X444308Y260652D01*
X444318Y260669D01*
X444344Y260770D01*
X444374Y260868D01*
X444374Y260888D01*
X444378Y260908D01*
X444370Y261011D01*
X444368Y261114D01*
X444361Y261133D01*
X444359Y261153D01*
X444319Y261248D01*
X444283Y261345D01*
X444271Y261361D01*
X444263Y261379D01*
X444158Y261510D01*
X443571Y262097D01*
X443571Y274623D01*
X445270Y276322D01*
X445282Y276338D01*
X445297Y276350D01*
X445353Y276438D01*
X445414Y276521D01*
X445420Y276540D01*
X445430Y276557D01*
X445456Y276658D01*
X445486Y276757D01*
X445486Y276776D01*
X445490Y276796D01*
X445482Y276899D01*
X445480Y277002D01*
X445473Y277021D01*
X445471Y277041D01*
X445431Y277136D01*
X445395Y277233D01*
X445383Y277249D01*
X445375Y277267D01*
X445270Y277398D01*
X443571Y279097D01*
X443571Y279908D01*
X443568Y279928D01*
X443570Y279947D01*
X443548Y280049D01*
X443532Y280151D01*
X443522Y280168D01*
X443518Y280188D01*
X443465Y280277D01*
X443416Y280368D01*
X443402Y280382D01*
X443392Y280399D01*
X443313Y280466D01*
X443238Y280538D01*
X443220Y280546D01*
X443205Y280559D01*
X443109Y280598D01*
X443015Y280641D01*
X442995Y280643D01*
X442977Y280651D01*
X442810Y280669D01*
X440382Y280669D01*
X434189Y286862D01*
X434189Y296490D01*
X434186Y296510D01*
X434188Y296529D01*
X434166Y296631D01*
X434150Y296733D01*
X434140Y296750D01*
X434136Y296770D01*
X434083Y296859D01*
X434034Y296950D01*
X434020Y296964D01*
X434010Y296981D01*
X433931Y297048D01*
X433856Y297120D01*
X433838Y297128D01*
X433823Y297141D01*
X433727Y297180D01*
X433633Y297223D01*
X433613Y297225D01*
X433595Y297233D01*
X433428Y297251D01*
X433237Y297251D01*
X431451Y299037D01*
X431451Y299212D01*
X431448Y299232D01*
X431450Y299251D01*
X431428Y299353D01*
X431412Y299455D01*
X431402Y299472D01*
X431398Y299492D01*
X431345Y299581D01*
X431296Y299672D01*
X431282Y299686D01*
X431272Y299703D01*
X431193Y299770D01*
X431118Y299842D01*
X431100Y299850D01*
X431085Y299863D01*
X430989Y299902D01*
X430895Y299945D01*
X430875Y299947D01*
X430857Y299955D01*
X430690Y299973D01*
X419641Y299973D01*
X409156Y310458D01*
X409082Y310511D01*
X409012Y310571D01*
X408982Y310583D01*
X408956Y310602D01*
X408869Y310629D01*
X408784Y310663D01*
X408743Y310667D01*
X408721Y310674D01*
X408689Y310673D01*
X408617Y310681D01*
X398046Y310681D01*
X398043Y310683D01*
X398002Y310687D01*
X397980Y310694D01*
X397948Y310693D01*
X397876Y310701D01*
X395737Y310701D01*
X393951Y312487D01*
X393951Y322513D01*
X395737Y324299D01*
X397876Y324299D01*
X397966Y324314D01*
X398032Y324319D01*
X408617Y324319D01*
X408707Y324333D01*
X408798Y324341D01*
X408828Y324353D01*
X408860Y324358D01*
X408941Y324401D01*
X409025Y324437D01*
X409057Y324463D01*
X409077Y324474D01*
X409100Y324497D01*
X409156Y324542D01*
X419641Y335027D01*
X430690Y335027D01*
X430710Y335030D01*
X430729Y335028D01*
X430831Y335050D01*
X430933Y335066D01*
X430950Y335076D01*
X430970Y335080D01*
X431059Y335133D01*
X431150Y335182D01*
X431164Y335196D01*
X431181Y335206D01*
X431248Y335285D01*
X431320Y335360D01*
X431328Y335378D01*
X431341Y335393D01*
X431380Y335489D01*
X431423Y335583D01*
X431425Y335603D01*
X431433Y335621D01*
X431451Y335788D01*
X431451Y335963D01*
X433237Y337749D01*
X433428Y337749D01*
X433448Y337752D01*
X433467Y337750D01*
X433569Y337772D01*
X433671Y337788D01*
X433688Y337798D01*
X433708Y337802D01*
X433797Y337855D01*
X433888Y337904D01*
X433902Y337918D01*
X433919Y337928D01*
X433986Y338007D01*
X434058Y338082D01*
X434066Y338100D01*
X434079Y338115D01*
X434118Y338211D01*
X434161Y338305D01*
X434163Y338325D01*
X434171Y338343D01*
X434189Y338510D01*
X434189Y348138D01*
X440382Y354331D01*
X442810Y354331D01*
X442830Y354334D01*
X442849Y354332D01*
X442951Y354354D01*
X443053Y354370D01*
X443070Y354380D01*
X443090Y354384D01*
X443179Y354437D01*
X443270Y354486D01*
X443284Y354500D01*
X443301Y354510D01*
X443368Y354589D01*
X443440Y354664D01*
X443448Y354682D01*
X443461Y354697D01*
X443500Y354793D01*
X443543Y354887D01*
X443545Y354907D01*
X443553Y354925D01*
X443571Y355092D01*
X443571Y355903D01*
X445270Y357602D01*
X445282Y357618D01*
X445297Y357630D01*
X445353Y357718D01*
X445414Y357801D01*
X445420Y357820D01*
X445430Y357837D01*
X445456Y357938D01*
X445486Y358037D01*
X445486Y358056D01*
X445490Y358076D01*
X445482Y358179D01*
X445480Y358282D01*
X445473Y358301D01*
X445471Y358321D01*
X445431Y358416D01*
X445395Y358513D01*
X445383Y358529D01*
X445375Y358547D01*
X445270Y358678D01*
X443571Y360377D01*
X443571Y372903D01*
X444412Y373744D01*
X444424Y373760D01*
X444439Y373772D01*
X444495Y373859D01*
X444556Y373943D01*
X444562Y373962D01*
X444572Y373979D01*
X444598Y374080D01*
X444628Y374179D01*
X444628Y374198D01*
X444632Y374218D01*
X444624Y374321D01*
X444622Y374424D01*
X444615Y374443D01*
X444613Y374463D01*
X444573Y374558D01*
X444537Y374655D01*
X444525Y374671D01*
X444517Y374689D01*
X444412Y374820D01*
X444071Y375161D01*
X444071Y382687D01*
X445857Y384473D01*
X458383Y384473D01*
X460169Y382687D01*
X460169Y375161D01*
X459828Y374820D01*
X459816Y374804D01*
X459801Y374792D01*
X459745Y374705D01*
X459684Y374621D01*
X459678Y374602D01*
X459668Y374585D01*
X459642Y374484D01*
X459612Y374385D01*
X459612Y374366D01*
X459608Y374346D01*
X459616Y374243D01*
X459618Y374140D01*
X459625Y374121D01*
X459627Y374101D01*
X459667Y374006D01*
X459703Y373909D01*
X459715Y373893D01*
X459723Y373875D01*
X459828Y373744D01*
X460669Y372903D01*
X460669Y360377D01*
X458970Y358678D01*
X458958Y358662D01*
X458943Y358650D01*
X458887Y358562D01*
X458826Y358479D01*
X458820Y358460D01*
X458810Y358443D01*
X458784Y358342D01*
X458754Y358243D01*
X458754Y358224D01*
X458750Y358204D01*
X458758Y358101D01*
X458760Y357998D01*
X458767Y357979D01*
X458769Y357959D01*
X458809Y357864D01*
X458845Y357767D01*
X458857Y357751D01*
X458865Y357733D01*
X458970Y357602D01*
X460669Y355903D01*
X460669Y343377D01*
X458883Y341591D01*
X445357Y341591D01*
X443571Y343377D01*
X443571Y344904D01*
X443560Y344975D01*
X443558Y345047D01*
X443540Y345096D01*
X443532Y345147D01*
X443498Y345210D01*
X443473Y345278D01*
X443441Y345318D01*
X443416Y345364D01*
X443365Y345414D01*
X443320Y345470D01*
X443276Y345498D01*
X443238Y345534D01*
X443173Y345564D01*
X443113Y345603D01*
X443062Y345615D01*
X443015Y345637D01*
X442944Y345645D01*
X442874Y345663D01*
X442822Y345659D01*
X442771Y345664D01*
X442700Y345649D01*
X442629Y345644D01*
X442581Y345623D01*
X442530Y345612D01*
X442469Y345575D01*
X442403Y345547D01*
X442347Y345503D01*
X442319Y345486D01*
X442304Y345468D01*
X442272Y345443D01*
X442034Y345204D01*
X441981Y345130D01*
X441921Y345061D01*
X441909Y345031D01*
X441890Y345005D01*
X441863Y344918D01*
X441829Y344833D01*
X441825Y344792D01*
X441818Y344770D01*
X441819Y344737D01*
X441811Y344666D01*
X441811Y338510D01*
X441814Y338490D01*
X441812Y338471D01*
X441834Y338369D01*
X441850Y338267D01*
X441860Y338250D01*
X441864Y338230D01*
X441917Y338141D01*
X441966Y338050D01*
X441980Y338036D01*
X441990Y338019D01*
X442069Y337952D01*
X442144Y337880D01*
X442162Y337872D01*
X442177Y337859D01*
X442273Y337820D01*
X442367Y337777D01*
X442387Y337775D01*
X442405Y337767D01*
X442572Y337749D01*
X442763Y337749D01*
X443962Y336550D01*
X443978Y336538D01*
X443990Y336523D01*
X444078Y336467D01*
X444161Y336406D01*
X444180Y336400D01*
X444197Y336390D01*
X444298Y336364D01*
X444397Y336334D01*
X444416Y336334D01*
X444436Y336330D01*
X444539Y336338D01*
X444642Y336340D01*
X444661Y336347D01*
X444681Y336349D01*
X444776Y336389D01*
X444873Y336425D01*
X444889Y336437D01*
X444907Y336445D01*
X445038Y336550D01*
X446237Y337749D01*
X455763Y337749D01*
X457549Y335963D01*
X457549Y335788D01*
X457552Y335768D01*
X457550Y335749D01*
X457572Y335647D01*
X457588Y335545D01*
X457598Y335528D01*
X457602Y335508D01*
X457655Y335419D01*
X457704Y335328D01*
X457718Y335314D01*
X457728Y335297D01*
X457807Y335230D01*
X457882Y335158D01*
X457900Y335150D01*
X457915Y335137D01*
X458011Y335098D01*
X458105Y335055D01*
X458125Y335053D01*
X458143Y335045D01*
X458310Y335027D01*
X467560Y335027D01*
X467650Y335041D01*
X467741Y335049D01*
X467771Y335061D01*
X467803Y335066D01*
X467883Y335109D01*
X467967Y335145D01*
X467999Y335171D01*
X468020Y335182D01*
X468042Y335205D01*
X468098Y335250D01*
X469907Y337059D01*
X486403Y337059D01*
X488189Y335273D01*
X488189Y325127D01*
X486403Y323341D01*
X469907Y323341D01*
X468098Y325150D01*
X468024Y325203D01*
X467955Y325263D01*
X467925Y325275D01*
X467898Y325294D01*
X467811Y325321D01*
X467727Y325355D01*
X467686Y325359D01*
X467663Y325366D01*
X467631Y325365D01*
X467560Y325373D01*
X458310Y325373D01*
X458290Y325370D01*
X458271Y325372D01*
X458169Y325350D01*
X458067Y325334D01*
X458050Y325324D01*
X458030Y325320D01*
X457941Y325267D01*
X457850Y325218D01*
X457836Y325204D01*
X457819Y325194D01*
X457752Y325115D01*
X457680Y325040D01*
X457672Y325022D01*
X457659Y325007D01*
X457620Y324911D01*
X457577Y324817D01*
X457575Y324797D01*
X457567Y324779D01*
X457549Y324612D01*
X457549Y324437D01*
X455763Y322651D01*
X446237Y322651D01*
X445038Y323850D01*
X445022Y323862D01*
X445010Y323877D01*
X444922Y323933D01*
X444839Y323994D01*
X444820Y324000D01*
X444803Y324010D01*
X444702Y324036D01*
X444603Y324066D01*
X444584Y324066D01*
X444564Y324070D01*
X444461Y324062D01*
X444358Y324060D01*
X444339Y324053D01*
X444319Y324051D01*
X444224Y324011D01*
X444127Y323975D01*
X444111Y323963D01*
X444093Y323955D01*
X443962Y323850D01*
X442763Y322651D01*
X433237Y322651D01*
X431451Y324437D01*
X431451Y324612D01*
X431448Y324632D01*
X431450Y324651D01*
X431428Y324753D01*
X431412Y324855D01*
X431402Y324872D01*
X431398Y324892D01*
X431345Y324981D01*
X431296Y325072D01*
X431282Y325086D01*
X431272Y325103D01*
X431193Y325170D01*
X431118Y325242D01*
X431100Y325250D01*
X431085Y325263D01*
X430989Y325302D01*
X430895Y325345D01*
X430875Y325347D01*
X430857Y325355D01*
X430690Y325373D01*
X423955Y325373D01*
X423865Y325359D01*
X423774Y325351D01*
X423744Y325339D01*
X423712Y325334D01*
X423631Y325291D01*
X423547Y325255D01*
X423515Y325229D01*
X423495Y325218D01*
X423472Y325195D01*
X423416Y325150D01*
X416304Y318038D01*
X416293Y318022D01*
X416277Y318010D01*
X416221Y317922D01*
X416161Y317839D01*
X416155Y317820D01*
X416144Y317803D01*
X416119Y317702D01*
X416088Y317603D01*
X416089Y317584D01*
X416084Y317564D01*
X416092Y317461D01*
X416095Y317358D01*
X416102Y317339D01*
X416103Y317319D01*
X416144Y317224D01*
X416179Y317127D01*
X416192Y317111D01*
X416200Y317093D01*
X416304Y316962D01*
X423416Y309850D01*
X423490Y309797D01*
X423560Y309737D01*
X423590Y309725D01*
X423616Y309706D01*
X423703Y309679D01*
X423788Y309645D01*
X423829Y309641D01*
X423851Y309634D01*
X423883Y309635D01*
X423955Y309627D01*
X430690Y309627D01*
X430710Y309630D01*
X430729Y309628D01*
X430831Y309650D01*
X430933Y309666D01*
X430950Y309676D01*
X430970Y309680D01*
X431059Y309733D01*
X431150Y309782D01*
X431164Y309796D01*
X431181Y309806D01*
X431248Y309885D01*
X431320Y309960D01*
X431328Y309978D01*
X431341Y309993D01*
X431380Y310089D01*
X431423Y310183D01*
X431425Y310203D01*
X431433Y310221D01*
X431451Y310388D01*
X431451Y310563D01*
X433237Y312349D01*
X442763Y312349D01*
X443962Y311150D01*
X443978Y311138D01*
X443990Y311123D01*
X444078Y311067D01*
X444161Y311006D01*
X444180Y311000D01*
X444197Y310990D01*
X444298Y310964D01*
X444397Y310934D01*
X444416Y310934D01*
X444436Y310930D01*
X444539Y310938D01*
X444642Y310940D01*
X444661Y310947D01*
X444681Y310949D01*
X444776Y310989D01*
X444873Y311025D01*
X444889Y311037D01*
X444907Y311045D01*
X445038Y311150D01*
X446237Y312349D01*
X455763Y312349D01*
X457549Y310563D01*
X457549Y310388D01*
X457552Y310368D01*
X457550Y310349D01*
X457572Y310247D01*
X457588Y310145D01*
X457598Y310128D01*
X457602Y310108D01*
X457655Y310019D01*
X457704Y309928D01*
X457718Y309914D01*
X457728Y309897D01*
X457807Y309830D01*
X457882Y309758D01*
X457900Y309750D01*
X457915Y309737D01*
X458011Y309698D01*
X458105Y309655D01*
X458125Y309653D01*
X458143Y309645D01*
X458310Y309627D01*
X467560Y309627D01*
X467650Y309641D01*
X467741Y309649D01*
X467771Y309661D01*
X467803Y309666D01*
X467883Y309709D01*
X467967Y309745D01*
X467999Y309771D01*
X468020Y309782D01*
X468042Y309805D01*
X468098Y309850D01*
X469907Y311659D01*
X486403Y311659D01*
X488189Y309873D01*
X488189Y299727D01*
X486403Y297941D01*
X469907Y297941D01*
X468098Y299750D01*
X468024Y299803D01*
X467955Y299863D01*
X467925Y299875D01*
X467898Y299894D01*
X467811Y299921D01*
X467727Y299955D01*
X467686Y299959D01*
X467663Y299966D01*
X467631Y299965D01*
X467560Y299973D01*
X458310Y299973D01*
X458290Y299970D01*
X458271Y299972D01*
X458169Y299950D01*
X458067Y299934D01*
X458050Y299924D01*
X458030Y299920D01*
X457941Y299867D01*
X457850Y299818D01*
X457836Y299804D01*
X457819Y299794D01*
X457752Y299715D01*
X457680Y299640D01*
X457672Y299622D01*
X457659Y299607D01*
X457620Y299511D01*
X457577Y299417D01*
X457575Y299397D01*
X457567Y299379D01*
X457549Y299212D01*
X457549Y299037D01*
X455763Y297251D01*
X446237Y297251D01*
X445038Y298450D01*
X445022Y298462D01*
X445010Y298477D01*
X444922Y298533D01*
X444839Y298594D01*
X444820Y298600D01*
X444803Y298610D01*
X444702Y298636D01*
X444603Y298666D01*
X444584Y298666D01*
X444564Y298670D01*
X444461Y298662D01*
X444358Y298660D01*
X444339Y298653D01*
X444319Y298651D01*
X444224Y298611D01*
X444127Y298575D01*
X444111Y298563D01*
X444093Y298555D01*
X443962Y298450D01*
X442763Y297251D01*
X442572Y297251D01*
X442552Y297248D01*
X442533Y297250D01*
X442431Y297228D01*
X442329Y297212D01*
X442312Y297202D01*
X442292Y297198D01*
X442203Y297145D01*
X442112Y297096D01*
X442098Y297082D01*
X442081Y297072D01*
X442014Y296993D01*
X441942Y296918D01*
X441934Y296900D01*
X441921Y296885D01*
X441882Y296789D01*
X441839Y296695D01*
X441837Y296675D01*
X441829Y296657D01*
X441811Y296490D01*
X441811Y290334D01*
X441825Y290244D01*
X441833Y290153D01*
X441845Y290123D01*
X441850Y290091D01*
X441893Y290010D01*
X441929Y289927D01*
X441955Y289894D01*
X441966Y289874D01*
X441989Y289852D01*
X442034Y289796D01*
X442272Y289557D01*
X442330Y289516D01*
X442382Y289466D01*
X442429Y289444D01*
X442471Y289414D01*
X442540Y289393D01*
X442605Y289363D01*
X442657Y289357D01*
X442707Y289342D01*
X442778Y289343D01*
X442849Y289336D01*
X442900Y289347D01*
X442952Y289348D01*
X443020Y289373D01*
X443090Y289388D01*
X443135Y289415D01*
X443183Y289432D01*
X443239Y289477D01*
X443301Y289514D01*
X443335Y289554D01*
X443375Y289586D01*
X443414Y289646D01*
X443461Y289701D01*
X443480Y289749D01*
X443508Y289793D01*
X443526Y289862D01*
X443553Y289929D01*
X443561Y290000D01*
X443569Y290031D01*
X443567Y290055D01*
X443571Y290096D01*
X443571Y291623D01*
X445357Y293409D01*
X458883Y293409D01*
X460669Y291623D01*
X460669Y279097D01*
X458970Y277398D01*
X458958Y277382D01*
X458943Y277370D01*
X458887Y277282D01*
X458826Y277199D01*
X458820Y277180D01*
X458810Y277163D01*
X458784Y277062D01*
X458754Y276963D01*
X458754Y276944D01*
X458750Y276924D01*
X458758Y276821D01*
X458760Y276718D01*
X458767Y276699D01*
X458769Y276679D01*
X458809Y276584D01*
X458845Y276487D01*
X458857Y276471D01*
X458865Y276453D01*
X458970Y276322D01*
X460669Y274623D01*
X460669Y262097D01*
X460082Y261510D01*
X460070Y261494D01*
X460055Y261482D01*
X459999Y261394D01*
X459938Y261311D01*
X459932Y261292D01*
X459922Y261275D01*
X459896Y261174D01*
X459866Y261075D01*
X459866Y261055D01*
X459862Y261036D01*
X459870Y260933D01*
X459872Y260830D01*
X459879Y260811D01*
X459881Y260791D01*
X459921Y260696D01*
X459957Y260599D01*
X459969Y260583D01*
X459977Y260565D01*
X460082Y260434D01*
X460169Y260347D01*
X460169Y252821D01*
X458383Y251035D01*
X445857Y251035D01*
G37*
%LPD*%
%LPC*%
G36*
X374229Y421337D02*
X374229Y421337D01*
X372443Y423123D01*
X372443Y427925D01*
X372433Y427989D01*
X372432Y428055D01*
X372409Y428135D01*
X372404Y428167D01*
X372394Y428185D01*
X372385Y428216D01*
X372363Y428269D01*
X372363Y448310D01*
X372360Y448330D01*
X372362Y448349D01*
X372340Y448451D01*
X372324Y448553D01*
X372314Y448570D01*
X372310Y448590D01*
X372257Y448679D01*
X372208Y448770D01*
X372194Y448784D01*
X372184Y448801D01*
X372105Y448868D01*
X372030Y448940D01*
X372012Y448948D01*
X371997Y448961D01*
X371901Y449000D01*
X371807Y449043D01*
X371787Y449045D01*
X371769Y449053D01*
X371602Y449071D01*
X369038Y449071D01*
X369018Y449068D01*
X368999Y449070D01*
X368897Y449048D01*
X368795Y449032D01*
X368778Y449022D01*
X368758Y449018D01*
X368669Y448965D01*
X368578Y448916D01*
X368564Y448902D01*
X368547Y448892D01*
X368480Y448813D01*
X368408Y448738D01*
X368400Y448720D01*
X368387Y448705D01*
X368348Y448609D01*
X368305Y448515D01*
X368303Y448495D01*
X368295Y448477D01*
X368277Y448310D01*
X368277Y448087D01*
X366491Y446301D01*
X348265Y446301D01*
X346479Y448087D01*
X346479Y466313D01*
X348265Y468099D01*
X366491Y468099D01*
X368277Y466313D01*
X368277Y466090D01*
X368280Y466070D01*
X368278Y466051D01*
X368300Y465949D01*
X368316Y465847D01*
X368326Y465830D01*
X368330Y465810D01*
X368383Y465721D01*
X368432Y465630D01*
X368446Y465616D01*
X368456Y465599D01*
X368535Y465532D01*
X368610Y465460D01*
X368628Y465452D01*
X368643Y465439D01*
X368739Y465400D01*
X368833Y465357D01*
X368853Y465355D01*
X368871Y465347D01*
X369038Y465329D01*
X371602Y465329D01*
X371622Y465332D01*
X371641Y465330D01*
X371743Y465352D01*
X371845Y465368D01*
X371862Y465378D01*
X371882Y465382D01*
X371971Y465435D01*
X372062Y465484D01*
X372076Y465498D01*
X372093Y465508D01*
X372160Y465587D01*
X372232Y465662D01*
X372240Y465680D01*
X372253Y465695D01*
X372292Y465791D01*
X372335Y465885D01*
X372337Y465905D01*
X372345Y465923D01*
X372363Y466090D01*
X372363Y509109D01*
X373601Y512097D01*
X376395Y514891D01*
X379383Y516129D01*
X382617Y516129D01*
X385605Y514891D01*
X387891Y512605D01*
X389129Y509617D01*
X389129Y506383D01*
X388679Y505297D01*
X388664Y505233D01*
X388639Y505172D01*
X388630Y505089D01*
X388623Y505057D01*
X388624Y505038D01*
X388621Y505005D01*
X388621Y465836D01*
X388624Y465816D01*
X388622Y465797D01*
X388644Y465695D01*
X388660Y465593D01*
X388670Y465576D01*
X388674Y465556D01*
X388727Y465467D01*
X388776Y465376D01*
X388790Y465362D01*
X388800Y465345D01*
X388879Y465278D01*
X388954Y465206D01*
X388972Y465198D01*
X388987Y465185D01*
X389083Y465146D01*
X389177Y465103D01*
X389197Y465101D01*
X389215Y465093D01*
X389382Y465075D01*
X397276Y465075D01*
X397366Y465089D01*
X397457Y465097D01*
X397487Y465109D01*
X397519Y465114D01*
X397600Y465157D01*
X397684Y465193D01*
X397716Y465219D01*
X397736Y465230D01*
X397759Y465253D01*
X397815Y465298D01*
X398702Y466185D01*
X402708Y467845D01*
X407044Y467845D01*
X411050Y466185D01*
X414115Y463120D01*
X415775Y459114D01*
X415775Y454778D01*
X414115Y450772D01*
X411050Y447707D01*
X407044Y446047D01*
X402708Y446047D01*
X398702Y447707D01*
X397815Y448594D01*
X397741Y448647D01*
X397671Y448707D01*
X397641Y448719D01*
X397615Y448738D01*
X397528Y448765D01*
X397443Y448799D01*
X397402Y448803D01*
X397380Y448810D01*
X397348Y448809D01*
X397276Y448817D01*
X389382Y448817D01*
X389362Y448814D01*
X389343Y448816D01*
X389241Y448794D01*
X389139Y448778D01*
X389122Y448768D01*
X389102Y448764D01*
X389013Y448711D01*
X388922Y448662D01*
X388908Y448648D01*
X388891Y448638D01*
X388824Y448559D01*
X388752Y448484D01*
X388744Y448466D01*
X388731Y448451D01*
X388692Y448355D01*
X388649Y448261D01*
X388647Y448241D01*
X388639Y448223D01*
X388621Y448056D01*
X388621Y428269D01*
X388599Y428216D01*
X388584Y428152D01*
X388559Y428091D01*
X388550Y428008D01*
X388543Y427976D01*
X388544Y427957D01*
X388541Y427925D01*
X388541Y423123D01*
X386755Y421337D01*
X374229Y421337D01*
G37*
%LPD*%
%LPC*%
G36*
X378875Y119379D02*
X378875Y119379D01*
X375887Y120617D01*
X373601Y122903D01*
X372363Y125891D01*
X372363Y163830D01*
X372360Y163850D01*
X372362Y163869D01*
X372340Y163971D01*
X372324Y164073D01*
X372314Y164090D01*
X372310Y164110D01*
X372257Y164199D01*
X372208Y164290D01*
X372194Y164304D01*
X372184Y164321D01*
X372105Y164388D01*
X372030Y164460D01*
X372012Y164468D01*
X371997Y164481D01*
X371901Y164520D01*
X371807Y164563D01*
X371787Y164565D01*
X371769Y164573D01*
X371602Y164591D01*
X366248Y164591D01*
X366158Y164577D01*
X366067Y164569D01*
X366037Y164557D01*
X366005Y164552D01*
X365924Y164509D01*
X365840Y164473D01*
X365808Y164447D01*
X365788Y164436D01*
X365765Y164413D01*
X365709Y164368D01*
X364822Y163481D01*
X360816Y161821D01*
X356480Y161821D01*
X352474Y163481D01*
X349409Y166546D01*
X347749Y170552D01*
X347749Y174888D01*
X349409Y178894D01*
X352474Y181959D01*
X356480Y183619D01*
X360816Y183619D01*
X364822Y181959D01*
X365709Y181072D01*
X365783Y181019D01*
X365853Y180959D01*
X365883Y180947D01*
X365909Y180928D01*
X365996Y180901D01*
X366081Y180867D01*
X366122Y180863D01*
X366144Y180856D01*
X366176Y180857D01*
X366248Y180849D01*
X371348Y180849D01*
X371368Y180852D01*
X371387Y180850D01*
X371489Y180872D01*
X371591Y180888D01*
X371608Y180898D01*
X371628Y180902D01*
X371717Y180955D01*
X371808Y181004D01*
X371822Y181018D01*
X371839Y181028D01*
X371906Y181107D01*
X371978Y181182D01*
X371986Y181200D01*
X371999Y181215D01*
X372038Y181311D01*
X372081Y181405D01*
X372083Y181425D01*
X372091Y181443D01*
X372109Y181610D01*
X372109Y202159D01*
X372131Y202212D01*
X372141Y202254D01*
X372157Y202288D01*
X372159Y202307D01*
X372171Y202337D01*
X372180Y202420D01*
X372187Y202452D01*
X372186Y202471D01*
X372189Y202503D01*
X372189Y207305D01*
X373975Y209091D01*
X386501Y209091D01*
X388287Y207305D01*
X388287Y202503D01*
X388293Y202463D01*
X388292Y202453D01*
X388297Y202430D01*
X388298Y202373D01*
X388321Y202293D01*
X388326Y202261D01*
X388336Y202244D01*
X388345Y202212D01*
X388367Y202159D01*
X388367Y181102D01*
X388370Y181082D01*
X388368Y181063D01*
X388390Y180961D01*
X388406Y180859D01*
X388416Y180842D01*
X388420Y180822D01*
X388473Y180733D01*
X388522Y180642D01*
X388536Y180628D01*
X388546Y180611D01*
X388625Y180544D01*
X388700Y180472D01*
X388718Y180464D01*
X388733Y180451D01*
X388829Y180412D01*
X388923Y180369D01*
X388943Y180367D01*
X388961Y180359D01*
X389128Y180341D01*
X391438Y180341D01*
X391458Y180344D01*
X391477Y180342D01*
X391579Y180364D01*
X391681Y180380D01*
X391698Y180390D01*
X391718Y180394D01*
X391807Y180447D01*
X391898Y180496D01*
X391912Y180510D01*
X391929Y180520D01*
X391996Y180599D01*
X392068Y180674D01*
X392076Y180692D01*
X392089Y180707D01*
X392128Y180803D01*
X392171Y180897D01*
X392173Y180917D01*
X392181Y180935D01*
X392199Y181102D01*
X392199Y181325D01*
X393985Y183111D01*
X412211Y183111D01*
X413997Y181325D01*
X413997Y163099D01*
X412211Y161313D01*
X393985Y161313D01*
X392199Y163099D01*
X392199Y163322D01*
X392196Y163342D01*
X392198Y163361D01*
X392176Y163463D01*
X392160Y163565D01*
X392150Y163582D01*
X392146Y163602D01*
X392093Y163691D01*
X392044Y163782D01*
X392030Y163796D01*
X392020Y163813D01*
X391941Y163880D01*
X391866Y163952D01*
X391848Y163960D01*
X391833Y163973D01*
X391737Y164012D01*
X391643Y164055D01*
X391623Y164057D01*
X391605Y164065D01*
X391438Y164083D01*
X389382Y164083D01*
X389362Y164080D01*
X389343Y164082D01*
X389241Y164060D01*
X389139Y164044D01*
X389122Y164034D01*
X389102Y164030D01*
X389013Y163977D01*
X388922Y163928D01*
X388908Y163914D01*
X388891Y163904D01*
X388824Y163825D01*
X388752Y163750D01*
X388744Y163732D01*
X388731Y163717D01*
X388692Y163621D01*
X388649Y163527D01*
X388647Y163507D01*
X388639Y163489D01*
X388621Y163322D01*
X388621Y125484D01*
X387461Y122683D01*
X385317Y120539D01*
X382516Y119379D01*
X378875Y119379D01*
G37*
%LPD*%
%LPC*%
G36*
X365767Y43179D02*
X365767Y43179D01*
X363981Y44965D01*
X363981Y58674D01*
X363978Y58694D01*
X363980Y58713D01*
X363958Y58815D01*
X363942Y58917D01*
X363932Y58934D01*
X363928Y58954D01*
X363875Y59043D01*
X363826Y59134D01*
X363812Y59148D01*
X363802Y59165D01*
X363723Y59232D01*
X363648Y59304D01*
X363630Y59312D01*
X363615Y59325D01*
X363519Y59364D01*
X363425Y59407D01*
X363405Y59409D01*
X363387Y59417D01*
X363220Y59435D01*
X357536Y59435D01*
X355482Y60286D01*
X352033Y63735D01*
X350354Y65414D01*
X349503Y67468D01*
X349503Y67526D01*
X349500Y67546D01*
X349502Y67565D01*
X349480Y67667D01*
X349464Y67769D01*
X349454Y67786D01*
X349450Y67806D01*
X349397Y67895D01*
X349348Y67986D01*
X349334Y68000D01*
X349324Y68017D01*
X349245Y68084D01*
X349170Y68156D01*
X349152Y68164D01*
X349137Y68177D01*
X349041Y68216D01*
X348947Y68259D01*
X348927Y68261D01*
X348909Y68269D01*
X348742Y68287D01*
X348329Y68287D01*
X346543Y70073D01*
X346543Y82599D01*
X348242Y84298D01*
X348254Y84314D01*
X348269Y84326D01*
X348325Y84414D01*
X348386Y84497D01*
X348392Y84516D01*
X348402Y84533D01*
X348428Y84634D01*
X348458Y84733D01*
X348458Y84752D01*
X348462Y84772D01*
X348454Y84875D01*
X348452Y84978D01*
X348445Y84997D01*
X348443Y85017D01*
X348403Y85112D01*
X348367Y85209D01*
X348355Y85225D01*
X348347Y85243D01*
X348242Y85374D01*
X346543Y87073D01*
X346543Y99599D01*
X348329Y101385D01*
X349250Y101385D01*
X349270Y101388D01*
X349289Y101386D01*
X349391Y101408D01*
X349493Y101424D01*
X349510Y101434D01*
X349530Y101438D01*
X349619Y101491D01*
X349710Y101540D01*
X349724Y101554D01*
X349741Y101564D01*
X349808Y101643D01*
X349880Y101718D01*
X349888Y101736D01*
X349901Y101751D01*
X349940Y101847D01*
X349983Y101941D01*
X349985Y101961D01*
X349993Y101979D01*
X350011Y102146D01*
X350011Y121496D01*
X349997Y121586D01*
X349989Y121677D01*
X349977Y121707D01*
X349972Y121739D01*
X349929Y121820D01*
X349893Y121903D01*
X349867Y121936D01*
X349856Y121956D01*
X349833Y121978D01*
X349788Y122034D01*
X349139Y122683D01*
X347979Y125484D01*
X347979Y128516D01*
X349139Y131317D01*
X351283Y133461D01*
X354084Y134621D01*
X357116Y134621D01*
X359917Y133461D01*
X362061Y131317D01*
X363221Y128516D01*
X363221Y125484D01*
X362061Y122683D01*
X361412Y122034D01*
X361359Y121960D01*
X361299Y121891D01*
X361287Y121861D01*
X361268Y121835D01*
X361241Y121748D01*
X361207Y121663D01*
X361203Y121622D01*
X361196Y121600D01*
X361197Y121567D01*
X361189Y121496D01*
X361189Y102146D01*
X361192Y102126D01*
X361190Y102107D01*
X361212Y102005D01*
X361228Y101903D01*
X361238Y101886D01*
X361242Y101866D01*
X361295Y101777D01*
X361344Y101686D01*
X361358Y101672D01*
X361368Y101655D01*
X361447Y101588D01*
X361522Y101516D01*
X361540Y101508D01*
X361555Y101495D01*
X361651Y101456D01*
X361745Y101413D01*
X361765Y101411D01*
X361783Y101403D01*
X361843Y101397D01*
X363641Y99599D01*
X363641Y87073D01*
X361942Y85374D01*
X361930Y85358D01*
X361915Y85346D01*
X361859Y85258D01*
X361798Y85175D01*
X361792Y85156D01*
X361782Y85139D01*
X361756Y85038D01*
X361726Y84939D01*
X361726Y84920D01*
X361722Y84900D01*
X361730Y84797D01*
X361732Y84694D01*
X361739Y84675D01*
X361741Y84655D01*
X361781Y84560D01*
X361817Y84463D01*
X361829Y84447D01*
X361837Y84429D01*
X361942Y84298D01*
X363641Y82599D01*
X363641Y71374D01*
X363644Y71354D01*
X363642Y71335D01*
X363664Y71233D01*
X363680Y71131D01*
X363690Y71114D01*
X363694Y71094D01*
X363747Y71005D01*
X363796Y70914D01*
X363810Y70900D01*
X363820Y70883D01*
X363899Y70816D01*
X363974Y70744D01*
X363992Y70736D01*
X364007Y70723D01*
X364103Y70684D01*
X364197Y70641D01*
X364217Y70639D01*
X364235Y70631D01*
X364402Y70613D01*
X368396Y70613D01*
X370450Y69762D01*
X374562Y65650D01*
X374709Y65295D01*
X374760Y65212D01*
X374806Y65127D01*
X374825Y65109D01*
X374838Y65086D01*
X374913Y65024D01*
X374984Y64957D01*
X375008Y64946D01*
X375028Y64929D01*
X375119Y64895D01*
X375207Y64854D01*
X375233Y64851D01*
X375257Y64841D01*
X375355Y64837D01*
X375451Y64826D01*
X375477Y64832D01*
X375503Y64831D01*
X375597Y64858D01*
X375692Y64879D01*
X375714Y64892D01*
X375739Y64899D01*
X375819Y64955D01*
X375903Y65005D01*
X375920Y65025D01*
X375941Y65040D01*
X376000Y65118D01*
X376063Y65192D01*
X376073Y65216D01*
X376088Y65237D01*
X376118Y65330D01*
X376155Y65420D01*
X376158Y65452D01*
X376164Y65471D01*
X376164Y65504D01*
X376173Y65587D01*
X376173Y66518D01*
X376170Y66538D01*
X376172Y66557D01*
X376150Y66659D01*
X376134Y66761D01*
X376124Y66778D01*
X376120Y66798D01*
X376067Y66887D01*
X376018Y66978D01*
X376004Y66992D01*
X375994Y67009D01*
X375915Y67076D01*
X375840Y67148D01*
X375822Y67156D01*
X375807Y67169D01*
X375711Y67208D01*
X375617Y67251D01*
X375597Y67253D01*
X375579Y67261D01*
X375510Y67268D01*
X373713Y69065D01*
X373713Y82591D01*
X375499Y84377D01*
X388025Y84377D01*
X389811Y82591D01*
X389811Y69512D01*
X389825Y69422D01*
X389833Y69331D01*
X389845Y69301D01*
X389850Y69269D01*
X389893Y69189D01*
X389929Y69105D01*
X389955Y69073D01*
X389966Y69052D01*
X389989Y69030D01*
X390034Y68974D01*
X393358Y65650D01*
X394209Y63596D01*
X394209Y61268D01*
X394223Y61178D01*
X394231Y61087D01*
X394243Y61057D01*
X394248Y61025D01*
X394291Y60945D01*
X394327Y60861D01*
X394353Y60829D01*
X394364Y60808D01*
X394387Y60786D01*
X394432Y60730D01*
X394463Y60699D01*
X394463Y44965D01*
X392677Y43179D01*
X384563Y43179D01*
X382777Y44965D01*
X382777Y58887D01*
X382758Y59002D01*
X382741Y59118D01*
X382739Y59124D01*
X382738Y59130D01*
X382683Y59233D01*
X382630Y59337D01*
X382625Y59342D01*
X382622Y59347D01*
X382538Y59427D01*
X382454Y59510D01*
X382448Y59513D01*
X382444Y59517D01*
X382427Y59525D01*
X382307Y59591D01*
X380628Y60286D01*
X380571Y60344D01*
X380517Y60382D01*
X380470Y60428D01*
X380398Y60468D01*
X380371Y60487D01*
X380352Y60493D01*
X380324Y60509D01*
X379484Y60857D01*
X377849Y62492D01*
X377680Y62898D01*
X377646Y62954D01*
X377620Y63014D01*
X377568Y63079D01*
X377551Y63107D01*
X377536Y63119D01*
X377515Y63145D01*
X377024Y63636D01*
X376877Y63991D01*
X376826Y64074D01*
X376780Y64159D01*
X376761Y64177D01*
X376748Y64200D01*
X376673Y64262D01*
X376602Y64329D01*
X376578Y64340D01*
X376558Y64357D01*
X376467Y64391D01*
X376379Y64432D01*
X376353Y64435D01*
X376329Y64445D01*
X376231Y64449D01*
X376135Y64460D01*
X376109Y64454D01*
X376083Y64455D01*
X375989Y64428D01*
X375894Y64407D01*
X375872Y64394D01*
X375847Y64387D01*
X375767Y64331D01*
X375683Y64281D01*
X375666Y64261D01*
X375645Y64246D01*
X375586Y64168D01*
X375523Y64094D01*
X375513Y64070D01*
X375498Y64049D01*
X375468Y63956D01*
X375431Y63866D01*
X375428Y63834D01*
X375422Y63815D01*
X375422Y63782D01*
X375413Y63699D01*
X375413Y61268D01*
X375427Y61178D01*
X375435Y61087D01*
X375447Y61057D01*
X375452Y61025D01*
X375495Y60945D01*
X375531Y60861D01*
X375557Y60829D01*
X375568Y60808D01*
X375591Y60786D01*
X375636Y60730D01*
X375667Y60699D01*
X375667Y44965D01*
X373881Y43179D01*
X365767Y43179D01*
G37*
%LPD*%
%LPC*%
G36*
X404884Y500379D02*
X404884Y500379D01*
X402083Y501539D01*
X399939Y503683D01*
X398779Y506484D01*
X398779Y507402D01*
X398765Y507492D01*
X398757Y507583D01*
X398745Y507613D01*
X398740Y507645D01*
X398697Y507725D01*
X398661Y507809D01*
X398635Y507841D01*
X398624Y507862D01*
X398601Y507884D01*
X398556Y507940D01*
X392673Y513823D01*
X390994Y515502D01*
X390143Y517556D01*
X390143Y534378D01*
X390140Y534398D01*
X390142Y534417D01*
X390120Y534519D01*
X390104Y534621D01*
X390094Y534638D01*
X390090Y534658D01*
X390037Y534747D01*
X389988Y534838D01*
X389974Y534852D01*
X389964Y534869D01*
X389885Y534936D01*
X389810Y535008D01*
X389792Y535016D01*
X389777Y535029D01*
X389681Y535068D01*
X389587Y535111D01*
X389567Y535113D01*
X389549Y535121D01*
X389382Y535139D01*
X388969Y535139D01*
X387183Y536925D01*
X387183Y549451D01*
X388882Y551150D01*
X388894Y551166D01*
X388909Y551178D01*
X388965Y551266D01*
X389026Y551349D01*
X389032Y551368D01*
X389042Y551385D01*
X389068Y551486D01*
X389098Y551585D01*
X389098Y551604D01*
X389102Y551624D01*
X389094Y551727D01*
X389092Y551830D01*
X389085Y551849D01*
X389083Y551869D01*
X389043Y551964D01*
X389007Y552061D01*
X388995Y552077D01*
X388987Y552095D01*
X388882Y552226D01*
X387183Y553925D01*
X387183Y566451D01*
X388222Y567490D01*
X388234Y567506D01*
X388249Y567518D01*
X388305Y567606D01*
X388366Y567689D01*
X388371Y567708D01*
X388382Y567725D01*
X388408Y567826D01*
X388438Y567924D01*
X388437Y567944D01*
X388442Y567964D01*
X388434Y568067D01*
X388432Y568170D01*
X388425Y568189D01*
X388423Y568209D01*
X388383Y568304D01*
X388347Y568401D01*
X388335Y568417D01*
X388327Y568435D01*
X388222Y568566D01*
X386168Y570620D01*
X385303Y572710D01*
X385268Y572766D01*
X385242Y572826D01*
X385190Y572891D01*
X385173Y572919D01*
X385158Y572932D01*
X385137Y572957D01*
X385063Y573031D01*
X385063Y588765D01*
X386849Y590551D01*
X394963Y590551D01*
X396749Y588765D01*
X396749Y576162D01*
X396763Y576072D01*
X396771Y575981D01*
X396783Y575951D01*
X396788Y575920D01*
X396831Y575839D01*
X396867Y575755D01*
X396893Y575723D01*
X396904Y575702D01*
X396927Y575680D01*
X396972Y575624D01*
X400470Y572126D01*
X401321Y570072D01*
X401321Y568998D01*
X401324Y568978D01*
X401322Y568959D01*
X401344Y568857D01*
X401360Y568755D01*
X401370Y568738D01*
X401374Y568718D01*
X401427Y568629D01*
X401476Y568538D01*
X401490Y568524D01*
X401500Y568507D01*
X401579Y568440D01*
X401654Y568368D01*
X401672Y568360D01*
X401687Y568347D01*
X401783Y568308D01*
X401877Y568265D01*
X401897Y568263D01*
X401915Y568255D01*
X402082Y568237D01*
X402495Y568237D01*
X404281Y566451D01*
X404281Y553925D01*
X402582Y552226D01*
X402570Y552210D01*
X402555Y552198D01*
X402499Y552110D01*
X402438Y552027D01*
X402432Y552008D01*
X402422Y551991D01*
X402396Y551890D01*
X402366Y551791D01*
X402366Y551772D01*
X402362Y551752D01*
X402370Y551649D01*
X402372Y551546D01*
X402379Y551527D01*
X402381Y551507D01*
X402421Y551412D01*
X402457Y551315D01*
X402469Y551299D01*
X402477Y551281D01*
X402582Y551150D01*
X404281Y549451D01*
X404281Y536925D01*
X402495Y535139D01*
X402082Y535139D01*
X402062Y535136D01*
X402043Y535138D01*
X401941Y535116D01*
X401839Y535100D01*
X401822Y535090D01*
X401802Y535086D01*
X401713Y535033D01*
X401622Y534984D01*
X401608Y534970D01*
X401591Y534960D01*
X401524Y534881D01*
X401452Y534806D01*
X401444Y534788D01*
X401431Y534773D01*
X401392Y534677D01*
X401349Y534583D01*
X401347Y534563D01*
X401339Y534545D01*
X401321Y534378D01*
X401321Y521298D01*
X401335Y521208D01*
X401343Y521117D01*
X401355Y521087D01*
X401360Y521056D01*
X401403Y520975D01*
X401439Y520891D01*
X401465Y520859D01*
X401476Y520838D01*
X401499Y520816D01*
X401544Y520760D01*
X406460Y515844D01*
X406534Y515791D01*
X406603Y515731D01*
X406633Y515719D01*
X406660Y515700D01*
X406747Y515673D01*
X406832Y515639D01*
X406872Y515635D01*
X406895Y515628D01*
X406927Y515629D01*
X406998Y515621D01*
X407916Y515621D01*
X410717Y514461D01*
X412861Y512317D01*
X414021Y509516D01*
X414021Y506484D01*
X412861Y503683D01*
X410717Y501539D01*
X407916Y500379D01*
X404884Y500379D01*
G37*
%LPD*%
%LPC*%
G36*
X489681Y350099D02*
X489681Y350099D01*
X487895Y351885D01*
X487895Y353822D01*
X487892Y353842D01*
X487894Y353861D01*
X487872Y353963D01*
X487856Y354065D01*
X487846Y354082D01*
X487842Y354102D01*
X487789Y354191D01*
X487740Y354282D01*
X487726Y354296D01*
X487716Y354313D01*
X487637Y354380D01*
X487562Y354452D01*
X487544Y354460D01*
X487529Y354473D01*
X487433Y354512D01*
X487339Y354555D01*
X487319Y354557D01*
X487301Y354565D01*
X487134Y354583D01*
X484726Y354583D01*
X484187Y355122D01*
X484113Y355175D01*
X484044Y355235D01*
X484014Y355247D01*
X483988Y355266D01*
X483901Y355293D01*
X483816Y355327D01*
X483775Y355331D01*
X483752Y355338D01*
X483720Y355337D01*
X483649Y355345D01*
X483317Y355345D01*
X481356Y356157D01*
X479855Y357658D01*
X479043Y359619D01*
X479043Y361741D01*
X479855Y363702D01*
X480090Y363937D01*
X480143Y364011D01*
X480203Y364080D01*
X480215Y364110D01*
X480234Y364137D01*
X480261Y364223D01*
X480295Y364308D01*
X480299Y364349D01*
X480306Y364372D01*
X480305Y364404D01*
X480313Y364475D01*
X480313Y367952D01*
X490060Y377699D01*
X512605Y377699D01*
X512695Y377713D01*
X512786Y377721D01*
X512816Y377733D01*
X512848Y377738D01*
X512928Y377781D01*
X513012Y377817D01*
X513044Y377843D01*
X513065Y377854D01*
X513087Y377877D01*
X513143Y377922D01*
X516412Y381191D01*
X516465Y381265D01*
X516525Y381334D01*
X516537Y381364D01*
X516556Y381390D01*
X516583Y381477D01*
X516617Y381562D01*
X516621Y381603D01*
X516628Y381626D01*
X516627Y381658D01*
X516635Y381729D01*
X516635Y385081D01*
X516616Y385195D01*
X516599Y385312D01*
X516597Y385317D01*
X516596Y385323D01*
X516541Y385426D01*
X516488Y385531D01*
X516483Y385535D01*
X516480Y385541D01*
X516396Y385621D01*
X516312Y385703D01*
X516306Y385707D01*
X516302Y385710D01*
X516285Y385718D01*
X516165Y385784D01*
X515574Y386029D01*
X513029Y388574D01*
X511651Y391900D01*
X511651Y395500D01*
X513029Y398826D01*
X515574Y401371D01*
X518900Y402749D01*
X522500Y402749D01*
X525826Y401371D01*
X528371Y398826D01*
X529749Y395500D01*
X529749Y391900D01*
X528371Y388574D01*
X525826Y386029D01*
X525235Y385784D01*
X525135Y385722D01*
X525035Y385663D01*
X525031Y385658D01*
X525026Y385654D01*
X524951Y385564D01*
X524875Y385476D01*
X524873Y385470D01*
X524869Y385465D01*
X524827Y385357D01*
X524783Y385247D01*
X524782Y385240D01*
X524781Y385235D01*
X524780Y385217D01*
X524765Y385081D01*
X524765Y378046D01*
X516288Y369569D01*
X493743Y369569D01*
X493653Y369555D01*
X493562Y369547D01*
X493532Y369535D01*
X493500Y369530D01*
X493420Y369487D01*
X493336Y369451D01*
X493303Y369425D01*
X493283Y369414D01*
X493261Y369391D01*
X493205Y369346D01*
X492355Y368496D01*
X492313Y368438D01*
X492263Y368386D01*
X492241Y368339D01*
X492211Y368297D01*
X492190Y368228D01*
X492160Y368163D01*
X492154Y368111D01*
X492139Y368061D01*
X492141Y367990D01*
X492133Y367919D01*
X492144Y367868D01*
X492145Y367816D01*
X492170Y367748D01*
X492185Y367678D01*
X492212Y367633D01*
X492230Y367585D01*
X492274Y367529D01*
X492311Y367467D01*
X492351Y367433D01*
X492383Y367393D01*
X492444Y367354D01*
X492498Y367307D01*
X492546Y367288D01*
X492590Y367260D01*
X492660Y367242D01*
X492726Y367215D01*
X492797Y367207D01*
X492829Y367199D01*
X492852Y367201D01*
X492893Y367197D01*
X502207Y367197D01*
X503993Y365411D01*
X503993Y351885D01*
X502207Y350099D01*
X489681Y350099D01*
G37*
%LPD*%
%LPC*%
G36*
X354084Y500379D02*
X354084Y500379D01*
X351283Y501539D01*
X349139Y503683D01*
X347979Y506484D01*
X347979Y507402D01*
X347965Y507492D01*
X347957Y507583D01*
X347945Y507613D01*
X347940Y507645D01*
X347897Y507725D01*
X347861Y507809D01*
X347835Y507841D01*
X347824Y507862D01*
X347801Y507884D01*
X347756Y507940D01*
X341111Y514585D01*
X339432Y516264D01*
X338581Y518318D01*
X338581Y533108D01*
X338578Y533128D01*
X338580Y533147D01*
X338558Y533249D01*
X338542Y533351D01*
X338532Y533368D01*
X338528Y533388D01*
X338475Y533477D01*
X338426Y533568D01*
X338412Y533582D01*
X338402Y533599D01*
X338323Y533666D01*
X338248Y533738D01*
X338230Y533746D01*
X338215Y533759D01*
X338119Y533798D01*
X338025Y533841D01*
X338005Y533843D01*
X337987Y533851D01*
X337820Y533869D01*
X337407Y533869D01*
X335621Y535655D01*
X335621Y548181D01*
X337407Y549967D01*
X350933Y549967D01*
X352719Y548181D01*
X352719Y535655D01*
X350933Y533869D01*
X350520Y533869D01*
X350500Y533866D01*
X350481Y533868D01*
X350379Y533846D01*
X350277Y533830D01*
X350260Y533820D01*
X350240Y533816D01*
X350151Y533763D01*
X350060Y533714D01*
X350046Y533700D01*
X350029Y533690D01*
X349962Y533611D01*
X349890Y533536D01*
X349882Y533518D01*
X349869Y533503D01*
X349830Y533407D01*
X349787Y533313D01*
X349785Y533293D01*
X349777Y533275D01*
X349759Y533108D01*
X349759Y522060D01*
X349773Y521970D01*
X349781Y521879D01*
X349793Y521849D01*
X349798Y521818D01*
X349841Y521737D01*
X349877Y521653D01*
X349903Y521621D01*
X349914Y521600D01*
X349937Y521578D01*
X349982Y521522D01*
X355660Y515844D01*
X355734Y515791D01*
X355803Y515731D01*
X355833Y515719D01*
X355860Y515700D01*
X355947Y515673D01*
X356032Y515639D01*
X356072Y515635D01*
X356095Y515628D01*
X356127Y515629D01*
X356198Y515621D01*
X357116Y515621D01*
X359917Y514461D01*
X362061Y512317D01*
X363221Y509516D01*
X363221Y506484D01*
X362061Y503683D01*
X359917Y501539D01*
X357116Y500379D01*
X354084Y500379D01*
G37*
%LPD*%
%LPC*%
G36*
X549202Y154551D02*
X549202Y154551D01*
X545325Y156157D01*
X542357Y159125D01*
X540751Y163002D01*
X540751Y167198D01*
X542357Y171075D01*
X545325Y174043D01*
X549202Y175649D01*
X568398Y175649D01*
X572275Y174043D01*
X575243Y171075D01*
X576849Y167198D01*
X576849Y163002D01*
X575243Y159125D01*
X572275Y156157D01*
X568398Y154551D01*
X549202Y154551D01*
G37*
%LPD*%
%LPC*%
G36*
X399129Y84779D02*
X399129Y84779D01*
X397343Y86565D01*
X397343Y99091D01*
X399129Y100877D01*
X400050Y100877D01*
X400070Y100880D01*
X400089Y100878D01*
X400191Y100900D01*
X400293Y100916D01*
X400310Y100926D01*
X400330Y100930D01*
X400419Y100983D01*
X400510Y101032D01*
X400524Y101046D01*
X400541Y101056D01*
X400608Y101135D01*
X400680Y101210D01*
X400688Y101228D01*
X400701Y101243D01*
X400740Y101339D01*
X400783Y101433D01*
X400785Y101453D01*
X400793Y101471D01*
X400811Y101638D01*
X400811Y121496D01*
X400797Y121586D01*
X400789Y121677D01*
X400777Y121707D01*
X400772Y121739D01*
X400729Y121820D01*
X400693Y121903D01*
X400667Y121936D01*
X400656Y121956D01*
X400633Y121978D01*
X400588Y122034D01*
X399939Y122683D01*
X398779Y125484D01*
X398779Y128516D01*
X399939Y131317D01*
X402083Y133461D01*
X404884Y134621D01*
X407916Y134621D01*
X410717Y133461D01*
X412861Y131317D01*
X414021Y128516D01*
X414021Y125484D01*
X412861Y122683D01*
X412212Y122034D01*
X412159Y121960D01*
X412099Y121891D01*
X412087Y121861D01*
X412068Y121835D01*
X412041Y121748D01*
X412007Y121663D01*
X412003Y121622D01*
X411996Y121600D01*
X411997Y121567D01*
X411989Y121496D01*
X411989Y101638D01*
X411992Y101618D01*
X411990Y101599D01*
X412012Y101497D01*
X412028Y101395D01*
X412038Y101378D01*
X412042Y101358D01*
X412095Y101269D01*
X412144Y101178D01*
X412158Y101164D01*
X412168Y101147D01*
X412247Y101080D01*
X412322Y101008D01*
X412340Y101000D01*
X412355Y100987D01*
X412451Y100948D01*
X412545Y100905D01*
X412565Y100903D01*
X412583Y100895D01*
X412643Y100889D01*
X414441Y99091D01*
X414441Y86565D01*
X412655Y84779D01*
X399129Y84779D01*
G37*
%LPD*%
%LPC*%
G36*
X362291Y550369D02*
X362291Y550369D01*
X360505Y552155D01*
X360505Y565681D01*
X362306Y567481D01*
X362345Y567490D01*
X362447Y567506D01*
X362464Y567516D01*
X362484Y567520D01*
X362573Y567573D01*
X362664Y567622D01*
X362678Y567636D01*
X362695Y567646D01*
X362762Y567725D01*
X362834Y567800D01*
X362842Y567818D01*
X362855Y567833D01*
X362894Y567929D01*
X362937Y568023D01*
X362939Y568043D01*
X362947Y568061D01*
X362965Y568228D01*
X362965Y569310D01*
X363816Y571364D01*
X364382Y571929D01*
X364420Y571983D01*
X364466Y572030D01*
X364506Y572102D01*
X364525Y572129D01*
X364531Y572148D01*
X364547Y572176D01*
X364895Y573016D01*
X366044Y574166D01*
X366097Y574240D01*
X366157Y574309D01*
X366169Y574339D01*
X366188Y574365D01*
X366215Y574452D01*
X366249Y574537D01*
X366253Y574578D01*
X366260Y574600D01*
X366259Y574633D01*
X366267Y574704D01*
X366267Y588765D01*
X368053Y590551D01*
X376167Y590551D01*
X377953Y588765D01*
X377953Y573031D01*
X377922Y573000D01*
X377875Y572934D01*
X377830Y572888D01*
X377824Y572874D01*
X377809Y572857D01*
X377797Y572827D01*
X377778Y572800D01*
X377755Y572727D01*
X377727Y572665D01*
X377725Y572648D01*
X377717Y572629D01*
X377713Y572588D01*
X377706Y572565D01*
X377707Y572533D01*
X377699Y572462D01*
X377699Y570642D01*
X376848Y568588D01*
X375810Y567550D01*
X375798Y567534D01*
X375783Y567522D01*
X375727Y567435D01*
X375666Y567351D01*
X375660Y567331D01*
X375650Y567315D01*
X375624Y567214D01*
X375594Y567115D01*
X375595Y567095D01*
X375590Y567076D01*
X375598Y566973D01*
X375600Y566870D01*
X375607Y566851D01*
X375609Y566831D01*
X375649Y566736D01*
X375685Y566639D01*
X375697Y566623D01*
X375705Y566605D01*
X375810Y566474D01*
X376603Y565681D01*
X376603Y552155D01*
X374817Y550369D01*
X362291Y550369D01*
G37*
%LPD*%
%LPC*%
G36*
X543972Y433801D02*
X543972Y433801D01*
X540040Y435430D01*
X537030Y438440D01*
X535401Y442372D01*
X535401Y446628D01*
X537030Y450560D01*
X540040Y453570D01*
X543972Y455199D01*
X548228Y455199D01*
X552160Y453570D01*
X555170Y450560D01*
X556799Y446628D01*
X556799Y442372D01*
X555170Y438440D01*
X552160Y435430D01*
X548228Y433801D01*
X543972Y433801D01*
G37*
%LPD*%
%LPC*%
G36*
X493500Y384651D02*
X493500Y384651D01*
X490174Y386029D01*
X487629Y388574D01*
X486251Y391900D01*
X486251Y395500D01*
X487629Y398826D01*
X490174Y401371D01*
X493500Y402749D01*
X497100Y402749D01*
X500426Y401371D01*
X502971Y398826D01*
X504349Y395500D01*
X504349Y391900D01*
X502971Y388574D01*
X500426Y386029D01*
X497100Y384651D01*
X493500Y384651D01*
G37*
%LPD*%
D10*
G36*
X327426Y332233D02*
X323891Y335768D01*
X327426Y339303D01*
X330961Y335768D01*
X327426Y332233D01*
G37*
G36*
X334498Y325161D02*
X330963Y328696D01*
X334498Y332231D01*
X338033Y328696D01*
X334498Y325161D01*
G37*
D11*
X380492Y429886D03*
X380492Y412886D03*
X380238Y200542D03*
X380238Y217542D03*
D12*
X438000Y304800D03*
X451000Y304800D03*
X438000Y330200D03*
X451000Y330200D03*
D10*
G36*
X335554Y340361D02*
X332019Y343896D01*
X335554Y347431D01*
X339089Y343896D01*
X335554Y340361D01*
G37*
G36*
X342626Y333289D02*
X339091Y336824D01*
X342626Y340359D01*
X346161Y336824D01*
X342626Y333289D01*
G37*
D13*
X364534Y284988D03*
X357334Y284988D03*
D10*
G36*
X339089Y291104D02*
X335554Y287569D01*
X332019Y291104D01*
X335554Y294639D01*
X339089Y291104D01*
G37*
G36*
X346161Y298176D02*
X342626Y294641D01*
X339091Y298176D01*
X342626Y301711D01*
X346161Y298176D01*
G37*
G36*
X330961Y299232D02*
X327426Y295697D01*
X323891Y299232D01*
X327426Y302767D01*
X330961Y299232D01*
G37*
G36*
X338033Y306304D02*
X334498Y302769D01*
X330963Y306304D01*
X334498Y309839D01*
X338033Y306304D01*
G37*
D14*
X622300Y482600D03*
D15*
X609600Y525145D03*
X609600Y440055D03*
D16*
X469900Y622300D03*
D17*
X427355Y609600D03*
X512445Y609600D03*
D16*
X292100Y622300D03*
D17*
X249555Y609600D03*
X334645Y609600D03*
D18*
X512445Y330200D03*
X512445Y317500D03*
X512445Y304800D03*
X478155Y304800D03*
X478155Y330200D03*
D19*
X452120Y268360D03*
X452120Y285360D03*
X452120Y366640D03*
X452120Y349640D03*
D16*
X469900Y12700D03*
D17*
X512445Y25400D03*
X427355Y25400D03*
D16*
X292100Y12700D03*
D17*
X334645Y25400D03*
X249555Y25400D03*
D20*
X355600Y127000D03*
X381000Y127000D03*
X406400Y127000D03*
X406400Y508000D03*
X381000Y508000D03*
X355600Y508000D03*
D19*
X405892Y75828D03*
X405892Y92828D03*
X355092Y93336D03*
X355092Y76336D03*
X344170Y558918D03*
X344170Y541918D03*
X395732Y543188D03*
X395732Y560188D03*
D11*
X293760Y165100D03*
X310760Y165100D03*
X451240Y165100D03*
X468240Y165100D03*
D21*
G36*
X313535Y339011D02*
X309999Y335475D01*
X305757Y339717D01*
X309293Y343253D01*
X313535Y339011D01*
G37*
G36*
X320607Y346083D02*
X317071Y342547D01*
X312829Y346789D01*
X316365Y350325D01*
X320607Y346083D01*
G37*
D11*
X451240Y469900D03*
X468240Y469900D03*
X293760Y469900D03*
X310760Y469900D03*
D21*
G36*
X309293Y291747D02*
X305757Y295283D01*
X309999Y299525D01*
X313535Y295989D01*
X309293Y291747D01*
G37*
G36*
X316365Y284675D02*
X312829Y288211D01*
X317071Y292453D01*
X320607Y288917D01*
X316365Y284675D01*
G37*
D11*
X512944Y358648D03*
X495944Y358648D03*
D22*
X520700Y393700D03*
X495300Y393700D03*
X546100Y393700D03*
D23*
X368500Y298500D03*
X373500Y298500D03*
X378500Y298500D03*
X383500Y298500D03*
X388500Y298500D03*
X393500Y298500D03*
D24*
X400000Y305000D03*
X400000Y310000D03*
X400000Y315000D03*
X400000Y320000D03*
X400000Y325000D03*
X400000Y330000D03*
D23*
X393500Y336500D03*
X388500Y336500D03*
X383500Y336500D03*
X378500Y336500D03*
X373500Y336500D03*
X368500Y336500D03*
D24*
X362000Y330000D03*
X362000Y325000D03*
X362000Y320000D03*
X362000Y315000D03*
X362000Y310000D03*
X362000Y305000D03*
D25*
X381000Y317500D03*
D26*
G36*
X209873Y490843D02*
X184011Y516705D01*
X206821Y539515D01*
X232683Y513653D01*
X209873Y490843D01*
G37*
G36*
X158344Y439314D02*
X132482Y465176D01*
X155292Y487986D01*
X181154Y462124D01*
X158344Y439314D01*
G37*
D27*
G36*
X230529Y470188D02*
X217238Y483479D01*
X240047Y506288D01*
X253338Y492997D01*
X230529Y470188D01*
G37*
G36*
X179000Y418659D02*
X165709Y431950D01*
X188518Y454759D01*
X201809Y441468D01*
X179000Y418659D01*
G37*
G36*
X176647Y524070D02*
X163356Y537361D01*
X186165Y560170D01*
X199456Y546879D01*
X176647Y524070D01*
G37*
G36*
X125118Y472541D02*
X111827Y485832D01*
X134636Y508641D01*
X147927Y495350D01*
X125118Y472541D01*
G37*
D21*
G36*
X328069Y362029D02*
X331605Y365565D01*
X335847Y361323D01*
X332311Y357787D01*
X328069Y362029D01*
G37*
G36*
X320997Y354957D02*
X324533Y358493D01*
X328775Y354251D01*
X325239Y350715D01*
X320997Y354957D01*
G37*
G36*
X332311Y277213D02*
X335847Y273677D01*
X331605Y269435D01*
X328069Y272971D01*
X332311Y277213D01*
G37*
G36*
X325239Y284285D02*
X328775Y280749D01*
X324533Y276507D01*
X320997Y280043D01*
X325239Y284285D01*
G37*
D26*
G36*
X181154Y172876D02*
X155292Y147014D01*
X132482Y169824D01*
X158344Y195686D01*
X181154Y172876D01*
G37*
G36*
X232683Y121347D02*
X206821Y95485D01*
X184011Y118295D01*
X209873Y144157D01*
X232683Y121347D01*
G37*
D27*
G36*
X201809Y193532D02*
X188518Y180241D01*
X165709Y203050D01*
X179000Y216341D01*
X201809Y193532D01*
G37*
G36*
X253338Y142003D02*
X240047Y128712D01*
X217238Y151521D01*
X230529Y164812D01*
X253338Y142003D01*
G37*
G36*
X147927Y139650D02*
X134636Y126359D01*
X111827Y149168D01*
X125118Y162459D01*
X147927Y139650D01*
G37*
G36*
X199456Y88121D02*
X186165Y74830D01*
X163356Y97639D01*
X176647Y110930D01*
X199456Y88121D01*
G37*
D28*
X546100Y444500D03*
X495300Y444500D03*
D29*
X372110Y580898D03*
X390906Y580898D03*
D30*
X381508Y602742D03*
D11*
X368554Y558918D03*
X368554Y541918D03*
D29*
X388620Y52832D03*
X369824Y52832D03*
D30*
X379222Y30988D03*
D11*
X381762Y75828D03*
X381762Y92828D03*
D31*
X26416Y374904D03*
D32*
X26416Y399796D03*
X26416Y350012D03*
D31*
X27686Y127000D03*
D32*
X27686Y151892D03*
X27686Y102108D03*
D31*
X607314Y304800D03*
D32*
X607314Y279908D03*
X607314Y329692D03*
D13*
X364026Y351028D03*
X356826Y351028D03*
D33*
X452120Y256584D03*
X452120Y249384D03*
X452120Y378924D03*
X452120Y386124D03*
D13*
X402038Y287020D03*
X409238Y287020D03*
D34*
X551300Y165100D02*
X566300Y165100D01*
X566300Y190500D02*
X551300Y190500D01*
D35*
X357378Y457200D03*
D36*
X331978Y457200D03*
D35*
X430276Y456946D03*
D36*
X404876Y456946D03*
D35*
X333248Y172720D03*
D36*
X358648Y172720D03*
D35*
X403098Y172212D03*
D36*
X428498Y172212D03*
D11*
G36*
X369583Y251604D02*
X376654Y244533D01*
X368877Y236756D01*
X361806Y243827D01*
X369583Y251604D01*
G37*
G36*
X357563Y263624D02*
X364634Y256553D01*
X356857Y248776D01*
X349786Y255847D01*
X357563Y263624D01*
G37*
G36*
X410354Y243827D02*
X403283Y236756D01*
X395506Y244533D01*
X402577Y251604D01*
X410354Y243827D01*
G37*
G36*
X422374Y255847D02*
X415303Y248776D01*
X407526Y256553D01*
X414597Y263624D01*
X422374Y255847D01*
G37*
G36*
X361806Y391173D02*
X368877Y398244D01*
X376654Y390467D01*
X369583Y383396D01*
X361806Y391173D01*
G37*
G36*
X349786Y379153D02*
X356857Y386224D01*
X364634Y378447D01*
X357563Y371376D01*
X349786Y379153D01*
G37*
G36*
X402577Y383396D02*
X395506Y390467D01*
X403283Y398244D01*
X410354Y391173D01*
X402577Y383396D01*
G37*
G36*
X414597Y371376D02*
X407526Y378447D01*
X415303Y386224D01*
X422374Y379153D01*
X414597Y371376D01*
G37*
D37*
X194616Y488876D03*
X207188Y476303D03*
X219761Y463731D03*
X232333Y451159D03*
X183121Y477381D03*
X195694Y464809D03*
X208266Y452236D03*
X220838Y439664D03*
X182044Y501448D03*
X169471Y514020D03*
X156899Y526593D03*
X144327Y539165D03*
X170549Y489953D03*
X157977Y502526D03*
X145404Y515098D03*
X132832Y527670D03*
X155821Y550660D03*
X167316Y562155D03*
X178990Y573829D03*
X192833Y562527D03*
X205405Y548684D03*
X217977Y536112D03*
X230550Y523539D03*
X132971Y107063D03*
X145543Y119635D03*
X158116Y132208D03*
X170688Y144780D03*
X183260Y157352D03*
X195833Y169925D03*
X208405Y182497D03*
X220977Y195069D03*
X144466Y95568D03*
X157038Y108141D03*
X169610Y120713D03*
X182183Y133285D03*
X194755Y145858D03*
X207327Y158430D03*
X219900Y171002D03*
X232472Y183575D03*
X121476Y118558D03*
X109981Y130052D03*
X98307Y141727D03*
X109609Y154299D03*
X122182Y166871D03*
X134754Y179444D03*
X147327Y193286D03*
D38*
X11430Y147320D03*
X24130Y147320D03*
X36830Y147320D03*
X49530Y147320D03*
X62230Y139700D03*
X74930Y130810D03*
X86360Y120650D03*
X96520Y110490D03*
X107950Y99060D03*
X118110Y88900D03*
X134620Y87630D03*
X10160Y106680D03*
X22860Y106680D03*
X35560Y106680D03*
X48260Y106680D03*
X59690Y111760D03*
X69850Y104140D03*
X81280Y92710D03*
X92710Y82550D03*
X109220Y66040D03*
X135890Y64770D03*
X156210Y64770D03*
X249936Y154178D03*
X254000Y175260D03*
X254000Y190500D03*
X252730Y201930D03*
X237490Y215900D03*
X227330Y215900D03*
X212090Y215900D03*
X246380Y224790D03*
X255270Y233680D03*
X8382Y360426D03*
X21082Y360426D03*
X35052Y360426D03*
X46990Y360680D03*
X26162Y304038D03*
X62230Y361950D03*
X76200Y368300D03*
X87630Y379730D03*
X91440Y397510D03*
X91440Y414020D03*
X91440Y426720D03*
X91440Y436880D03*
X102870Y448310D03*
X113030Y458470D03*
X120650Y464820D03*
X8128Y385318D03*
X20066Y385826D03*
X31750Y386080D03*
X46736Y385318D03*
X60960Y387350D03*
X68580Y392430D03*
X69850Y405130D03*
X69850Y417830D03*
X69850Y430530D03*
X71120Y445770D03*
X78740Y455930D03*
X87630Y464820D03*
X97790Y473710D03*
X102870Y481330D03*
X190500Y421894D03*
X205740Y419100D03*
X223520Y419100D03*
X238760Y419100D03*
X250190Y407670D03*
X262890Y394970D03*
X249936Y481330D03*
X252730Y468630D03*
X252730Y455930D03*
X252730Y443230D03*
X252730Y433070D03*
X261620Y422910D03*
X270510Y414020D03*
X278130Y406400D03*
X304800Y379730D03*
X303530Y353060D03*
X283210Y576580D03*
X283210Y551180D03*
X283210Y525780D03*
X283210Y500380D03*
X283210Y474980D03*
X283210Y462280D03*
X283210Y450850D03*
X295910Y427990D03*
X309880Y415290D03*
X386080Y363220D03*
X323850Y425450D03*
X313690Y434340D03*
X302260Y455930D03*
X402590Y355600D03*
X431800Y419100D03*
X453390Y403860D03*
X464820Y416560D03*
X453390Y429260D03*
X459740Y455930D03*
X477520Y455930D03*
X480060Y469900D03*
X478790Y485140D03*
X478282Y505460D03*
X477520Y521970D03*
X477520Y544830D03*
X477520Y570230D03*
X461010Y570230D03*
X461010Y544830D03*
X300990Y576580D03*
X300990Y551180D03*
X300990Y525780D03*
X300990Y500380D03*
X300228Y482854D03*
X461010Y520700D03*
X461010Y503174D03*
X461010Y486410D03*
X274320Y588010D03*
X274320Y604520D03*
X274320Y619760D03*
X309880Y588010D03*
X309880Y603250D03*
X309880Y619760D03*
X452120Y593090D03*
X450850Y608330D03*
X452120Y624840D03*
X487680Y591820D03*
X487680Y607060D03*
X487680Y623570D03*
X411480Y330200D03*
X420370Y337820D03*
X429260Y339090D03*
X422910Y317500D03*
X436880Y317500D03*
X410980Y304300D03*
X429260Y297180D03*
X515620Y292100D03*
X527050Y293370D03*
X542290Y293370D03*
X560070Y293370D03*
X554990Y316230D03*
X569468Y316484D03*
X573024Y293624D03*
X585216Y292862D03*
X597408Y292862D03*
X610362Y292608D03*
X582422Y316738D03*
X595884Y316992D03*
X607314Y316992D03*
X284480Y57150D03*
X284480Y95250D03*
X284480Y149860D03*
X278892Y164084D03*
X284480Y177800D03*
X284480Y191770D03*
X292100Y203200D03*
X281940Y229870D03*
X289560Y240030D03*
X299720Y247650D03*
X281940Y260350D03*
X288290Y265430D03*
X285750Y370840D03*
X294640Y363220D03*
X299720Y120650D03*
X299720Y148590D03*
X300990Y86360D03*
X299720Y58420D03*
X302260Y179070D03*
X303530Y189230D03*
X320040Y205740D03*
X309880Y219710D03*
X340360Y227330D03*
X349250Y236220D03*
X328930Y238760D03*
X344170Y255270D03*
X376936Y232918D03*
X386080Y273050D03*
X411480Y274320D03*
X426720Y223520D03*
X435610Y213360D03*
X448310Y209550D03*
X459740Y199390D03*
X459740Y182880D03*
X468630Y252730D03*
X429260Y255270D03*
X462280Y222250D03*
X476250Y207010D03*
X479552Y185420D03*
X482092Y164846D03*
X481330Y143510D03*
X483108Y121412D03*
X483108Y96012D03*
X483108Y70612D03*
X483108Y45212D03*
X459740Y148590D03*
X459740Y135890D03*
X459740Y110490D03*
X459740Y85090D03*
X459740Y59690D03*
X620522Y316992D03*
X622300Y292862D03*
X26162Y227838D03*
X127762Y291338D03*
X76962Y253238D03*
X140462Y354838D03*
X191262Y304038D03*
X89662Y189738D03*
X64262Y507238D03*
X26162Y507238D03*
X76962Y596138D03*
X521462Y519938D03*
X521462Y558038D03*
X546862Y532638D03*
X521462Y227838D03*
X597662Y138938D03*
X508762Y138938D03*
X584962Y215138D03*
X338074Y317500D03*
X321056Y323342D03*
X321056Y313690D03*
X304292Y332994D03*
X303276Y302006D03*
X343916Y271018D03*
X462534Y317500D03*
X474980Y317500D03*
X493522Y317754D03*
X442214Y232410D03*
X451866Y392938D03*
X415290Y287528D03*
X350774Y284988D03*
X322580Y402590D03*
X335280Y389890D03*
X340360Y379730D03*
X356870Y363220D03*
X410210Y424180D03*
X347980Y402590D03*
X335280Y415290D03*
X322072Y497840D03*
X417322Y400050D03*
X419100Y367030D03*
X427990Y381000D03*
X440690Y393700D03*
X284480Y120650D03*
X188468Y216154D03*
X175006Y226822D03*
X164338Y229108D03*
X155956Y222250D03*
X148590Y213868D03*
X140208Y205232D03*
X243078Y99060D03*
X252222Y107188D03*
X259842Y115062D03*
X267462Y122682D03*
X267462Y134366D03*
X258318Y146050D03*
X253492Y165100D03*
X144780Y445516D03*
X142240Y435356D03*
X147828Y427482D03*
X153162Y422148D03*
X160020Y414020D03*
X168148Y407416D03*
X177038Y409702D03*
X240792Y527304D03*
X248412Y520954D03*
X256032Y513588D03*
X263144Y504698D03*
X260858Y494792D03*
X444246Y339852D03*
X444246Y294894D03*
X456438Y34036D03*
X279400Y30480D03*
X304038Y26924D03*
X484632Y17780D03*
X203200Y434594D03*
X237236Y468630D03*
X203454Y200152D03*
X236982Y167132D03*
D39*
X38100Y596900D03*
X596900Y596900D03*
X38100Y38100D03*
X596900Y38100D03*
D38*
X521462Y75438D03*
X386080Y243840D03*
X385572Y392430D03*
D40*
X382778Y65786D03*
X452374Y374142D03*
D41*
X372110Y571754D02*
X372110Y580898D01*
X368554Y568198D02*
X368554Y558918D01*
X368554Y568198D02*
X372110Y571754D01*
X388620Y62484D02*
X388620Y52832D01*
X386080Y65024D02*
X383794Y65024D01*
X381762Y67056D01*
X381762Y75828D01*
X386080Y65024D02*
X388620Y62484D01*
D42*
X368500Y336500D02*
X368500Y343506D01*
X364026Y347980D01*
X364026Y351028D01*
X368500Y298500D02*
X368500Y292002D01*
X364534Y288036D01*
X364534Y284988D01*
D40*
X452120Y261112D03*
D42*
X402038Y287020D02*
X399034Y287020D01*
X393500Y292554D02*
X393500Y298500D01*
X393500Y292554D02*
X399034Y287020D01*
D40*
X397510Y290068D03*
X366014Y291592D03*
X364490Y343408D03*
D42*
X364026Y343872D01*
X364026Y351028D01*
X366014Y291592D02*
X364534Y290112D01*
X364534Y284988D01*
X398990Y290068D02*
X402038Y287020D01*
X398990Y290068D02*
X397510Y290068D01*
D40*
X369824Y569722D03*
D42*
X372110Y572008D01*
X372110Y580898D01*
D41*
X381762Y66802D02*
X382778Y65786D01*
X381762Y66802D02*
X381762Y75828D01*
D43*
X452120Y261112D02*
X452120Y268360D01*
X452120Y261112D02*
X452120Y256584D01*
X452374Y374142D02*
X452120Y374396D01*
X452120Y378924D01*
X452374Y374142D02*
X452374Y366894D01*
X452120Y366640D01*
D41*
X406400Y508000D02*
X395732Y518668D01*
X395732Y543188D01*
X355600Y508000D02*
X344170Y519430D01*
X344170Y541918D01*
D44*
X380492Y507492D02*
X381000Y508000D01*
X380492Y507492D02*
X380492Y457200D01*
X380492Y429886D01*
X380492Y457200D02*
X357378Y457200D01*
X380746Y456946D02*
X404876Y456946D01*
X380746Y456946D02*
X380492Y457200D01*
D45*
X383500Y353020D02*
X383500Y336500D01*
X383500Y353020D02*
X383540Y353060D01*
X381000Y355600D01*
D46*
X368300Y368300D02*
X292100Y444500D01*
X368300Y368300D02*
X381000Y355600D01*
D47*
X365420Y371180D02*
X357210Y378800D01*
X365420Y371180D02*
X368300Y368300D01*
D46*
X292100Y444500D02*
X292100Y469900D01*
X292100Y622300D01*
X292100Y469900D02*
X293760Y469900D01*
D45*
X388500Y352940D02*
X388500Y336500D01*
X388500Y352940D02*
X391160Y355600D01*
D48*
X468240Y469900D02*
X469900Y471560D01*
D46*
X469900Y434340D02*
X469900Y622300D01*
X429097Y393537D02*
X391160Y355600D01*
X429097Y393536D02*
X429177Y393619D01*
X429254Y393704D01*
X429328Y393792D01*
X429399Y393882D01*
X429467Y393975D01*
X429532Y394070D01*
X429593Y394167D01*
X429651Y394266D01*
X429706Y394367D01*
X429757Y394470D01*
X429804Y394575D01*
X429848Y394681D01*
X429889Y394789D01*
X429925Y394898D01*
X429958Y395008D01*
X429987Y395119D01*
X430013Y395231D01*
X430034Y395344D01*
X430052Y395458D01*
X430065Y395572D01*
X430075Y395686D01*
X430081Y395801D01*
X430083Y395916D01*
X430081Y396031D01*
X430075Y396146D01*
X430065Y396260D01*
X430052Y396374D01*
X430034Y396488D01*
X430013Y396601D01*
X429987Y396713D01*
X429958Y396824D01*
X429925Y396934D01*
X429889Y397043D01*
X429848Y397151D01*
X429804Y397257D01*
X429757Y397362D01*
X429706Y397465D01*
X429651Y397566D01*
X429593Y397665D01*
X429532Y397762D01*
X429467Y397857D01*
X429399Y397950D01*
X429328Y398040D01*
X429254Y398128D01*
X429177Y398213D01*
X429097Y398296D01*
X429096Y398296D02*
X429016Y398379D01*
X428939Y398464D01*
X428865Y398552D01*
X428794Y398642D01*
X428726Y398735D01*
X428661Y398830D01*
X428600Y398927D01*
X428542Y399026D01*
X428487Y399127D01*
X428436Y399230D01*
X428389Y399335D01*
X428345Y399441D01*
X428304Y399549D01*
X428268Y399658D01*
X428235Y399768D01*
X428206Y399879D01*
X428180Y399991D01*
X428159Y400104D01*
X428141Y400218D01*
X428128Y400332D01*
X428118Y400446D01*
X428112Y400561D01*
X428110Y400676D01*
X428112Y400791D01*
X428118Y400906D01*
X428128Y401020D01*
X428141Y401134D01*
X428159Y401248D01*
X428180Y401361D01*
X428206Y401473D01*
X428235Y401584D01*
X428268Y401694D01*
X428304Y401803D01*
X428345Y401911D01*
X428389Y402017D01*
X428436Y402122D01*
X428487Y402225D01*
X428542Y402326D01*
X428600Y402425D01*
X428661Y402522D01*
X428726Y402617D01*
X428794Y402710D01*
X428865Y402800D01*
X428939Y402888D01*
X429016Y402973D01*
X429096Y403056D01*
X429097Y403056D02*
X436251Y410210D01*
X436334Y410290D01*
X436419Y410367D01*
X436507Y410441D01*
X436597Y410512D01*
X436690Y410580D01*
X436785Y410645D01*
X436882Y410706D01*
X436981Y410764D01*
X437082Y410819D01*
X437185Y410870D01*
X437290Y410917D01*
X437396Y410961D01*
X437504Y411002D01*
X437613Y411038D01*
X437723Y411071D01*
X437834Y411100D01*
X437946Y411126D01*
X438059Y411147D01*
X438173Y411165D01*
X438287Y411178D01*
X438401Y411188D01*
X438516Y411194D01*
X438631Y411196D01*
X438746Y411194D01*
X438861Y411188D01*
X438975Y411178D01*
X439089Y411165D01*
X439203Y411147D01*
X439316Y411126D01*
X439428Y411100D01*
X439539Y411071D01*
X439649Y411038D01*
X439758Y411002D01*
X439866Y410961D01*
X439972Y410917D01*
X440077Y410870D01*
X440180Y410819D01*
X440281Y410764D01*
X440380Y410706D01*
X440477Y410645D01*
X440572Y410580D01*
X440665Y410512D01*
X440755Y410441D01*
X440843Y410367D01*
X440928Y410290D01*
X441011Y410210D01*
X441010Y410210D02*
X441093Y410130D01*
X441178Y410053D01*
X441266Y409979D01*
X441356Y409908D01*
X441449Y409840D01*
X441544Y409775D01*
X441641Y409714D01*
X441740Y409656D01*
X441841Y409601D01*
X441944Y409550D01*
X442049Y409503D01*
X442155Y409459D01*
X442263Y409418D01*
X442372Y409382D01*
X442482Y409349D01*
X442593Y409320D01*
X442705Y409294D01*
X442818Y409273D01*
X442932Y409255D01*
X443046Y409242D01*
X443160Y409232D01*
X443275Y409226D01*
X443390Y409224D01*
X443505Y409226D01*
X443620Y409232D01*
X443734Y409242D01*
X443848Y409255D01*
X443962Y409273D01*
X444075Y409294D01*
X444187Y409320D01*
X444298Y409349D01*
X444408Y409382D01*
X444517Y409418D01*
X444625Y409459D01*
X444731Y409503D01*
X444836Y409550D01*
X444939Y409601D01*
X445040Y409656D01*
X445139Y409714D01*
X445236Y409775D01*
X445331Y409840D01*
X445424Y409908D01*
X445514Y409979D01*
X445602Y410053D01*
X445687Y410130D01*
X445770Y410210D01*
X469900Y434340D01*
D45*
X383500Y298500D02*
X383540Y281940D01*
X381000Y279400D01*
D46*
X293760Y165100D02*
X292100Y165100D01*
X292100Y12700D01*
X293760Y165100D02*
X292236Y166624D01*
X292100Y165100D02*
X292100Y190500D01*
X358775Y257175D01*
X381000Y279400D01*
X358184Y257175D02*
X357210Y256200D01*
X358184Y257175D02*
X358775Y257175D01*
D44*
X380492Y165354D02*
X380492Y127508D01*
D49*
X381000Y127000D01*
X380906Y166092D02*
X380238Y166760D01*
D44*
X380238Y172974D01*
X380238Y200542D01*
D46*
X380906Y166092D02*
X380906Y165768D01*
X380492Y165354D01*
D44*
X379984Y172720D02*
X380238Y172974D01*
X381000Y172212D02*
X403098Y172212D01*
X381000Y172212D02*
X380238Y172974D01*
X379984Y172720D02*
X358648Y172720D01*
D45*
X388500Y282060D02*
X388500Y298500D01*
X388500Y282060D02*
X391160Y279400D01*
D46*
X468240Y165100D02*
X469900Y164964D01*
X469900Y165236D02*
X469900Y200660D01*
X469900Y165236D02*
X469900Y12700D01*
X468240Y165100D02*
X469900Y165236D01*
X414020Y256540D02*
X391160Y279400D01*
X414020Y256540D02*
X430293Y240267D01*
X430373Y240184D01*
X430450Y240099D01*
X430524Y240011D01*
X430595Y239921D01*
X430663Y239828D01*
X430728Y239733D01*
X430789Y239636D01*
X430847Y239537D01*
X430902Y239436D01*
X430953Y239333D01*
X431000Y239228D01*
X431044Y239122D01*
X431085Y239014D01*
X431121Y238905D01*
X431154Y238795D01*
X431183Y238684D01*
X431209Y238572D01*
X431230Y238459D01*
X431248Y238345D01*
X431261Y238231D01*
X431271Y238117D01*
X431277Y238002D01*
X431279Y237887D01*
X431277Y237772D01*
X431271Y237657D01*
X431261Y237543D01*
X431248Y237429D01*
X431230Y237315D01*
X431209Y237202D01*
X431183Y237090D01*
X431154Y236979D01*
X431121Y236869D01*
X431085Y236760D01*
X431044Y236652D01*
X431000Y236546D01*
X430953Y236441D01*
X430902Y236338D01*
X430847Y236237D01*
X430789Y236138D01*
X430728Y236041D01*
X430663Y235946D01*
X430595Y235853D01*
X430524Y235763D01*
X430450Y235675D01*
X430373Y235590D01*
X430293Y235507D01*
X430293Y235508D02*
X430213Y235425D01*
X430136Y235340D01*
X430062Y235252D01*
X429991Y235162D01*
X429923Y235069D01*
X429858Y234974D01*
X429797Y234877D01*
X429739Y234778D01*
X429684Y234677D01*
X429633Y234574D01*
X429586Y234469D01*
X429542Y234363D01*
X429501Y234255D01*
X429465Y234146D01*
X429432Y234036D01*
X429403Y233925D01*
X429377Y233813D01*
X429356Y233700D01*
X429338Y233586D01*
X429325Y233472D01*
X429315Y233358D01*
X429309Y233243D01*
X429307Y233128D01*
X429309Y233013D01*
X429315Y232898D01*
X429325Y232784D01*
X429338Y232670D01*
X429356Y232556D01*
X429377Y232443D01*
X429403Y232331D01*
X429432Y232220D01*
X429465Y232110D01*
X429501Y232001D01*
X429542Y231893D01*
X429586Y231787D01*
X429633Y231682D01*
X429684Y231579D01*
X429739Y231478D01*
X429797Y231379D01*
X429858Y231282D01*
X429923Y231187D01*
X429991Y231094D01*
X430062Y231004D01*
X430136Y230916D01*
X430213Y230831D01*
X430293Y230748D01*
X442601Y218440D01*
X442684Y218360D01*
X442769Y218283D01*
X442857Y218209D01*
X442947Y218138D01*
X443040Y218070D01*
X443135Y218005D01*
X443232Y217944D01*
X443331Y217886D01*
X443432Y217831D01*
X443535Y217780D01*
X443640Y217733D01*
X443746Y217689D01*
X443854Y217648D01*
X443963Y217612D01*
X444073Y217579D01*
X444184Y217550D01*
X444296Y217524D01*
X444409Y217503D01*
X444523Y217485D01*
X444637Y217472D01*
X444751Y217462D01*
X444866Y217456D01*
X444981Y217454D01*
X445096Y217456D01*
X445211Y217462D01*
X445325Y217472D01*
X445439Y217485D01*
X445553Y217503D01*
X445666Y217524D01*
X445778Y217550D01*
X445889Y217579D01*
X445999Y217612D01*
X446108Y217648D01*
X446216Y217689D01*
X446322Y217733D01*
X446427Y217780D01*
X446530Y217831D01*
X446631Y217886D01*
X446730Y217944D01*
X446827Y218005D01*
X446922Y218070D01*
X447015Y218138D01*
X447105Y218209D01*
X447193Y218283D01*
X447278Y218360D01*
X447361Y218440D01*
X447360Y218440D02*
X447443Y218520D01*
X447528Y218597D01*
X447616Y218671D01*
X447706Y218742D01*
X447799Y218810D01*
X447894Y218875D01*
X447991Y218936D01*
X448090Y218994D01*
X448191Y219049D01*
X448294Y219100D01*
X448399Y219147D01*
X448505Y219191D01*
X448613Y219232D01*
X448722Y219268D01*
X448832Y219301D01*
X448943Y219330D01*
X449055Y219356D01*
X449168Y219377D01*
X449282Y219395D01*
X449396Y219408D01*
X449510Y219418D01*
X449625Y219424D01*
X449740Y219426D01*
X449855Y219424D01*
X449970Y219418D01*
X450084Y219408D01*
X450198Y219395D01*
X450312Y219377D01*
X450425Y219356D01*
X450537Y219330D01*
X450648Y219301D01*
X450758Y219268D01*
X450867Y219232D01*
X450975Y219191D01*
X451081Y219147D01*
X451186Y219100D01*
X451289Y219049D01*
X451390Y218994D01*
X451489Y218936D01*
X451586Y218875D01*
X451681Y218810D01*
X451774Y218742D01*
X451864Y218671D01*
X451952Y218597D01*
X452037Y218520D01*
X452120Y218440D01*
X469900Y200660D01*
X414950Y256200D02*
X414360Y256200D01*
X414020Y256540D01*
D45*
X411440Y320000D02*
X400000Y320000D01*
X411440Y320000D02*
X414020Y322580D01*
D46*
X421640Y330200D01*
X438000Y330200D01*
D47*
X438000Y346560D01*
X441960Y350520D01*
X451240Y350520D01*
D48*
X452120Y349640D01*
D45*
X411440Y315000D02*
X400000Y315000D01*
X411440Y315000D02*
X414020Y312420D01*
D46*
X421640Y304800D01*
X438000Y304800D01*
D48*
X452120Y285360D02*
X451240Y284480D01*
D47*
X438000Y288440D02*
X438000Y304800D01*
X438000Y288440D02*
X441960Y284480D01*
X451240Y284480D01*
D46*
X451000Y330200D02*
X478155Y330200D01*
X478155Y304800D02*
X451000Y304800D01*
X512445Y304800D02*
X607314Y304800D01*
D45*
X393500Y336500D02*
X393500Y342700D01*
X396240Y345440D02*
X401320Y345440D01*
X396240Y345440D02*
X393500Y342700D01*
D40*
X401320Y345440D03*
D50*
X484378Y360680D03*
D42*
X486410Y358648D01*
X495944Y358648D01*
X520700Y379730D02*
X520700Y393700D01*
X514604Y373634D02*
X491744Y373634D01*
X484378Y366268D01*
X484378Y360680D01*
X514604Y373634D02*
X520700Y379730D01*
X495944Y358648D02*
X486410Y358648D01*
D46*
X584200Y482600D02*
X622300Y482600D01*
X584200Y482600D02*
X571500Y469900D01*
X571500Y406400D01*
X558800Y393700D01*
X546100Y393700D01*
D42*
X378500Y298500D02*
X378500Y289346D01*
X376428Y287274D01*
X376428Y286766D01*
D50*
X376428Y286766D03*
D42*
X373500Y290442D02*
X373500Y298500D01*
X371856Y288798D02*
X371856Y282702D01*
X372872Y281686D01*
X373126Y281940D01*
D50*
X373126Y281940D03*
D42*
X371856Y288798D02*
X373500Y290442D01*
X371094Y347726D02*
X371094Y352806D01*
X371348Y352806D01*
D50*
X371348Y352806D03*
D42*
X371094Y347726D02*
X373380Y345440D01*
X373380Y337620D02*
X373500Y336500D01*
X373380Y337620D02*
X373380Y345440D01*
X378500Y346924D02*
X378500Y336500D01*
D50*
X376682Y348742D03*
D42*
X378500Y346924D01*
D51*
X362000Y315000D02*
X351028Y314960D01*
X350560Y314952D01*
X350092Y314933D01*
X349625Y314903D01*
X349158Y314861D01*
X348693Y314807D01*
X348229Y314742D01*
X347767Y314666D01*
X347306Y314578D01*
X346848Y314480D01*
X346393Y314370D01*
X345941Y314249D01*
X345491Y314116D01*
X345045Y313973D01*
X344603Y313819D01*
X344164Y313654D01*
X343730Y313479D01*
X343300Y313293D01*
X342875Y313096D01*
X342455Y312889D01*
X342040Y312672D01*
X341630Y312444D01*
X341227Y312207D01*
X340829Y311960D01*
X340437Y311703D01*
X340052Y311436D01*
X339673Y311161D01*
X339301Y310876D01*
X338937Y310582D01*
X338579Y310279D01*
X338229Y309967D01*
X337887Y309647D01*
X337553Y309319D01*
X337227Y308983D01*
X336910Y308638D01*
X336600Y308286D01*
X336300Y307927D01*
X336009Y307560D01*
X335812Y307364D02*
X334498Y306304D01*
X335812Y307364D02*
X336009Y307561D01*
X354584Y309880D02*
X362000Y310000D01*
X354584Y309880D02*
X354447Y309879D01*
X354311Y309882D01*
X354175Y309890D01*
X354039Y309901D01*
X353903Y309915D01*
X353768Y309934D01*
X353633Y309957D01*
X353499Y309983D01*
X353366Y310013D01*
X353234Y310047D01*
X353103Y310085D01*
X352973Y310126D01*
X352844Y310171D01*
X352716Y310220D01*
X352590Y310272D01*
X352466Y310328D01*
X352343Y310387D01*
X352221Y310450D01*
X352102Y310516D01*
X351985Y310585D01*
X351869Y310658D01*
X351756Y310734D01*
X351645Y310813D01*
X351536Y310896D01*
X351462Y310951D01*
X351386Y311003D01*
X351307Y311052D01*
X351227Y311097D01*
X351144Y311139D01*
X351060Y311178D01*
X350975Y311213D01*
X350888Y311244D01*
X350799Y311271D01*
X350710Y311295D01*
X350619Y311314D01*
X350528Y311330D01*
X350437Y311342D01*
X350345Y311350D01*
X350252Y311354D01*
X350160Y311355D01*
X350067Y311351D01*
X349975Y311343D01*
X349883Y311332D01*
X349792Y311316D01*
X349702Y311297D01*
X349612Y311274D01*
X349524Y311247D01*
X349437Y311216D01*
X349351Y311182D01*
X349266Y311144D01*
X349184Y311102D01*
X349103Y311057D01*
X349024Y311009D01*
X348948Y310957D01*
X348873Y310902D01*
X348801Y310844D01*
X348732Y310783D01*
X348665Y310719D01*
X348601Y310652D01*
X348540Y310583D01*
X348482Y310511D01*
X348427Y310436D01*
X348375Y310360D01*
X348327Y310281D01*
X348282Y310200D01*
X348240Y310118D01*
X348202Y310033D01*
X348168Y309947D01*
X348137Y309860D01*
X348110Y309772D01*
X348087Y309682D01*
X348068Y309592D01*
X348052Y309501D01*
X348041Y309409D01*
X348033Y309317D01*
X348029Y309224D01*
X348030Y309132D01*
X348034Y309039D01*
X348042Y308947D01*
X348054Y308856D01*
X348070Y308765D01*
X348089Y308674D01*
X348113Y308585D01*
X348140Y308496D01*
X348171Y308409D01*
X348206Y308324D01*
X348245Y308240D01*
X348287Y308157D01*
X348332Y308077D01*
X348381Y307998D01*
X348433Y307922D01*
X348488Y307848D01*
X348555Y307759D01*
X348619Y307668D01*
X348679Y307575D01*
X348737Y307480D01*
X348791Y307383D01*
X348841Y307284D01*
X348888Y307184D01*
X348932Y307082D01*
X348972Y306978D01*
X349009Y306873D01*
X349042Y306767D01*
X349072Y306660D01*
X349097Y306552D01*
X349119Y306443D01*
X349138Y306334D01*
X349152Y306224D01*
X349163Y306113D01*
X349170Y306002D01*
X349173Y305891D01*
X349172Y305780D01*
X349168Y305669D01*
X349159Y305559D01*
X349147Y305448D01*
X349131Y305338D01*
X349112Y305229D01*
X349088Y305120D01*
X349061Y305013D01*
X349031Y304906D01*
X348996Y304800D01*
X348906Y304552D01*
X348811Y304307D01*
X348709Y304064D01*
X348602Y303823D01*
X348489Y303585D01*
X348370Y303350D01*
X348246Y303118D01*
X348116Y302889D01*
X347981Y302663D01*
X347841Y302440D01*
X347695Y302221D01*
X347544Y302005D01*
X347388Y301793D01*
X347227Y301584D01*
X347061Y301380D01*
X346890Y301180D01*
X346714Y300983D01*
X346534Y300791D01*
X346349Y300604D01*
X346160Y300421D01*
X345967Y300242D01*
X345769Y300068D01*
X345567Y299899D01*
X345361Y299735D01*
X345151Y299576D01*
X344938Y299421D01*
X344721Y299272D01*
X344500Y299128D01*
X344276Y298990D01*
X344049Y298857D01*
X343819Y298729D01*
X343586Y298607D01*
X343349Y298490D01*
X343111Y298379D01*
X342869Y298274D01*
X342625Y298175D01*
D45*
X327426Y335768D02*
X326325Y336828D01*
D51*
X316718Y346436D01*
D45*
X310651Y352503D01*
X310651Y357977D01*
X241908Y426720D01*
D46*
X186309Y434160D02*
X183759Y436709D01*
X186308Y434160D02*
X186741Y433737D01*
X187183Y433325D01*
X187636Y432924D01*
X188097Y432534D01*
X188568Y432154D01*
X189047Y431786D01*
X189536Y431430D01*
X190032Y431085D01*
X190537Y430752D01*
X191049Y430431D01*
X191569Y430123D01*
X192096Y429827D01*
X192630Y429544D01*
X193171Y429273D01*
X193717Y429015D01*
X194270Y428771D01*
X194829Y428539D01*
X195393Y428321D01*
X195961Y428117D01*
X196535Y427926D01*
X197113Y427749D01*
X197695Y427585D01*
X198281Y427436D01*
X198870Y427300D01*
X199462Y427179D01*
X200057Y427072D01*
X200654Y426979D01*
X201254Y426900D01*
X201855Y426835D01*
X202457Y426785D01*
X203060Y426749D01*
X203665Y426727D01*
X204269Y426720D01*
X240030Y426720D01*
D45*
X241908Y426720D01*
D51*
X354584Y325120D02*
X362000Y325000D01*
X354584Y325120D02*
X354447Y325121D01*
X354311Y325118D01*
X354175Y325110D01*
X354039Y325099D01*
X353903Y325085D01*
X353768Y325066D01*
X353633Y325043D01*
X353499Y325017D01*
X353366Y324987D01*
X353234Y324953D01*
X353103Y324915D01*
X352973Y324874D01*
X352844Y324829D01*
X352716Y324780D01*
X352590Y324728D01*
X352466Y324672D01*
X352343Y324613D01*
X352221Y324550D01*
X352102Y324484D01*
X351985Y324415D01*
X351869Y324342D01*
X351756Y324266D01*
X351645Y324187D01*
X351536Y324104D01*
X351462Y324049D01*
X351386Y323997D01*
X351307Y323948D01*
X351227Y323903D01*
X351144Y323861D01*
X351060Y323822D01*
X350975Y323787D01*
X350888Y323756D01*
X350799Y323729D01*
X350710Y323705D01*
X350619Y323686D01*
X350528Y323670D01*
X350437Y323658D01*
X350345Y323650D01*
X350252Y323646D01*
X350160Y323645D01*
X350067Y323649D01*
X349975Y323657D01*
X349883Y323668D01*
X349792Y323684D01*
X349702Y323703D01*
X349612Y323726D01*
X349524Y323753D01*
X349437Y323784D01*
X349351Y323818D01*
X349266Y323856D01*
X349184Y323898D01*
X349103Y323943D01*
X349024Y323991D01*
X348948Y324043D01*
X348873Y324098D01*
X348801Y324156D01*
X348732Y324217D01*
X348665Y324281D01*
X348601Y324348D01*
X348540Y324417D01*
X348482Y324489D01*
X348427Y324564D01*
X348375Y324640D01*
X348327Y324719D01*
X348282Y324800D01*
X348240Y324882D01*
X348202Y324967D01*
X348168Y325053D01*
X348137Y325140D01*
X348110Y325228D01*
X348087Y325318D01*
X348068Y325408D01*
X348052Y325499D01*
X348041Y325591D01*
X348033Y325683D01*
X348029Y325776D01*
X348030Y325868D01*
X348034Y325961D01*
X348042Y326053D01*
X348054Y326144D01*
X348070Y326235D01*
X348089Y326326D01*
X348113Y326415D01*
X348140Y326504D01*
X348171Y326591D01*
X348206Y326676D01*
X348245Y326760D01*
X348287Y326843D01*
X348332Y326923D01*
X348381Y327002D01*
X348433Y327078D01*
X348488Y327152D01*
X348555Y327241D01*
X348619Y327332D01*
X348679Y327425D01*
X348737Y327520D01*
X348791Y327617D01*
X348841Y327716D01*
X348888Y327816D01*
X348932Y327918D01*
X348972Y328022D01*
X349009Y328127D01*
X349042Y328233D01*
X349072Y328340D01*
X349097Y328448D01*
X349119Y328557D01*
X349138Y328666D01*
X349152Y328776D01*
X349163Y328887D01*
X349170Y328998D01*
X349173Y329109D01*
X349172Y329220D01*
X349168Y329331D01*
X349159Y329441D01*
X349147Y329552D01*
X349131Y329662D01*
X349112Y329771D01*
X349088Y329880D01*
X349061Y329987D01*
X349031Y330094D01*
X348996Y330200D01*
X348906Y330448D01*
X348810Y330693D01*
X348709Y330936D01*
X348602Y331177D01*
X348489Y331415D01*
X348370Y331650D01*
X348246Y331882D01*
X348116Y332111D01*
X347981Y332337D01*
X347841Y332560D01*
X347695Y332779D01*
X347544Y332995D01*
X347388Y333207D01*
X347227Y333416D01*
X347061Y333620D01*
X346890Y333820D01*
X346714Y334017D01*
X346534Y334209D01*
X346349Y334396D01*
X346160Y334579D01*
X345967Y334758D01*
X345769Y334932D01*
X345567Y335101D01*
X345361Y335265D01*
X345151Y335424D01*
X344938Y335579D01*
X344721Y335728D01*
X344500Y335872D01*
X344276Y336010D01*
X344049Y336143D01*
X343819Y336271D01*
X343586Y336393D01*
X343349Y336510D01*
X343111Y336621D01*
X342869Y336726D01*
X342625Y336825D01*
X335554Y343896D02*
X324886Y354564D01*
D45*
X324886Y354604D01*
X318819Y360671D01*
X313345Y360671D01*
X235288Y487596D02*
X235288Y488238D01*
X245110Y428906D02*
X313345Y360671D01*
D46*
X237671Y485214D02*
X235288Y487596D01*
X237670Y485214D02*
X238093Y484781D01*
X238505Y484339D01*
X238906Y483886D01*
X239296Y483425D01*
X239676Y482954D01*
X240044Y482475D01*
X240400Y481986D01*
X240745Y481490D01*
X241078Y480985D01*
X241399Y480473D01*
X241707Y479953D01*
X242003Y479426D01*
X242286Y478892D01*
X242557Y478351D01*
X242815Y477805D01*
X243059Y477252D01*
X243291Y476693D01*
X243509Y476129D01*
X243713Y475561D01*
X243904Y474987D01*
X244081Y474409D01*
X244245Y473827D01*
X244394Y473241D01*
X244530Y472652D01*
X244651Y472060D01*
X244758Y471465D01*
X244851Y470868D01*
X244930Y470268D01*
X244995Y469667D01*
X245045Y469065D01*
X245081Y468462D01*
X245103Y467857D01*
X245110Y467253D01*
X245110Y430530D01*
D45*
X245110Y428906D01*
D41*
X406400Y127000D02*
X406400Y93336D01*
X405892Y92828D01*
X355600Y93844D02*
X355600Y127000D01*
X355600Y93844D02*
X355092Y93336D01*
D48*
X129853Y490534D02*
X129863Y490546D01*
X129871Y490560D01*
X129875Y490575D01*
X129877Y490591D01*
D46*
X129854Y490534D02*
X88720Y449400D01*
X88297Y448967D01*
X87885Y448525D01*
X87484Y448072D01*
X87094Y447611D01*
X86714Y447140D01*
X86346Y446661D01*
X85990Y446172D01*
X85645Y445676D01*
X85312Y445171D01*
X84991Y444659D01*
X84683Y444139D01*
X84387Y443612D01*
X84104Y443078D01*
X83833Y442537D01*
X83575Y441991D01*
X83331Y441438D01*
X83099Y440879D01*
X82881Y440315D01*
X82677Y439747D01*
X82486Y439173D01*
X82309Y438595D01*
X82145Y438013D01*
X81996Y437427D01*
X81860Y436838D01*
X81739Y436246D01*
X81632Y435651D01*
X81539Y435054D01*
X81460Y434454D01*
X81395Y433853D01*
X81345Y433251D01*
X81309Y432648D01*
X81287Y432043D01*
X81280Y431439D01*
X81280Y401245D01*
X81273Y400641D01*
X81251Y400036D01*
X81215Y399433D01*
X81165Y398831D01*
X81100Y398230D01*
X81021Y397630D01*
X80928Y397033D01*
X80821Y396438D01*
X80700Y395846D01*
X80564Y395257D01*
X80415Y394671D01*
X80251Y394089D01*
X80074Y393511D01*
X79883Y392937D01*
X79679Y392369D01*
X79461Y391805D01*
X79229Y391246D01*
X78985Y390693D01*
X78727Y390147D01*
X78456Y389606D01*
X78173Y389072D01*
X77877Y388545D01*
X77569Y388025D01*
X77248Y387513D01*
X76915Y387008D01*
X76570Y386512D01*
X76214Y386023D01*
X75846Y385544D01*
X75466Y385073D01*
X75076Y384612D01*
X74675Y384159D01*
X74263Y383717D01*
X73841Y383284D01*
X54939Y374904D02*
X26416Y374904D01*
X54939Y374904D02*
X55543Y374911D01*
X56148Y374933D01*
X56751Y374969D01*
X57353Y375019D01*
X57954Y375084D01*
X58554Y375163D01*
X59151Y375256D01*
X59746Y375363D01*
X60338Y375484D01*
X60927Y375620D01*
X61513Y375769D01*
X62095Y375933D01*
X62673Y376110D01*
X63247Y376301D01*
X63815Y376505D01*
X64379Y376723D01*
X64938Y376955D01*
X65491Y377199D01*
X66037Y377457D01*
X66578Y377728D01*
X67112Y378011D01*
X67639Y378307D01*
X68159Y378615D01*
X68671Y378936D01*
X69176Y379269D01*
X69672Y379614D01*
X70161Y379970D01*
X70640Y380338D01*
X71111Y380718D01*
X71572Y381108D01*
X72025Y381509D01*
X72467Y381921D01*
X72900Y382343D01*
X72899Y382344D02*
X73841Y383285D01*
X52979Y127000D02*
X27686Y127000D01*
X52979Y127000D02*
X53583Y126993D01*
X54188Y126971D01*
X54791Y126935D01*
X55393Y126885D01*
X55994Y126820D01*
X56594Y126741D01*
X57191Y126648D01*
X57786Y126541D01*
X58378Y126420D01*
X58967Y126284D01*
X59553Y126135D01*
X60135Y125971D01*
X60713Y125794D01*
X61287Y125603D01*
X61855Y125399D01*
X62419Y125181D01*
X62978Y124949D01*
X63531Y124705D01*
X64077Y124447D01*
X64618Y124176D01*
X65152Y123893D01*
X65679Y123597D01*
X66199Y123289D01*
X66711Y122968D01*
X67216Y122635D01*
X67712Y122290D01*
X68201Y121934D01*
X68680Y121566D01*
X69151Y121186D01*
X69612Y120796D01*
X70065Y120395D01*
X70507Y119983D01*
X70940Y119561D01*
X106861Y83640D01*
X106860Y83640D02*
X107293Y83217D01*
X107735Y82805D01*
X108188Y82404D01*
X108649Y82014D01*
X109120Y81634D01*
X109599Y81266D01*
X110088Y80910D01*
X110584Y80565D01*
X111089Y80232D01*
X111601Y79911D01*
X112121Y79603D01*
X112648Y79307D01*
X113182Y79024D01*
X113723Y78753D01*
X114269Y78495D01*
X114822Y78251D01*
X115381Y78019D01*
X115945Y77801D01*
X116513Y77597D01*
X117087Y77406D01*
X117665Y77229D01*
X118247Y77065D01*
X118833Y76916D01*
X119422Y76780D01*
X120014Y76659D01*
X120609Y76552D01*
X121206Y76459D01*
X121806Y76380D01*
X122407Y76315D01*
X123009Y76265D01*
X123612Y76229D01*
X124217Y76207D01*
X124821Y76200D01*
X154205Y76200D01*
X154809Y76207D01*
X155414Y76229D01*
X156017Y76265D01*
X156619Y76315D01*
X157220Y76380D01*
X157820Y76459D01*
X158417Y76552D01*
X159012Y76659D01*
X159604Y76780D01*
X160193Y76916D01*
X160779Y77065D01*
X161361Y77229D01*
X161939Y77406D01*
X162513Y77597D01*
X163081Y77801D01*
X163645Y78019D01*
X164204Y78251D01*
X164757Y78495D01*
X165303Y78753D01*
X165844Y79024D01*
X166378Y79307D01*
X166905Y79603D01*
X167425Y79911D01*
X167937Y80232D01*
X168442Y80565D01*
X168938Y80910D01*
X169427Y81266D01*
X169906Y81634D01*
X170377Y82014D01*
X170838Y82404D01*
X171291Y82805D01*
X171733Y83217D01*
X172166Y83639D01*
X172165Y83640D02*
X181406Y92880D01*
D45*
X335992Y327457D02*
X335944Y327544D01*
X335892Y327629D01*
X335837Y327712D01*
X335779Y327793D01*
X335718Y327872D01*
X335654Y327948D01*
X335587Y328021D01*
X335516Y328092D01*
X335444Y328160D01*
X335368Y328225D01*
X335290Y328287D01*
X335210Y328346D01*
X335128Y328402D01*
X335043Y328455D01*
X334956Y328504D01*
X334868Y328549D01*
X334778Y328592D01*
X334686Y328630D01*
X334592Y328665D01*
X334498Y328697D01*
X335992Y327456D02*
X336009Y327440D01*
D51*
X351028Y320040D02*
X362000Y320000D01*
X351028Y320040D02*
X350560Y320048D01*
X350092Y320067D01*
X349625Y320097D01*
X349158Y320139D01*
X348693Y320193D01*
X348229Y320258D01*
X347767Y320334D01*
X347306Y320422D01*
X346848Y320520D01*
X346393Y320630D01*
X345941Y320751D01*
X345491Y320884D01*
X345045Y321027D01*
X344603Y321181D01*
X344164Y321346D01*
X343730Y321521D01*
X343300Y321707D01*
X342875Y321904D01*
X342455Y322111D01*
X342040Y322328D01*
X341630Y322556D01*
X341227Y322793D01*
X340829Y323040D01*
X340437Y323297D01*
X340052Y323564D01*
X339673Y323839D01*
X339301Y324124D01*
X338937Y324418D01*
X338579Y324721D01*
X338229Y325033D01*
X337887Y325353D01*
X337553Y325681D01*
X337227Y326017D01*
X336910Y326362D01*
X336600Y326714D01*
X336300Y327073D01*
X336009Y327440D01*
D45*
X324124Y279126D02*
X319073Y274075D01*
X313599Y274075D01*
X245110Y205586D01*
D51*
X327034Y282552D02*
X335554Y291104D01*
D45*
X235288Y146762D02*
X235288Y146762D01*
X234867Y147183D01*
D51*
X324886Y280405D02*
X327034Y282552D01*
X324886Y280405D02*
X324886Y280396D01*
X324886Y280405D02*
X324124Y279643D01*
X324124Y279126D01*
D46*
X237671Y149987D02*
X234867Y147183D01*
X237670Y149986D02*
X238093Y150419D01*
X238505Y150861D01*
X238906Y151314D01*
X239296Y151775D01*
X239676Y152246D01*
X240044Y152725D01*
X240400Y153214D01*
X240745Y153710D01*
X241078Y154215D01*
X241399Y154727D01*
X241707Y155247D01*
X242003Y155774D01*
X242286Y156308D01*
X242557Y156849D01*
X242815Y157395D01*
X243059Y157948D01*
X243291Y158507D01*
X243509Y159071D01*
X243713Y159639D01*
X243904Y160213D01*
X244081Y160791D01*
X244245Y161373D01*
X244394Y161959D01*
X244530Y162548D01*
X244651Y163140D01*
X244758Y163735D01*
X244851Y164332D01*
X244930Y164932D01*
X244995Y165533D01*
X245045Y166135D01*
X245081Y166738D01*
X245103Y167343D01*
X245110Y167947D01*
X245110Y203200D01*
D45*
X245110Y205586D01*
X310905Y282243D02*
X316972Y288310D01*
X310905Y282243D02*
X310905Y276769D01*
X242416Y208280D01*
D51*
X316972Y288310D02*
X319116Y290561D01*
X327426Y299232D01*
X319116Y290561D02*
X318714Y290561D01*
X316718Y288564D01*
D46*
X186109Y200841D02*
X183759Y198491D01*
X186108Y200840D02*
X186541Y201263D01*
X186983Y201675D01*
X187436Y202076D01*
X187897Y202466D01*
X188368Y202846D01*
X188847Y203214D01*
X189336Y203570D01*
X189832Y203915D01*
X190337Y204248D01*
X190849Y204569D01*
X191369Y204877D01*
X191896Y205173D01*
X192430Y205456D01*
X192971Y205727D01*
X193517Y205985D01*
X194070Y206229D01*
X194629Y206461D01*
X195193Y206679D01*
X195761Y206883D01*
X196335Y207074D01*
X196913Y207251D01*
X197495Y207415D01*
X198081Y207564D01*
X198670Y207700D01*
X199262Y207821D01*
X199857Y207928D01*
X200454Y208021D01*
X201054Y208100D01*
X201655Y208165D01*
X202257Y208215D01*
X202860Y208251D01*
X203465Y208273D01*
X204069Y208280D01*
X240030Y208280D01*
D45*
X242416Y208280D01*
D46*
X183759Y198491D02*
X183759Y198291D01*
D41*
X390906Y573786D02*
X390906Y580898D01*
X395732Y568960D02*
X395732Y560188D01*
X395732Y568960D02*
X390906Y573786D01*
X369824Y62484D02*
X369824Y52832D01*
X355092Y68580D02*
X355092Y76336D01*
X367284Y65024D02*
X369824Y62484D01*
X367284Y65024D02*
X358648Y65024D01*
X355092Y68580D01*
D47*
X330200Y469900D02*
X310760Y469900D01*
X331978Y468122D02*
X331978Y457200D01*
X331978Y468122D02*
X330200Y469900D01*
X430276Y463296D02*
X430276Y456946D01*
X430276Y463296D02*
X436880Y469900D01*
X451240Y469900D01*
X317500Y165100D02*
X310760Y165100D01*
X317500Y165100D02*
X322580Y160020D01*
X330200Y160020D01*
X333248Y163068D01*
X333248Y172720D01*
X436880Y160020D02*
X441960Y165100D01*
X436880Y160020D02*
X431800Y160020D01*
X428498Y163322D01*
X428498Y172212D01*
X441960Y165100D02*
X451240Y165100D01*
M02*
