G04 EAGLE Gerber RS-274X export*
G75*
%MOMM*%
%FSLAX34Y34*%
%LPD*%
%INCopper Layer 15*%
%IPPOS*%
%AMOC8*
5,1,8,0,0,1.08239X$1,22.5*%
G01*
%ADD10C,0.914400*%
%ADD11C,1.200000*%
%ADD12C,1.530000*%
%ADD13C,1.500000*%
%ADD14C,0.762000*%
%ADD15C,0.558800*%
%ADD16C,4.572000*%
%ADD17C,0.553200*%
%ADD18C,0.457200*%

G36*
X482198Y11689D02*
X482198Y11689D01*
X482227Y11686D01*
X482338Y11709D01*
X482450Y11725D01*
X482477Y11737D01*
X482506Y11742D01*
X482606Y11795D01*
X482710Y11841D01*
X482732Y11860D01*
X482758Y11873D01*
X482840Y11951D01*
X482927Y12025D01*
X482943Y12049D01*
X482964Y12069D01*
X483021Y12167D01*
X483084Y12261D01*
X483093Y12289D01*
X483108Y12314D01*
X483136Y12424D01*
X483170Y12532D01*
X483171Y12562D01*
X483178Y12590D01*
X483174Y12703D01*
X483177Y12816D01*
X483170Y12845D01*
X483169Y12874D01*
X483134Y12982D01*
X483105Y13091D01*
X483090Y13117D01*
X483081Y13145D01*
X483036Y13208D01*
X482960Y13336D01*
X482914Y13379D01*
X482886Y13418D01*
X480313Y15991D01*
X480313Y19569D01*
X482843Y22099D01*
X486421Y22099D01*
X488951Y19569D01*
X488951Y15991D01*
X486378Y13418D01*
X486360Y13394D01*
X486337Y13376D01*
X486275Y13281D01*
X486207Y13191D01*
X486196Y13163D01*
X486180Y13139D01*
X486146Y13031D01*
X486105Y12925D01*
X486103Y12896D01*
X486094Y12868D01*
X486091Y12754D01*
X486082Y12642D01*
X486088Y12613D01*
X486087Y12584D01*
X486115Y12474D01*
X486138Y12363D01*
X486151Y12337D01*
X486159Y12309D01*
X486216Y12211D01*
X486269Y12111D01*
X486289Y12089D01*
X486304Y12064D01*
X486386Y11987D01*
X486464Y11905D01*
X486490Y11890D01*
X486511Y11870D01*
X486612Y11818D01*
X486710Y11761D01*
X486738Y11754D01*
X486764Y11740D01*
X486842Y11727D01*
X486985Y11691D01*
X487048Y11693D01*
X487095Y11685D01*
X609600Y11685D01*
X609687Y11697D01*
X609774Y11700D01*
X609827Y11717D01*
X609882Y11725D01*
X609961Y11760D01*
X610045Y11787D01*
X610084Y11815D01*
X610141Y11841D01*
X610254Y11937D01*
X610318Y11982D01*
X623018Y24682D01*
X623070Y24752D01*
X623130Y24816D01*
X623156Y24865D01*
X623189Y24909D01*
X623220Y24991D01*
X623260Y25069D01*
X623268Y25117D01*
X623290Y25175D01*
X623302Y25323D01*
X623315Y25400D01*
X623315Y287528D01*
X623307Y287586D01*
X623309Y287644D01*
X623287Y287726D01*
X623275Y287810D01*
X623252Y287863D01*
X623237Y287919D01*
X623194Y287992D01*
X623159Y288069D01*
X623121Y288114D01*
X623092Y288164D01*
X623030Y288222D01*
X622976Y288286D01*
X622927Y288318D01*
X622884Y288358D01*
X622809Y288397D01*
X622739Y288444D01*
X622683Y288461D01*
X622631Y288488D01*
X622563Y288499D01*
X622468Y288529D01*
X622368Y288532D01*
X622300Y288543D01*
X620511Y288543D01*
X617981Y291073D01*
X617981Y294651D01*
X620511Y297181D01*
X622300Y297181D01*
X622358Y297189D01*
X622416Y297187D01*
X622498Y297209D01*
X622582Y297221D01*
X622635Y297244D01*
X622691Y297259D01*
X622764Y297302D01*
X622841Y297337D01*
X622886Y297375D01*
X622936Y297404D01*
X622994Y297466D01*
X623058Y297520D01*
X623090Y297569D01*
X623130Y297612D01*
X623169Y297687D01*
X623216Y297757D01*
X623233Y297813D01*
X623260Y297865D01*
X623271Y297933D01*
X623301Y298028D01*
X623304Y298128D01*
X623315Y298196D01*
X623315Y311658D01*
X623307Y311716D01*
X623309Y311774D01*
X623287Y311856D01*
X623275Y311940D01*
X623252Y311993D01*
X623237Y312049D01*
X623194Y312122D01*
X623159Y312199D01*
X623121Y312244D01*
X623092Y312294D01*
X623030Y312352D01*
X622976Y312416D01*
X622927Y312448D01*
X622884Y312488D01*
X622809Y312527D01*
X622739Y312574D01*
X622683Y312591D01*
X622631Y312618D01*
X622563Y312629D01*
X622468Y312659D01*
X622368Y312662D01*
X622300Y312673D01*
X618733Y312673D01*
X616203Y315203D01*
X616203Y318781D01*
X618733Y321311D01*
X622300Y321311D01*
X622358Y321319D01*
X622416Y321317D01*
X622498Y321339D01*
X622582Y321351D01*
X622635Y321374D01*
X622691Y321389D01*
X622764Y321432D01*
X622841Y321467D01*
X622886Y321505D01*
X622936Y321534D01*
X622994Y321596D01*
X623058Y321650D01*
X623090Y321699D01*
X623130Y321742D01*
X623169Y321817D01*
X623216Y321887D01*
X623233Y321943D01*
X623260Y321995D01*
X623271Y322063D01*
X623301Y322158D01*
X623304Y322258D01*
X623315Y322326D01*
X623315Y609600D01*
X623303Y609687D01*
X623300Y609774D01*
X623283Y609827D01*
X623275Y609882D01*
X623240Y609961D01*
X623213Y610045D01*
X623185Y610084D01*
X623159Y610141D01*
X623063Y610254D01*
X623018Y610318D01*
X610318Y623018D01*
X610248Y623070D01*
X610184Y623130D01*
X610135Y623156D01*
X610091Y623189D01*
X610009Y623220D01*
X609931Y623260D01*
X609884Y623268D01*
X609825Y623290D01*
X609677Y623302D01*
X609600Y623315D01*
X493014Y623315D01*
X492956Y623307D01*
X492898Y623309D01*
X492816Y623287D01*
X492732Y623275D01*
X492679Y623252D01*
X492623Y623237D01*
X492550Y623194D01*
X492473Y623159D01*
X492428Y623121D01*
X492378Y623092D01*
X492320Y623030D01*
X492256Y622976D01*
X492224Y622927D01*
X492184Y622884D01*
X492145Y622809D01*
X492098Y622739D01*
X492081Y622683D01*
X492054Y622631D01*
X492043Y622563D01*
X492013Y622468D01*
X492010Y622368D01*
X491999Y622300D01*
X491999Y621781D01*
X489469Y619251D01*
X485891Y619251D01*
X483361Y621781D01*
X483361Y622300D01*
X483353Y622358D01*
X483355Y622416D01*
X483333Y622498D01*
X483321Y622582D01*
X483298Y622635D01*
X483283Y622691D01*
X483240Y622764D01*
X483205Y622841D01*
X483167Y622886D01*
X483138Y622936D01*
X483076Y622994D01*
X483022Y623058D01*
X482973Y623090D01*
X482930Y623130D01*
X482855Y623169D01*
X482785Y623216D01*
X482729Y623233D01*
X482677Y623260D01*
X482609Y623271D01*
X482514Y623301D01*
X482414Y623304D01*
X482346Y623315D01*
X457123Y623315D01*
X457037Y623303D01*
X456949Y623300D01*
X456897Y623283D01*
X456842Y623275D01*
X456762Y623240D01*
X456679Y623213D01*
X456640Y623185D01*
X456582Y623159D01*
X456469Y623063D01*
X456405Y623018D01*
X453909Y620521D01*
X450331Y620521D01*
X447835Y623018D01*
X447765Y623070D01*
X447701Y623130D01*
X447652Y623156D01*
X447607Y623189D01*
X447526Y623220D01*
X447448Y623260D01*
X447400Y623268D01*
X447342Y623290D01*
X447194Y623302D01*
X447117Y623315D01*
X314883Y623315D01*
X314854Y623311D01*
X314825Y623314D01*
X314714Y623291D01*
X314602Y623275D01*
X314575Y623263D01*
X314546Y623258D01*
X314446Y623206D01*
X314342Y623159D01*
X314320Y623140D01*
X314294Y623127D01*
X314212Y623049D01*
X314125Y622976D01*
X314109Y622951D01*
X314088Y622931D01*
X314031Y622833D01*
X313968Y622739D01*
X313959Y622711D01*
X313944Y622686D01*
X313916Y622576D01*
X313882Y622468D01*
X313881Y622438D01*
X313874Y622410D01*
X313878Y622297D01*
X313875Y622184D01*
X313882Y622155D01*
X313883Y622126D01*
X313918Y622018D01*
X313947Y621909D01*
X313962Y621883D01*
X313971Y621855D01*
X314016Y621792D01*
X314092Y621664D01*
X314138Y621621D01*
X314166Y621582D01*
X314199Y621549D01*
X314199Y617971D01*
X311669Y615441D01*
X308091Y615441D01*
X305561Y617971D01*
X305561Y621549D01*
X305594Y621582D01*
X305612Y621606D01*
X305635Y621625D01*
X305697Y621719D01*
X305765Y621809D01*
X305776Y621837D01*
X305792Y621861D01*
X305826Y621969D01*
X305867Y622075D01*
X305869Y622104D01*
X305878Y622132D01*
X305881Y622246D01*
X305890Y622358D01*
X305884Y622387D01*
X305885Y622416D01*
X305857Y622526D01*
X305834Y622637D01*
X305821Y622663D01*
X305813Y622691D01*
X305756Y622789D01*
X305703Y622889D01*
X305683Y622911D01*
X305668Y622936D01*
X305586Y623013D01*
X305508Y623095D01*
X305482Y623110D01*
X305461Y623130D01*
X305360Y623182D01*
X305262Y623239D01*
X305234Y623246D01*
X305208Y623260D01*
X305130Y623273D01*
X304987Y623309D01*
X304924Y623307D01*
X304877Y623315D01*
X292100Y623315D01*
X292042Y623307D01*
X291984Y623309D01*
X291902Y623287D01*
X291819Y623275D01*
X291765Y623252D01*
X291709Y623237D01*
X291636Y623194D01*
X291559Y623159D01*
X291514Y623121D01*
X291464Y623092D01*
X291406Y623030D01*
X291342Y622976D01*
X291310Y622927D01*
X291270Y622884D01*
X291231Y622809D01*
X291185Y622739D01*
X291167Y622683D01*
X291140Y622631D01*
X291129Y622563D01*
X291099Y622468D01*
X291096Y622368D01*
X291085Y622300D01*
X291085Y431723D01*
X291089Y431694D01*
X291086Y431665D01*
X291109Y431554D01*
X291125Y431442D01*
X291137Y431415D01*
X291142Y431386D01*
X291195Y431286D01*
X291241Y431182D01*
X291260Y431160D01*
X291273Y431134D01*
X291351Y431052D01*
X291425Y430965D01*
X291449Y430949D01*
X291469Y430928D01*
X291567Y430871D01*
X291661Y430808D01*
X291689Y430799D01*
X291714Y430784D01*
X291824Y430756D01*
X291932Y430722D01*
X291962Y430721D01*
X291990Y430714D01*
X292103Y430718D01*
X292216Y430715D01*
X292245Y430722D01*
X292274Y430723D01*
X292382Y430758D01*
X292491Y430787D01*
X292517Y430802D01*
X292545Y430811D01*
X292609Y430856D01*
X292736Y430932D01*
X292779Y430978D01*
X292818Y431006D01*
X294121Y432309D01*
X297699Y432309D01*
X300229Y429779D01*
X300229Y426201D01*
X297699Y423671D01*
X294121Y423671D01*
X292818Y424974D01*
X292794Y424992D01*
X292776Y425015D01*
X292681Y425077D01*
X292591Y425145D01*
X292563Y425156D01*
X292539Y425172D01*
X292431Y425206D01*
X292325Y425247D01*
X292296Y425249D01*
X292268Y425258D01*
X292155Y425261D01*
X292042Y425270D01*
X292013Y425264D01*
X291984Y425265D01*
X291874Y425237D01*
X291763Y425214D01*
X291737Y425201D01*
X291709Y425193D01*
X291612Y425136D01*
X291511Y425083D01*
X291489Y425063D01*
X291464Y425048D01*
X291387Y424966D01*
X291305Y424888D01*
X291290Y424862D01*
X291270Y424841D01*
X291218Y424740D01*
X291161Y424642D01*
X291154Y424614D01*
X291140Y424588D01*
X291127Y424510D01*
X291091Y424367D01*
X291093Y424304D01*
X291085Y424257D01*
X291085Y368223D01*
X291089Y368194D01*
X291086Y368165D01*
X291109Y368054D01*
X291125Y367942D01*
X291137Y367915D01*
X291142Y367886D01*
X291195Y367786D01*
X291241Y367682D01*
X291260Y367660D01*
X291273Y367634D01*
X291351Y367552D01*
X291425Y367465D01*
X291449Y367449D01*
X291469Y367428D01*
X291567Y367371D01*
X291661Y367308D01*
X291689Y367299D01*
X291714Y367284D01*
X291824Y367256D01*
X291932Y367222D01*
X291961Y367221D01*
X291990Y367214D01*
X292103Y367218D01*
X292216Y367215D01*
X292245Y367222D01*
X292274Y367223D01*
X292382Y367258D01*
X292491Y367287D01*
X292517Y367302D01*
X292545Y367311D01*
X292608Y367356D01*
X292736Y367432D01*
X292779Y367478D01*
X292818Y367506D01*
X292851Y367539D01*
X296429Y367539D01*
X298959Y365009D01*
X298959Y361431D01*
X296429Y358901D01*
X292851Y358901D01*
X292818Y358934D01*
X292794Y358952D01*
X292776Y358975D01*
X292681Y359037D01*
X292591Y359105D01*
X292563Y359116D01*
X292539Y359132D01*
X292431Y359166D01*
X292325Y359207D01*
X292296Y359209D01*
X292268Y359218D01*
X292155Y359221D01*
X292042Y359230D01*
X292013Y359224D01*
X291984Y359225D01*
X291874Y359197D01*
X291763Y359174D01*
X291737Y359161D01*
X291709Y359153D01*
X291611Y359096D01*
X291511Y359043D01*
X291489Y359023D01*
X291464Y359008D01*
X291387Y358926D01*
X291305Y358848D01*
X291290Y358822D01*
X291270Y358801D01*
X291218Y358700D01*
X291161Y358602D01*
X291154Y358574D01*
X291140Y358548D01*
X291127Y358470D01*
X291091Y358327D01*
X291093Y358264D01*
X291085Y358217D01*
X291085Y269163D01*
X291097Y269077D01*
X291100Y268989D01*
X291117Y268937D01*
X291125Y268882D01*
X291160Y268802D01*
X291187Y268719D01*
X291215Y268680D01*
X291241Y268622D01*
X291337Y268509D01*
X291382Y268446D01*
X292609Y267219D01*
X292609Y263641D01*
X291382Y262414D01*
X291330Y262345D01*
X291270Y262281D01*
X291244Y262231D01*
X291211Y262187D01*
X291180Y262106D01*
X291140Y262028D01*
X291132Y261980D01*
X291110Y261922D01*
X291098Y261774D01*
X291085Y261697D01*
X291085Y245033D01*
X291097Y244947D01*
X291100Y244859D01*
X291117Y244807D01*
X291125Y244752D01*
X291160Y244672D01*
X291187Y244589D01*
X291215Y244550D01*
X291241Y244492D01*
X291337Y244379D01*
X291382Y244316D01*
X293879Y241819D01*
X293879Y238241D01*
X291382Y235744D01*
X291369Y235727D01*
X291355Y235715D01*
X291325Y235670D01*
X291270Y235611D01*
X291244Y235561D01*
X291211Y235517D01*
X291180Y235436D01*
X291140Y235358D01*
X291132Y235310D01*
X291110Y235252D01*
X291098Y235104D01*
X291085Y235027D01*
X291085Y208534D01*
X291093Y208476D01*
X291091Y208418D01*
X291113Y208336D01*
X291125Y208252D01*
X291149Y208199D01*
X291163Y208143D01*
X291206Y208070D01*
X291241Y207993D01*
X291279Y207948D01*
X291309Y207898D01*
X291370Y207840D01*
X291425Y207776D01*
X291473Y207744D01*
X291516Y207704D01*
X291591Y207665D01*
X291661Y207618D01*
X291717Y207601D01*
X291769Y207574D01*
X291837Y207563D01*
X291932Y207533D01*
X292032Y207530D01*
X292100Y207519D01*
X293889Y207519D01*
X296419Y204989D01*
X296419Y201411D01*
X293889Y198881D01*
X292100Y198881D01*
X292042Y198873D01*
X291984Y198875D01*
X291902Y198853D01*
X291819Y198841D01*
X291765Y198818D01*
X291709Y198803D01*
X291636Y198760D01*
X291559Y198725D01*
X291514Y198687D01*
X291464Y198658D01*
X291406Y198596D01*
X291342Y198542D01*
X291310Y198493D01*
X291270Y198450D01*
X291231Y198375D01*
X291185Y198305D01*
X291167Y198249D01*
X291140Y198197D01*
X291129Y198129D01*
X291099Y198034D01*
X291096Y197934D01*
X291085Y197866D01*
X291085Y25400D01*
X291097Y25313D01*
X291100Y25226D01*
X291117Y25173D01*
X291125Y25119D01*
X291160Y25039D01*
X291187Y24955D01*
X291215Y24916D01*
X291241Y24859D01*
X291337Y24746D01*
X291382Y24682D01*
X304082Y11982D01*
X304152Y11930D01*
X304216Y11870D01*
X304265Y11844D01*
X304309Y11811D01*
X304391Y11780D01*
X304469Y11740D01*
X304517Y11732D01*
X304575Y11710D01*
X304723Y11698D01*
X304800Y11685D01*
X482169Y11685D01*
X482198Y11689D01*
G37*
G36*
X292120Y-758D02*
X292120Y-758D01*
X292139Y-760D01*
X292241Y-738D01*
X292343Y-722D01*
X292360Y-712D01*
X292380Y-708D01*
X292469Y-655D01*
X292560Y-606D01*
X292574Y-592D01*
X292591Y-582D01*
X292658Y-503D01*
X292730Y-428D01*
X292738Y-410D01*
X292751Y-395D01*
X292790Y-299D01*
X292833Y-205D01*
X292835Y-185D01*
X292843Y-167D01*
X292861Y0D01*
X292861Y18575D01*
X292847Y18665D01*
X292839Y18756D01*
X292827Y18786D01*
X292822Y18818D01*
X292779Y18898D01*
X292743Y18982D01*
X292717Y19015D01*
X292706Y19035D01*
X292683Y19057D01*
X292638Y19113D01*
X290639Y21112D01*
X288035Y23716D01*
X288035Y623984D01*
X290416Y626365D01*
X292100Y626365D01*
X292120Y626368D01*
X292139Y626366D01*
X292241Y626388D01*
X292343Y626404D01*
X292360Y626414D01*
X292380Y626418D01*
X292469Y626471D01*
X292560Y626520D01*
X292574Y626534D01*
X292591Y626544D01*
X292658Y626623D01*
X292730Y626698D01*
X292738Y626716D01*
X292751Y626731D01*
X292790Y626827D01*
X292833Y626921D01*
X292835Y626941D01*
X292843Y626959D01*
X292861Y627126D01*
X292861Y635000D01*
X292858Y635020D01*
X292860Y635039D01*
X292838Y635141D01*
X292822Y635243D01*
X292812Y635260D01*
X292808Y635280D01*
X292755Y635369D01*
X292706Y635460D01*
X292692Y635474D01*
X292682Y635491D01*
X292603Y635558D01*
X292528Y635630D01*
X292510Y635638D01*
X292495Y635651D01*
X292399Y635690D01*
X292305Y635733D01*
X292285Y635735D01*
X292267Y635743D01*
X292100Y635761D01*
X0Y635761D01*
X-20Y635758D01*
X-39Y635760D01*
X-141Y635738D01*
X-243Y635722D01*
X-260Y635712D01*
X-280Y635708D01*
X-369Y635655D01*
X-460Y635606D01*
X-474Y635592D01*
X-491Y635582D01*
X-558Y635503D01*
X-630Y635428D01*
X-638Y635410D01*
X-651Y635395D01*
X-690Y635299D01*
X-733Y635205D01*
X-735Y635185D01*
X-743Y635167D01*
X-761Y635000D01*
X-761Y0D01*
X-758Y-20D01*
X-760Y-39D01*
X-738Y-141D01*
X-722Y-243D01*
X-712Y-260D01*
X-708Y-280D01*
X-655Y-369D01*
X-606Y-460D01*
X-592Y-474D01*
X-582Y-491D01*
X-503Y-558D01*
X-428Y-630D01*
X-410Y-638D01*
X-395Y-651D01*
X-299Y-690D01*
X-205Y-733D01*
X-185Y-735D01*
X-167Y-743D01*
X0Y-761D01*
X292100Y-761D01*
X292120Y-758D01*
G37*
%LPC*%
G36*
X592050Y572515D02*
X592050Y572515D01*
X583087Y576228D01*
X576228Y583087D01*
X572515Y592050D01*
X572515Y601750D01*
X576228Y610713D01*
X583087Y617572D01*
X592050Y621285D01*
X601750Y621285D01*
X610713Y617572D01*
X617572Y610713D01*
X621285Y601750D01*
X621285Y592050D01*
X617572Y583087D01*
X610713Y576228D01*
X601750Y572515D01*
X592050Y572515D01*
G37*
%LPD*%
%LPC*%
G36*
X592050Y13715D02*
X592050Y13715D01*
X583087Y17428D01*
X576228Y24287D01*
X572515Y33250D01*
X572515Y42950D01*
X576228Y51913D01*
X583087Y58772D01*
X592050Y62485D01*
X601750Y62485D01*
X610713Y58772D01*
X617572Y51913D01*
X621285Y42950D01*
X621285Y33250D01*
X617572Y24287D01*
X610713Y17428D01*
X601750Y13715D01*
X592050Y13715D01*
G37*
%LPD*%
%LPC*%
G36*
X355553Y448025D02*
X355553Y448025D01*
X352181Y449422D01*
X349600Y452003D01*
X348203Y455375D01*
X348203Y459025D01*
X349600Y462397D01*
X352181Y464978D01*
X355553Y466375D01*
X359203Y466375D01*
X362575Y464978D01*
X365156Y462397D01*
X366553Y459025D01*
X366553Y455375D01*
X365156Y452003D01*
X362575Y449422D01*
X359203Y448025D01*
X355553Y448025D01*
G37*
%LPD*%
%LPC*%
G36*
X330153Y448025D02*
X330153Y448025D01*
X326781Y449422D01*
X324200Y452003D01*
X322803Y455375D01*
X322803Y459025D01*
X324200Y462397D01*
X326781Y464978D01*
X330153Y466375D01*
X333803Y466375D01*
X337175Y464978D01*
X339756Y462397D01*
X341153Y459025D01*
X341153Y455375D01*
X339756Y452003D01*
X337175Y449422D01*
X333803Y448025D01*
X330153Y448025D01*
G37*
%LPD*%
%LPC*%
G36*
X428451Y447771D02*
X428451Y447771D01*
X425079Y449168D01*
X422498Y451749D01*
X421101Y455121D01*
X421101Y458771D01*
X422498Y462143D01*
X425079Y464724D01*
X428451Y466121D01*
X432101Y466121D01*
X435473Y464724D01*
X438054Y462143D01*
X439451Y458771D01*
X439451Y455121D01*
X438054Y451749D01*
X435473Y449168D01*
X432101Y447771D01*
X428451Y447771D01*
G37*
%LPD*%
%LPC*%
G36*
X403051Y447771D02*
X403051Y447771D01*
X399679Y449168D01*
X397098Y451749D01*
X395701Y455121D01*
X395701Y458771D01*
X397098Y462143D01*
X399679Y464724D01*
X403051Y466121D01*
X406701Y466121D01*
X410073Y464724D01*
X412654Y462143D01*
X414051Y458771D01*
X414051Y455121D01*
X412654Y451749D01*
X410073Y449168D01*
X406701Y447771D01*
X403051Y447771D01*
G37*
%LPD*%
%LPC*%
G36*
X493475Y435325D02*
X493475Y435325D01*
X490103Y436722D01*
X487522Y439303D01*
X486125Y442675D01*
X486125Y446325D01*
X487522Y449697D01*
X490103Y452278D01*
X493475Y453675D01*
X497125Y453675D01*
X500497Y452278D01*
X503078Y449697D01*
X504475Y446325D01*
X504475Y442675D01*
X503078Y439303D01*
X500497Y436722D01*
X497125Y435325D01*
X493475Y435325D01*
G37*
%LPD*%
%LPC*%
G36*
X426673Y163037D02*
X426673Y163037D01*
X423301Y164434D01*
X420720Y167015D01*
X419323Y170387D01*
X419323Y174037D01*
X420720Y177409D01*
X423301Y179990D01*
X426673Y181387D01*
X430323Y181387D01*
X433695Y179990D01*
X436276Y177409D01*
X437673Y174037D01*
X437673Y170387D01*
X436276Y167015D01*
X433695Y164434D01*
X430323Y163037D01*
X426673Y163037D01*
G37*
%LPD*%
%LPC*%
G36*
X401273Y163037D02*
X401273Y163037D01*
X397901Y164434D01*
X395320Y167015D01*
X393923Y170387D01*
X393923Y174037D01*
X395320Y177409D01*
X397901Y179990D01*
X401273Y181387D01*
X404923Y181387D01*
X408295Y179990D01*
X410876Y177409D01*
X412273Y174037D01*
X412273Y170387D01*
X410876Y167015D01*
X408295Y164434D01*
X404923Y163037D01*
X401273Y163037D01*
G37*
%LPD*%
%LPC*%
G36*
X331423Y163545D02*
X331423Y163545D01*
X328051Y164942D01*
X325470Y167523D01*
X324073Y170895D01*
X324073Y174545D01*
X325470Y177917D01*
X328051Y180498D01*
X331423Y181895D01*
X335073Y181895D01*
X338445Y180498D01*
X341026Y177917D01*
X342423Y174545D01*
X342423Y170895D01*
X341026Y167523D01*
X338445Y164942D01*
X335073Y163545D01*
X331423Y163545D01*
G37*
%LPD*%
%LPC*%
G36*
X356823Y163545D02*
X356823Y163545D01*
X353451Y164942D01*
X350870Y167523D01*
X349473Y170895D01*
X349473Y174545D01*
X350870Y177917D01*
X353451Y180498D01*
X356823Y181895D01*
X360473Y181895D01*
X363845Y180498D01*
X366426Y177917D01*
X367823Y174545D01*
X367823Y170895D01*
X366426Y167523D01*
X363845Y164942D01*
X360473Y163545D01*
X356823Y163545D01*
G37*
%LPD*%
%LPC*%
G36*
X557005Y181475D02*
X557005Y181475D01*
X553688Y182849D01*
X551149Y185388D01*
X549775Y188705D01*
X549775Y192295D01*
X551149Y195612D01*
X553688Y198151D01*
X557005Y199525D01*
X560595Y199525D01*
X563912Y198151D01*
X566451Y195612D01*
X567825Y192295D01*
X567825Y188705D01*
X566451Y185388D01*
X563912Y182849D01*
X560595Y181475D01*
X557005Y181475D01*
G37*
%LPD*%
%LPC*%
G36*
X519001Y385159D02*
X519001Y385159D01*
X515862Y386460D01*
X513460Y388862D01*
X512159Y392001D01*
X512159Y395399D01*
X513460Y398538D01*
X515862Y400940D01*
X519001Y402241D01*
X522399Y402241D01*
X525538Y400940D01*
X527940Y398538D01*
X529241Y395399D01*
X529241Y392001D01*
X527940Y388862D01*
X525538Y386460D01*
X522399Y385159D01*
X519001Y385159D01*
G37*
%LPD*%
%LPC*%
G36*
X544603Y386175D02*
X544603Y386175D01*
X541838Y387321D01*
X539721Y389438D01*
X538575Y392203D01*
X538575Y395197D01*
X539721Y397962D01*
X541838Y400079D01*
X544603Y401225D01*
X547597Y401225D01*
X550362Y400079D01*
X552479Y397962D01*
X553625Y395197D01*
X553625Y392203D01*
X552479Y389438D01*
X550362Y387321D01*
X547597Y386175D01*
X544603Y386175D01*
G37*
%LPD*%
%LPC*%
G36*
X400264Y340133D02*
X400264Y340133D01*
X398314Y340941D01*
X396821Y342434D01*
X396013Y344384D01*
X396013Y346496D01*
X396821Y348446D01*
X398314Y349939D01*
X399618Y350479D01*
X399717Y350537D01*
X399819Y350590D01*
X399839Y350609D01*
X399863Y350624D01*
X399942Y350707D01*
X400025Y350786D01*
X400039Y350810D01*
X400058Y350830D01*
X400111Y350932D01*
X400169Y351031D01*
X400176Y351058D01*
X400188Y351083D01*
X400211Y351196D01*
X400239Y351307D01*
X400238Y351335D01*
X400243Y351362D01*
X400233Y351476D01*
X400230Y351591D01*
X400221Y351617D01*
X400219Y351645D01*
X400178Y351752D01*
X400142Y351862D01*
X400128Y351882D01*
X400117Y351910D01*
X399956Y352123D01*
X399947Y352135D01*
X398271Y353811D01*
X398271Y357389D01*
X400801Y359919D01*
X404379Y359919D01*
X406909Y357389D01*
X406909Y353811D01*
X404399Y351302D01*
X404364Y351255D01*
X404322Y351214D01*
X404279Y351142D01*
X404228Y351074D01*
X404207Y351020D01*
X404178Y350969D01*
X404157Y350888D01*
X404127Y350809D01*
X404122Y350750D01*
X404108Y350694D01*
X404110Y350609D01*
X404103Y350525D01*
X404115Y350468D01*
X404117Y350410D01*
X404143Y350329D01*
X404159Y350247D01*
X404186Y350195D01*
X404204Y350139D01*
X404244Y350083D01*
X404290Y349994D01*
X404359Y349922D01*
X404399Y349866D01*
X405819Y348446D01*
X406627Y346496D01*
X406627Y344384D01*
X405819Y342434D01*
X404326Y340941D01*
X402376Y340133D01*
X400264Y340133D01*
G37*
%LPD*%
%LPC*%
G36*
X374683Y343915D02*
X374683Y343915D01*
X371855Y346743D01*
X371855Y346964D01*
X371847Y347022D01*
X371849Y347080D01*
X371827Y347162D01*
X371815Y347246D01*
X371792Y347299D01*
X371777Y347355D01*
X371734Y347428D01*
X371699Y347505D01*
X371661Y347550D01*
X371632Y347600D01*
X371570Y347658D01*
X371516Y347722D01*
X371467Y347754D01*
X371424Y347794D01*
X371349Y347833D01*
X371279Y347880D01*
X371223Y347897D01*
X371171Y347924D01*
X371103Y347935D01*
X371008Y347965D01*
X370908Y347968D01*
X370840Y347979D01*
X369349Y347979D01*
X366521Y350807D01*
X366521Y354805D01*
X369349Y357633D01*
X373347Y357633D01*
X376175Y354805D01*
X376175Y354584D01*
X376183Y354526D01*
X376181Y354468D01*
X376203Y354386D01*
X376215Y354302D01*
X376238Y354249D01*
X376253Y354193D01*
X376296Y354120D01*
X376331Y354043D01*
X376369Y353998D01*
X376398Y353948D01*
X376460Y353890D01*
X376514Y353826D01*
X376563Y353794D01*
X376606Y353754D01*
X376681Y353715D01*
X376751Y353668D01*
X376807Y353651D01*
X376859Y353624D01*
X376927Y353613D01*
X377022Y353583D01*
X377122Y353580D01*
X377190Y353569D01*
X378681Y353569D01*
X381509Y350741D01*
X381509Y346743D01*
X378681Y343915D01*
X374683Y343915D01*
G37*
%LPD*%
%LPC*%
G36*
X371127Y277113D02*
X371127Y277113D01*
X368299Y279941D01*
X368299Y283939D01*
X371304Y286944D01*
X371356Y287014D01*
X371416Y287078D01*
X371442Y287127D01*
X371475Y287171D01*
X371506Y287253D01*
X371546Y287331D01*
X371554Y287378D01*
X371576Y287437D01*
X371588Y287584D01*
X371601Y287662D01*
X371601Y288765D01*
X374429Y291593D01*
X378427Y291593D01*
X381255Y288765D01*
X381255Y284767D01*
X378250Y281762D01*
X378198Y281692D01*
X378138Y281628D01*
X378112Y281579D01*
X378079Y281535D01*
X378048Y281453D01*
X378008Y281375D01*
X378000Y281328D01*
X377978Y281269D01*
X377966Y281122D01*
X377953Y281044D01*
X377953Y279941D01*
X375125Y277113D01*
X371127Y277113D01*
G37*
%LPD*%
%LPC*%
G36*
X300471Y174751D02*
X300471Y174751D01*
X297941Y177281D01*
X297941Y180859D01*
X300471Y183389D01*
X300813Y183389D01*
X300842Y183393D01*
X300871Y183390D01*
X300982Y183413D01*
X301094Y183429D01*
X301121Y183441D01*
X301150Y183446D01*
X301250Y183499D01*
X301354Y183545D01*
X301376Y183564D01*
X301402Y183577D01*
X301484Y183655D01*
X301571Y183728D01*
X301587Y183753D01*
X301608Y183773D01*
X301665Y183871D01*
X301728Y183965D01*
X301737Y183993D01*
X301752Y184018D01*
X301780Y184128D01*
X301814Y184236D01*
X301815Y184266D01*
X301822Y184294D01*
X301818Y184407D01*
X301821Y184520D01*
X301814Y184549D01*
X301813Y184578D01*
X301778Y184686D01*
X301749Y184795D01*
X301734Y184821D01*
X301725Y184849D01*
X301680Y184912D01*
X301604Y185040D01*
X301559Y185083D01*
X301531Y185122D01*
X299211Y187441D01*
X299211Y191019D01*
X301741Y193549D01*
X305319Y193549D01*
X307849Y191019D01*
X307849Y187441D01*
X305319Y184911D01*
X304977Y184911D01*
X304948Y184907D01*
X304919Y184910D01*
X304808Y184887D01*
X304696Y184871D01*
X304669Y184859D01*
X304640Y184854D01*
X304540Y184801D01*
X304436Y184755D01*
X304414Y184736D01*
X304388Y184723D01*
X304306Y184645D01*
X304219Y184572D01*
X304203Y184547D01*
X304182Y184527D01*
X304125Y184429D01*
X304062Y184335D01*
X304053Y184307D01*
X304038Y184282D01*
X304010Y184172D01*
X303976Y184064D01*
X303975Y184034D01*
X303968Y184006D01*
X303972Y183893D01*
X303969Y183780D01*
X303976Y183751D01*
X303977Y183722D01*
X304012Y183614D01*
X304041Y183505D01*
X304056Y183479D01*
X304065Y183451D01*
X304110Y183388D01*
X304186Y183260D01*
X304231Y183217D01*
X304259Y183178D01*
X306579Y180859D01*
X306579Y177281D01*
X304049Y174751D01*
X300471Y174751D01*
G37*
%LPD*%
%LPC*%
G36*
X319267Y309371D02*
X319267Y309371D01*
X316737Y311901D01*
X316737Y315479D01*
X319056Y317798D01*
X319092Y317845D01*
X319134Y317885D01*
X319177Y317958D01*
X319227Y318025D01*
X319248Y318080D01*
X319278Y318130D01*
X319299Y318212D01*
X319329Y318291D01*
X319333Y318349D01*
X319348Y318406D01*
X319345Y318490D01*
X319352Y318574D01*
X319341Y318632D01*
X319339Y318690D01*
X319313Y318770D01*
X319296Y318853D01*
X319269Y318905D01*
X319251Y318961D01*
X319211Y319017D01*
X319165Y319105D01*
X319097Y319178D01*
X319056Y319234D01*
X316737Y321553D01*
X316737Y325131D01*
X319267Y327661D01*
X322845Y327661D01*
X325375Y325131D01*
X325375Y321553D01*
X323056Y319234D01*
X323020Y319187D01*
X322978Y319147D01*
X322935Y319074D01*
X322885Y319007D01*
X322864Y318952D01*
X322834Y318902D01*
X322813Y318820D01*
X322783Y318741D01*
X322779Y318683D01*
X322764Y318626D01*
X322767Y318542D01*
X322760Y318458D01*
X322771Y318400D01*
X322773Y318342D01*
X322799Y318262D01*
X322816Y318179D01*
X322843Y318127D01*
X322861Y318071D01*
X322901Y318015D01*
X322947Y317927D01*
X323015Y317854D01*
X323056Y317798D01*
X325375Y315479D01*
X325375Y311901D01*
X322845Y309371D01*
X319267Y309371D01*
G37*
%LPD*%
%LPC*%
G36*
X418581Y333501D02*
X418581Y333501D01*
X416051Y336031D01*
X416051Y339609D01*
X418581Y342139D01*
X422159Y342139D01*
X423462Y340836D01*
X423509Y340800D01*
X423549Y340758D01*
X423622Y340715D01*
X423689Y340665D01*
X423744Y340644D01*
X423794Y340614D01*
X423876Y340593D01*
X423955Y340563D01*
X424013Y340559D01*
X424070Y340544D01*
X424154Y340547D01*
X424238Y340540D01*
X424296Y340551D01*
X424354Y340553D01*
X424434Y340579D01*
X424517Y340596D01*
X424569Y340623D01*
X424625Y340641D01*
X424681Y340681D01*
X424769Y340727D01*
X424842Y340796D01*
X424898Y340836D01*
X427471Y343409D01*
X431049Y343409D01*
X433579Y340879D01*
X433579Y337301D01*
X431049Y334771D01*
X427471Y334771D01*
X426168Y336074D01*
X426121Y336110D01*
X426081Y336152D01*
X426008Y336195D01*
X425941Y336245D01*
X425886Y336266D01*
X425836Y336296D01*
X425754Y336317D01*
X425675Y336347D01*
X425617Y336351D01*
X425560Y336366D01*
X425476Y336363D01*
X425392Y336370D01*
X425334Y336359D01*
X425276Y336357D01*
X425196Y336331D01*
X425113Y336314D01*
X425061Y336287D01*
X425005Y336269D01*
X424949Y336229D01*
X424861Y336183D01*
X424788Y336115D01*
X424732Y336074D01*
X422159Y333501D01*
X418581Y333501D01*
G37*
%LPD*%
%LPC*%
G36*
X379787Y120903D02*
X379787Y120903D01*
X377546Y121831D01*
X375831Y123546D01*
X374903Y125787D01*
X374903Y128213D01*
X375831Y130454D01*
X377546Y132169D01*
X379787Y133097D01*
X382213Y133097D01*
X384454Y132169D01*
X386169Y130454D01*
X387097Y128213D01*
X387097Y125787D01*
X386169Y123546D01*
X384454Y121831D01*
X382213Y120903D01*
X379787Y120903D01*
G37*
%LPD*%
%LPC*%
G36*
X405187Y120903D02*
X405187Y120903D01*
X402946Y121831D01*
X401231Y123546D01*
X400303Y125787D01*
X400303Y128213D01*
X401231Y130454D01*
X402946Y132169D01*
X405187Y133097D01*
X407613Y133097D01*
X409854Y132169D01*
X411569Y130454D01*
X412497Y128213D01*
X412497Y125787D01*
X411569Y123546D01*
X409854Y121831D01*
X407613Y120903D01*
X405187Y120903D01*
G37*
%LPD*%
%LPC*%
G36*
X379787Y501903D02*
X379787Y501903D01*
X377546Y502831D01*
X375831Y504546D01*
X374903Y506787D01*
X374903Y509213D01*
X375831Y511454D01*
X377546Y513169D01*
X379787Y514097D01*
X382213Y514097D01*
X384454Y513169D01*
X386169Y511454D01*
X387097Y509213D01*
X387097Y506787D01*
X386169Y504546D01*
X384454Y502831D01*
X382213Y501903D01*
X379787Y501903D01*
G37*
%LPD*%
%LPC*%
G36*
X405187Y501903D02*
X405187Y501903D01*
X402946Y502831D01*
X401231Y504546D01*
X400303Y506787D01*
X400303Y509213D01*
X401231Y511454D01*
X402946Y513169D01*
X405187Y514097D01*
X407613Y514097D01*
X409854Y513169D01*
X411569Y511454D01*
X412497Y509213D01*
X412497Y506787D01*
X411569Y504546D01*
X409854Y502831D01*
X407613Y501903D01*
X405187Y501903D01*
G37*
%LPD*%
%LPC*%
G36*
X354387Y501903D02*
X354387Y501903D01*
X352146Y502831D01*
X350431Y504546D01*
X349503Y506787D01*
X349503Y509213D01*
X350431Y511454D01*
X352146Y513169D01*
X354387Y514097D01*
X356813Y514097D01*
X359054Y513169D01*
X360769Y511454D01*
X361697Y509213D01*
X361697Y506787D01*
X360769Y504546D01*
X359054Y502831D01*
X356813Y501903D01*
X354387Y501903D01*
G37*
%LPD*%
%LPC*%
G36*
X354387Y120903D02*
X354387Y120903D01*
X352146Y121831D01*
X350431Y123546D01*
X349503Y125787D01*
X349503Y128213D01*
X350431Y130454D01*
X352146Y132169D01*
X354387Y133097D01*
X356813Y133097D01*
X359054Y132169D01*
X360769Y130454D01*
X361697Y128213D01*
X361697Y125787D01*
X360769Y123546D01*
X359054Y121831D01*
X356813Y120903D01*
X354387Y120903D01*
G37*
%LPD*%
%LPC*%
G36*
X482379Y355853D02*
X482379Y355853D01*
X479551Y358681D01*
X479551Y362679D01*
X482379Y365507D01*
X486377Y365507D01*
X489205Y362679D01*
X489205Y358681D01*
X486377Y355853D01*
X482379Y355853D01*
G37*
%LPD*%
%LPC*%
G36*
X308091Y598931D02*
X308091Y598931D01*
X305561Y601461D01*
X305561Y605039D01*
X308091Y607569D01*
X311669Y607569D01*
X314199Y605039D01*
X314199Y601461D01*
X311669Y598931D01*
X308091Y598931D01*
G37*
%LPD*%
%LPC*%
G36*
X450331Y588771D02*
X450331Y588771D01*
X447801Y591301D01*
X447801Y594879D01*
X450331Y597409D01*
X453909Y597409D01*
X456439Y594879D01*
X456439Y591301D01*
X453909Y588771D01*
X450331Y588771D01*
G37*
%LPD*%
%LPC*%
G36*
X485891Y587501D02*
X485891Y587501D01*
X483361Y590031D01*
X483361Y593609D01*
X485891Y596139D01*
X489469Y596139D01*
X491999Y593609D01*
X491999Y590031D01*
X489469Y587501D01*
X485891Y587501D01*
G37*
%LPD*%
%LPC*%
G36*
X308091Y583691D02*
X308091Y583691D01*
X305561Y586221D01*
X305561Y589799D01*
X308091Y592329D01*
X311669Y592329D01*
X314199Y589799D01*
X314199Y586221D01*
X311669Y583691D01*
X308091Y583691D01*
G37*
%LPD*%
%LPC*%
G36*
X299201Y572261D02*
X299201Y572261D01*
X296671Y574791D01*
X296671Y578369D01*
X299201Y580899D01*
X302779Y580899D01*
X305309Y578369D01*
X305309Y574791D01*
X302779Y572261D01*
X299201Y572261D01*
G37*
%LPD*%
%LPC*%
G36*
X459221Y565911D02*
X459221Y565911D01*
X456691Y568441D01*
X456691Y572019D01*
X459221Y574549D01*
X462799Y574549D01*
X465329Y572019D01*
X465329Y568441D01*
X462799Y565911D01*
X459221Y565911D01*
G37*
%LPD*%
%LPC*%
G36*
X475731Y565911D02*
X475731Y565911D01*
X473201Y568441D01*
X473201Y572019D01*
X475731Y574549D01*
X479309Y574549D01*
X481839Y572019D01*
X481839Y568441D01*
X479309Y565911D01*
X475731Y565911D01*
G37*
%LPD*%
%LPC*%
G36*
X519673Y553719D02*
X519673Y553719D01*
X517143Y556249D01*
X517143Y559827D01*
X519673Y562357D01*
X523251Y562357D01*
X525781Y559827D01*
X525781Y556249D01*
X523251Y553719D01*
X519673Y553719D01*
G37*
%LPD*%
%LPC*%
G36*
X299201Y546861D02*
X299201Y546861D01*
X296671Y549391D01*
X296671Y552969D01*
X299201Y555499D01*
X302779Y555499D01*
X305309Y552969D01*
X305309Y549391D01*
X302779Y546861D01*
X299201Y546861D01*
G37*
%LPD*%
%LPC*%
G36*
X475731Y540511D02*
X475731Y540511D01*
X473201Y543041D01*
X473201Y546619D01*
X475731Y549149D01*
X479309Y549149D01*
X481839Y546619D01*
X481839Y543041D01*
X479309Y540511D01*
X475731Y540511D01*
G37*
%LPD*%
%LPC*%
G36*
X459221Y540511D02*
X459221Y540511D01*
X456691Y543041D01*
X456691Y546619D01*
X459221Y549149D01*
X462799Y549149D01*
X465329Y546619D01*
X465329Y543041D01*
X462799Y540511D01*
X459221Y540511D01*
G37*
%LPD*%
%LPC*%
G36*
X545073Y528319D02*
X545073Y528319D01*
X542543Y530849D01*
X542543Y534427D01*
X545073Y536957D01*
X548651Y536957D01*
X551181Y534427D01*
X551181Y530849D01*
X548651Y528319D01*
X545073Y528319D01*
G37*
%LPD*%
%LPC*%
G36*
X299201Y521461D02*
X299201Y521461D01*
X296671Y523991D01*
X296671Y527569D01*
X299201Y530099D01*
X302779Y530099D01*
X305309Y527569D01*
X305309Y523991D01*
X302779Y521461D01*
X299201Y521461D01*
G37*
%LPD*%
%LPC*%
G36*
X475731Y517651D02*
X475731Y517651D01*
X473201Y520181D01*
X473201Y523759D01*
X475731Y526289D01*
X479309Y526289D01*
X481839Y523759D01*
X481839Y520181D01*
X479309Y517651D01*
X475731Y517651D01*
G37*
%LPD*%
%LPC*%
G36*
X459221Y516381D02*
X459221Y516381D01*
X456691Y518911D01*
X456691Y522489D01*
X459221Y525019D01*
X462799Y525019D01*
X465329Y522489D01*
X465329Y518911D01*
X462799Y516381D01*
X459221Y516381D01*
G37*
%LPD*%
%LPC*%
G36*
X519673Y515619D02*
X519673Y515619D01*
X517143Y518149D01*
X517143Y521727D01*
X519673Y524257D01*
X523251Y524257D01*
X525781Y521727D01*
X525781Y518149D01*
X523251Y515619D01*
X519673Y515619D01*
G37*
%LPD*%
%LPC*%
G36*
X476493Y501141D02*
X476493Y501141D01*
X473963Y503671D01*
X473963Y507249D01*
X476493Y509779D01*
X480071Y509779D01*
X482601Y507249D01*
X482601Y503671D01*
X480071Y501141D01*
X476493Y501141D01*
G37*
%LPD*%
%LPC*%
G36*
X459221Y498855D02*
X459221Y498855D01*
X456691Y501385D01*
X456691Y504963D01*
X459221Y507493D01*
X462799Y507493D01*
X465329Y504963D01*
X465329Y501385D01*
X462799Y498855D01*
X459221Y498855D01*
G37*
%LPD*%
%LPC*%
G36*
X299201Y496061D02*
X299201Y496061D01*
X296671Y498591D01*
X296671Y502169D01*
X299201Y504699D01*
X302779Y504699D01*
X305309Y502169D01*
X305309Y498591D01*
X302779Y496061D01*
X299201Y496061D01*
G37*
%LPD*%
%LPC*%
G36*
X320283Y493521D02*
X320283Y493521D01*
X317753Y496051D01*
X317753Y499629D01*
X320283Y502159D01*
X323861Y502159D01*
X326391Y499629D01*
X326391Y496051D01*
X323861Y493521D01*
X320283Y493521D01*
G37*
%LPD*%
%LPC*%
G36*
X459221Y482091D02*
X459221Y482091D01*
X456691Y484621D01*
X456691Y488199D01*
X459221Y490729D01*
X462799Y490729D01*
X465329Y488199D01*
X465329Y484621D01*
X462799Y482091D01*
X459221Y482091D01*
G37*
%LPD*%
%LPC*%
G36*
X477001Y480821D02*
X477001Y480821D01*
X474471Y483351D01*
X474471Y486929D01*
X477001Y489459D01*
X480579Y489459D01*
X483109Y486929D01*
X483109Y483351D01*
X480579Y480821D01*
X477001Y480821D01*
G37*
%LPD*%
%LPC*%
G36*
X298439Y478535D02*
X298439Y478535D01*
X295909Y481065D01*
X295909Y484643D01*
X298439Y487173D01*
X302017Y487173D01*
X304547Y484643D01*
X304547Y481065D01*
X302017Y478535D01*
X298439Y478535D01*
G37*
%LPD*%
%LPC*%
G36*
X478271Y465581D02*
X478271Y465581D01*
X475741Y468111D01*
X475741Y471689D01*
X478271Y474219D01*
X481849Y474219D01*
X484379Y471689D01*
X484379Y468111D01*
X481849Y465581D01*
X478271Y465581D01*
G37*
%LPD*%
%LPC*%
G36*
X300471Y451611D02*
X300471Y451611D01*
X297941Y454141D01*
X297941Y457719D01*
X300471Y460249D01*
X304049Y460249D01*
X306579Y457719D01*
X306579Y454141D01*
X304049Y451611D01*
X300471Y451611D01*
G37*
%LPD*%
%LPC*%
G36*
X475731Y451611D02*
X475731Y451611D01*
X473201Y454141D01*
X473201Y457719D01*
X475731Y460249D01*
X479309Y460249D01*
X481839Y457719D01*
X481839Y454141D01*
X479309Y451611D01*
X475731Y451611D01*
G37*
%LPD*%
%LPC*%
G36*
X457951Y451611D02*
X457951Y451611D01*
X455421Y454141D01*
X455421Y457719D01*
X457951Y460249D01*
X461529Y460249D01*
X464059Y457719D01*
X464059Y454141D01*
X461529Y451611D01*
X457951Y451611D01*
G37*
%LPD*%
%LPC*%
G36*
X311901Y430021D02*
X311901Y430021D01*
X309371Y432551D01*
X309371Y436129D01*
X311901Y438659D01*
X315479Y438659D01*
X318009Y436129D01*
X318009Y432551D01*
X315479Y430021D01*
X311901Y430021D01*
G37*
%LPD*%
%LPC*%
G36*
X451601Y424941D02*
X451601Y424941D01*
X449071Y427471D01*
X449071Y431049D01*
X451601Y433579D01*
X455179Y433579D01*
X457709Y431049D01*
X457709Y427471D01*
X455179Y424941D01*
X451601Y424941D01*
G37*
%LPD*%
%LPC*%
G36*
X322061Y421131D02*
X322061Y421131D01*
X319531Y423661D01*
X319531Y427239D01*
X322061Y429769D01*
X325639Y429769D01*
X328169Y427239D01*
X328169Y423661D01*
X325639Y421131D01*
X322061Y421131D01*
G37*
%LPD*%
%LPC*%
G36*
X408421Y419861D02*
X408421Y419861D01*
X405891Y422391D01*
X405891Y425969D01*
X408421Y428499D01*
X411999Y428499D01*
X414529Y425969D01*
X414529Y422391D01*
X411999Y419861D01*
X408421Y419861D01*
G37*
%LPD*%
%LPC*%
G36*
X430011Y414781D02*
X430011Y414781D01*
X427481Y417311D01*
X427481Y420889D01*
X430011Y423419D01*
X433589Y423419D01*
X436119Y420889D01*
X436119Y417311D01*
X433589Y414781D01*
X430011Y414781D01*
G37*
%LPD*%
%LPC*%
G36*
X463031Y412241D02*
X463031Y412241D01*
X460501Y414771D01*
X460501Y418349D01*
X463031Y420879D01*
X466609Y420879D01*
X469139Y418349D01*
X469139Y414771D01*
X466609Y412241D01*
X463031Y412241D01*
G37*
%LPD*%
%LPC*%
G36*
X333491Y410971D02*
X333491Y410971D01*
X330961Y413501D01*
X330961Y417079D01*
X333491Y419609D01*
X337069Y419609D01*
X339599Y417079D01*
X339599Y413501D01*
X337069Y410971D01*
X333491Y410971D01*
G37*
%LPD*%
%LPC*%
G36*
X308091Y410971D02*
X308091Y410971D01*
X305561Y413501D01*
X305561Y417079D01*
X308091Y419609D01*
X311669Y419609D01*
X314199Y417079D01*
X314199Y413501D01*
X311669Y410971D01*
X308091Y410971D01*
G37*
%LPD*%
%LPC*%
G36*
X451601Y399541D02*
X451601Y399541D01*
X449071Y402071D01*
X449071Y405649D01*
X451601Y408179D01*
X455179Y408179D01*
X457709Y405649D01*
X457709Y402071D01*
X455179Y399541D01*
X451601Y399541D01*
G37*
%LPD*%
%LPC*%
G36*
X346191Y398271D02*
X346191Y398271D01*
X343661Y400801D01*
X343661Y404379D01*
X346191Y406909D01*
X349769Y406909D01*
X352299Y404379D01*
X352299Y400801D01*
X349769Y398271D01*
X346191Y398271D01*
G37*
%LPD*%
%LPC*%
G36*
X320791Y398271D02*
X320791Y398271D01*
X318261Y400801D01*
X318261Y404379D01*
X320791Y406909D01*
X324369Y406909D01*
X326899Y404379D01*
X326899Y400801D01*
X324369Y398271D01*
X320791Y398271D01*
G37*
%LPD*%
%LPC*%
G36*
X415533Y395731D02*
X415533Y395731D01*
X413003Y398261D01*
X413003Y401839D01*
X415533Y404369D01*
X419111Y404369D01*
X421641Y401839D01*
X421641Y398261D01*
X419111Y395731D01*
X415533Y395731D01*
G37*
%LPD*%
%LPC*%
G36*
X438901Y389381D02*
X438901Y389381D01*
X436371Y391911D01*
X436371Y395489D01*
X438901Y398019D01*
X442479Y398019D01*
X445009Y395489D01*
X445009Y391911D01*
X442479Y389381D01*
X438901Y389381D01*
G37*
%LPD*%
%LPC*%
G36*
X450077Y388619D02*
X450077Y388619D01*
X447547Y391149D01*
X447547Y394727D01*
X450077Y397257D01*
X453655Y397257D01*
X456185Y394727D01*
X456185Y391149D01*
X453655Y388619D01*
X450077Y388619D01*
G37*
%LPD*%
%LPC*%
G36*
X383783Y388111D02*
X383783Y388111D01*
X381253Y390641D01*
X381253Y394219D01*
X383783Y396749D01*
X387361Y396749D01*
X389891Y394219D01*
X389891Y390641D01*
X387361Y388111D01*
X383783Y388111D01*
G37*
%LPD*%
%LPC*%
G36*
X333491Y385571D02*
X333491Y385571D01*
X330961Y388101D01*
X330961Y391679D01*
X333491Y394209D01*
X337069Y394209D01*
X339599Y391679D01*
X339599Y388101D01*
X337069Y385571D01*
X333491Y385571D01*
G37*
%LPD*%
%LPC*%
G36*
X426201Y376681D02*
X426201Y376681D01*
X423671Y379211D01*
X423671Y382789D01*
X426201Y385319D01*
X429779Y385319D01*
X432309Y382789D01*
X432309Y379211D01*
X429779Y376681D01*
X426201Y376681D01*
G37*
%LPD*%
%LPC*%
G36*
X303011Y375411D02*
X303011Y375411D01*
X300481Y377941D01*
X300481Y381519D01*
X303011Y384049D01*
X306589Y384049D01*
X309119Y381519D01*
X309119Y377941D01*
X306589Y375411D01*
X303011Y375411D01*
G37*
%LPD*%
%LPC*%
G36*
X338571Y375411D02*
X338571Y375411D01*
X336041Y377941D01*
X336041Y381519D01*
X338571Y384049D01*
X342149Y384049D01*
X344679Y381519D01*
X344679Y377941D01*
X342149Y375411D01*
X338571Y375411D01*
G37*
%LPD*%
%LPC*%
G36*
X417311Y362711D02*
X417311Y362711D01*
X414781Y365241D01*
X414781Y368819D01*
X417311Y371349D01*
X420889Y371349D01*
X423419Y368819D01*
X423419Y365241D01*
X420889Y362711D01*
X417311Y362711D01*
G37*
%LPD*%
%LPC*%
G36*
X384291Y358901D02*
X384291Y358901D01*
X381761Y361431D01*
X381761Y365009D01*
X384291Y367539D01*
X387869Y367539D01*
X390399Y365009D01*
X390399Y361431D01*
X387869Y358901D01*
X384291Y358901D01*
G37*
%LPD*%
%LPC*%
G36*
X355081Y358901D02*
X355081Y358901D01*
X352551Y361431D01*
X352551Y365009D01*
X355081Y367539D01*
X358659Y367539D01*
X361189Y365009D01*
X361189Y361431D01*
X358659Y358901D01*
X355081Y358901D01*
G37*
%LPD*%
%LPC*%
G36*
X301741Y348741D02*
X301741Y348741D01*
X299211Y351271D01*
X299211Y354849D01*
X301741Y357379D01*
X305319Y357379D01*
X307849Y354849D01*
X307849Y351271D01*
X305319Y348741D01*
X301741Y348741D01*
G37*
%LPD*%
%LPC*%
G36*
X442457Y335533D02*
X442457Y335533D01*
X439927Y338063D01*
X439927Y341641D01*
X442457Y344171D01*
X446035Y344171D01*
X448565Y341641D01*
X448565Y338063D01*
X446035Y335533D01*
X442457Y335533D01*
G37*
%LPD*%
%LPC*%
G36*
X302503Y328675D02*
X302503Y328675D01*
X299973Y331205D01*
X299973Y334783D01*
X302503Y337313D01*
X306081Y337313D01*
X308611Y334783D01*
X308611Y331205D01*
X306081Y328675D01*
X302503Y328675D01*
G37*
%LPD*%
%LPC*%
G36*
X409691Y325881D02*
X409691Y325881D01*
X407161Y328411D01*
X407161Y331989D01*
X409691Y334519D01*
X413269Y334519D01*
X415799Y331989D01*
X415799Y328411D01*
X413269Y325881D01*
X409691Y325881D01*
G37*
%LPD*%
%LPC*%
G36*
X491733Y313435D02*
X491733Y313435D01*
X489203Y315965D01*
X489203Y319543D01*
X491733Y322073D01*
X495311Y322073D01*
X497841Y319543D01*
X497841Y315965D01*
X495311Y313435D01*
X491733Y313435D01*
G37*
%LPD*%
%LPC*%
G36*
X421121Y313181D02*
X421121Y313181D01*
X418591Y315711D01*
X418591Y319289D01*
X421121Y321819D01*
X424699Y321819D01*
X427229Y319289D01*
X427229Y315711D01*
X424699Y313181D01*
X421121Y313181D01*
G37*
%LPD*%
%LPC*%
G36*
X336285Y313181D02*
X336285Y313181D01*
X333755Y315711D01*
X333755Y319289D01*
X336285Y321819D01*
X339863Y321819D01*
X342393Y319289D01*
X342393Y315711D01*
X339863Y313181D01*
X336285Y313181D01*
G37*
%LPD*%
%LPC*%
G36*
X473191Y313181D02*
X473191Y313181D01*
X470661Y315711D01*
X470661Y319289D01*
X473191Y321819D01*
X476769Y321819D01*
X479299Y319289D01*
X479299Y315711D01*
X476769Y313181D01*
X473191Y313181D01*
G37*
%LPD*%
%LPC*%
G36*
X460745Y313181D02*
X460745Y313181D01*
X458215Y315711D01*
X458215Y319289D01*
X460745Y321819D01*
X464323Y321819D01*
X466853Y319289D01*
X466853Y315711D01*
X464323Y313181D01*
X460745Y313181D01*
G37*
%LPD*%
%LPC*%
G36*
X435091Y313181D02*
X435091Y313181D01*
X432561Y315711D01*
X432561Y319289D01*
X435091Y321819D01*
X438669Y321819D01*
X441199Y319289D01*
X441199Y315711D01*
X438669Y313181D01*
X435091Y313181D01*
G37*
%LPD*%
%LPC*%
G36*
X605525Y312673D02*
X605525Y312673D01*
X602995Y315203D01*
X602995Y318781D01*
X605525Y321311D01*
X609103Y321311D01*
X611633Y318781D01*
X611633Y315203D01*
X609103Y312673D01*
X605525Y312673D01*
G37*
%LPD*%
%LPC*%
G36*
X594095Y312673D02*
X594095Y312673D01*
X591565Y315203D01*
X591565Y318781D01*
X594095Y321311D01*
X597673Y321311D01*
X600203Y318781D01*
X600203Y315203D01*
X597673Y312673D01*
X594095Y312673D01*
G37*
%LPD*%
%LPC*%
G36*
X580633Y312419D02*
X580633Y312419D01*
X578103Y314949D01*
X578103Y318527D01*
X580633Y321057D01*
X584211Y321057D01*
X586741Y318527D01*
X586741Y314949D01*
X584211Y312419D01*
X580633Y312419D01*
G37*
%LPD*%
%LPC*%
G36*
X567679Y312165D02*
X567679Y312165D01*
X565149Y314695D01*
X565149Y318273D01*
X567679Y320803D01*
X571257Y320803D01*
X573787Y318273D01*
X573787Y314695D01*
X571257Y312165D01*
X567679Y312165D01*
G37*
%LPD*%
%LPC*%
G36*
X553201Y311911D02*
X553201Y311911D01*
X550671Y314441D01*
X550671Y318019D01*
X553201Y320549D01*
X556779Y320549D01*
X559309Y318019D01*
X559309Y314441D01*
X556779Y311911D01*
X553201Y311911D01*
G37*
%LPD*%
%LPC*%
G36*
X409191Y299981D02*
X409191Y299981D01*
X406661Y302511D01*
X406661Y306089D01*
X409191Y308619D01*
X412769Y308619D01*
X415299Y306089D01*
X415299Y302511D01*
X412769Y299981D01*
X409191Y299981D01*
G37*
%LPD*%
%LPC*%
G36*
X301487Y297687D02*
X301487Y297687D01*
X298957Y300217D01*
X298957Y303795D01*
X301487Y306325D01*
X305065Y306325D01*
X307595Y303795D01*
X307595Y300217D01*
X305065Y297687D01*
X301487Y297687D01*
G37*
%LPD*%
%LPC*%
G36*
X427471Y292861D02*
X427471Y292861D01*
X424941Y295391D01*
X424941Y298969D01*
X427471Y301499D01*
X431049Y301499D01*
X433579Y298969D01*
X433579Y295391D01*
X431049Y292861D01*
X427471Y292861D01*
G37*
%LPD*%
%LPC*%
G36*
X442457Y290575D02*
X442457Y290575D01*
X439927Y293105D01*
X439927Y296683D01*
X442457Y299213D01*
X446035Y299213D01*
X448565Y296683D01*
X448565Y293105D01*
X446035Y290575D01*
X442457Y290575D01*
G37*
%LPD*%
%LPC*%
G36*
X571235Y289305D02*
X571235Y289305D01*
X568705Y291835D01*
X568705Y295413D01*
X571235Y297943D01*
X574813Y297943D01*
X577343Y295413D01*
X577343Y291835D01*
X574813Y289305D01*
X571235Y289305D01*
G37*
%LPD*%
%LPC*%
G36*
X558281Y289051D02*
X558281Y289051D01*
X555751Y291581D01*
X555751Y295159D01*
X558281Y297689D01*
X561859Y297689D01*
X564389Y295159D01*
X564389Y291581D01*
X561859Y289051D01*
X558281Y289051D01*
G37*
%LPD*%
%LPC*%
G36*
X540501Y289051D02*
X540501Y289051D01*
X537971Y291581D01*
X537971Y295159D01*
X540501Y297689D01*
X544079Y297689D01*
X546609Y295159D01*
X546609Y291581D01*
X544079Y289051D01*
X540501Y289051D01*
G37*
%LPD*%
%LPC*%
G36*
X525261Y289051D02*
X525261Y289051D01*
X522731Y291581D01*
X522731Y295159D01*
X525261Y297689D01*
X528839Y297689D01*
X531369Y295159D01*
X531369Y291581D01*
X528839Y289051D01*
X525261Y289051D01*
G37*
%LPD*%
%LPC*%
G36*
X595619Y288543D02*
X595619Y288543D01*
X593089Y291073D01*
X593089Y294651D01*
X595619Y297181D01*
X599197Y297181D01*
X601727Y294651D01*
X601727Y291073D01*
X599197Y288543D01*
X595619Y288543D01*
G37*
%LPD*%
%LPC*%
G36*
X583427Y288543D02*
X583427Y288543D01*
X580897Y291073D01*
X580897Y294651D01*
X583427Y297181D01*
X587005Y297181D01*
X589535Y294651D01*
X589535Y291073D01*
X587005Y288543D01*
X583427Y288543D01*
G37*
%LPD*%
%LPC*%
G36*
X608573Y288289D02*
X608573Y288289D01*
X606043Y290819D01*
X606043Y294397D01*
X608573Y296927D01*
X612151Y296927D01*
X614681Y294397D01*
X614681Y290819D01*
X612151Y288289D01*
X608573Y288289D01*
G37*
%LPD*%
%LPC*%
G36*
X513831Y287781D02*
X513831Y287781D01*
X511301Y290311D01*
X511301Y293889D01*
X513831Y296419D01*
X517409Y296419D01*
X519939Y293889D01*
X519939Y290311D01*
X517409Y287781D01*
X513831Y287781D01*
G37*
%LPD*%
%LPC*%
G36*
X413501Y283209D02*
X413501Y283209D01*
X410971Y285739D01*
X410971Y289317D01*
X413501Y291847D01*
X417079Y291847D01*
X419609Y289317D01*
X419609Y285739D01*
X417079Y283209D01*
X413501Y283209D01*
G37*
%LPD*%
%LPC*%
G36*
X348985Y280669D02*
X348985Y280669D01*
X346455Y283199D01*
X346455Y286777D01*
X348985Y289307D01*
X352563Y289307D01*
X355093Y286777D01*
X355093Y283199D01*
X352563Y280669D01*
X348985Y280669D01*
G37*
%LPD*%
%LPC*%
G36*
X409691Y270001D02*
X409691Y270001D01*
X407161Y272531D01*
X407161Y276109D01*
X409691Y278639D01*
X413269Y278639D01*
X415799Y276109D01*
X415799Y272531D01*
X413269Y270001D01*
X409691Y270001D01*
G37*
%LPD*%
%LPC*%
G36*
X384291Y268731D02*
X384291Y268731D01*
X381761Y271261D01*
X381761Y274839D01*
X384291Y277369D01*
X387869Y277369D01*
X390399Y274839D01*
X390399Y271261D01*
X387869Y268731D01*
X384291Y268731D01*
G37*
%LPD*%
%LPC*%
G36*
X342127Y266699D02*
X342127Y266699D01*
X339597Y269229D01*
X339597Y272807D01*
X342127Y275337D01*
X345705Y275337D01*
X348235Y272807D01*
X348235Y269229D01*
X345705Y266699D01*
X342127Y266699D01*
G37*
%LPD*%
%LPC*%
G36*
X342381Y250951D02*
X342381Y250951D01*
X339851Y253481D01*
X339851Y257059D01*
X342381Y259589D01*
X345959Y259589D01*
X348489Y257059D01*
X348489Y253481D01*
X345959Y250951D01*
X342381Y250951D01*
G37*
%LPD*%
%LPC*%
G36*
X427471Y250951D02*
X427471Y250951D01*
X424941Y253481D01*
X424941Y257059D01*
X427471Y259589D01*
X431049Y259589D01*
X433579Y257059D01*
X433579Y253481D01*
X431049Y250951D01*
X427471Y250951D01*
G37*
%LPD*%
%LPC*%
G36*
X466841Y248411D02*
X466841Y248411D01*
X464311Y250941D01*
X464311Y254519D01*
X466841Y257049D01*
X470419Y257049D01*
X472949Y254519D01*
X472949Y250941D01*
X470419Y248411D01*
X466841Y248411D01*
G37*
%LPD*%
%LPC*%
G36*
X297931Y243331D02*
X297931Y243331D01*
X295401Y245861D01*
X295401Y249439D01*
X297931Y251969D01*
X301509Y251969D01*
X304039Y249439D01*
X304039Y245861D01*
X301509Y243331D01*
X297931Y243331D01*
G37*
%LPD*%
%LPC*%
G36*
X384291Y239521D02*
X384291Y239521D01*
X381761Y242051D01*
X381761Y245629D01*
X384291Y248159D01*
X387869Y248159D01*
X390399Y245629D01*
X390399Y242051D01*
X387869Y239521D01*
X384291Y239521D01*
G37*
%LPD*%
%LPC*%
G36*
X327141Y234441D02*
X327141Y234441D01*
X324611Y236971D01*
X324611Y240549D01*
X327141Y243079D01*
X330719Y243079D01*
X333249Y240549D01*
X333249Y236971D01*
X330719Y234441D01*
X327141Y234441D01*
G37*
%LPD*%
%LPC*%
G36*
X347461Y231901D02*
X347461Y231901D01*
X344931Y234431D01*
X344931Y238009D01*
X347461Y240539D01*
X351039Y240539D01*
X353569Y238009D01*
X353569Y234431D01*
X351039Y231901D01*
X347461Y231901D01*
G37*
%LPD*%
%LPC*%
G36*
X375147Y228599D02*
X375147Y228599D01*
X372617Y231129D01*
X372617Y234707D01*
X375147Y237237D01*
X378725Y237237D01*
X381255Y234707D01*
X381255Y231129D01*
X378725Y228599D01*
X375147Y228599D01*
G37*
%LPD*%
%LPC*%
G36*
X440425Y228091D02*
X440425Y228091D01*
X437895Y230621D01*
X437895Y234199D01*
X440425Y236729D01*
X444003Y236729D01*
X446533Y234199D01*
X446533Y230621D01*
X444003Y228091D01*
X440425Y228091D01*
G37*
%LPD*%
%LPC*%
G36*
X519673Y223519D02*
X519673Y223519D01*
X517143Y226049D01*
X517143Y229627D01*
X519673Y232157D01*
X523251Y232157D01*
X525781Y229627D01*
X525781Y226049D01*
X523251Y223519D01*
X519673Y223519D01*
G37*
%LPD*%
%LPC*%
G36*
X338571Y223011D02*
X338571Y223011D01*
X336041Y225541D01*
X336041Y229119D01*
X338571Y231649D01*
X342149Y231649D01*
X344679Y229119D01*
X344679Y225541D01*
X342149Y223011D01*
X338571Y223011D01*
G37*
%LPD*%
%LPC*%
G36*
X424931Y219201D02*
X424931Y219201D01*
X422401Y221731D01*
X422401Y225309D01*
X424931Y227839D01*
X428509Y227839D01*
X431039Y225309D01*
X431039Y221731D01*
X428509Y219201D01*
X424931Y219201D01*
G37*
%LPD*%
%LPC*%
G36*
X460491Y217931D02*
X460491Y217931D01*
X457961Y220461D01*
X457961Y224039D01*
X460491Y226569D01*
X464069Y226569D01*
X466599Y224039D01*
X466599Y220461D01*
X464069Y217931D01*
X460491Y217931D01*
G37*
%LPD*%
%LPC*%
G36*
X308091Y215391D02*
X308091Y215391D01*
X305561Y217921D01*
X305561Y221499D01*
X308091Y224029D01*
X311669Y224029D01*
X314199Y221499D01*
X314199Y217921D01*
X311669Y215391D01*
X308091Y215391D01*
G37*
%LPD*%
%LPC*%
G36*
X583173Y210819D02*
X583173Y210819D01*
X580643Y213349D01*
X580643Y216927D01*
X583173Y219457D01*
X586751Y219457D01*
X589281Y216927D01*
X589281Y213349D01*
X586751Y210819D01*
X583173Y210819D01*
G37*
%LPD*%
%LPC*%
G36*
X433821Y209041D02*
X433821Y209041D01*
X431291Y211571D01*
X431291Y215149D01*
X433821Y217679D01*
X437399Y217679D01*
X439929Y215149D01*
X439929Y211571D01*
X437399Y209041D01*
X433821Y209041D01*
G37*
%LPD*%
%LPC*%
G36*
X446521Y205231D02*
X446521Y205231D01*
X443991Y207761D01*
X443991Y211339D01*
X446521Y213869D01*
X450099Y213869D01*
X452629Y211339D01*
X452629Y207761D01*
X450099Y205231D01*
X446521Y205231D01*
G37*
%LPD*%
%LPC*%
G36*
X474461Y202691D02*
X474461Y202691D01*
X471931Y205221D01*
X471931Y208799D01*
X474461Y211329D01*
X478039Y211329D01*
X480569Y208799D01*
X480569Y205221D01*
X478039Y202691D01*
X474461Y202691D01*
G37*
%LPD*%
%LPC*%
G36*
X318251Y201421D02*
X318251Y201421D01*
X315721Y203951D01*
X315721Y207529D01*
X318251Y210059D01*
X321829Y210059D01*
X324359Y207529D01*
X324359Y203951D01*
X321829Y201421D01*
X318251Y201421D01*
G37*
%LPD*%
%LPC*%
G36*
X457951Y195071D02*
X457951Y195071D01*
X455421Y197601D01*
X455421Y201179D01*
X457951Y203709D01*
X461529Y203709D01*
X464059Y201179D01*
X464059Y197601D01*
X461529Y195071D01*
X457951Y195071D01*
G37*
%LPD*%
%LPC*%
G36*
X477763Y181101D02*
X477763Y181101D01*
X475233Y183631D01*
X475233Y187209D01*
X477763Y189739D01*
X481341Y189739D01*
X483871Y187209D01*
X483871Y183631D01*
X481341Y181101D01*
X477763Y181101D01*
G37*
%LPD*%
%LPC*%
G36*
X457951Y178561D02*
X457951Y178561D01*
X455421Y181091D01*
X455421Y184669D01*
X457951Y187199D01*
X461529Y187199D01*
X464059Y184669D01*
X464059Y181091D01*
X461529Y178561D01*
X457951Y178561D01*
G37*
%LPD*%
%LPC*%
G36*
X480303Y160527D02*
X480303Y160527D01*
X477773Y163057D01*
X477773Y166635D01*
X480303Y169165D01*
X483881Y169165D01*
X486411Y166635D01*
X486411Y163057D01*
X483881Y160527D01*
X480303Y160527D01*
G37*
%LPD*%
%LPC*%
G36*
X457951Y144271D02*
X457951Y144271D01*
X455421Y146801D01*
X455421Y150379D01*
X457951Y152909D01*
X461529Y152909D01*
X464059Y150379D01*
X464059Y146801D01*
X461529Y144271D01*
X457951Y144271D01*
G37*
%LPD*%
%LPC*%
G36*
X297931Y144271D02*
X297931Y144271D01*
X295401Y146801D01*
X295401Y150379D01*
X297931Y152909D01*
X301509Y152909D01*
X304039Y150379D01*
X304039Y146801D01*
X301509Y144271D01*
X297931Y144271D01*
G37*
%LPD*%
%LPC*%
G36*
X479541Y139191D02*
X479541Y139191D01*
X477011Y141721D01*
X477011Y145299D01*
X479541Y147829D01*
X483119Y147829D01*
X485649Y145299D01*
X485649Y141721D01*
X483119Y139191D01*
X479541Y139191D01*
G37*
%LPD*%
%LPC*%
G36*
X595873Y134619D02*
X595873Y134619D01*
X593343Y137149D01*
X593343Y140727D01*
X595873Y143257D01*
X599451Y143257D01*
X601981Y140727D01*
X601981Y137149D01*
X599451Y134619D01*
X595873Y134619D01*
G37*
%LPD*%
%LPC*%
G36*
X506973Y134619D02*
X506973Y134619D01*
X504443Y137149D01*
X504443Y140727D01*
X506973Y143257D01*
X510551Y143257D01*
X513081Y140727D01*
X513081Y137149D01*
X510551Y134619D01*
X506973Y134619D01*
G37*
%LPD*%
%LPC*%
G36*
X457951Y131571D02*
X457951Y131571D01*
X455421Y134101D01*
X455421Y137679D01*
X457951Y140209D01*
X461529Y140209D01*
X464059Y137679D01*
X464059Y134101D01*
X461529Y131571D01*
X457951Y131571D01*
G37*
%LPD*%
%LPC*%
G36*
X449061Y604011D02*
X449061Y604011D01*
X446531Y606541D01*
X446531Y610119D01*
X449061Y612649D01*
X452639Y612649D01*
X455169Y610119D01*
X455169Y606541D01*
X452639Y604011D01*
X449061Y604011D01*
G37*
%LPD*%
%LPC*%
G36*
X481319Y117093D02*
X481319Y117093D01*
X478789Y119623D01*
X478789Y123201D01*
X481319Y125731D01*
X484897Y125731D01*
X487427Y123201D01*
X487427Y119623D01*
X484897Y117093D01*
X481319Y117093D01*
G37*
%LPD*%
%LPC*%
G36*
X297931Y116331D02*
X297931Y116331D01*
X295401Y118861D01*
X295401Y122439D01*
X297931Y124969D01*
X301509Y124969D01*
X304039Y122439D01*
X304039Y118861D01*
X301509Y116331D01*
X297931Y116331D01*
G37*
%LPD*%
%LPC*%
G36*
X457951Y106171D02*
X457951Y106171D01*
X455421Y108701D01*
X455421Y112279D01*
X457951Y114809D01*
X461529Y114809D01*
X464059Y112279D01*
X464059Y108701D01*
X461529Y106171D01*
X457951Y106171D01*
G37*
%LPD*%
%LPC*%
G36*
X481319Y91693D02*
X481319Y91693D01*
X478789Y94223D01*
X478789Y97801D01*
X481319Y100331D01*
X484897Y100331D01*
X487427Y97801D01*
X487427Y94223D01*
X484897Y91693D01*
X481319Y91693D01*
G37*
%LPD*%
%LPC*%
G36*
X299201Y82041D02*
X299201Y82041D01*
X296671Y84571D01*
X296671Y88149D01*
X299201Y90679D01*
X302779Y90679D01*
X305309Y88149D01*
X305309Y84571D01*
X302779Y82041D01*
X299201Y82041D01*
G37*
%LPD*%
%LPC*%
G36*
X457951Y80771D02*
X457951Y80771D01*
X455421Y83301D01*
X455421Y86879D01*
X457951Y89409D01*
X461529Y89409D01*
X464059Y86879D01*
X464059Y83301D01*
X461529Y80771D01*
X457951Y80771D01*
G37*
%LPD*%
%LPC*%
G36*
X519673Y71119D02*
X519673Y71119D01*
X517143Y73649D01*
X517143Y77227D01*
X519673Y79757D01*
X523251Y79757D01*
X525781Y77227D01*
X525781Y73649D01*
X523251Y71119D01*
X519673Y71119D01*
G37*
%LPD*%
%LPC*%
G36*
X481319Y66293D02*
X481319Y66293D01*
X478789Y68823D01*
X478789Y72401D01*
X481319Y74931D01*
X484897Y74931D01*
X487427Y72401D01*
X487427Y68823D01*
X484897Y66293D01*
X481319Y66293D01*
G37*
%LPD*%
%LPC*%
G36*
X457951Y55371D02*
X457951Y55371D01*
X455421Y57901D01*
X455421Y61479D01*
X457951Y64009D01*
X461529Y64009D01*
X464059Y61479D01*
X464059Y57901D01*
X461529Y55371D01*
X457951Y55371D01*
G37*
%LPD*%
%LPC*%
G36*
X297931Y54101D02*
X297931Y54101D01*
X295401Y56631D01*
X295401Y60209D01*
X297931Y62739D01*
X301509Y62739D01*
X304039Y60209D01*
X304039Y56631D01*
X301509Y54101D01*
X297931Y54101D01*
G37*
%LPD*%
%LPC*%
G36*
X485891Y602741D02*
X485891Y602741D01*
X483361Y605271D01*
X483361Y608849D01*
X485891Y611379D01*
X489469Y611379D01*
X491999Y608849D01*
X491999Y605271D01*
X489469Y602741D01*
X485891Y602741D01*
G37*
%LPD*%
%LPC*%
G36*
X481319Y40893D02*
X481319Y40893D01*
X478789Y43423D01*
X478789Y47001D01*
X481319Y49531D01*
X484897Y49531D01*
X487427Y47001D01*
X487427Y43423D01*
X484897Y40893D01*
X481319Y40893D01*
G37*
%LPD*%
%LPC*%
G36*
X454649Y29717D02*
X454649Y29717D01*
X452119Y32247D01*
X452119Y35825D01*
X454649Y38355D01*
X458227Y38355D01*
X460757Y35825D01*
X460757Y32247D01*
X458227Y29717D01*
X454649Y29717D01*
G37*
%LPD*%
%LPC*%
G36*
X302249Y22605D02*
X302249Y22605D01*
X299719Y25135D01*
X299719Y28713D01*
X302249Y31243D01*
X305827Y31243D01*
X308357Y28713D01*
X308357Y25135D01*
X305827Y22605D01*
X302249Y22605D01*
G37*
%LPD*%
%LPC*%
G36*
X548131Y446531D02*
X548131Y446531D01*
X548131Y454496D01*
X548486Y454440D01*
X550012Y453944D01*
X551441Y453216D01*
X552739Y452273D01*
X553873Y451139D01*
X554816Y449841D01*
X555544Y448412D01*
X556040Y446886D01*
X556096Y446531D01*
X548131Y446531D01*
G37*
%LPD*%
%LPC*%
G36*
X548131Y442469D02*
X548131Y442469D01*
X556096Y442469D01*
X556040Y442114D01*
X555544Y440588D01*
X554816Y439159D01*
X553873Y437861D01*
X552739Y436727D01*
X551441Y435784D01*
X550012Y435056D01*
X548486Y434560D01*
X548131Y434504D01*
X548131Y442469D01*
G37*
%LPD*%
%LPC*%
G36*
X536104Y446531D02*
X536104Y446531D01*
X536160Y446886D01*
X536656Y448412D01*
X537384Y449841D01*
X538327Y451139D01*
X539461Y452273D01*
X540759Y453216D01*
X542188Y453944D01*
X543714Y454440D01*
X544069Y454496D01*
X544069Y446531D01*
X536104Y446531D01*
G37*
%LPD*%
%LPC*%
G36*
X543714Y434560D02*
X543714Y434560D01*
X542188Y435056D01*
X540759Y435784D01*
X539461Y436727D01*
X538327Y437861D01*
X537384Y439159D01*
X536656Y440588D01*
X536160Y442114D01*
X536104Y442469D01*
X544069Y442469D01*
X544069Y434504D01*
X543714Y434560D01*
G37*
%LPD*%
%LPC*%
G36*
X560831Y167131D02*
X560831Y167131D01*
X560831Y174944D01*
X561151Y174893D01*
X562654Y174405D01*
X564063Y173688D01*
X565341Y172759D01*
X566459Y171641D01*
X567388Y170363D01*
X568105Y168954D01*
X568593Y167451D01*
X568644Y167131D01*
X560831Y167131D01*
G37*
%LPD*%
%LPC*%
G36*
X548956Y167131D02*
X548956Y167131D01*
X549007Y167451D01*
X549495Y168954D01*
X550212Y170363D01*
X551141Y171641D01*
X552259Y172759D01*
X553537Y173688D01*
X554946Y174405D01*
X556449Y174893D01*
X556769Y174944D01*
X556769Y167131D01*
X548956Y167131D01*
G37*
%LPD*%
%LPC*%
G36*
X560831Y163069D02*
X560831Y163069D01*
X568644Y163069D01*
X568593Y162749D01*
X568105Y161246D01*
X567388Y159837D01*
X566459Y158559D01*
X565341Y157441D01*
X564063Y156512D01*
X562654Y155795D01*
X561151Y155307D01*
X560831Y155256D01*
X560831Y163069D01*
G37*
%LPD*%
%LPC*%
G36*
X556449Y155307D02*
X556449Y155307D01*
X554946Y155795D01*
X553537Y156512D01*
X552259Y157441D01*
X551141Y158559D01*
X550212Y159837D01*
X549495Y161246D01*
X549007Y162749D01*
X548956Y163069D01*
X556769Y163069D01*
X556769Y155256D01*
X556449Y155307D01*
G37*
%LPD*%
%LPC*%
G36*
X497299Y395699D02*
X497299Y395699D01*
X497299Y402010D01*
X497791Y401913D01*
X499346Y401269D01*
X500744Y400334D01*
X501934Y399144D01*
X502869Y397746D01*
X503513Y396191D01*
X503610Y395699D01*
X497299Y395699D01*
G37*
%LPD*%
%LPC*%
G36*
X486990Y395699D02*
X486990Y395699D01*
X487087Y396191D01*
X487731Y397746D01*
X488666Y399144D01*
X489856Y400334D01*
X491254Y401269D01*
X492809Y401913D01*
X493301Y402010D01*
X493301Y395699D01*
X486990Y395699D01*
G37*
%LPD*%
%LPC*%
G36*
X497299Y391701D02*
X497299Y391701D01*
X503610Y391701D01*
X503513Y391209D01*
X502869Y389654D01*
X501934Y388256D01*
X500744Y387066D01*
X499346Y386131D01*
X497791Y385487D01*
X497299Y385390D01*
X497299Y391701D01*
G37*
%LPD*%
%LPC*%
G36*
X492809Y385487D02*
X492809Y385487D01*
X491254Y386131D01*
X489856Y387066D01*
X488666Y388256D01*
X487731Y389654D01*
X487087Y391209D01*
X486990Y391701D01*
X493301Y391701D01*
X493301Y385390D01*
X492809Y385487D01*
G37*
%LPD*%
%LPC*%
G36*
X558799Y165099D02*
X558799Y165099D01*
X558799Y165101D01*
X558801Y165101D01*
X558801Y165099D01*
X558799Y165099D01*
G37*
%LPD*%
%LPC*%
G36*
X546099Y444499D02*
X546099Y444499D01*
X546099Y444501D01*
X546101Y444501D01*
X546101Y444499D01*
X546099Y444499D01*
G37*
%LPD*%
D10*
X355600Y127000D03*
X381000Y127000D03*
X406400Y127000D03*
X406400Y508000D03*
X381000Y508000D03*
X355600Y508000D03*
D11*
X520700Y393700D03*
X495300Y393700D03*
X546100Y393700D03*
D12*
X546100Y444500D03*
X495300Y444500D03*
D13*
X558800Y165100D03*
X558800Y190500D03*
D12*
X357378Y457200D03*
X331978Y457200D03*
X430276Y456946D03*
X404876Y456946D03*
X333248Y172720D03*
X358648Y172720D03*
X403098Y172212D03*
X428498Y172212D03*
D14*
X194616Y488876D03*
X207188Y476303D03*
X219761Y463731D03*
X232333Y451159D03*
X183121Y477381D03*
X195694Y464809D03*
X208266Y452236D03*
X220838Y439664D03*
X182044Y501448D03*
X169471Y514020D03*
X156899Y526593D03*
X144327Y539165D03*
X170549Y489953D03*
X157977Y502526D03*
X145404Y515098D03*
X132832Y527670D03*
X155821Y550660D03*
X167316Y562155D03*
X178990Y573829D03*
X192833Y562527D03*
X205405Y548684D03*
X217977Y536112D03*
X230550Y523539D03*
X132971Y107063D03*
X145543Y119635D03*
X158116Y132208D03*
X170688Y144780D03*
X183260Y157352D03*
X195833Y169925D03*
X208405Y182497D03*
X220977Y195069D03*
X144466Y95568D03*
X157038Y108141D03*
X169610Y120713D03*
X182183Y133285D03*
X194755Y145858D03*
X207327Y158430D03*
X219900Y171002D03*
X232472Y183575D03*
X121476Y118558D03*
X109981Y130052D03*
X98307Y141727D03*
X109609Y154299D03*
X122182Y166871D03*
X134754Y179444D03*
X147327Y193286D03*
D15*
X11430Y147320D03*
X24130Y147320D03*
X36830Y147320D03*
X49530Y147320D03*
X62230Y139700D03*
X74930Y130810D03*
X86360Y120650D03*
X96520Y110490D03*
X107950Y99060D03*
X118110Y88900D03*
X134620Y87630D03*
X10160Y106680D03*
X22860Y106680D03*
X35560Y106680D03*
X48260Y106680D03*
X59690Y111760D03*
X69850Y104140D03*
X81280Y92710D03*
X92710Y82550D03*
X109220Y66040D03*
X135890Y64770D03*
X156210Y64770D03*
X249936Y154178D03*
X254000Y175260D03*
X254000Y190500D03*
X252730Y201930D03*
X237490Y215900D03*
X227330Y215900D03*
X212090Y215900D03*
X246380Y224790D03*
X255270Y233680D03*
X8382Y360426D03*
X21082Y360426D03*
X35052Y360426D03*
X46990Y360680D03*
X26162Y304038D03*
X62230Y361950D03*
X76200Y368300D03*
X87630Y379730D03*
X91440Y397510D03*
X91440Y414020D03*
X91440Y426720D03*
X91440Y436880D03*
X102870Y448310D03*
X113030Y458470D03*
X120650Y464820D03*
X8128Y385318D03*
X20066Y385826D03*
X31750Y386080D03*
X46736Y385318D03*
X60960Y387350D03*
X68580Y392430D03*
X69850Y405130D03*
X69850Y417830D03*
X69850Y430530D03*
X71120Y445770D03*
X78740Y455930D03*
X87630Y464820D03*
X97790Y473710D03*
X102870Y481330D03*
X190500Y421894D03*
X205740Y419100D03*
X223520Y419100D03*
X238760Y419100D03*
X250190Y407670D03*
X262890Y394970D03*
X249936Y481330D03*
X252730Y468630D03*
X252730Y455930D03*
X252730Y443230D03*
X252730Y433070D03*
X261620Y422910D03*
X270510Y414020D03*
X278130Y406400D03*
X304800Y379730D03*
X303530Y353060D03*
X283210Y576580D03*
X283210Y551180D03*
X283210Y525780D03*
X283210Y500380D03*
X283210Y474980D03*
X283210Y462280D03*
X283210Y450850D03*
X295910Y427990D03*
X309880Y415290D03*
X386080Y363220D03*
X323850Y425450D03*
X313690Y434340D03*
X302260Y455930D03*
X402590Y355600D03*
X431800Y419100D03*
X453390Y403860D03*
X464820Y416560D03*
X453390Y429260D03*
X459740Y455930D03*
X477520Y455930D03*
X480060Y469900D03*
X478790Y485140D03*
X478282Y505460D03*
X477520Y521970D03*
X477520Y544830D03*
X477520Y570230D03*
X461010Y570230D03*
X461010Y544830D03*
X300990Y576580D03*
X300990Y551180D03*
X300990Y525780D03*
X300990Y500380D03*
X300228Y482854D03*
X461010Y520700D03*
X461010Y503174D03*
X461010Y486410D03*
X274320Y588010D03*
X274320Y604520D03*
X274320Y619760D03*
X309880Y588010D03*
X309880Y603250D03*
X309880Y619760D03*
X452120Y593090D03*
X450850Y608330D03*
X452120Y624840D03*
X487680Y591820D03*
X487680Y607060D03*
X487680Y623570D03*
X411480Y330200D03*
X420370Y337820D03*
X429260Y339090D03*
X422910Y317500D03*
X436880Y317500D03*
X410980Y304300D03*
X429260Y297180D03*
X515620Y292100D03*
X527050Y293370D03*
X542290Y293370D03*
X560070Y293370D03*
X554990Y316230D03*
X569468Y316484D03*
X573024Y293624D03*
X585216Y292862D03*
X597408Y292862D03*
X610362Y292608D03*
X582422Y316738D03*
X595884Y316992D03*
X607314Y316992D03*
X284480Y57150D03*
X284480Y95250D03*
X284480Y149860D03*
X278892Y164084D03*
X284480Y177800D03*
X284480Y191770D03*
X292100Y203200D03*
X281940Y229870D03*
X289560Y240030D03*
X299720Y247650D03*
X281940Y260350D03*
X288290Y265430D03*
X285750Y370840D03*
X294640Y363220D03*
X299720Y120650D03*
X299720Y148590D03*
X300990Y86360D03*
X299720Y58420D03*
X302260Y179070D03*
X303530Y189230D03*
X320040Y205740D03*
X309880Y219710D03*
X340360Y227330D03*
X349250Y236220D03*
X328930Y238760D03*
X344170Y255270D03*
X376936Y232918D03*
X386080Y273050D03*
X411480Y274320D03*
X426720Y223520D03*
X435610Y213360D03*
X448310Y209550D03*
X459740Y199390D03*
X459740Y182880D03*
X468630Y252730D03*
X429260Y255270D03*
X462280Y222250D03*
X476250Y207010D03*
X479552Y185420D03*
X482092Y164846D03*
X481330Y143510D03*
X483108Y121412D03*
X483108Y96012D03*
X483108Y70612D03*
X483108Y45212D03*
X459740Y148590D03*
X459740Y135890D03*
X459740Y110490D03*
X459740Y85090D03*
X459740Y59690D03*
X620522Y316992D03*
X622300Y292862D03*
X26162Y227838D03*
X127762Y291338D03*
X76962Y253238D03*
X140462Y354838D03*
X191262Y304038D03*
X89662Y189738D03*
X64262Y507238D03*
X26162Y507238D03*
X76962Y596138D03*
X521462Y519938D03*
X521462Y558038D03*
X546862Y532638D03*
X521462Y227838D03*
X597662Y138938D03*
X508762Y138938D03*
X584962Y215138D03*
X338074Y317500D03*
X321056Y323342D03*
X321056Y313690D03*
X304292Y332994D03*
X303276Y302006D03*
X343916Y271018D03*
X462534Y317500D03*
X474980Y317500D03*
X493522Y317754D03*
X442214Y232410D03*
X451866Y392938D03*
X415290Y287528D03*
X350774Y284988D03*
X322580Y402590D03*
X335280Y389890D03*
X340360Y379730D03*
X356870Y363220D03*
X410210Y424180D03*
X347980Y402590D03*
X335280Y415290D03*
X322072Y497840D03*
X417322Y400050D03*
X419100Y367030D03*
X427990Y381000D03*
X440690Y393700D03*
X284480Y120650D03*
X188468Y216154D03*
X175006Y226822D03*
X164338Y229108D03*
X155956Y222250D03*
X148590Y213868D03*
X140208Y205232D03*
X243078Y99060D03*
X252222Y107188D03*
X259842Y115062D03*
X267462Y122682D03*
X267462Y134366D03*
X258318Y146050D03*
X253492Y165100D03*
X144780Y445516D03*
X142240Y435356D03*
X147828Y427482D03*
X153162Y422148D03*
X160020Y414020D03*
X168148Y407416D03*
X177038Y409702D03*
X240792Y527304D03*
X248412Y520954D03*
X256032Y513588D03*
X263144Y504698D03*
X260858Y494792D03*
X444246Y339852D03*
X444246Y294894D03*
X456438Y34036D03*
X279400Y30480D03*
X304038Y26924D03*
X484632Y17780D03*
X203200Y434594D03*
X237236Y468630D03*
X203454Y200152D03*
X236982Y167132D03*
D16*
X38100Y596900D03*
X596900Y596900D03*
X38100Y38100D03*
X596900Y38100D03*
D15*
X521462Y75438D03*
X386080Y243840D03*
X385572Y392430D03*
D17*
X382778Y65786D03*
X452374Y374142D03*
X452120Y261112D03*
X397510Y290068D03*
X366014Y291592D03*
X364490Y343408D03*
X369824Y569722D03*
X401320Y345440D03*
D18*
X484378Y360680D03*
X376428Y286766D03*
X373126Y281940D03*
X371348Y352806D03*
X376682Y348742D03*
M02*
