G04 EAGLE Gerber RS-274X export*
G75*
%MOMM*%
%FSLAX34Y34*%
%LPD*%
%INCopper Layer 2*%
%IPPOS*%
%AMOC8*
5,1,8,0,0,1.08239X$1,22.5*%
G01*
%ADD10C,0.914400*%
%ADD11C,1.200000*%
%ADD12C,1.530000*%
%ADD13C,1.500000*%
%ADD14C,0.762000*%
%ADD15C,0.558800*%
%ADD16C,4.572000*%
%ADD17C,0.553200*%
%ADD18C,0.457200*%

G36*
X635020Y-758D02*
X635020Y-758D01*
X635039Y-760D01*
X635141Y-738D01*
X635243Y-722D01*
X635260Y-712D01*
X635280Y-708D01*
X635369Y-655D01*
X635460Y-606D01*
X635474Y-592D01*
X635491Y-582D01*
X635558Y-503D01*
X635630Y-428D01*
X635638Y-410D01*
X635651Y-395D01*
X635690Y-299D01*
X635733Y-205D01*
X635735Y-185D01*
X635743Y-167D01*
X635761Y0D01*
X635761Y635000D01*
X635758Y635020D01*
X635760Y635039D01*
X635738Y635141D01*
X635722Y635243D01*
X635712Y635260D01*
X635708Y635280D01*
X635655Y635369D01*
X635606Y635460D01*
X635592Y635474D01*
X635582Y635491D01*
X635503Y635558D01*
X635428Y635630D01*
X635410Y635638D01*
X635395Y635651D01*
X635299Y635690D01*
X635205Y635733D01*
X635185Y635735D01*
X635167Y635743D01*
X635000Y635761D01*
X0Y635761D01*
X-20Y635758D01*
X-39Y635760D01*
X-141Y635738D01*
X-243Y635722D01*
X-260Y635712D01*
X-280Y635708D01*
X-369Y635655D01*
X-460Y635606D01*
X-474Y635592D01*
X-491Y635582D01*
X-558Y635503D01*
X-630Y635428D01*
X-638Y635410D01*
X-651Y635395D01*
X-690Y635299D01*
X-733Y635205D01*
X-735Y635185D01*
X-743Y635167D01*
X-761Y635000D01*
X-761Y0D01*
X-758Y-20D01*
X-760Y-39D01*
X-738Y-141D01*
X-722Y-243D01*
X-712Y-260D01*
X-708Y-280D01*
X-655Y-369D01*
X-606Y-460D01*
X-592Y-474D01*
X-582Y-491D01*
X-503Y-558D01*
X-428Y-630D01*
X-410Y-638D01*
X-395Y-651D01*
X-299Y-690D01*
X-205Y-733D01*
X-185Y-735D01*
X-167Y-743D01*
X0Y-761D01*
X635000Y-761D01*
X635020Y-758D01*
G37*
%LPC*%
G36*
X238952Y99567D02*
X238952Y99567D01*
X140969Y197550D01*
X140969Y198610D01*
X140968Y198617D01*
X140969Y198627D01*
X140962Y198936D01*
X141180Y199154D01*
X141184Y199160D01*
X141192Y199167D01*
X167175Y226399D01*
X167219Y226464D01*
X167596Y226840D01*
X167600Y226846D01*
X167608Y226853D01*
X167822Y227077D01*
X168129Y227077D01*
X168137Y227078D01*
X168147Y227077D01*
X168456Y227084D01*
X168674Y226866D01*
X168680Y226862D01*
X168687Y226854D01*
X169049Y226509D01*
X169061Y226486D01*
X169083Y226467D01*
X169119Y226422D01*
X265777Y129764D01*
X265851Y129711D01*
X265920Y129651D01*
X265951Y129639D01*
X265977Y129620D01*
X266064Y129593D01*
X266149Y129559D01*
X266189Y129555D01*
X266212Y129548D01*
X266244Y129549D01*
X266315Y129541D01*
X267270Y129541D01*
X267717Y129094D01*
X267717Y128462D01*
X240254Y100999D01*
X240208Y100936D01*
X240187Y100913D01*
X240183Y100904D01*
X240141Y100856D01*
X240129Y100825D01*
X240110Y100799D01*
X240083Y100712D01*
X240049Y100627D01*
X240045Y100587D01*
X240038Y100564D01*
X240039Y100532D01*
X240031Y100461D01*
X240031Y100014D01*
X239584Y99567D01*
X238952Y99567D01*
G37*
%LPD*%
%LPC*%
G36*
X170499Y410336D02*
X170499Y410336D01*
X145033Y435802D01*
X145033Y438932D01*
X229596Y523495D01*
X239838Y523495D01*
X261748Y501585D01*
X261748Y500953D01*
X171131Y410336D01*
X170499Y410336D01*
G37*
%LPD*%
%LPC*%
G36*
X355250Y446501D02*
X355250Y446501D01*
X351318Y448130D01*
X348308Y451140D01*
X346679Y455072D01*
X346679Y459328D01*
X348308Y463260D01*
X351318Y466270D01*
X355250Y467899D01*
X359506Y467899D01*
X363438Y466270D01*
X366448Y463260D01*
X368077Y459328D01*
X368077Y455072D01*
X366448Y451140D01*
X363438Y448130D01*
X359506Y446501D01*
X355250Y446501D01*
G37*
%LPD*%
%LPC*%
G36*
X329850Y446501D02*
X329850Y446501D01*
X325918Y448130D01*
X322908Y451140D01*
X321279Y455072D01*
X321279Y459328D01*
X322908Y463260D01*
X325918Y466270D01*
X329850Y467899D01*
X334106Y467899D01*
X338038Y466270D01*
X341048Y463260D01*
X342677Y459328D01*
X342677Y455072D01*
X341048Y451140D01*
X338038Y448130D01*
X334106Y446501D01*
X329850Y446501D01*
G37*
%LPD*%
%LPC*%
G36*
X428148Y446247D02*
X428148Y446247D01*
X424216Y447876D01*
X421206Y450886D01*
X419577Y454818D01*
X419577Y459074D01*
X421206Y463006D01*
X424216Y466016D01*
X428148Y467645D01*
X432404Y467645D01*
X436336Y466016D01*
X439346Y463006D01*
X440975Y459074D01*
X440975Y454818D01*
X439346Y450886D01*
X436336Y447876D01*
X432404Y446247D01*
X428148Y446247D01*
G37*
%LPD*%
%LPC*%
G36*
X402748Y446247D02*
X402748Y446247D01*
X398816Y447876D01*
X395806Y450886D01*
X394177Y454818D01*
X394177Y459074D01*
X395806Y463006D01*
X398816Y466016D01*
X402748Y467645D01*
X407004Y467645D01*
X410936Y466016D01*
X413946Y463006D01*
X415575Y459074D01*
X415575Y454818D01*
X413946Y450886D01*
X410936Y447876D01*
X407004Y446247D01*
X402748Y446247D01*
G37*
%LPD*%
%LPC*%
G36*
X543972Y433801D02*
X543972Y433801D01*
X540040Y435430D01*
X537030Y438440D01*
X535401Y442372D01*
X535401Y446628D01*
X537030Y450560D01*
X540040Y453570D01*
X543972Y455199D01*
X548228Y455199D01*
X552160Y453570D01*
X555170Y450560D01*
X556799Y446628D01*
X556799Y442372D01*
X555170Y438440D01*
X552160Y435430D01*
X548228Y433801D01*
X543972Y433801D01*
G37*
%LPD*%
%LPC*%
G36*
X331120Y162021D02*
X331120Y162021D01*
X327188Y163650D01*
X324178Y166660D01*
X322549Y170592D01*
X322549Y174848D01*
X324178Y178780D01*
X327188Y181790D01*
X331120Y183419D01*
X335376Y183419D01*
X339308Y181790D01*
X342318Y178780D01*
X343947Y174848D01*
X343947Y170592D01*
X342318Y166660D01*
X339308Y163650D01*
X335376Y162021D01*
X331120Y162021D01*
G37*
%LPD*%
%LPC*%
G36*
X356520Y162021D02*
X356520Y162021D01*
X352588Y163650D01*
X349578Y166660D01*
X347949Y170592D01*
X347949Y174848D01*
X349578Y178780D01*
X352588Y181790D01*
X356520Y183419D01*
X360776Y183419D01*
X364708Y181790D01*
X367718Y178780D01*
X369347Y174848D01*
X369347Y170592D01*
X367718Y166660D01*
X364708Y163650D01*
X360776Y162021D01*
X356520Y162021D01*
G37*
%LPD*%
%LPC*%
G36*
X426370Y161513D02*
X426370Y161513D01*
X422438Y163142D01*
X419428Y166152D01*
X417799Y170084D01*
X417799Y174340D01*
X419428Y178272D01*
X422438Y181282D01*
X426370Y182911D01*
X430626Y182911D01*
X434558Y181282D01*
X437568Y178272D01*
X439197Y174340D01*
X439197Y170084D01*
X437568Y166152D01*
X434558Y163142D01*
X430626Y161513D01*
X426370Y161513D01*
G37*
%LPD*%
%LPC*%
G36*
X400970Y161513D02*
X400970Y161513D01*
X397038Y163142D01*
X394028Y166152D01*
X392399Y170084D01*
X392399Y174340D01*
X394028Y178272D01*
X397038Y181282D01*
X400970Y182911D01*
X405226Y182911D01*
X409158Y181282D01*
X412168Y178272D01*
X413797Y174340D01*
X413797Y170084D01*
X412168Y166152D01*
X409158Y163142D01*
X405226Y161513D01*
X400970Y161513D01*
G37*
%LPD*%
%LPC*%
G36*
X556702Y154551D02*
X556702Y154551D01*
X552825Y156157D01*
X549857Y159125D01*
X548251Y163002D01*
X548251Y167198D01*
X549857Y171075D01*
X552825Y174043D01*
X556702Y175649D01*
X560898Y175649D01*
X564775Y174043D01*
X567743Y171075D01*
X569349Y167198D01*
X569349Y163002D01*
X567743Y159125D01*
X564775Y156157D01*
X560898Y154551D01*
X556702Y154551D01*
G37*
%LPD*%
%LPC*%
G36*
X363333Y337593D02*
X363333Y337593D01*
X361196Y338479D01*
X359561Y340114D01*
X358675Y342251D01*
X358675Y344565D01*
X359561Y346702D01*
X361196Y348337D01*
X363333Y349223D01*
X365647Y349223D01*
X365652Y349220D01*
X365722Y349204D01*
X365789Y349178D01*
X365841Y349176D01*
X365892Y349164D01*
X365963Y349171D01*
X366035Y349168D01*
X366085Y349182D01*
X366137Y349187D01*
X366202Y349216D01*
X366271Y349236D01*
X366314Y349266D01*
X366361Y349287D01*
X366414Y349336D01*
X366473Y349377D01*
X366504Y349418D01*
X366542Y349454D01*
X366577Y349516D01*
X366620Y349574D01*
X366636Y349623D01*
X366661Y349669D01*
X366674Y349740D01*
X366696Y349808D01*
X366696Y349860D01*
X366705Y349911D01*
X366694Y349982D01*
X366694Y350054D01*
X366674Y350123D01*
X366669Y350154D01*
X366658Y350175D01*
X366647Y350215D01*
X366013Y351745D01*
X366013Y353867D01*
X366825Y355828D01*
X368326Y357329D01*
X370287Y358141D01*
X372409Y358141D01*
X374370Y357329D01*
X375871Y355828D01*
X376401Y354547D01*
X376463Y354447D01*
X376523Y354347D01*
X376527Y354343D01*
X376531Y354338D01*
X376621Y354263D01*
X376710Y354187D01*
X376716Y354185D01*
X376720Y354181D01*
X376829Y354139D01*
X376938Y354095D01*
X376945Y354094D01*
X376950Y354093D01*
X376968Y354092D01*
X377105Y354077D01*
X377743Y354077D01*
X379704Y353265D01*
X381205Y351764D01*
X382017Y349803D01*
X382017Y347681D01*
X381205Y345720D01*
X379704Y344219D01*
X377743Y343407D01*
X375621Y343407D01*
X373660Y344219D01*
X372159Y345720D01*
X371629Y347001D01*
X371567Y347101D01*
X371507Y347201D01*
X371503Y347205D01*
X371499Y347210D01*
X371409Y347285D01*
X371320Y347361D01*
X371314Y347363D01*
X371310Y347367D01*
X371201Y347409D01*
X371092Y347453D01*
X371085Y347454D01*
X371080Y347455D01*
X371062Y347456D01*
X370925Y347471D01*
X370240Y347471D01*
X370195Y347464D01*
X370149Y347466D01*
X370074Y347444D01*
X369997Y347432D01*
X369957Y347410D01*
X369913Y347397D01*
X369849Y347353D01*
X369780Y347316D01*
X369748Y347283D01*
X369711Y347257D01*
X369664Y347194D01*
X369611Y347138D01*
X369591Y347096D01*
X369564Y347060D01*
X369540Y346986D01*
X369507Y346915D01*
X369502Y346869D01*
X369488Y346826D01*
X369488Y346748D01*
X369480Y346671D01*
X369490Y346626D01*
X369490Y346580D01*
X369528Y346448D01*
X369532Y346430D01*
X369535Y346426D01*
X369537Y346419D01*
X370305Y344565D01*
X370305Y342251D01*
X369419Y340114D01*
X367784Y338479D01*
X365647Y337593D01*
X363333Y337593D01*
G37*
%LPD*%
%LPC*%
G36*
X372065Y276605D02*
X372065Y276605D01*
X370104Y277417D01*
X368603Y278918D01*
X367791Y280879D01*
X367791Y283001D01*
X368605Y284965D01*
X368621Y285035D01*
X368647Y285101D01*
X368649Y285153D01*
X368661Y285204D01*
X368654Y285275D01*
X368657Y285347D01*
X368643Y285397D01*
X368638Y285449D01*
X368609Y285514D01*
X368589Y285583D01*
X368559Y285626D01*
X368538Y285674D01*
X368489Y285726D01*
X368448Y285785D01*
X368407Y285816D01*
X368371Y285855D01*
X368308Y285889D01*
X368251Y285932D01*
X368201Y285948D01*
X368156Y285973D01*
X368085Y285986D01*
X368017Y286008D01*
X367965Y286008D01*
X367914Y286017D01*
X367843Y286007D01*
X367771Y286006D01*
X367702Y285986D01*
X367670Y285981D01*
X367650Y285971D01*
X367610Y285959D01*
X367171Y285777D01*
X364857Y285777D01*
X362720Y286663D01*
X361085Y288298D01*
X360199Y290435D01*
X360199Y292749D01*
X361085Y294886D01*
X362720Y296521D01*
X364857Y297407D01*
X367171Y297407D01*
X369308Y296521D01*
X370943Y294886D01*
X371829Y292749D01*
X371829Y291549D01*
X371831Y291533D01*
X371830Y291519D01*
X371841Y291470D01*
X371842Y291407D01*
X371860Y291358D01*
X371868Y291306D01*
X371881Y291282D01*
X371882Y291279D01*
X371890Y291266D01*
X371902Y291243D01*
X371927Y291176D01*
X371959Y291135D01*
X371984Y291089D01*
X372035Y291040D01*
X372080Y290983D01*
X372124Y290955D01*
X372162Y290919D01*
X372227Y290889D01*
X372287Y290851D01*
X372338Y290838D01*
X372385Y290816D01*
X372456Y290808D01*
X372526Y290790D01*
X372578Y290795D01*
X372629Y290789D01*
X372700Y290804D01*
X372771Y290810D01*
X372819Y290830D01*
X372870Y290841D01*
X372931Y290878D01*
X372997Y290906D01*
X373046Y290945D01*
X373060Y290952D01*
X373065Y290958D01*
X373081Y290967D01*
X373096Y290985D01*
X373128Y291011D01*
X373406Y291289D01*
X375367Y292101D01*
X377489Y292101D01*
X379450Y291289D01*
X380951Y289788D01*
X381763Y287827D01*
X381763Y285705D01*
X380951Y283744D01*
X379450Y282243D01*
X378931Y282028D01*
X378831Y281967D01*
X378731Y281907D01*
X378727Y281902D01*
X378722Y281899D01*
X378647Y281809D01*
X378571Y281720D01*
X378569Y281714D01*
X378565Y281709D01*
X378523Y281601D01*
X378479Y281492D01*
X378478Y281484D01*
X378477Y281480D01*
X378476Y281461D01*
X378461Y281325D01*
X378461Y280879D01*
X377649Y278918D01*
X376148Y277417D01*
X374187Y276605D01*
X372065Y276605D01*
G37*
%LPD*%
%LPC*%
G36*
X493500Y384651D02*
X493500Y384651D01*
X490174Y386029D01*
X487629Y388574D01*
X486251Y391900D01*
X486251Y395500D01*
X487629Y398826D01*
X490174Y401371D01*
X493500Y402749D01*
X497100Y402749D01*
X500426Y401371D01*
X502971Y398826D01*
X504349Y395500D01*
X504349Y391900D01*
X502971Y388574D01*
X500426Y386029D01*
X497100Y384651D01*
X493500Y384651D01*
G37*
%LPD*%
%LPC*%
G36*
X544300Y384651D02*
X544300Y384651D01*
X540974Y386029D01*
X538429Y388574D01*
X537051Y391900D01*
X537051Y395500D01*
X538429Y398826D01*
X540974Y401371D01*
X544300Y402749D01*
X547900Y402749D01*
X551226Y401371D01*
X553771Y398826D01*
X555149Y395500D01*
X555149Y391900D01*
X553771Y388574D01*
X551226Y386029D01*
X547900Y384651D01*
X544300Y384651D01*
G37*
%LPD*%
%LPC*%
G36*
X518900Y384651D02*
X518900Y384651D01*
X515574Y386029D01*
X513029Y388574D01*
X511651Y391900D01*
X511651Y395500D01*
X513029Y398826D01*
X515574Y401371D01*
X518900Y402749D01*
X522500Y402749D01*
X525826Y401371D01*
X528371Y398826D01*
X529749Y395500D01*
X529749Y391900D01*
X528371Y388574D01*
X525826Y386029D01*
X522500Y384651D01*
X518900Y384651D01*
G37*
%LPD*%
%LPC*%
G36*
X404884Y500379D02*
X404884Y500379D01*
X402083Y501539D01*
X399939Y503683D01*
X398779Y506484D01*
X398779Y509516D01*
X399939Y512317D01*
X402083Y514461D01*
X404884Y515621D01*
X407916Y515621D01*
X410717Y514461D01*
X412861Y512317D01*
X414021Y509516D01*
X414021Y506484D01*
X412861Y503683D01*
X410717Y501539D01*
X407916Y500379D01*
X404884Y500379D01*
G37*
%LPD*%
%LPC*%
G36*
X379484Y500379D02*
X379484Y500379D01*
X376683Y501539D01*
X374539Y503683D01*
X373379Y506484D01*
X373379Y509516D01*
X374539Y512317D01*
X376683Y514461D01*
X379484Y515621D01*
X382516Y515621D01*
X385317Y514461D01*
X387461Y512317D01*
X388621Y509516D01*
X388621Y506484D01*
X387461Y503683D01*
X385317Y501539D01*
X382516Y500379D01*
X379484Y500379D01*
G37*
%LPD*%
%LPC*%
G36*
X354084Y500379D02*
X354084Y500379D01*
X351283Y501539D01*
X349139Y503683D01*
X347979Y506484D01*
X347979Y509516D01*
X349139Y512317D01*
X351283Y514461D01*
X354084Y515621D01*
X357116Y515621D01*
X359917Y514461D01*
X362061Y512317D01*
X363221Y509516D01*
X363221Y506484D01*
X362061Y503683D01*
X359917Y501539D01*
X357116Y500379D01*
X354084Y500379D01*
G37*
%LPD*%
%LPC*%
G36*
X404884Y119379D02*
X404884Y119379D01*
X402083Y120539D01*
X399939Y122683D01*
X398779Y125484D01*
X398779Y128516D01*
X399939Y131317D01*
X402083Y133461D01*
X404884Y134621D01*
X407916Y134621D01*
X410717Y133461D01*
X412861Y131317D01*
X414021Y128516D01*
X414021Y125484D01*
X412861Y122683D01*
X410717Y120539D01*
X407916Y119379D01*
X404884Y119379D01*
G37*
%LPD*%
%LPC*%
G36*
X379484Y119379D02*
X379484Y119379D01*
X376683Y120539D01*
X374539Y122683D01*
X373379Y125484D01*
X373379Y128516D01*
X374539Y131317D01*
X376683Y133461D01*
X379484Y134621D01*
X382516Y134621D01*
X385317Y133461D01*
X387461Y131317D01*
X388621Y128516D01*
X388621Y125484D01*
X387461Y122683D01*
X385317Y120539D01*
X382516Y119379D01*
X379484Y119379D01*
G37*
%LPD*%
%LPC*%
G36*
X354084Y119379D02*
X354084Y119379D01*
X351283Y120539D01*
X349139Y122683D01*
X347979Y125484D01*
X347979Y128516D01*
X349139Y131317D01*
X351283Y133461D01*
X354084Y134621D01*
X357116Y134621D01*
X359917Y133461D01*
X362061Y131317D01*
X363221Y128516D01*
X363221Y125484D01*
X362061Y122683D01*
X359917Y120539D01*
X357116Y119379D01*
X354084Y119379D01*
G37*
%LPD*%
%LPC*%
G36*
X368667Y563907D02*
X368667Y563907D01*
X366530Y564793D01*
X364895Y566428D01*
X364009Y568565D01*
X364009Y570879D01*
X364895Y573016D01*
X366530Y574651D01*
X368667Y575537D01*
X370981Y575537D01*
X373118Y574651D01*
X374753Y573016D01*
X375639Y570879D01*
X375639Y568565D01*
X374753Y566428D01*
X373118Y564793D01*
X370981Y563907D01*
X368667Y563907D01*
G37*
%LPD*%
%LPC*%
G36*
X451217Y368327D02*
X451217Y368327D01*
X449080Y369213D01*
X447445Y370848D01*
X446559Y372985D01*
X446559Y375299D01*
X447445Y377436D01*
X449080Y379071D01*
X451217Y379957D01*
X453531Y379957D01*
X455668Y379071D01*
X457303Y377436D01*
X458189Y375299D01*
X458189Y372985D01*
X457303Y370848D01*
X455668Y369213D01*
X453531Y368327D01*
X451217Y368327D01*
G37*
%LPD*%
%LPC*%
G36*
X381621Y59971D02*
X381621Y59971D01*
X379484Y60857D01*
X377849Y62492D01*
X376963Y64629D01*
X376963Y66943D01*
X377849Y69080D01*
X379484Y70715D01*
X381621Y71601D01*
X383935Y71601D01*
X386072Y70715D01*
X387707Y69080D01*
X388593Y66943D01*
X388593Y64629D01*
X387707Y62492D01*
X386072Y60857D01*
X383935Y59971D01*
X381621Y59971D01*
G37*
%LPD*%
%LPC*%
G36*
X400163Y339625D02*
X400163Y339625D01*
X398026Y340511D01*
X396391Y342146D01*
X395505Y344283D01*
X395505Y346597D01*
X396391Y348734D01*
X398026Y350369D01*
X400163Y351255D01*
X402477Y351255D01*
X404614Y350369D01*
X406249Y348734D01*
X407135Y346597D01*
X407135Y344283D01*
X406249Y342146D01*
X404614Y340511D01*
X402477Y339625D01*
X400163Y339625D01*
G37*
%LPD*%
%LPC*%
G36*
X396353Y284253D02*
X396353Y284253D01*
X394216Y285139D01*
X392581Y286774D01*
X391695Y288911D01*
X391695Y291225D01*
X392581Y293362D01*
X394216Y294997D01*
X396353Y295883D01*
X398667Y295883D01*
X400804Y294997D01*
X402439Y293362D01*
X403325Y291225D01*
X403325Y288911D01*
X402439Y286774D01*
X400804Y285139D01*
X398667Y284253D01*
X396353Y284253D01*
G37*
%LPD*%
%LPC*%
G36*
X450963Y255297D02*
X450963Y255297D01*
X448826Y256183D01*
X447191Y257818D01*
X446305Y259955D01*
X446305Y262269D01*
X447191Y264406D01*
X448826Y266041D01*
X450963Y266927D01*
X453277Y266927D01*
X455414Y266041D01*
X457049Y264406D01*
X457935Y262269D01*
X457935Y259955D01*
X457049Y257818D01*
X455414Y256183D01*
X453277Y255297D01*
X450963Y255297D01*
G37*
%LPD*%
%LPC*%
G36*
X483317Y355345D02*
X483317Y355345D01*
X481356Y356157D01*
X479855Y357658D01*
X479043Y359619D01*
X479043Y361741D01*
X479855Y363702D01*
X481356Y365203D01*
X483317Y366015D01*
X485439Y366015D01*
X487400Y365203D01*
X488901Y363702D01*
X489713Y361741D01*
X489713Y359619D01*
X488901Y357658D01*
X487400Y356157D01*
X485439Y355345D01*
X483317Y355345D01*
G37*
%LPD*%
%LPC*%
G36*
X496823Y446023D02*
X496823Y446023D01*
X496823Y454577D01*
X497686Y454440D01*
X499212Y453944D01*
X500641Y453216D01*
X501939Y452273D01*
X503073Y451139D01*
X504016Y449841D01*
X504744Y448412D01*
X505240Y446886D01*
X505377Y446023D01*
X496823Y446023D01*
G37*
%LPD*%
%LPC*%
G36*
X485223Y446023D02*
X485223Y446023D01*
X485360Y446886D01*
X485856Y448412D01*
X486584Y449841D01*
X487527Y451139D01*
X488661Y452273D01*
X489959Y453216D01*
X491388Y453944D01*
X492914Y454440D01*
X493777Y454577D01*
X493777Y446023D01*
X485223Y446023D01*
G37*
%LPD*%
%LPC*%
G36*
X496823Y442977D02*
X496823Y442977D01*
X505377Y442977D01*
X505240Y442114D01*
X504744Y440588D01*
X504016Y439159D01*
X503073Y437861D01*
X501939Y436727D01*
X500641Y435784D01*
X499212Y435056D01*
X497686Y434560D01*
X496823Y434423D01*
X496823Y442977D01*
G37*
%LPD*%
%LPC*%
G36*
X492914Y434560D02*
X492914Y434560D01*
X491388Y435056D01*
X489959Y435784D01*
X488661Y436727D01*
X487527Y437861D01*
X486584Y439159D01*
X485856Y440588D01*
X485360Y442114D01*
X485223Y442977D01*
X493777Y442977D01*
X493777Y434423D01*
X492914Y434560D01*
G37*
%LPD*%
%LPC*%
G36*
X560323Y192023D02*
X560323Y192023D01*
X560323Y200425D01*
X561151Y200294D01*
X562654Y199805D01*
X564063Y199088D01*
X565341Y198159D01*
X566459Y197041D01*
X567388Y195763D01*
X568105Y194354D01*
X568594Y192851D01*
X568725Y192023D01*
X560323Y192023D01*
G37*
%LPD*%
%LPC*%
G36*
X560323Y188977D02*
X560323Y188977D01*
X568725Y188977D01*
X568594Y188149D01*
X568105Y186646D01*
X567388Y185237D01*
X566459Y183959D01*
X565341Y182841D01*
X564063Y181912D01*
X562654Y181195D01*
X561151Y180706D01*
X560323Y180575D01*
X560323Y188977D01*
G37*
%LPD*%
%LPC*%
G36*
X548875Y192023D02*
X548875Y192023D01*
X549006Y192851D01*
X549495Y194354D01*
X550212Y195763D01*
X551141Y197041D01*
X552259Y198159D01*
X553537Y199088D01*
X554946Y199805D01*
X556449Y200294D01*
X557277Y200425D01*
X557277Y192023D01*
X548875Y192023D01*
G37*
%LPD*%
%LPC*%
G36*
X556449Y180706D02*
X556449Y180706D01*
X554946Y181195D01*
X553537Y181912D01*
X552259Y182841D01*
X551141Y183959D01*
X550212Y185237D01*
X549495Y186646D01*
X549006Y188149D01*
X548875Y188977D01*
X557277Y188977D01*
X557277Y180575D01*
X556449Y180706D01*
G37*
%LPD*%
%LPC*%
G36*
X495299Y444499D02*
X495299Y444499D01*
X495299Y444501D01*
X495301Y444501D01*
X495301Y444499D01*
X495299Y444499D01*
G37*
%LPD*%
%LPC*%
G36*
X558799Y190499D02*
X558799Y190499D01*
X558799Y190501D01*
X558801Y190501D01*
X558801Y190499D01*
X558799Y190499D01*
G37*
%LPD*%
D10*
X355600Y127000D03*
X381000Y127000D03*
X406400Y127000D03*
X406400Y508000D03*
X381000Y508000D03*
X355600Y508000D03*
D11*
X520700Y393700D03*
X495300Y393700D03*
X546100Y393700D03*
D12*
X546100Y444500D03*
X495300Y444500D03*
D13*
X558800Y165100D03*
X558800Y190500D03*
D12*
X357378Y457200D03*
X331978Y457200D03*
X430276Y456946D03*
X404876Y456946D03*
X333248Y172720D03*
X358648Y172720D03*
X403098Y172212D03*
X428498Y172212D03*
D14*
X194616Y488876D03*
X207188Y476303D03*
X219761Y463731D03*
X232333Y451159D03*
X183121Y477381D03*
X195694Y464809D03*
X208266Y452236D03*
X220838Y439664D03*
X182044Y501448D03*
X169471Y514020D03*
X156899Y526593D03*
X144327Y539165D03*
X170549Y489953D03*
X157977Y502526D03*
X145404Y515098D03*
X132832Y527670D03*
X155821Y550660D03*
X167316Y562155D03*
X178990Y573829D03*
X192833Y562527D03*
X205405Y548684D03*
X217977Y536112D03*
X230550Y523539D03*
X132971Y107063D03*
X145543Y119635D03*
X158116Y132208D03*
X170688Y144780D03*
X183260Y157352D03*
X195833Y169925D03*
X208405Y182497D03*
X220977Y195069D03*
X144466Y95568D03*
X157038Y108141D03*
X169610Y120713D03*
X182183Y133285D03*
X194755Y145858D03*
X207327Y158430D03*
X219900Y171002D03*
X232472Y183575D03*
X121476Y118558D03*
X109981Y130052D03*
X98307Y141727D03*
X109609Y154299D03*
X122182Y166871D03*
X134754Y179444D03*
X147327Y193286D03*
D15*
X11430Y147320D03*
X24130Y147320D03*
X36830Y147320D03*
X49530Y147320D03*
X62230Y139700D03*
X74930Y130810D03*
X86360Y120650D03*
X96520Y110490D03*
X107950Y99060D03*
X118110Y88900D03*
X134620Y87630D03*
X10160Y106680D03*
X22860Y106680D03*
X35560Y106680D03*
X48260Y106680D03*
X59690Y111760D03*
X69850Y104140D03*
X81280Y92710D03*
X92710Y82550D03*
X109220Y66040D03*
X135890Y64770D03*
X156210Y64770D03*
X249936Y154178D03*
X254000Y175260D03*
X254000Y190500D03*
X252730Y201930D03*
X237490Y215900D03*
X227330Y215900D03*
X212090Y215900D03*
X246380Y224790D03*
X255270Y233680D03*
X8382Y360426D03*
X21082Y360426D03*
X35052Y360426D03*
X46990Y360680D03*
X26162Y304038D03*
X62230Y361950D03*
X76200Y368300D03*
X87630Y379730D03*
X91440Y397510D03*
X91440Y414020D03*
X91440Y426720D03*
X91440Y436880D03*
X102870Y448310D03*
X113030Y458470D03*
X120650Y464820D03*
X8128Y385318D03*
X20066Y385826D03*
X31750Y386080D03*
X46736Y385318D03*
X60960Y387350D03*
X68580Y392430D03*
X69850Y405130D03*
X69850Y417830D03*
X69850Y430530D03*
X71120Y445770D03*
X78740Y455930D03*
X87630Y464820D03*
X97790Y473710D03*
X102870Y481330D03*
X190500Y421894D03*
X205740Y419100D03*
X223520Y419100D03*
X238760Y419100D03*
X250190Y407670D03*
X262890Y394970D03*
X249936Y481330D03*
X252730Y468630D03*
X252730Y455930D03*
X252730Y443230D03*
X252730Y433070D03*
X261620Y422910D03*
X270510Y414020D03*
X278130Y406400D03*
X304800Y379730D03*
X303530Y353060D03*
X283210Y576580D03*
X283210Y551180D03*
X283210Y525780D03*
X283210Y500380D03*
X283210Y474980D03*
X283210Y462280D03*
X283210Y450850D03*
X295910Y427990D03*
X309880Y415290D03*
X386080Y363220D03*
X323850Y425450D03*
X313690Y434340D03*
X302260Y455930D03*
X402590Y355600D03*
X431800Y419100D03*
X453390Y403860D03*
X464820Y416560D03*
X453390Y429260D03*
X459740Y455930D03*
X477520Y455930D03*
X480060Y469900D03*
X478790Y485140D03*
X478282Y505460D03*
X477520Y521970D03*
X477520Y544830D03*
X477520Y570230D03*
X461010Y570230D03*
X461010Y544830D03*
X300990Y576580D03*
X300990Y551180D03*
X300990Y525780D03*
X300990Y500380D03*
X300228Y482854D03*
X461010Y520700D03*
X461010Y503174D03*
X461010Y486410D03*
X274320Y588010D03*
X274320Y604520D03*
X274320Y619760D03*
X309880Y588010D03*
X309880Y603250D03*
X309880Y619760D03*
X452120Y593090D03*
X450850Y608330D03*
X452120Y624840D03*
X487680Y591820D03*
X487680Y607060D03*
X487680Y623570D03*
X411480Y330200D03*
X420370Y337820D03*
X429260Y339090D03*
X422910Y317500D03*
X436880Y317500D03*
X410980Y304300D03*
X429260Y297180D03*
X515620Y292100D03*
X527050Y293370D03*
X542290Y293370D03*
X560070Y293370D03*
X554990Y316230D03*
X569468Y316484D03*
X573024Y293624D03*
X585216Y292862D03*
X597408Y292862D03*
X610362Y292608D03*
X582422Y316738D03*
X595884Y316992D03*
X607314Y316992D03*
X284480Y57150D03*
X284480Y95250D03*
X284480Y149860D03*
X278892Y164084D03*
X284480Y177800D03*
X284480Y191770D03*
X292100Y203200D03*
X281940Y229870D03*
X289560Y240030D03*
X299720Y247650D03*
X281940Y260350D03*
X288290Y265430D03*
X285750Y370840D03*
X294640Y363220D03*
X299720Y120650D03*
X299720Y148590D03*
X300990Y86360D03*
X299720Y58420D03*
X302260Y179070D03*
X303530Y189230D03*
X320040Y205740D03*
X309880Y219710D03*
X340360Y227330D03*
X349250Y236220D03*
X328930Y238760D03*
X344170Y255270D03*
X376936Y232918D03*
X386080Y273050D03*
X411480Y274320D03*
X426720Y223520D03*
X435610Y213360D03*
X448310Y209550D03*
X459740Y199390D03*
X459740Y182880D03*
X468630Y252730D03*
X429260Y255270D03*
X462280Y222250D03*
X476250Y207010D03*
X479552Y185420D03*
X482092Y164846D03*
X481330Y143510D03*
X483108Y121412D03*
X483108Y96012D03*
X483108Y70612D03*
X483108Y45212D03*
X459740Y148590D03*
X459740Y135890D03*
X459740Y110490D03*
X459740Y85090D03*
X459740Y59690D03*
X620522Y316992D03*
X622300Y292862D03*
X26162Y227838D03*
X127762Y291338D03*
X76962Y253238D03*
X140462Y354838D03*
X191262Y304038D03*
X89662Y189738D03*
X64262Y507238D03*
X26162Y507238D03*
X76962Y596138D03*
X521462Y519938D03*
X521462Y558038D03*
X546862Y532638D03*
X521462Y227838D03*
X597662Y138938D03*
X508762Y138938D03*
X584962Y215138D03*
X338074Y317500D03*
X321056Y323342D03*
X321056Y313690D03*
X304292Y332994D03*
X303276Y302006D03*
X343916Y271018D03*
X462534Y317500D03*
X474980Y317500D03*
X493522Y317754D03*
X442214Y232410D03*
X451866Y392938D03*
X415290Y287528D03*
X350774Y284988D03*
X322580Y402590D03*
X335280Y389890D03*
X340360Y379730D03*
X356870Y363220D03*
X410210Y424180D03*
X347980Y402590D03*
X335280Y415290D03*
X322072Y497840D03*
X417322Y400050D03*
X419100Y367030D03*
X427990Y381000D03*
X440690Y393700D03*
X284480Y120650D03*
X188468Y216154D03*
X175006Y226822D03*
X164338Y229108D03*
X155956Y222250D03*
X148590Y213868D03*
X140208Y205232D03*
X243078Y99060D03*
X252222Y107188D03*
X259842Y115062D03*
X267462Y122682D03*
X267462Y134366D03*
X258318Y146050D03*
X253492Y165100D03*
X144780Y445516D03*
X142240Y435356D03*
X147828Y427482D03*
X153162Y422148D03*
X160020Y414020D03*
X168148Y407416D03*
X177038Y409702D03*
X240792Y527304D03*
X248412Y520954D03*
X256032Y513588D03*
X263144Y504698D03*
X260858Y494792D03*
X444246Y339852D03*
X444246Y294894D03*
X456438Y34036D03*
X279400Y30480D03*
X304038Y26924D03*
X484632Y17780D03*
X203200Y434594D03*
X237236Y468630D03*
X203454Y200152D03*
X236982Y167132D03*
D16*
X38100Y596900D03*
X596900Y596900D03*
X38100Y38100D03*
X596900Y38100D03*
D15*
X521462Y75438D03*
X386080Y243840D03*
X385572Y392430D03*
D17*
X382778Y65786D03*
X452374Y374142D03*
X452120Y261112D03*
X397510Y290068D03*
X366014Y291592D03*
X364490Y343408D03*
X369824Y569722D03*
X401320Y345440D03*
D18*
X484378Y360680D03*
X376428Y286766D03*
X373126Y281940D03*
X371348Y352806D03*
X376682Y348742D03*
M02*
