G04 EAGLE Gerber RS-274X export*
G75*
%MOMM*%
%FSLAX34Y34*%
%LPD*%
%INBottom Copper*%
%IPPOS*%
%AMOC8*
5,1,8,0,0,1.08239X$1,22.5*%
G01*
%ADD10R,1.100000X1.000000*%
%ADD11R,5.080000X1.270000*%
%ADD12R,1.270000X5.080000*%
%ADD13C,0.914400*%
%ADD14C,1.200000*%
%ADD15C,1.530000*%
%ADD16R,2.540000X8.382000*%
%ADD17C,1.500000*%
%ADD18R,1.570000X1.570000*%
%ADD19C,1.570000*%
%ADD20C,0.762000*%
%ADD21C,0.558800*%
%ADD22C,6.350000*%
%ADD23C,0.553200*%
%ADD24C,0.203200*%
%ADD25C,0.457200*%

G36*
X635020Y-758D02*
X635020Y-758D01*
X635039Y-760D01*
X635141Y-738D01*
X635243Y-722D01*
X635260Y-712D01*
X635280Y-708D01*
X635369Y-655D01*
X635460Y-606D01*
X635474Y-592D01*
X635491Y-582D01*
X635558Y-503D01*
X635630Y-428D01*
X635638Y-410D01*
X635651Y-395D01*
X635690Y-299D01*
X635733Y-205D01*
X635735Y-185D01*
X635743Y-167D01*
X635761Y0D01*
X635761Y635000D01*
X635758Y635020D01*
X635760Y635039D01*
X635738Y635141D01*
X635722Y635243D01*
X635712Y635260D01*
X635708Y635280D01*
X635655Y635369D01*
X635606Y635460D01*
X635592Y635474D01*
X635582Y635491D01*
X635503Y635558D01*
X635428Y635630D01*
X635410Y635638D01*
X635395Y635651D01*
X635299Y635690D01*
X635205Y635733D01*
X635185Y635735D01*
X635167Y635743D01*
X635000Y635761D01*
X0Y635761D01*
X-20Y635758D01*
X-39Y635760D01*
X-141Y635738D01*
X-243Y635722D01*
X-260Y635712D01*
X-280Y635708D01*
X-369Y635655D01*
X-460Y635606D01*
X-474Y635592D01*
X-491Y635582D01*
X-558Y635503D01*
X-630Y635428D01*
X-638Y635410D01*
X-651Y635395D01*
X-690Y635299D01*
X-733Y635205D01*
X-735Y635185D01*
X-743Y635167D01*
X-761Y635000D01*
X-761Y0D01*
X-758Y-20D01*
X-760Y-39D01*
X-738Y-141D01*
X-722Y-243D01*
X-712Y-260D01*
X-708Y-280D01*
X-655Y-369D01*
X-606Y-460D01*
X-592Y-474D01*
X-582Y-491D01*
X-503Y-558D01*
X-428Y-630D01*
X-410Y-638D01*
X-395Y-651D01*
X-299Y-690D01*
X-205Y-733D01*
X-185Y-735D01*
X-167Y-743D01*
X0Y-761D01*
X635000Y-761D01*
X635020Y-758D01*
G37*
%LPC*%
G36*
X399759Y337593D02*
X399759Y337593D01*
X396875Y338788D01*
X394668Y340995D01*
X393473Y343879D01*
X393473Y347001D01*
X394668Y349885D01*
X396875Y352092D01*
X399759Y353287D01*
X402881Y353287D01*
X405765Y352092D01*
X406097Y351760D01*
X406171Y351707D01*
X406241Y351647D01*
X406271Y351635D01*
X406297Y351616D01*
X406384Y351589D01*
X406469Y351555D01*
X406510Y351551D01*
X406532Y351544D01*
X406564Y351545D01*
X406636Y351537D01*
X406861Y351537D01*
X406951Y351551D01*
X407042Y351559D01*
X407072Y351571D01*
X407104Y351576D01*
X407185Y351619D01*
X407269Y351655D01*
X407301Y351681D01*
X407321Y351692D01*
X407344Y351715D01*
X407400Y351760D01*
X421488Y365849D01*
X423729Y366777D01*
X446805Y366777D01*
X446875Y366788D01*
X446947Y366790D01*
X446996Y366808D01*
X447047Y366816D01*
X447111Y366850D01*
X447178Y366875D01*
X447219Y366907D01*
X447265Y366932D01*
X447314Y366984D01*
X447370Y367028D01*
X447398Y367072D01*
X447434Y367110D01*
X447464Y367175D01*
X447503Y367235D01*
X447516Y367286D01*
X447538Y367333D01*
X447546Y367404D01*
X447563Y367474D01*
X447559Y367526D01*
X447565Y367577D01*
X447549Y367648D01*
X447544Y367719D01*
X447524Y367767D01*
X447512Y367818D01*
X447476Y367879D01*
X447448Y367945D01*
X447403Y368001D01*
X447386Y368029D01*
X447369Y368044D01*
X447343Y368076D01*
X445722Y369697D01*
X444527Y372581D01*
X444527Y375703D01*
X445722Y378587D01*
X447929Y380794D01*
X450813Y381989D01*
X453935Y381989D01*
X456819Y380794D01*
X459026Y378587D01*
X460221Y375703D01*
X460221Y372581D01*
X459026Y369697D01*
X457405Y368076D01*
X457363Y368018D01*
X457314Y367966D01*
X457292Y367919D01*
X457262Y367877D01*
X457241Y367808D01*
X457210Y367743D01*
X457205Y367691D01*
X457189Y367641D01*
X457191Y367570D01*
X457183Y367499D01*
X457194Y367448D01*
X457196Y367396D01*
X457220Y367328D01*
X457236Y367258D01*
X457262Y367213D01*
X457280Y367165D01*
X457325Y367109D01*
X457362Y367047D01*
X457401Y367013D01*
X457434Y366973D01*
X457494Y366934D01*
X457549Y366887D01*
X457597Y366868D01*
X457641Y366840D01*
X457710Y366822D01*
X457777Y366795D01*
X457848Y366787D01*
X457879Y366779D01*
X457903Y366781D01*
X457943Y366777D01*
X479741Y366777D01*
X479831Y366791D01*
X479922Y366799D01*
X479952Y366811D01*
X479984Y366816D01*
X480065Y366859D01*
X480149Y366895D01*
X480167Y366909D01*
X482913Y368047D01*
X485843Y368047D01*
X488551Y366925D01*
X490623Y364853D01*
X491745Y362145D01*
X491745Y359215D01*
X490623Y356507D01*
X488551Y354435D01*
X485843Y353313D01*
X482913Y353313D01*
X480158Y354454D01*
X480136Y354473D01*
X480106Y354485D01*
X480080Y354504D01*
X479993Y354531D01*
X479908Y354565D01*
X479867Y354569D01*
X479845Y354576D01*
X479813Y354575D01*
X479741Y354583D01*
X427783Y354583D01*
X427693Y354569D01*
X427602Y354561D01*
X427572Y354549D01*
X427540Y354544D01*
X427459Y354501D01*
X427375Y354465D01*
X427343Y354439D01*
X427323Y354428D01*
X427300Y354405D01*
X427244Y354360D01*
X413156Y340271D01*
X410915Y339343D01*
X406636Y339343D01*
X406545Y339329D01*
X406455Y339321D01*
X406425Y339309D01*
X406393Y339304D01*
X406312Y339261D01*
X406228Y339225D01*
X406196Y339199D01*
X406175Y339188D01*
X406153Y339165D01*
X406097Y339120D01*
X405765Y338788D01*
X402881Y337593D01*
X399759Y337593D01*
G37*
%LPD*%
%LPC*%
G36*
X362929Y335561D02*
X362929Y335561D01*
X360045Y336756D01*
X357838Y338963D01*
X356643Y341847D01*
X356643Y344969D01*
X357838Y347853D01*
X360045Y350060D01*
X362929Y351255D01*
X363220Y351255D01*
X363240Y351258D01*
X363259Y351256D01*
X363361Y351278D01*
X363463Y351294D01*
X363480Y351304D01*
X363500Y351308D01*
X363589Y351361D01*
X363680Y351410D01*
X363694Y351424D01*
X363711Y351434D01*
X363778Y351513D01*
X363850Y351588D01*
X363858Y351606D01*
X363871Y351621D01*
X363910Y351717D01*
X363953Y351811D01*
X363955Y351831D01*
X363963Y351849D01*
X363981Y352016D01*
X363981Y354271D01*
X365122Y357026D01*
X365141Y357048D01*
X365153Y357078D01*
X365172Y357104D01*
X365199Y357191D01*
X365233Y357276D01*
X365237Y357317D01*
X365244Y357339D01*
X365243Y357371D01*
X365251Y357443D01*
X365251Y370275D01*
X365960Y371985D01*
X365969Y372024D01*
X365979Y372046D01*
X365984Y372088D01*
X365986Y372099D01*
X366015Y372212D01*
X366014Y372218D01*
X366016Y372224D01*
X366005Y372341D01*
X365996Y372457D01*
X365993Y372463D01*
X365993Y372469D01*
X365945Y372576D01*
X365899Y372683D01*
X365895Y372689D01*
X365893Y372694D01*
X365880Y372707D01*
X365795Y372814D01*
X364967Y373641D01*
X364967Y387851D01*
X367943Y390827D01*
X383152Y390827D01*
X383510Y390470D01*
X383526Y390458D01*
X383538Y390442D01*
X383625Y390386D01*
X383709Y390326D01*
X383728Y390320D01*
X383745Y390309D01*
X383846Y390284D01*
X383945Y390254D01*
X383964Y390254D01*
X383984Y390249D01*
X384087Y390257D01*
X384190Y390260D01*
X384209Y390267D01*
X384229Y390268D01*
X384324Y390309D01*
X384421Y390344D01*
X384437Y390357D01*
X384455Y390365D01*
X384586Y390470D01*
X384943Y390827D01*
X400153Y390827D01*
X403129Y387851D01*
X403129Y373641D01*
X400153Y370665D01*
X396113Y370665D01*
X396023Y370651D01*
X395932Y370643D01*
X395902Y370631D01*
X395870Y370626D01*
X395789Y370583D01*
X395705Y370547D01*
X395673Y370521D01*
X395653Y370510D01*
X395630Y370487D01*
X395574Y370442D01*
X392582Y367449D01*
X390341Y366521D01*
X386127Y366521D01*
X386037Y366507D01*
X385946Y366499D01*
X385916Y366487D01*
X385884Y366482D01*
X385803Y366439D01*
X385719Y366403D01*
X385687Y366377D01*
X385667Y366366D01*
X385644Y366343D01*
X385588Y366298D01*
X383002Y363712D01*
X382949Y363638D01*
X382889Y363568D01*
X382877Y363538D01*
X382858Y363512D01*
X382831Y363425D01*
X382797Y363340D01*
X382793Y363299D01*
X382786Y363277D01*
X382787Y363245D01*
X382779Y363173D01*
X382779Y353379D01*
X382793Y353289D01*
X382801Y353198D01*
X382813Y353168D01*
X382818Y353136D01*
X382861Y353055D01*
X382897Y352971D01*
X382911Y352953D01*
X384049Y350207D01*
X384049Y347277D01*
X382927Y344569D01*
X380855Y342497D01*
X378147Y341375D01*
X375217Y341375D01*
X373295Y342171D01*
X373276Y342176D01*
X373258Y342185D01*
X373156Y342204D01*
X373055Y342227D01*
X373036Y342226D01*
X373016Y342229D01*
X372913Y342214D01*
X372811Y342204D01*
X372792Y342196D01*
X372773Y342193D01*
X372680Y342146D01*
X372586Y342104D01*
X372571Y342091D01*
X372553Y342082D01*
X372481Y342008D01*
X372405Y341938D01*
X372395Y341920D01*
X372381Y341906D01*
X372300Y341759D01*
X371142Y338963D01*
X368935Y336756D01*
X366051Y335561D01*
X362929Y335561D01*
G37*
%LPD*%
%LPC*%
G36*
X369467Y248745D02*
X369467Y248745D01*
X366491Y251721D01*
X366491Y265931D01*
X369471Y268910D01*
X369472Y268910D01*
X369491Y268908D01*
X369593Y268930D01*
X369695Y268946D01*
X369712Y268956D01*
X369732Y268960D01*
X369821Y269013D01*
X369912Y269062D01*
X369926Y269076D01*
X369943Y269086D01*
X370010Y269165D01*
X370082Y269240D01*
X370090Y269258D01*
X370103Y269273D01*
X370142Y269369D01*
X370185Y269463D01*
X370187Y269483D01*
X370195Y269501D01*
X370213Y269668D01*
X370213Y274664D01*
X370194Y274779D01*
X370177Y274895D01*
X370175Y274901D01*
X370174Y274907D01*
X370119Y275010D01*
X370066Y275114D01*
X370061Y275119D01*
X370058Y275124D01*
X369974Y275204D01*
X369890Y275287D01*
X369884Y275290D01*
X369880Y275294D01*
X369863Y275301D01*
X369743Y275367D01*
X368953Y275695D01*
X366881Y277767D01*
X365759Y280475D01*
X365759Y282984D01*
X365756Y283004D01*
X365758Y283023D01*
X365736Y283125D01*
X365720Y283227D01*
X365710Y283244D01*
X365706Y283264D01*
X365653Y283353D01*
X365604Y283444D01*
X365590Y283458D01*
X365580Y283475D01*
X365501Y283542D01*
X365426Y283614D01*
X365408Y283622D01*
X365393Y283635D01*
X365297Y283674D01*
X365203Y283717D01*
X365183Y283719D01*
X365165Y283727D01*
X364998Y283745D01*
X364453Y283745D01*
X361569Y284940D01*
X359362Y287147D01*
X358167Y290031D01*
X358167Y293153D01*
X359362Y296037D01*
X361569Y298244D01*
X364453Y299439D01*
X367575Y299439D01*
X370459Y298244D01*
X372666Y296037D01*
X373384Y294303D01*
X373395Y294286D01*
X373400Y294267D01*
X373459Y294182D01*
X373495Y294125D01*
X373502Y294113D01*
X373502Y294112D01*
X373514Y294094D01*
X373529Y294081D01*
X373541Y294065D01*
X373624Y294003D01*
X373703Y293937D01*
X373722Y293930D01*
X373738Y293918D01*
X373836Y293886D01*
X373933Y293849D01*
X373953Y293848D01*
X373972Y293842D01*
X374075Y293843D01*
X374179Y293838D01*
X374198Y293844D01*
X374218Y293844D01*
X374343Y293881D01*
X374353Y293882D01*
X374359Y293885D01*
X374379Y293891D01*
X374963Y294133D01*
X377893Y294133D01*
X380601Y293011D01*
X382673Y290939D01*
X383814Y288184D01*
X383817Y288156D01*
X383829Y288126D01*
X383834Y288094D01*
X383877Y288013D01*
X383913Y287929D01*
X383939Y287897D01*
X383950Y287877D01*
X383973Y287854D01*
X384018Y287798D01*
X384899Y286918D01*
X385827Y284677D01*
X385827Y273558D01*
X385830Y273538D01*
X385828Y273519D01*
X385850Y273417D01*
X385866Y273315D01*
X385876Y273298D01*
X385880Y273278D01*
X385933Y273189D01*
X385982Y273098D01*
X385996Y273084D01*
X386006Y273067D01*
X386085Y273000D01*
X386160Y272928D01*
X386178Y272920D01*
X386193Y272907D01*
X386289Y272868D01*
X386383Y272825D01*
X386403Y272823D01*
X386421Y272815D01*
X386588Y272797D01*
X393389Y272797D01*
X395630Y271869D01*
X398368Y269130D01*
X398442Y269077D01*
X398512Y269017D01*
X398542Y269005D01*
X398568Y268986D01*
X398655Y268959D01*
X398740Y268925D01*
X398781Y268921D01*
X398803Y268914D01*
X398835Y268915D01*
X398907Y268907D01*
X401677Y268907D01*
X404653Y265931D01*
X404653Y251721D01*
X401677Y248745D01*
X386467Y248745D01*
X386110Y249102D01*
X386094Y249114D01*
X386082Y249130D01*
X385995Y249186D01*
X385911Y249246D01*
X385892Y249252D01*
X385875Y249263D01*
X385774Y249288D01*
X385675Y249318D01*
X385656Y249318D01*
X385636Y249323D01*
X385533Y249315D01*
X385430Y249312D01*
X385411Y249305D01*
X385391Y249304D01*
X385296Y249263D01*
X385199Y249228D01*
X385183Y249215D01*
X385165Y249207D01*
X385034Y249102D01*
X384676Y248745D01*
X369467Y248745D01*
G37*
%LPD*%
%LPC*%
G36*
X329406Y444269D02*
X329406Y444269D01*
X324653Y446238D01*
X321016Y449875D01*
X319047Y454628D01*
X319047Y459772D01*
X321016Y464525D01*
X324653Y468162D01*
X329406Y470131D01*
X334550Y470131D01*
X339303Y468162D01*
X342940Y464525D01*
X342983Y464422D01*
X343034Y464339D01*
X343080Y464253D01*
X343098Y464235D01*
X343112Y464213D01*
X343187Y464151D01*
X343258Y464084D01*
X343282Y464073D01*
X343302Y464056D01*
X343393Y464021D01*
X343481Y463980D01*
X343507Y463977D01*
X343531Y463968D01*
X343629Y463964D01*
X343725Y463953D01*
X343751Y463959D01*
X343777Y463957D01*
X343871Y463985D01*
X343966Y464005D01*
X343988Y464019D01*
X344013Y464026D01*
X344093Y464081D01*
X344177Y464131D01*
X344194Y464151D01*
X344215Y464166D01*
X344274Y464244D01*
X344337Y464318D01*
X344347Y464343D01*
X344362Y464364D01*
X344392Y464456D01*
X344429Y464546D01*
X344432Y464579D01*
X344438Y464597D01*
X344438Y464630D01*
X344447Y464713D01*
X344447Y467155D01*
X347423Y470131D01*
X367333Y470131D01*
X370309Y467155D01*
X370309Y447245D01*
X367333Y444269D01*
X347423Y444269D01*
X344447Y447245D01*
X344447Y449687D01*
X344432Y449783D01*
X344422Y449880D01*
X344412Y449904D01*
X344408Y449930D01*
X344362Y450016D01*
X344322Y450105D01*
X344305Y450124D01*
X344292Y450147D01*
X344222Y450214D01*
X344156Y450286D01*
X344133Y450298D01*
X344114Y450316D01*
X344026Y450357D01*
X343940Y450404D01*
X343915Y450409D01*
X343891Y450420D01*
X343794Y450431D01*
X343698Y450448D01*
X343672Y450444D01*
X343647Y450447D01*
X343551Y450426D01*
X343455Y450412D01*
X343432Y450400D01*
X343406Y450395D01*
X343323Y450345D01*
X343236Y450301D01*
X343217Y450282D01*
X343195Y450269D01*
X343132Y450195D01*
X343064Y450125D01*
X343048Y450096D01*
X343035Y450082D01*
X343023Y450051D01*
X342983Y449978D01*
X342940Y449875D01*
X339303Y446238D01*
X334550Y444269D01*
X329406Y444269D01*
G37*
%LPD*%
%LPC*%
G36*
X402304Y444015D02*
X402304Y444015D01*
X397551Y445984D01*
X393914Y449621D01*
X391945Y454374D01*
X391945Y459518D01*
X393914Y464271D01*
X397551Y467908D01*
X402304Y469877D01*
X407448Y469877D01*
X412201Y467908D01*
X415838Y464271D01*
X415881Y464168D01*
X415932Y464085D01*
X415978Y463999D01*
X415996Y463981D01*
X416010Y463959D01*
X416085Y463897D01*
X416156Y463830D01*
X416180Y463819D01*
X416200Y463802D01*
X416291Y463767D01*
X416379Y463726D01*
X416405Y463723D01*
X416429Y463714D01*
X416527Y463710D01*
X416623Y463699D01*
X416649Y463705D01*
X416675Y463703D01*
X416769Y463731D01*
X416864Y463751D01*
X416886Y463765D01*
X416911Y463772D01*
X416991Y463827D01*
X417075Y463877D01*
X417092Y463897D01*
X417113Y463912D01*
X417172Y463990D01*
X417235Y464064D01*
X417245Y464089D01*
X417260Y464110D01*
X417290Y464202D01*
X417327Y464292D01*
X417330Y464325D01*
X417336Y464343D01*
X417336Y464376D01*
X417345Y464459D01*
X417345Y466901D01*
X420321Y469877D01*
X440231Y469877D01*
X443207Y466901D01*
X443207Y446991D01*
X440231Y444015D01*
X420321Y444015D01*
X417345Y446991D01*
X417345Y449433D01*
X417330Y449529D01*
X417320Y449626D01*
X417310Y449650D01*
X417306Y449676D01*
X417260Y449762D01*
X417220Y449851D01*
X417203Y449870D01*
X417190Y449893D01*
X417120Y449960D01*
X417054Y450032D01*
X417031Y450044D01*
X417012Y450062D01*
X416924Y450103D01*
X416838Y450150D01*
X416813Y450155D01*
X416789Y450166D01*
X416692Y450177D01*
X416596Y450194D01*
X416570Y450190D01*
X416545Y450193D01*
X416449Y450172D01*
X416353Y450158D01*
X416330Y450146D01*
X416304Y450141D01*
X416221Y450091D01*
X416134Y450047D01*
X416115Y450028D01*
X416093Y450015D01*
X416030Y449941D01*
X415962Y449871D01*
X415946Y449842D01*
X415933Y449828D01*
X415921Y449797D01*
X415881Y449724D01*
X415838Y449621D01*
X412201Y445984D01*
X407448Y444015D01*
X402304Y444015D01*
G37*
%LPD*%
%LPC*%
G36*
X323293Y159789D02*
X323293Y159789D01*
X320317Y162765D01*
X320317Y182675D01*
X323293Y185651D01*
X343203Y185651D01*
X346179Y182675D01*
X346179Y180233D01*
X346194Y180137D01*
X346204Y180040D01*
X346214Y180016D01*
X346218Y179990D01*
X346264Y179904D01*
X346304Y179815D01*
X346321Y179796D01*
X346334Y179773D01*
X346404Y179706D01*
X346470Y179634D01*
X346493Y179622D01*
X346512Y179604D01*
X346600Y179563D01*
X346686Y179516D01*
X346711Y179511D01*
X346735Y179500D01*
X346832Y179489D01*
X346928Y179472D01*
X346954Y179476D01*
X346979Y179473D01*
X347075Y179494D01*
X347171Y179508D01*
X347194Y179520D01*
X347220Y179525D01*
X347303Y179575D01*
X347390Y179619D01*
X347409Y179638D01*
X347431Y179651D01*
X347494Y179725D01*
X347562Y179795D01*
X347578Y179824D01*
X347591Y179838D01*
X347603Y179869D01*
X347643Y179942D01*
X347686Y180045D01*
X351323Y183682D01*
X356076Y185651D01*
X361220Y185651D01*
X365973Y183682D01*
X369610Y180045D01*
X371579Y175292D01*
X371579Y170148D01*
X369610Y165395D01*
X365973Y161758D01*
X361220Y159789D01*
X356076Y159789D01*
X351323Y161758D01*
X347686Y165395D01*
X347643Y165498D01*
X347592Y165581D01*
X347546Y165667D01*
X347528Y165685D01*
X347514Y165707D01*
X347439Y165769D01*
X347368Y165836D01*
X347344Y165847D01*
X347324Y165864D01*
X347233Y165899D01*
X347145Y165940D01*
X347119Y165943D01*
X347095Y165952D01*
X346997Y165956D01*
X346901Y165967D01*
X346875Y165961D01*
X346849Y165963D01*
X346755Y165935D01*
X346660Y165915D01*
X346638Y165901D01*
X346613Y165894D01*
X346533Y165839D01*
X346449Y165789D01*
X346432Y165769D01*
X346411Y165754D01*
X346352Y165676D01*
X346289Y165602D01*
X346279Y165577D01*
X346264Y165556D01*
X346234Y165464D01*
X346197Y165374D01*
X346194Y165341D01*
X346188Y165323D01*
X346188Y165290D01*
X346179Y165207D01*
X346179Y162765D01*
X343203Y159789D01*
X323293Y159789D01*
G37*
%LPD*%
%LPC*%
G36*
X393143Y159281D02*
X393143Y159281D01*
X390167Y162257D01*
X390167Y182167D01*
X393143Y185143D01*
X413053Y185143D01*
X416029Y182167D01*
X416029Y179725D01*
X416044Y179629D01*
X416054Y179532D01*
X416064Y179508D01*
X416068Y179482D01*
X416114Y179396D01*
X416154Y179307D01*
X416171Y179288D01*
X416184Y179265D01*
X416254Y179198D01*
X416320Y179126D01*
X416343Y179114D01*
X416362Y179096D01*
X416450Y179055D01*
X416536Y179008D01*
X416561Y179003D01*
X416585Y178992D01*
X416682Y178981D01*
X416778Y178964D01*
X416804Y178968D01*
X416829Y178965D01*
X416925Y178986D01*
X417021Y179000D01*
X417044Y179012D01*
X417070Y179017D01*
X417153Y179067D01*
X417240Y179111D01*
X417259Y179130D01*
X417281Y179143D01*
X417344Y179217D01*
X417412Y179287D01*
X417428Y179316D01*
X417441Y179330D01*
X417453Y179361D01*
X417493Y179434D01*
X417536Y179537D01*
X421173Y183174D01*
X425926Y185143D01*
X431070Y185143D01*
X435823Y183174D01*
X439460Y179537D01*
X441429Y174784D01*
X441429Y169640D01*
X439460Y164887D01*
X435823Y161250D01*
X431070Y159281D01*
X425926Y159281D01*
X421173Y161250D01*
X417536Y164887D01*
X417493Y164990D01*
X417442Y165073D01*
X417396Y165159D01*
X417378Y165177D01*
X417364Y165199D01*
X417289Y165261D01*
X417218Y165328D01*
X417194Y165339D01*
X417174Y165356D01*
X417083Y165391D01*
X416995Y165432D01*
X416969Y165435D01*
X416945Y165444D01*
X416847Y165448D01*
X416751Y165459D01*
X416725Y165453D01*
X416699Y165455D01*
X416605Y165427D01*
X416510Y165407D01*
X416488Y165393D01*
X416463Y165386D01*
X416383Y165331D01*
X416299Y165281D01*
X416282Y165261D01*
X416261Y165246D01*
X416202Y165168D01*
X416139Y165094D01*
X416129Y165069D01*
X416114Y165048D01*
X416084Y164956D01*
X416047Y164866D01*
X416044Y164833D01*
X416038Y164815D01*
X416038Y164782D01*
X416029Y164699D01*
X416029Y162257D01*
X413053Y159281D01*
X393143Y159281D01*
G37*
%LPD*%
%LPC*%
G36*
X548798Y152519D02*
X548798Y152519D01*
X544174Y154435D01*
X540635Y157974D01*
X538719Y162598D01*
X538719Y167602D01*
X540635Y172226D01*
X544174Y175765D01*
X548798Y177681D01*
X568802Y177681D01*
X573426Y175765D01*
X576965Y172226D01*
X578881Y167602D01*
X578881Y162598D01*
X576965Y157974D01*
X573426Y154435D01*
X568802Y152519D01*
X548798Y152519D01*
G37*
%LPD*%
%LPC*%
G36*
X543568Y431769D02*
X543568Y431769D01*
X538889Y433707D01*
X535307Y437289D01*
X533369Y441968D01*
X533369Y447032D01*
X535307Y451711D01*
X538889Y455293D01*
X543568Y457231D01*
X548632Y457231D01*
X553311Y455293D01*
X556893Y451711D01*
X558831Y447032D01*
X558831Y441968D01*
X556893Y437289D01*
X553311Y433707D01*
X548632Y431769D01*
X543568Y431769D01*
G37*
%LPD*%
%LPC*%
G36*
X493096Y382619D02*
X493096Y382619D01*
X489023Y384306D01*
X485906Y387423D01*
X484219Y391496D01*
X484219Y395904D01*
X485906Y399977D01*
X489023Y403094D01*
X493096Y404781D01*
X497504Y404781D01*
X501577Y403094D01*
X504694Y399977D01*
X506381Y395904D01*
X506381Y391496D01*
X504694Y387423D01*
X501577Y384306D01*
X497504Y382619D01*
X493096Y382619D01*
G37*
%LPD*%
%LPC*%
G36*
X518496Y382619D02*
X518496Y382619D01*
X514423Y384306D01*
X511306Y387423D01*
X509619Y391496D01*
X509619Y395904D01*
X511306Y399977D01*
X514423Y403094D01*
X518496Y404781D01*
X522904Y404781D01*
X526977Y403094D01*
X530094Y399977D01*
X531781Y395904D01*
X531781Y391496D01*
X530094Y387423D01*
X526977Y384306D01*
X522904Y382619D01*
X518496Y382619D01*
G37*
%LPD*%
%LPC*%
G36*
X543896Y382619D02*
X543896Y382619D01*
X539823Y384306D01*
X536706Y387423D01*
X535019Y391496D01*
X535019Y395904D01*
X536706Y399977D01*
X539823Y403094D01*
X543896Y404781D01*
X548304Y404781D01*
X552377Y403094D01*
X555494Y399977D01*
X557181Y395904D01*
X557181Y391496D01*
X555494Y387423D01*
X552377Y384306D01*
X548304Y382619D01*
X543896Y382619D01*
G37*
%LPD*%
%LPC*%
G36*
X379080Y498347D02*
X379080Y498347D01*
X375532Y499817D01*
X372817Y502532D01*
X371347Y506080D01*
X371347Y509920D01*
X372817Y513468D01*
X375532Y516183D01*
X379080Y517653D01*
X382920Y517653D01*
X386468Y516183D01*
X389183Y513468D01*
X390653Y509920D01*
X390653Y506080D01*
X389183Y502532D01*
X386468Y499817D01*
X382920Y498347D01*
X379080Y498347D01*
G37*
%LPD*%
%LPC*%
G36*
X353680Y498347D02*
X353680Y498347D01*
X350132Y499817D01*
X347417Y502532D01*
X345947Y506080D01*
X345947Y509920D01*
X347417Y513468D01*
X350132Y516183D01*
X353680Y517653D01*
X357520Y517653D01*
X361068Y516183D01*
X363783Y513468D01*
X365253Y509920D01*
X365253Y506080D01*
X363783Y502532D01*
X361068Y499817D01*
X357520Y498347D01*
X353680Y498347D01*
G37*
%LPD*%
%LPC*%
G36*
X404480Y498347D02*
X404480Y498347D01*
X400932Y499817D01*
X398217Y502532D01*
X396747Y506080D01*
X396747Y509920D01*
X398217Y513468D01*
X400932Y516183D01*
X404480Y517653D01*
X408320Y517653D01*
X411868Y516183D01*
X414583Y513468D01*
X416053Y509920D01*
X416053Y506080D01*
X414583Y502532D01*
X411868Y499817D01*
X408320Y498347D01*
X404480Y498347D01*
G37*
%LPD*%
%LPC*%
G36*
X404480Y117347D02*
X404480Y117347D01*
X400932Y118817D01*
X398217Y121532D01*
X396747Y125080D01*
X396747Y128920D01*
X398217Y132468D01*
X400932Y135183D01*
X404480Y136653D01*
X408320Y136653D01*
X411868Y135183D01*
X414583Y132468D01*
X416053Y128920D01*
X416053Y125080D01*
X414583Y121532D01*
X411868Y118817D01*
X408320Y117347D01*
X404480Y117347D01*
G37*
%LPD*%
%LPC*%
G36*
X379080Y117347D02*
X379080Y117347D01*
X375532Y118817D01*
X372817Y121532D01*
X371347Y125080D01*
X371347Y128920D01*
X372817Y132468D01*
X375532Y135183D01*
X379080Y136653D01*
X382920Y136653D01*
X386468Y135183D01*
X389183Y132468D01*
X390653Y128920D01*
X390653Y125080D01*
X389183Y121532D01*
X386468Y118817D01*
X382920Y117347D01*
X379080Y117347D01*
G37*
%LPD*%
%LPC*%
G36*
X353680Y117347D02*
X353680Y117347D01*
X350132Y118817D01*
X347417Y121532D01*
X345947Y125080D01*
X345947Y128920D01*
X347417Y132468D01*
X350132Y135183D01*
X353680Y136653D01*
X357520Y136653D01*
X361068Y135183D01*
X363783Y132468D01*
X365253Y128920D01*
X365253Y125080D01*
X363783Y121532D01*
X361068Y118817D01*
X357520Y117347D01*
X353680Y117347D01*
G37*
%LPD*%
%LPC*%
G36*
X368263Y561875D02*
X368263Y561875D01*
X365379Y563070D01*
X363172Y565277D01*
X361977Y568161D01*
X361977Y571283D01*
X363172Y574167D01*
X365379Y576374D01*
X368263Y577569D01*
X371385Y577569D01*
X374269Y576374D01*
X376476Y574167D01*
X377671Y571283D01*
X377671Y568161D01*
X376476Y565277D01*
X374269Y563070D01*
X371385Y561875D01*
X368263Y561875D01*
G37*
%LPD*%
%LPC*%
G36*
X395949Y282221D02*
X395949Y282221D01*
X393065Y283416D01*
X390858Y285623D01*
X389663Y288507D01*
X389663Y291629D01*
X390858Y294513D01*
X393065Y296720D01*
X395949Y297915D01*
X399071Y297915D01*
X401955Y296720D01*
X404162Y294513D01*
X405357Y291629D01*
X405357Y288507D01*
X404162Y285623D01*
X401955Y283416D01*
X399071Y282221D01*
X395949Y282221D01*
G37*
%LPD*%
%LPC*%
G36*
X450559Y253265D02*
X450559Y253265D01*
X447675Y254460D01*
X445468Y256667D01*
X444273Y259551D01*
X444273Y262673D01*
X445468Y265557D01*
X447675Y267764D01*
X450559Y268959D01*
X453681Y268959D01*
X456565Y267764D01*
X458772Y265557D01*
X459967Y262673D01*
X459967Y259551D01*
X458772Y256667D01*
X456565Y254460D01*
X453681Y253265D01*
X450559Y253265D01*
G37*
%LPD*%
%LPC*%
G36*
X381217Y57939D02*
X381217Y57939D01*
X378333Y59134D01*
X376126Y61341D01*
X374931Y64225D01*
X374931Y67347D01*
X376126Y70231D01*
X378333Y72438D01*
X381217Y73633D01*
X384339Y73633D01*
X387223Y72438D01*
X389430Y70231D01*
X390625Y67347D01*
X390625Y64225D01*
X389430Y61341D01*
X387223Y59134D01*
X384339Y57939D01*
X381217Y57939D01*
G37*
%LPD*%
D10*
X375548Y380746D03*
X392548Y380746D03*
X377072Y258826D03*
X394072Y258826D03*
D11*
X609600Y525145D03*
X609600Y440055D03*
D12*
X427355Y609600D03*
X512445Y609600D03*
X249555Y609600D03*
X334645Y609600D03*
X512445Y25400D03*
X427355Y25400D03*
X334645Y25400D03*
X249555Y25400D03*
D13*
X355600Y127000D03*
X381000Y127000D03*
X406400Y127000D03*
X406400Y508000D03*
X381000Y508000D03*
X355600Y508000D03*
D14*
X520700Y393700D03*
X495300Y393700D03*
X546100Y393700D03*
D15*
X546100Y444500D03*
X495300Y444500D03*
D16*
X11430Y374904D03*
X12700Y127000D03*
X622300Y304800D03*
D17*
X566300Y165100D02*
X551300Y165100D01*
X551300Y190500D02*
X566300Y190500D01*
D18*
X357378Y457200D03*
D19*
X331978Y457200D03*
D18*
X430276Y456946D03*
D19*
X404876Y456946D03*
D18*
X333248Y172720D03*
D19*
X358648Y172720D03*
D18*
X403098Y172212D03*
D19*
X428498Y172212D03*
D20*
X194616Y488876D03*
X207188Y476303D03*
X219761Y463731D03*
X232333Y451159D03*
X183121Y477381D03*
X195694Y464809D03*
X208266Y452236D03*
X220838Y439664D03*
X182044Y501448D03*
X169471Y514020D03*
X156899Y526593D03*
X144327Y539165D03*
X170549Y489953D03*
X157977Y502526D03*
X145404Y515098D03*
X132832Y527670D03*
X155821Y550660D03*
X167316Y562155D03*
X178990Y573829D03*
X192833Y562527D03*
X205405Y548684D03*
X217977Y536112D03*
X230550Y523539D03*
X132971Y107063D03*
X145543Y119635D03*
X158116Y132208D03*
X170688Y144780D03*
X183260Y157352D03*
X195833Y169925D03*
X208405Y182497D03*
X220977Y195069D03*
X144466Y95568D03*
X157038Y108141D03*
X169610Y120713D03*
X182183Y133285D03*
X194755Y145858D03*
X207327Y158430D03*
X219900Y171002D03*
X232472Y183575D03*
X121476Y118558D03*
X109981Y130052D03*
X98307Y141727D03*
X109609Y154299D03*
X122182Y166871D03*
X134754Y179444D03*
X147327Y193286D03*
D21*
X11430Y147320D03*
X24130Y147320D03*
X36830Y147320D03*
X49530Y147320D03*
X62230Y139700D03*
X74930Y130810D03*
X86360Y120650D03*
X96520Y110490D03*
X107950Y99060D03*
X118110Y88900D03*
X134620Y87630D03*
X10160Y106680D03*
X22860Y106680D03*
X35560Y106680D03*
X48260Y106680D03*
X59690Y111760D03*
X69850Y104140D03*
X81280Y92710D03*
X92710Y82550D03*
X109220Y66040D03*
X135890Y64770D03*
X156210Y64770D03*
X249936Y154178D03*
X254000Y175260D03*
X254000Y190500D03*
X252730Y201930D03*
X237490Y215900D03*
X227330Y215900D03*
X212090Y215900D03*
X246380Y224790D03*
X255270Y233680D03*
X8382Y360426D03*
X21082Y360426D03*
X35052Y360426D03*
X46990Y360680D03*
X26162Y304038D03*
X62230Y361950D03*
X76200Y368300D03*
X87630Y379730D03*
X91440Y397510D03*
X91440Y414020D03*
X91440Y426720D03*
X91440Y436880D03*
X102870Y448310D03*
X113030Y458470D03*
X120650Y464820D03*
X8128Y385318D03*
X20066Y385826D03*
X31750Y386080D03*
X46736Y385318D03*
X60960Y387350D03*
X68580Y392430D03*
X69850Y405130D03*
X69850Y417830D03*
X69850Y430530D03*
X71120Y445770D03*
X78740Y455930D03*
X87630Y464820D03*
X97790Y473710D03*
X102870Y481330D03*
X190500Y421894D03*
X205740Y419100D03*
X223520Y419100D03*
X238760Y419100D03*
X250190Y407670D03*
X262890Y394970D03*
X249936Y481330D03*
X252730Y468630D03*
X252730Y455930D03*
X252730Y443230D03*
X252730Y433070D03*
X261620Y422910D03*
X270510Y414020D03*
X278130Y406400D03*
X304800Y379730D03*
X303530Y353060D03*
X283210Y576580D03*
X283210Y551180D03*
X283210Y525780D03*
X283210Y500380D03*
X283210Y474980D03*
X283210Y462280D03*
X283210Y450850D03*
X295910Y427990D03*
X309880Y415290D03*
X386080Y363220D03*
X323850Y425450D03*
X313690Y434340D03*
X302260Y455930D03*
X402590Y355600D03*
X431800Y419100D03*
X453390Y403860D03*
X464820Y416560D03*
X453390Y429260D03*
X459740Y455930D03*
X477520Y455930D03*
X480060Y469900D03*
X478790Y485140D03*
X478282Y505460D03*
X477520Y521970D03*
X477520Y544830D03*
X477520Y570230D03*
X461010Y570230D03*
X461010Y544830D03*
X300990Y576580D03*
X300990Y551180D03*
X300990Y525780D03*
X300990Y500380D03*
X300228Y482854D03*
X461010Y520700D03*
X461010Y503174D03*
X461010Y486410D03*
X274320Y588010D03*
X274320Y604520D03*
X274320Y619760D03*
X309880Y588010D03*
X309880Y603250D03*
X309880Y619760D03*
X452120Y593090D03*
X450850Y608330D03*
X452120Y624840D03*
X487680Y591820D03*
X487680Y607060D03*
X487680Y623570D03*
X411480Y330200D03*
X420370Y337820D03*
X429260Y339090D03*
X422910Y317500D03*
X436880Y317500D03*
X410980Y304300D03*
X429260Y297180D03*
X515620Y292100D03*
X527050Y293370D03*
X542290Y293370D03*
X560070Y293370D03*
X554990Y316230D03*
X569468Y316484D03*
X573024Y293624D03*
X585216Y292862D03*
X597408Y292862D03*
X610362Y292608D03*
X582422Y316738D03*
X595884Y316992D03*
X607314Y316992D03*
X284480Y57150D03*
X284480Y95250D03*
X284480Y149860D03*
X278892Y164084D03*
X284480Y177800D03*
X284480Y191770D03*
X292100Y203200D03*
X281940Y229870D03*
X289560Y240030D03*
X299720Y247650D03*
X281940Y260350D03*
X288290Y265430D03*
X285750Y370840D03*
X294640Y363220D03*
X299720Y120650D03*
X299720Y148590D03*
X300990Y86360D03*
X299720Y58420D03*
X302260Y179070D03*
X303530Y189230D03*
X320040Y205740D03*
X309880Y219710D03*
X340360Y227330D03*
X349250Y236220D03*
X328930Y238760D03*
X344170Y255270D03*
X376936Y232918D03*
X386080Y273050D03*
X411480Y274320D03*
X426720Y223520D03*
X435610Y213360D03*
X448310Y209550D03*
X459740Y199390D03*
X459740Y182880D03*
X468630Y252730D03*
X429260Y255270D03*
X462280Y222250D03*
X476250Y207010D03*
X479552Y185420D03*
X482092Y164846D03*
X481330Y143510D03*
X483108Y121412D03*
X483108Y96012D03*
X483108Y70612D03*
X483108Y45212D03*
X459740Y148590D03*
X459740Y135890D03*
X459740Y110490D03*
X459740Y85090D03*
X459740Y59690D03*
X620522Y316992D03*
X622300Y292862D03*
X26162Y227838D03*
X127762Y291338D03*
X76962Y253238D03*
X140462Y354838D03*
X191262Y304038D03*
X89662Y189738D03*
X64262Y507238D03*
X26162Y507238D03*
X76962Y596138D03*
X521462Y519938D03*
X521462Y558038D03*
X546862Y532638D03*
X521462Y227838D03*
X597662Y138938D03*
X508762Y138938D03*
X584962Y215138D03*
X338074Y317500D03*
X321056Y323342D03*
X321056Y313690D03*
X304292Y332994D03*
X303276Y302006D03*
X343916Y271018D03*
X462534Y317500D03*
X474980Y317500D03*
X493522Y317754D03*
X442214Y232410D03*
X451866Y392938D03*
X415290Y287528D03*
X350774Y284988D03*
X322580Y402590D03*
X335280Y389890D03*
X340360Y379730D03*
X356870Y363220D03*
X410210Y424180D03*
X347980Y402590D03*
X335280Y415290D03*
X322072Y497840D03*
X417322Y400050D03*
X419100Y367030D03*
X427990Y381000D03*
X440690Y393700D03*
X284480Y120650D03*
X188468Y216154D03*
X175006Y226822D03*
X164338Y229108D03*
X155956Y222250D03*
X148590Y213868D03*
X140208Y205232D03*
X243078Y99060D03*
X252222Y107188D03*
X259842Y115062D03*
X267462Y122682D03*
X267462Y134366D03*
X258318Y146050D03*
X253492Y165100D03*
X144780Y445516D03*
X142240Y435356D03*
X147828Y427482D03*
X153162Y422148D03*
X160020Y414020D03*
X168148Y407416D03*
X177038Y409702D03*
X240792Y527304D03*
X248412Y520954D03*
X256032Y513588D03*
X263144Y504698D03*
X260858Y494792D03*
X444246Y339852D03*
X444246Y294894D03*
X456438Y34036D03*
X279400Y30480D03*
X304038Y26924D03*
X484632Y17780D03*
X203200Y434594D03*
X237236Y468630D03*
X203454Y200152D03*
X236982Y167132D03*
D22*
X38100Y596900D03*
X596900Y596900D03*
X38100Y38100D03*
X596900Y38100D03*
D21*
X521462Y75438D03*
X386080Y243840D03*
X385572Y392430D03*
D23*
X382778Y65786D03*
X452374Y374142D03*
X452120Y261112D03*
X397510Y290068D03*
X366014Y291592D03*
X364490Y343408D03*
X369824Y569722D03*
X401320Y345440D03*
D24*
X409702Y345440D01*
X424942Y360680D02*
X484378Y360680D01*
X424942Y360680D02*
X409702Y345440D01*
D25*
X484378Y360680D03*
X376428Y286766D03*
D24*
X379730Y283464D01*
X379730Y270256D01*
X383286Y266700D01*
X394072Y264804D02*
X394072Y258826D01*
X392176Y266700D02*
X383286Y266700D01*
X392176Y266700D02*
X394072Y264804D01*
D25*
X373126Y281940D03*
D24*
X376310Y278756D01*
X376310Y259588D01*
X377072Y258826D01*
D25*
X371348Y352806D03*
D24*
X375548Y373262D02*
X375548Y380746D01*
X371348Y369062D02*
X371348Y352806D01*
X371348Y369062D02*
X375548Y373262D01*
D25*
X376682Y348742D03*
D24*
X376682Y366014D01*
X379984Y369316D01*
X382270Y371602D01*
X383286Y372618D01*
X389128Y372618D01*
X392548Y376038D01*
X392548Y380746D01*
M02*
