M48
;GenerationSoftware,Autodesk,EAGLE,9.6.2*%
;CreationDate,2020-09-30T14:13:47Z*%
FMAT,2
ICI,OFF
METRIC,TZ,000.000
T9C0.254
T8C0.350
T7C0.356
T6C0.508
T5C0.610
T4C0.800
T3C1.000
T2C1.020
T1C3.556
%
G90
M71
T1
X3810Y59690
X59690Y59690
X3810Y3810
X59690Y3810
T2
X42850Y17221
X40310Y17221
X54610Y44450
X49530Y44450
X35738Y45720
X33198Y45720
X43028Y45695
X40488Y45695
X33325Y17272
X35865Y17272
T3
X55880Y16510
X55880Y19050
T4
X52070Y39370
X49530Y39370
X54610Y39370
T5
X35560Y12700
X38100Y12700
X40640Y12700
X38100Y50800
X35560Y50800
X40640Y50800
T6
X15812Y13221
X17069Y14478
X18326Y15735
X19583Y16992
X20841Y18250
X22098Y19507
X14447Y9557
X15704Y10814
X16961Y12071
X18218Y13329
X18204Y50145
X20733Y15843
X21990Y17100
X23247Y18357
X12148Y11856
X10998Y13005
X9831Y14173
X10961Y15430
X12218Y16687
X13475Y17944
X14733Y19329
X19462Y48888
X20719Y47630
X21976Y46373
X23233Y45116
X18312Y47738
X19569Y46481
X20827Y45224
X22084Y43966
X16947Y51402
X15690Y52659
X14433Y53917
X17055Y48995
X15798Y50253
X14540Y51510
X13283Y52767
X15582Y55066
X19476Y14586
X16732Y56215
X17899Y57383
X19283Y56253
X20541Y54868
X21798Y53611
X23055Y52354
X13297Y10706
X14554Y11964
T7
X25273Y20193
X23749Y21590
X22733Y21590
X21209Y21590
X24638Y22479
X25527Y23368
X838Y36043
X2108Y36043
X3505Y36043
X4699Y36068
X2616Y30404
X6223Y36195
X7620Y36830
X8763Y37973
X9144Y39751
X9144Y41402
X9144Y42672
X9144Y43688
X10287Y44831
X11303Y45847
X12065Y46482
X813Y38532
X2007Y38583
X3175Y38608
X4674Y38532
X6096Y38735
X6858Y39243
X6985Y40513
X6985Y41783
X6985Y43053
X7112Y44577
X7874Y45593
X8763Y46482
X9779Y47371
X10287Y48133
X19050Y42189
X20574Y41910
X22352Y41910
X23876Y41910
X25019Y40767
X26289Y39497
X24994Y48133
X25273Y46863
X25273Y45593
X25273Y44323
X25273Y43307
X26162Y42291
X27051Y41402
X27813Y40640
X30480Y37973
X30353Y35306
X28321Y57658
X28321Y55118
X28321Y52578
X28321Y50038
X28321Y47498
X28321Y46228
X28321Y45085
X29591Y42799
X30988Y41529
X38608Y36322
X32385Y42545
X31369Y43434
X30226Y45593
X40259Y35560
X43180Y41910
X45339Y40386
X46482Y41656
X45339Y42926
X45974Y45593
X47752Y45593
X48006Y46990
X47879Y48514
X47828Y50546
X47752Y52197
X47752Y54483
X47752Y57023
X46101Y57023
X46101Y54483
X30099Y57658
X30099Y55118
X30099Y52578
X30099Y50038
X30023Y48285
X46101Y52070
X46101Y50317
X46101Y48641
X27432Y58801
X27432Y60452
X27432Y61976
X30988Y58801
X30988Y60325
X30988Y61976
X45212Y59309
X45085Y60833
X45212Y62484
X48768Y59182
X48768Y60706
X48768Y62357
X41148Y33020
X42037Y33782
X42926Y33909
X42291Y31750
X43688Y31750
X41098Y30430
X42926Y29718
X51562Y29210
X52705Y29337
X54229Y29337
X56007Y29337
X55499Y31623
X56947Y31648
X57302Y29362
X58522Y29286
X59741Y29286
X61036Y29261
X58242Y31674
X59588Y31699
X60731Y31699
X28448Y5715
X28448Y9525
X28448Y14986
X27889Y16408
X28448Y17780
X28448Y19177
X29210Y20320
X28194Y22987
X28956Y24003
X29972Y24765
X28194Y26035
X28829Y26543
X28575Y37084
X29464Y36322
X29972Y12065
X29972Y14859
X30099Y8636
X29972Y5842
X30226Y17907
X30353Y18923
X32004Y20574
X30988Y21971
X34036Y22733
X34925Y23622
X32893Y23876
X34417Y25527
X37694Y23292
X38608Y27305
X41148Y27432
X42672Y22352
X43561Y21336
X44831Y20955
X45974Y19939
X45974Y18288
X46863Y25273
X42926Y25527
X46228Y22225
X47625Y20701
X47955Y18542
X48209Y16485
X48133Y14351
X48311Y12141
X48311Y9601
X48311Y7061
X48311Y4521
X45974Y14859
X45974Y13589
X45974Y11049
X45974Y8509
X45974Y5969
X62052Y31699
X62230Y29286
X2616Y22784
X12776Y29134
X7696Y25324
X14046Y35484
X19126Y30404
X8966Y18974
X6426Y50724
X2616Y50724
X7696Y59614
X52146Y51994
X52146Y55804
X54686Y53264
X52146Y22784
X59766Y13894
X50876Y13894
X58496Y21514
X33807Y31750
X32106Y32334
X32106Y31369
X30429Y33299
X30328Y30201
X34392Y27102
X46253Y31750
X47498Y31750
X49352Y31775
X44221Y23241
X45187Y39294
X1143Y14732
X35077Y28499
X32258Y40259
X33528Y38989
X34036Y37973
X35687Y36322
X41021Y42418
X34798Y40259
X33528Y41529
X32207Y49784
X41732Y40005
X41910Y36703
X42799Y38100
X44069Y39370
X28448Y12065
X18847Y21615
X17501Y22682
X16434Y22911
X15596Y22225
X14859Y21387
X14021Y20523
X24308Y9906
X25222Y10719
X25984Y11506
X26746Y12268
X26746Y13437
X25832Y14605
X25349Y16510
X14478Y44552
X14224Y43536
X14783Y42748
X15316Y42215
X16002Y41402
X16815Y40742
X17704Y40970
X24079Y52730
X24841Y52095
X25603Y51359
X26314Y50470
X26086Y49479
X44425Y33985
X44425Y29489
X45644Y3404
X27940Y3048
X30404Y2692
X41529Y28753
X20320Y43459
X23724Y46863
X20345Y20015
X23698Y16713
X2413Y14732
X3683Y14732
X4953Y14732
X6223Y13970
X52146Y7544
X38608Y24384
X38557Y39243
X7493Y13081
X8636Y12065
X9652Y11049
X10795Y9906
X11811Y8890
X13462Y8763
X1016Y10668
X2286Y10668
X3556Y10668
X4826Y10668
X5969Y11176
X6985Y10414
X8128Y9271
X9271Y8255
X10922Y6604
X13589Y6477
X15621Y6477
X24994Y15418
X25400Y17526
X25400Y19050
X48463Y1778
T8
X38278Y6579
X45237Y37414
X45212Y26111
X39751Y29007
X36601Y29159
X36449Y34341
X36982Y56972
X40132Y34544
T9
X48438Y36068
X37643Y28677
X37313Y28194
X37135Y35281
X37668Y34874
M30