G04 EAGLE Gerber RS-274X export*
G75*
%MOMM*%
%FSLAX34Y34*%
%LPD*%
%INSoldermask Bottom*%
%IPPOS*%
%AMOC8*
5,1,8,0,0,1.08239X$1,22.5*%
G01*
%ADD10R,1.176200X1.076200*%
%ADD11R,5.156200X1.346200*%
%ADD12R,1.346200X5.156200*%
%ADD13C,0.990600*%
%ADD14C,1.276200*%
%ADD15C,1.606200*%
%ADD16R,2.616200X8.458200*%
%ADD17C,1.576200*%
%ADD18R,1.646200X1.646200*%
%ADD19C,1.646200*%
%ADD20C,0.838200*%
%ADD21C,6.426200*%

G36*
X337557Y597043D02*
X337557Y597043D01*
X337676Y597050D01*
X337714Y597063D01*
X337755Y597068D01*
X337865Y597111D01*
X337978Y597148D01*
X338013Y597170D01*
X338050Y597185D01*
X338146Y597255D01*
X338247Y597318D01*
X338275Y597348D01*
X338308Y597371D01*
X338384Y597463D01*
X338465Y597550D01*
X338485Y597585D01*
X338510Y597616D01*
X338561Y597724D01*
X338619Y597828D01*
X338629Y597868D01*
X338646Y597904D01*
X338668Y598021D01*
X338698Y598136D01*
X338702Y598197D01*
X338706Y598217D01*
X338704Y598237D01*
X338708Y598297D01*
X338708Y633730D01*
X338693Y633848D01*
X338686Y633967D01*
X338673Y634005D01*
X338668Y634046D01*
X338625Y634156D01*
X338588Y634269D01*
X338566Y634304D01*
X338551Y634341D01*
X338482Y634437D01*
X338418Y634538D01*
X338388Y634566D01*
X338365Y634599D01*
X338273Y634675D01*
X338186Y634756D01*
X338151Y634776D01*
X338120Y634801D01*
X338012Y634852D01*
X337908Y634910D01*
X337868Y634920D01*
X337832Y634937D01*
X337715Y634959D01*
X337600Y634989D01*
X337540Y634993D01*
X337520Y634997D01*
X337499Y634995D01*
X337439Y634999D01*
X313690Y634999D01*
X313572Y634984D01*
X313453Y634977D01*
X313415Y634964D01*
X313374Y634959D01*
X313264Y634916D01*
X313151Y634879D01*
X313116Y634857D01*
X313079Y634842D01*
X312983Y634773D01*
X312882Y634709D01*
X312854Y634679D01*
X312821Y634656D01*
X312746Y634564D01*
X312664Y634477D01*
X312644Y634442D01*
X312619Y634411D01*
X312568Y634303D01*
X312510Y634199D01*
X312500Y634159D01*
X312483Y634123D01*
X312461Y634006D01*
X312431Y633891D01*
X312427Y633831D01*
X312423Y633811D01*
X312425Y633790D01*
X312421Y633730D01*
X312421Y613410D01*
X312436Y613292D01*
X312443Y613173D01*
X312456Y613135D01*
X312461Y613094D01*
X312504Y612984D01*
X312541Y612871D01*
X312563Y612836D01*
X312578Y612799D01*
X312648Y612703D01*
X312711Y612602D01*
X312741Y612574D01*
X312764Y612541D01*
X312856Y612466D01*
X312943Y612384D01*
X312978Y612364D01*
X313009Y612339D01*
X313117Y612288D01*
X313221Y612230D01*
X313261Y612220D01*
X313297Y612203D01*
X313414Y612181D01*
X313529Y612151D01*
X313590Y612147D01*
X313610Y612143D01*
X313630Y612145D01*
X313690Y612141D01*
X329693Y612141D01*
X329693Y598297D01*
X329708Y598179D01*
X329715Y598060D01*
X329728Y598022D01*
X329733Y597981D01*
X329776Y597871D01*
X329813Y597758D01*
X329835Y597723D01*
X329850Y597686D01*
X329920Y597590D01*
X329983Y597489D01*
X330013Y597461D01*
X330036Y597428D01*
X330128Y597353D01*
X330215Y597271D01*
X330250Y597251D01*
X330281Y597226D01*
X330389Y597175D01*
X330493Y597117D01*
X330533Y597107D01*
X330569Y597090D01*
X330686Y597068D01*
X330801Y597038D01*
X330862Y597034D01*
X330882Y597030D01*
X330902Y597032D01*
X330962Y597028D01*
X337439Y597028D01*
X337557Y597043D01*
G37*
G36*
X515357Y597043D02*
X515357Y597043D01*
X515476Y597050D01*
X515514Y597063D01*
X515555Y597068D01*
X515665Y597111D01*
X515778Y597148D01*
X515813Y597170D01*
X515850Y597185D01*
X515946Y597255D01*
X516047Y597318D01*
X516075Y597348D01*
X516108Y597371D01*
X516184Y597463D01*
X516265Y597550D01*
X516285Y597585D01*
X516310Y597616D01*
X516361Y597724D01*
X516419Y597828D01*
X516429Y597868D01*
X516446Y597904D01*
X516468Y598021D01*
X516498Y598136D01*
X516502Y598197D01*
X516506Y598217D01*
X516504Y598237D01*
X516508Y598297D01*
X516508Y633730D01*
X516493Y633848D01*
X516486Y633967D01*
X516473Y634005D01*
X516468Y634046D01*
X516425Y634156D01*
X516388Y634269D01*
X516366Y634304D01*
X516351Y634341D01*
X516282Y634437D01*
X516218Y634538D01*
X516188Y634566D01*
X516165Y634599D01*
X516073Y634675D01*
X515986Y634756D01*
X515951Y634776D01*
X515920Y634801D01*
X515812Y634852D01*
X515708Y634910D01*
X515668Y634920D01*
X515632Y634937D01*
X515515Y634959D01*
X515400Y634989D01*
X515340Y634993D01*
X515320Y634997D01*
X515299Y634995D01*
X515239Y634999D01*
X491490Y634999D01*
X491372Y634984D01*
X491253Y634977D01*
X491215Y634964D01*
X491174Y634959D01*
X491064Y634916D01*
X490951Y634879D01*
X490916Y634857D01*
X490879Y634842D01*
X490783Y634773D01*
X490682Y634709D01*
X490654Y634679D01*
X490621Y634656D01*
X490546Y634564D01*
X490464Y634477D01*
X490444Y634442D01*
X490419Y634411D01*
X490368Y634303D01*
X490310Y634199D01*
X490300Y634159D01*
X490283Y634123D01*
X490261Y634006D01*
X490231Y633891D01*
X490227Y633831D01*
X490223Y633811D01*
X490225Y633790D01*
X490221Y633730D01*
X490221Y613410D01*
X490236Y613292D01*
X490243Y613173D01*
X490256Y613135D01*
X490261Y613094D01*
X490304Y612984D01*
X490341Y612871D01*
X490363Y612836D01*
X490378Y612799D01*
X490448Y612703D01*
X490511Y612602D01*
X490541Y612574D01*
X490564Y612541D01*
X490656Y612466D01*
X490743Y612384D01*
X490778Y612364D01*
X490809Y612339D01*
X490917Y612288D01*
X491021Y612230D01*
X491061Y612220D01*
X491097Y612203D01*
X491214Y612181D01*
X491329Y612151D01*
X491390Y612147D01*
X491410Y612143D01*
X491430Y612145D01*
X491490Y612141D01*
X507493Y612141D01*
X507493Y598297D01*
X507508Y598179D01*
X507515Y598060D01*
X507528Y598022D01*
X507533Y597981D01*
X507576Y597871D01*
X507613Y597758D01*
X507635Y597723D01*
X507650Y597686D01*
X507720Y597590D01*
X507783Y597489D01*
X507813Y597461D01*
X507836Y597428D01*
X507928Y597353D01*
X508015Y597271D01*
X508050Y597251D01*
X508081Y597226D01*
X508189Y597175D01*
X508293Y597117D01*
X508333Y597107D01*
X508369Y597090D01*
X508486Y597068D01*
X508601Y597038D01*
X508662Y597034D01*
X508682Y597030D01*
X508702Y597032D01*
X508762Y597028D01*
X515239Y597028D01*
X515357Y597043D01*
G37*
G36*
X633848Y436007D02*
X633848Y436007D01*
X633967Y436014D01*
X634005Y436027D01*
X634046Y436032D01*
X634156Y436075D01*
X634269Y436112D01*
X634304Y436134D01*
X634341Y436149D01*
X634437Y436219D01*
X634538Y436282D01*
X634566Y436312D01*
X634599Y436335D01*
X634675Y436427D01*
X634756Y436514D01*
X634776Y436549D01*
X634801Y436580D01*
X634852Y436688D01*
X634910Y436792D01*
X634920Y436832D01*
X634937Y436868D01*
X634959Y436985D01*
X634989Y437100D01*
X634993Y437161D01*
X634997Y437181D01*
X634995Y437201D01*
X634999Y437261D01*
X634999Y461010D01*
X634984Y461128D01*
X634977Y461247D01*
X634964Y461285D01*
X634959Y461326D01*
X634916Y461436D01*
X634879Y461549D01*
X634857Y461584D01*
X634842Y461621D01*
X634773Y461717D01*
X634709Y461818D01*
X634679Y461846D01*
X634656Y461879D01*
X634564Y461955D01*
X634477Y462036D01*
X634442Y462056D01*
X634411Y462081D01*
X634303Y462132D01*
X634199Y462190D01*
X634159Y462200D01*
X634123Y462217D01*
X634006Y462239D01*
X633891Y462269D01*
X633831Y462273D01*
X633811Y462277D01*
X633790Y462275D01*
X633730Y462279D01*
X613410Y462279D01*
X613292Y462264D01*
X613173Y462257D01*
X613135Y462244D01*
X613094Y462239D01*
X612984Y462196D01*
X612871Y462159D01*
X612836Y462137D01*
X612799Y462122D01*
X612703Y462053D01*
X612602Y461989D01*
X612574Y461959D01*
X612541Y461936D01*
X612466Y461844D01*
X612384Y461757D01*
X612364Y461722D01*
X612339Y461691D01*
X612288Y461583D01*
X612230Y461479D01*
X612220Y461439D01*
X612203Y461403D01*
X612181Y461286D01*
X612151Y461171D01*
X612147Y461111D01*
X612143Y461091D01*
X612145Y461070D01*
X612141Y461010D01*
X612141Y445007D01*
X598297Y445007D01*
X598179Y444992D01*
X598060Y444985D01*
X598022Y444972D01*
X597981Y444967D01*
X597871Y444924D01*
X597758Y444887D01*
X597723Y444865D01*
X597686Y444850D01*
X597590Y444781D01*
X597489Y444717D01*
X597461Y444687D01*
X597428Y444664D01*
X597353Y444572D01*
X597271Y444485D01*
X597251Y444450D01*
X597226Y444419D01*
X597175Y444311D01*
X597117Y444207D01*
X597107Y444167D01*
X597090Y444131D01*
X597068Y444014D01*
X597038Y443899D01*
X597034Y443839D01*
X597030Y443819D01*
X597032Y443798D01*
X597028Y443738D01*
X597028Y437261D01*
X597043Y437143D01*
X597050Y437024D01*
X597063Y436986D01*
X597068Y436945D01*
X597111Y436835D01*
X597148Y436722D01*
X597170Y436687D01*
X597185Y436650D01*
X597255Y436554D01*
X597318Y436453D01*
X597348Y436425D01*
X597371Y436392D01*
X597463Y436317D01*
X597550Y436235D01*
X597585Y436215D01*
X597616Y436190D01*
X597724Y436139D01*
X597828Y436081D01*
X597868Y436071D01*
X597904Y436054D01*
X598021Y436032D01*
X598136Y436002D01*
X598197Y435998D01*
X598217Y435994D01*
X598237Y435996D01*
X598297Y435992D01*
X633730Y435992D01*
X633848Y436007D01*
G37*
G36*
X270628Y16D02*
X270628Y16D01*
X270747Y23D01*
X270785Y36D01*
X270826Y41D01*
X270936Y84D01*
X271049Y121D01*
X271084Y143D01*
X271121Y158D01*
X271217Y228D01*
X271318Y291D01*
X271346Y321D01*
X271379Y344D01*
X271455Y436D01*
X271536Y523D01*
X271556Y558D01*
X271581Y589D01*
X271632Y697D01*
X271690Y801D01*
X271700Y841D01*
X271717Y877D01*
X271739Y994D01*
X271769Y1109D01*
X271773Y1170D01*
X271777Y1190D01*
X271775Y1210D01*
X271779Y1270D01*
X271779Y21590D01*
X271764Y21708D01*
X271757Y21827D01*
X271744Y21865D01*
X271739Y21906D01*
X271696Y22016D01*
X271659Y22129D01*
X271637Y22164D01*
X271622Y22201D01*
X271553Y22297D01*
X271489Y22398D01*
X271459Y22426D01*
X271436Y22459D01*
X271344Y22535D01*
X271257Y22616D01*
X271222Y22636D01*
X271191Y22661D01*
X271083Y22712D01*
X270979Y22770D01*
X270939Y22780D01*
X270903Y22797D01*
X270786Y22819D01*
X270671Y22849D01*
X270611Y22853D01*
X270591Y22857D01*
X270570Y22855D01*
X270510Y22859D01*
X254507Y22859D01*
X254507Y36703D01*
X254492Y36821D01*
X254485Y36940D01*
X254472Y36978D01*
X254467Y37019D01*
X254424Y37129D01*
X254387Y37242D01*
X254365Y37277D01*
X254350Y37314D01*
X254281Y37410D01*
X254217Y37511D01*
X254187Y37539D01*
X254164Y37572D01*
X254072Y37648D01*
X253985Y37729D01*
X253950Y37749D01*
X253919Y37774D01*
X253811Y37825D01*
X253707Y37883D01*
X253667Y37893D01*
X253631Y37910D01*
X253514Y37932D01*
X253399Y37962D01*
X253339Y37966D01*
X253319Y37970D01*
X253298Y37968D01*
X253238Y37972D01*
X246761Y37972D01*
X246643Y37957D01*
X246524Y37950D01*
X246486Y37937D01*
X246445Y37932D01*
X246335Y37889D01*
X246222Y37852D01*
X246187Y37830D01*
X246150Y37815D01*
X246054Y37746D01*
X245953Y37682D01*
X245925Y37652D01*
X245892Y37629D01*
X245817Y37537D01*
X245735Y37450D01*
X245715Y37415D01*
X245690Y37384D01*
X245639Y37276D01*
X245581Y37172D01*
X245571Y37132D01*
X245554Y37096D01*
X245532Y36979D01*
X245502Y36864D01*
X245498Y36804D01*
X245494Y36784D01*
X245496Y36763D01*
X245492Y36703D01*
X245492Y1270D01*
X245507Y1152D01*
X245514Y1033D01*
X245527Y995D01*
X245532Y954D01*
X245575Y844D01*
X245612Y731D01*
X245634Y696D01*
X245649Y659D01*
X245719Y563D01*
X245782Y462D01*
X245812Y434D01*
X245835Y401D01*
X245927Y326D01*
X246014Y244D01*
X246049Y224D01*
X246080Y199D01*
X246188Y148D01*
X246292Y90D01*
X246332Y80D01*
X246368Y63D01*
X246485Y41D01*
X246600Y11D01*
X246661Y7D01*
X246681Y3D01*
X246701Y5D01*
X246761Y1D01*
X270510Y1D01*
X270628Y16D01*
G37*
G36*
X448428Y16D02*
X448428Y16D01*
X448547Y23D01*
X448585Y36D01*
X448626Y41D01*
X448736Y84D01*
X448849Y121D01*
X448884Y143D01*
X448921Y158D01*
X449017Y228D01*
X449118Y291D01*
X449146Y321D01*
X449179Y344D01*
X449255Y436D01*
X449336Y523D01*
X449356Y558D01*
X449381Y589D01*
X449432Y697D01*
X449490Y801D01*
X449500Y841D01*
X449517Y877D01*
X449539Y994D01*
X449569Y1109D01*
X449573Y1170D01*
X449577Y1190D01*
X449575Y1210D01*
X449579Y1270D01*
X449579Y21590D01*
X449564Y21708D01*
X449557Y21827D01*
X449544Y21865D01*
X449539Y21906D01*
X449496Y22016D01*
X449459Y22129D01*
X449437Y22164D01*
X449422Y22201D01*
X449353Y22297D01*
X449289Y22398D01*
X449259Y22426D01*
X449236Y22459D01*
X449144Y22535D01*
X449057Y22616D01*
X449022Y22636D01*
X448991Y22661D01*
X448883Y22712D01*
X448779Y22770D01*
X448739Y22780D01*
X448703Y22797D01*
X448586Y22819D01*
X448471Y22849D01*
X448411Y22853D01*
X448391Y22857D01*
X448370Y22855D01*
X448310Y22859D01*
X432307Y22859D01*
X432307Y36703D01*
X432292Y36821D01*
X432285Y36940D01*
X432272Y36978D01*
X432267Y37019D01*
X432224Y37129D01*
X432187Y37242D01*
X432165Y37277D01*
X432150Y37314D01*
X432081Y37410D01*
X432017Y37511D01*
X431987Y37539D01*
X431964Y37572D01*
X431872Y37648D01*
X431785Y37729D01*
X431750Y37749D01*
X431719Y37774D01*
X431611Y37825D01*
X431507Y37883D01*
X431467Y37893D01*
X431431Y37910D01*
X431314Y37932D01*
X431199Y37962D01*
X431139Y37966D01*
X431119Y37970D01*
X431098Y37968D01*
X431038Y37972D01*
X424561Y37972D01*
X424443Y37957D01*
X424324Y37950D01*
X424286Y37937D01*
X424245Y37932D01*
X424135Y37889D01*
X424022Y37852D01*
X423987Y37830D01*
X423950Y37815D01*
X423854Y37746D01*
X423753Y37682D01*
X423725Y37652D01*
X423692Y37629D01*
X423617Y37537D01*
X423535Y37450D01*
X423515Y37415D01*
X423490Y37384D01*
X423439Y37276D01*
X423381Y37172D01*
X423371Y37132D01*
X423354Y37096D01*
X423332Y36979D01*
X423302Y36864D01*
X423298Y36804D01*
X423294Y36784D01*
X423296Y36763D01*
X423292Y36703D01*
X423292Y1270D01*
X423307Y1152D01*
X423314Y1033D01*
X423327Y995D01*
X423332Y954D01*
X423375Y844D01*
X423412Y731D01*
X423434Y696D01*
X423449Y659D01*
X423519Y563D01*
X423582Y462D01*
X423612Y434D01*
X423635Y401D01*
X423727Y326D01*
X423814Y244D01*
X423849Y224D01*
X423880Y199D01*
X423988Y148D01*
X424092Y90D01*
X424132Y80D01*
X424168Y63D01*
X424285Y41D01*
X424400Y11D01*
X424461Y7D01*
X424481Y3D01*
X424501Y5D01*
X424561Y1D01*
X448310Y1D01*
X448428Y16D01*
G37*
G36*
X337557Y16D02*
X337557Y16D01*
X337676Y23D01*
X337714Y36D01*
X337755Y41D01*
X337865Y84D01*
X337978Y121D01*
X338013Y143D01*
X338050Y158D01*
X338146Y228D01*
X338247Y291D01*
X338275Y321D01*
X338308Y344D01*
X338384Y436D01*
X338465Y523D01*
X338485Y558D01*
X338510Y589D01*
X338561Y697D01*
X338619Y801D01*
X338629Y841D01*
X338646Y877D01*
X338668Y994D01*
X338698Y1109D01*
X338702Y1170D01*
X338706Y1190D01*
X338704Y1210D01*
X338708Y1270D01*
X338708Y30226D01*
X338693Y30344D01*
X338686Y30463D01*
X338673Y30501D01*
X338668Y30542D01*
X338625Y30652D01*
X338588Y30765D01*
X338566Y30800D01*
X338551Y30837D01*
X338482Y30933D01*
X338418Y31034D01*
X338388Y31062D01*
X338365Y31095D01*
X338273Y31171D01*
X338186Y31252D01*
X338151Y31272D01*
X338120Y31297D01*
X338012Y31348D01*
X337908Y31406D01*
X337868Y31416D01*
X337832Y31433D01*
X337715Y31455D01*
X337600Y31485D01*
X337540Y31489D01*
X337520Y31493D01*
X337499Y31491D01*
X337439Y31495D01*
X330962Y31495D01*
X330844Y31480D01*
X330725Y31473D01*
X330687Y31460D01*
X330646Y31455D01*
X330536Y31412D01*
X330423Y31375D01*
X330388Y31353D01*
X330351Y31338D01*
X330255Y31269D01*
X330154Y31205D01*
X330126Y31175D01*
X330093Y31152D01*
X330018Y31060D01*
X329936Y30973D01*
X329916Y30938D01*
X329891Y30907D01*
X329840Y30799D01*
X329782Y30695D01*
X329772Y30655D01*
X329755Y30619D01*
X329733Y30502D01*
X329703Y30387D01*
X329699Y30327D01*
X329695Y30307D01*
X329697Y30286D01*
X329693Y30226D01*
X329693Y22859D01*
X313690Y22859D01*
X313572Y22844D01*
X313453Y22837D01*
X313415Y22824D01*
X313374Y22819D01*
X313264Y22776D01*
X313151Y22739D01*
X313116Y22717D01*
X313079Y22702D01*
X312983Y22633D01*
X312882Y22569D01*
X312854Y22539D01*
X312821Y22516D01*
X312746Y22424D01*
X312664Y22337D01*
X312644Y22302D01*
X312619Y22271D01*
X312568Y22163D01*
X312510Y22059D01*
X312500Y22019D01*
X312483Y21983D01*
X312461Y21866D01*
X312431Y21751D01*
X312427Y21691D01*
X312423Y21671D01*
X312424Y21661D01*
X312423Y21659D01*
X312424Y21644D01*
X312421Y21590D01*
X312421Y1270D01*
X312436Y1152D01*
X312443Y1033D01*
X312456Y995D01*
X312461Y954D01*
X312504Y844D01*
X312541Y731D01*
X312563Y696D01*
X312578Y659D01*
X312648Y563D01*
X312711Y462D01*
X312741Y434D01*
X312764Y401D01*
X312856Y326D01*
X312943Y244D01*
X312978Y224D01*
X313009Y199D01*
X313117Y148D01*
X313221Y90D01*
X313261Y80D01*
X313297Y63D01*
X313414Y41D01*
X313529Y11D01*
X313590Y7D01*
X313610Y3D01*
X313630Y5D01*
X313690Y1D01*
X337439Y1D01*
X337557Y16D01*
G37*
G36*
X515357Y16D02*
X515357Y16D01*
X515476Y23D01*
X515514Y36D01*
X515555Y41D01*
X515665Y84D01*
X515778Y121D01*
X515813Y143D01*
X515850Y158D01*
X515946Y228D01*
X516047Y291D01*
X516075Y321D01*
X516108Y344D01*
X516184Y436D01*
X516265Y523D01*
X516285Y558D01*
X516310Y589D01*
X516361Y697D01*
X516419Y801D01*
X516429Y841D01*
X516446Y877D01*
X516468Y994D01*
X516498Y1109D01*
X516502Y1170D01*
X516506Y1190D01*
X516504Y1210D01*
X516508Y1270D01*
X516508Y30226D01*
X516493Y30344D01*
X516486Y30463D01*
X516473Y30501D01*
X516468Y30542D01*
X516425Y30652D01*
X516388Y30765D01*
X516366Y30800D01*
X516351Y30837D01*
X516282Y30933D01*
X516218Y31034D01*
X516188Y31062D01*
X516165Y31095D01*
X516073Y31171D01*
X515986Y31252D01*
X515951Y31272D01*
X515920Y31297D01*
X515812Y31348D01*
X515708Y31406D01*
X515668Y31416D01*
X515632Y31433D01*
X515515Y31455D01*
X515400Y31485D01*
X515340Y31489D01*
X515320Y31493D01*
X515299Y31491D01*
X515239Y31495D01*
X508762Y31495D01*
X508644Y31480D01*
X508525Y31473D01*
X508487Y31460D01*
X508446Y31455D01*
X508336Y31412D01*
X508223Y31375D01*
X508188Y31353D01*
X508151Y31338D01*
X508055Y31269D01*
X507954Y31205D01*
X507926Y31175D01*
X507893Y31152D01*
X507818Y31060D01*
X507736Y30973D01*
X507716Y30938D01*
X507691Y30907D01*
X507640Y30799D01*
X507582Y30695D01*
X507572Y30655D01*
X507555Y30619D01*
X507533Y30502D01*
X507503Y30387D01*
X507499Y30327D01*
X507495Y30307D01*
X507497Y30286D01*
X507493Y30226D01*
X507493Y22859D01*
X491490Y22859D01*
X491372Y22844D01*
X491253Y22837D01*
X491215Y22824D01*
X491174Y22819D01*
X491064Y22776D01*
X490951Y22739D01*
X490916Y22717D01*
X490879Y22702D01*
X490783Y22633D01*
X490682Y22569D01*
X490654Y22539D01*
X490621Y22516D01*
X490546Y22424D01*
X490464Y22337D01*
X490444Y22302D01*
X490419Y22271D01*
X490368Y22163D01*
X490310Y22059D01*
X490300Y22019D01*
X490283Y21983D01*
X490261Y21866D01*
X490231Y21751D01*
X490227Y21691D01*
X490223Y21671D01*
X490224Y21661D01*
X490223Y21659D01*
X490224Y21644D01*
X490221Y21590D01*
X490221Y1270D01*
X490236Y1152D01*
X490243Y1033D01*
X490256Y995D01*
X490261Y954D01*
X490304Y844D01*
X490341Y731D01*
X490363Y696D01*
X490378Y659D01*
X490448Y563D01*
X490511Y462D01*
X490541Y434D01*
X490564Y401D01*
X490656Y326D01*
X490743Y244D01*
X490778Y224D01*
X490809Y199D01*
X490917Y148D01*
X491021Y90D01*
X491061Y80D01*
X491097Y63D01*
X491214Y41D01*
X491329Y11D01*
X491390Y7D01*
X491410Y3D01*
X491430Y5D01*
X491490Y1D01*
X515239Y1D01*
X515357Y16D01*
G37*
G36*
X253356Y603520D02*
X253356Y603520D01*
X253475Y603527D01*
X253513Y603540D01*
X253554Y603545D01*
X253664Y603588D01*
X253777Y603625D01*
X253812Y603647D01*
X253849Y603662D01*
X253945Y603732D01*
X254046Y603795D01*
X254074Y603825D01*
X254107Y603848D01*
X254183Y603940D01*
X254264Y604027D01*
X254284Y604062D01*
X254309Y604093D01*
X254360Y604201D01*
X254418Y604305D01*
X254428Y604345D01*
X254445Y604381D01*
X254467Y604498D01*
X254497Y604613D01*
X254501Y604674D01*
X254505Y604694D01*
X254503Y604714D01*
X254507Y604774D01*
X254507Y612141D01*
X270510Y612141D01*
X270628Y612156D01*
X270747Y612163D01*
X270785Y612176D01*
X270826Y612181D01*
X270936Y612224D01*
X271049Y612261D01*
X271084Y612283D01*
X271121Y612298D01*
X271217Y612368D01*
X271318Y612431D01*
X271346Y612461D01*
X271379Y612484D01*
X271455Y612576D01*
X271536Y612663D01*
X271556Y612698D01*
X271581Y612729D01*
X271632Y612837D01*
X271690Y612941D01*
X271700Y612981D01*
X271717Y613017D01*
X271739Y613134D01*
X271769Y613249D01*
X271773Y613310D01*
X271777Y613330D01*
X271775Y613350D01*
X271779Y613410D01*
X271779Y633730D01*
X271764Y633848D01*
X271757Y633967D01*
X271744Y634005D01*
X271739Y634046D01*
X271696Y634156D01*
X271659Y634269D01*
X271637Y634304D01*
X271622Y634341D01*
X271553Y634437D01*
X271489Y634538D01*
X271459Y634566D01*
X271436Y634599D01*
X271344Y634675D01*
X271257Y634756D01*
X271222Y634776D01*
X271191Y634801D01*
X271083Y634852D01*
X270979Y634910D01*
X270939Y634920D01*
X270903Y634937D01*
X270786Y634959D01*
X270671Y634989D01*
X270611Y634993D01*
X270591Y634997D01*
X270570Y634995D01*
X270510Y634999D01*
X246761Y634999D01*
X246643Y634984D01*
X246524Y634977D01*
X246486Y634964D01*
X246445Y634959D01*
X246335Y634916D01*
X246222Y634879D01*
X246187Y634857D01*
X246150Y634842D01*
X246054Y634773D01*
X245953Y634709D01*
X245925Y634679D01*
X245892Y634656D01*
X245817Y634564D01*
X245735Y634477D01*
X245715Y634442D01*
X245690Y634411D01*
X245639Y634303D01*
X245581Y634199D01*
X245571Y634159D01*
X245554Y634123D01*
X245532Y634006D01*
X245502Y633891D01*
X245498Y633831D01*
X245494Y633811D01*
X245496Y633790D01*
X245492Y633730D01*
X245492Y604774D01*
X245507Y604656D01*
X245514Y604537D01*
X245527Y604499D01*
X245532Y604458D01*
X245575Y604348D01*
X245612Y604235D01*
X245634Y604200D01*
X245649Y604163D01*
X245719Y604067D01*
X245782Y603966D01*
X245812Y603938D01*
X245835Y603905D01*
X245927Y603830D01*
X246014Y603748D01*
X246049Y603728D01*
X246080Y603703D01*
X246188Y603652D01*
X246292Y603594D01*
X246332Y603584D01*
X246368Y603567D01*
X246485Y603545D01*
X246600Y603515D01*
X246661Y603511D01*
X246681Y603507D01*
X246701Y603509D01*
X246761Y603505D01*
X253238Y603505D01*
X253356Y603520D01*
G37*
G36*
X431156Y603520D02*
X431156Y603520D01*
X431275Y603527D01*
X431313Y603540D01*
X431354Y603545D01*
X431464Y603588D01*
X431577Y603625D01*
X431612Y603647D01*
X431649Y603662D01*
X431745Y603732D01*
X431846Y603795D01*
X431874Y603825D01*
X431907Y603848D01*
X431983Y603940D01*
X432064Y604027D01*
X432084Y604062D01*
X432109Y604093D01*
X432160Y604201D01*
X432218Y604305D01*
X432228Y604345D01*
X432245Y604381D01*
X432267Y604498D01*
X432297Y604613D01*
X432301Y604674D01*
X432305Y604694D01*
X432303Y604714D01*
X432307Y604774D01*
X432307Y612141D01*
X448310Y612141D01*
X448428Y612156D01*
X448547Y612163D01*
X448585Y612176D01*
X448626Y612181D01*
X448736Y612224D01*
X448849Y612261D01*
X448884Y612283D01*
X448921Y612298D01*
X449017Y612368D01*
X449118Y612431D01*
X449146Y612461D01*
X449179Y612484D01*
X449255Y612576D01*
X449336Y612663D01*
X449356Y612698D01*
X449381Y612729D01*
X449432Y612837D01*
X449490Y612941D01*
X449500Y612981D01*
X449517Y613017D01*
X449539Y613134D01*
X449569Y613249D01*
X449573Y613310D01*
X449577Y613330D01*
X449575Y613350D01*
X449579Y613410D01*
X449579Y633730D01*
X449564Y633848D01*
X449557Y633967D01*
X449544Y634005D01*
X449539Y634046D01*
X449496Y634156D01*
X449459Y634269D01*
X449437Y634304D01*
X449422Y634341D01*
X449353Y634437D01*
X449289Y634538D01*
X449259Y634566D01*
X449236Y634599D01*
X449144Y634675D01*
X449057Y634756D01*
X449022Y634776D01*
X448991Y634801D01*
X448883Y634852D01*
X448779Y634910D01*
X448739Y634920D01*
X448703Y634937D01*
X448586Y634959D01*
X448471Y634989D01*
X448411Y634993D01*
X448391Y634997D01*
X448370Y634995D01*
X448310Y634999D01*
X424561Y634999D01*
X424443Y634984D01*
X424324Y634977D01*
X424286Y634964D01*
X424245Y634959D01*
X424135Y634916D01*
X424022Y634879D01*
X423987Y634857D01*
X423950Y634842D01*
X423854Y634773D01*
X423753Y634709D01*
X423725Y634679D01*
X423692Y634656D01*
X423617Y634564D01*
X423535Y634477D01*
X423515Y634442D01*
X423490Y634411D01*
X423439Y634303D01*
X423381Y634199D01*
X423371Y634159D01*
X423354Y634123D01*
X423332Y634006D01*
X423302Y633891D01*
X423298Y633831D01*
X423294Y633811D01*
X423296Y633790D01*
X423292Y633730D01*
X423292Y604774D01*
X423307Y604656D01*
X423314Y604537D01*
X423327Y604499D01*
X423332Y604458D01*
X423375Y604348D01*
X423412Y604235D01*
X423434Y604200D01*
X423449Y604163D01*
X423519Y604067D01*
X423582Y603966D01*
X423612Y603938D01*
X423635Y603905D01*
X423727Y603830D01*
X423814Y603748D01*
X423849Y603728D01*
X423880Y603703D01*
X423988Y603652D01*
X424092Y603594D01*
X424132Y603584D01*
X424168Y603567D01*
X424285Y603545D01*
X424400Y603515D01*
X424461Y603511D01*
X424481Y603507D01*
X424501Y603509D01*
X424561Y603505D01*
X431038Y603505D01*
X431156Y603520D01*
G37*
G36*
X633848Y502936D02*
X633848Y502936D01*
X633967Y502943D01*
X634005Y502956D01*
X634046Y502961D01*
X634156Y503004D01*
X634269Y503041D01*
X634304Y503063D01*
X634341Y503078D01*
X634437Y503148D01*
X634538Y503211D01*
X634566Y503241D01*
X634599Y503264D01*
X634675Y503356D01*
X634756Y503443D01*
X634776Y503478D01*
X634801Y503509D01*
X634852Y503617D01*
X634910Y503721D01*
X634920Y503761D01*
X634937Y503797D01*
X634959Y503914D01*
X634989Y504029D01*
X634993Y504090D01*
X634997Y504110D01*
X634995Y504130D01*
X634999Y504190D01*
X634999Y527939D01*
X634984Y528057D01*
X634977Y528176D01*
X634964Y528214D01*
X634959Y528255D01*
X634916Y528365D01*
X634879Y528478D01*
X634857Y528513D01*
X634842Y528550D01*
X634773Y528646D01*
X634709Y528747D01*
X634679Y528775D01*
X634656Y528808D01*
X634564Y528884D01*
X634477Y528965D01*
X634442Y528985D01*
X634411Y529010D01*
X634303Y529061D01*
X634199Y529119D01*
X634159Y529129D01*
X634123Y529146D01*
X634006Y529168D01*
X633891Y529198D01*
X633831Y529202D01*
X633811Y529206D01*
X633790Y529204D01*
X633730Y529208D01*
X604774Y529208D01*
X604656Y529193D01*
X604537Y529186D01*
X604499Y529173D01*
X604458Y529168D01*
X604348Y529125D01*
X604235Y529088D01*
X604200Y529066D01*
X604163Y529051D01*
X604067Y528982D01*
X603966Y528918D01*
X603938Y528888D01*
X603905Y528865D01*
X603830Y528773D01*
X603748Y528686D01*
X603728Y528651D01*
X603703Y528620D01*
X603652Y528512D01*
X603594Y528408D01*
X603584Y528368D01*
X603567Y528332D01*
X603545Y528215D01*
X603515Y528100D01*
X603511Y528040D01*
X603507Y528020D01*
X603509Y527999D01*
X603505Y527939D01*
X603505Y521462D01*
X603520Y521344D01*
X603527Y521225D01*
X603540Y521187D01*
X603545Y521146D01*
X603588Y521036D01*
X603625Y520923D01*
X603647Y520888D01*
X603662Y520851D01*
X603732Y520755D01*
X603795Y520654D01*
X603825Y520626D01*
X603848Y520593D01*
X603940Y520518D01*
X604027Y520436D01*
X604062Y520416D01*
X604093Y520391D01*
X604201Y520340D01*
X604305Y520282D01*
X604345Y520272D01*
X604381Y520255D01*
X604498Y520233D01*
X604613Y520203D01*
X604674Y520199D01*
X604694Y520195D01*
X604714Y520197D01*
X604774Y520193D01*
X612141Y520193D01*
X612141Y504190D01*
X612156Y504072D01*
X612163Y503953D01*
X612176Y503915D01*
X612181Y503874D01*
X612224Y503764D01*
X612261Y503651D01*
X612283Y503616D01*
X612298Y503579D01*
X612368Y503483D01*
X612431Y503382D01*
X612461Y503354D01*
X612484Y503321D01*
X612576Y503246D01*
X612663Y503164D01*
X612698Y503144D01*
X612729Y503119D01*
X612837Y503068D01*
X612941Y503010D01*
X612981Y503000D01*
X613017Y502983D01*
X613134Y502961D01*
X613249Y502931D01*
X613310Y502927D01*
X613330Y502923D01*
X613350Y502925D01*
X613410Y502921D01*
X633730Y502921D01*
X633848Y502936D01*
G37*
D10*
X375548Y380746D03*
X392548Y380746D03*
X377072Y258826D03*
X394072Y258826D03*
D11*
X609600Y525145D03*
X609600Y440055D03*
D12*
X427355Y609600D03*
X512445Y609600D03*
X249555Y609600D03*
X334645Y609600D03*
X512445Y25400D03*
X427355Y25400D03*
X334645Y25400D03*
X249555Y25400D03*
D13*
X355600Y127000D03*
X381000Y127000D03*
X406400Y127000D03*
X406400Y508000D03*
X381000Y508000D03*
X355600Y508000D03*
D14*
X520700Y393700D03*
X495300Y393700D03*
X546100Y393700D03*
D15*
X546100Y444500D03*
X495300Y444500D03*
D16*
X11430Y374904D03*
X12700Y127000D03*
X622300Y304800D03*
D17*
X566300Y165100D02*
X551300Y165100D01*
X551300Y190500D02*
X566300Y190500D01*
D18*
X357378Y457200D03*
D19*
X331978Y457200D03*
D18*
X430276Y456946D03*
D19*
X404876Y456946D03*
D18*
X333248Y172720D03*
D19*
X358648Y172720D03*
D18*
X403098Y172212D03*
D19*
X428498Y172212D03*
D20*
X194616Y488876D03*
X207188Y476303D03*
X219761Y463731D03*
X232333Y451159D03*
X183121Y477381D03*
X195694Y464809D03*
X208266Y452236D03*
X220838Y439664D03*
X182044Y501448D03*
X169471Y514020D03*
X156899Y526593D03*
X144327Y539165D03*
X170549Y489953D03*
X157977Y502526D03*
X145404Y515098D03*
X132832Y527670D03*
X155821Y550660D03*
X167316Y562155D03*
X178990Y573829D03*
X192833Y562527D03*
X205405Y548684D03*
X217977Y536112D03*
X230550Y523539D03*
X132971Y107063D03*
X145543Y119635D03*
X158116Y132208D03*
X170688Y144780D03*
X183260Y157352D03*
X195833Y169925D03*
X208405Y182497D03*
X220977Y195069D03*
X144466Y95568D03*
X157038Y108141D03*
X169610Y120713D03*
X182183Y133285D03*
X194755Y145858D03*
X207327Y158430D03*
X219900Y171002D03*
X232472Y183575D03*
X121476Y118558D03*
X109981Y130052D03*
X98307Y141727D03*
X109609Y154299D03*
X122182Y166871D03*
X134754Y179444D03*
X147327Y193286D03*
D21*
X38100Y596900D03*
X596900Y596900D03*
X38100Y38100D03*
X596900Y38100D03*
M02*
